<svg id="card-2-1" xmlns="http://www.w3.org/2000/svg" viewBox="0 0 444 666"><title>card-2-1</title><g id="card-2-1-cupcake"><ellipse id="shadow" cx="224.14" cy="499.68" rx="78.31" ry="12.07" fill="#d1d3d4" opacity="0.87"/><path d="M307.06,383.56c0-7.43-6-14.3-16.15-19.88a16.12,16.12,0,0,0,2.62-19,15.92,15.92,0,0,0-19-7.49,19.5,19.5,0,0,0,1.06-17.11c-3.19-7.53-10.46-10.28-16.25-6.13-1,.71-2,1.38-3,2a18.61,18.61,0,0,0,1-6c0-9.38-7.12-17.56-17.7-21.94-.29-8.87-15-26.66-15-26.66s1.31,9.43-2.72,15.72c-2.66,4.15-8.64,6.21-11.12,8.83-14.09,3.34-24.26,12.84-24.26,24a18.93,18.93,0,0,0,2,8.45,38.38,38.38,0,0,1-3.46-2.37c-5.59-4.52-12.94-2.31-16.44,5a19.44,19.44,0,0,0,.78,18,15.92,15.92,0,0,0-18.6,6.67A16.12,16.12,0,0,0,152,364.26c-9.51,5.48-15.1,12.13-15.1,19.29,0,5.42,3.2,10.54,8.86,15.08a42.08,42.08,0,0,0-1,8.92c0,31.19,34.42,56.47,76.89,56.47s76.88-25.28,76.88-56.47a42.23,42.23,0,0,0-.88-8.54C303.68,394.37,307.06,389.13,307.06,383.56Z" fill="#f8a3b0"/><path d="M188.86,318.37a30.08,30.08,0,0,0,2.93,4.53,44.87,44.87,0,0,0,3.49,4.06,51.41,51.41,0,0,0,3.9,3.6,45.65,45.65,0,0,0,4.25,3.1c.73.48,1.47.95,2.24,1.36s1.52.86,2.3,1.24,1.54.79,2.35,1.13,1.58.72,2.4,1c1.61.64,3.27,1.14,4.93,1.63s3.36.85,5.06,1.15c.84.19,1.7.33,2.56.43s1.71.26,2.58.34c1.73.14,3.45.33,5.2.33s3.48,0,5.22,0,3.49-.18,5.23-.26,3.48-.37,5.22-.57,3.47-.53,5.2-.84l5.18-1,5.16-1.2,15.59-3.63-12,10.45c-1.19,1-2.15,1.75-3.24,2.55s-2.13,1.51-3.22,2.21c-2.17,1.4-4.38,2.73-6.63,3.93s-4.57,2.3-6.89,3.33-4.68,2-7.06,2.87-4.77,1.71-7.19,2.46-4.87,1.38-7.32,2l-3.69.85-3.71.74c-2.48.45-5,.9-7.44,1.23s-5,.59-7.49.8-5,.35-7.5.48-5,.18-7.5.1l-3.74-.05-3.74-.17c-2.49-.06-5-.33-7.45-.54s-4.94-.56-7.4-.84-4.9-.79-7.34-1.17L152,364.49l.06-.45,7.33.84c2.45.2,4.9.44,7.35.61s4.91.31,7.36.36,4.91.15,7.37.11l3.68,0,3.68-.13c2.46-.06,4.91-.27,7.36-.42s4.9-.43,7.33-.74,4.87-.63,7.29-1,4.84-.87,7.24-1.37l3.6-.8,3.57-.91c2.37-.64,4.73-1.31,7.07-2.07s4.66-1.55,6.94-2.44,4.56-1.82,6.79-2.83,4.44-2.1,6.6-3.25,4.29-2.39,6.36-3.7a56.7,56.7,0,0,0,5.94-4.28l.38.72L260,343.84l-5.37,1c-1.8.28-3.61.49-5.41.74s-3.63.33-5.45.46-3.64.19-5.46.14-3.65,0-5.46-.2-3.63-.35-5.44-.57c-.91-.12-1.8-.31-2.7-.46s-1.79-.33-2.68-.56c-1.78-.39-3.53-.92-5.28-1.46s-3.44-1.23-5.1-2c-.85-.34-1.65-.77-2.47-1.18s-1.62-.85-2.4-1.31-1.57-.94-2.33-1.44-1.51-1-2.25-1.57a45.07,45.07,0,0,1-8-7.53,37,37,0,0,1-5.78-9.32Z" fill="#f68092"/><path d="M256.45,316a10.92,10.92,0,0,1-2.23,3.44,17.78,17.78,0,0,1-3.13,2.68,22.88,22.88,0,0,1-3.61,2,28.85,28.85,0,0,1-3.87,1.44,36,36,0,0,1-4,.91c-1.35.26-2.72.4-4.08.54s-2.73.2-4.1.23-2.74,0-4.1,0-2.73-.08-4.09-.24-2.72-.26-4.07-.46c-2.71-.35-5.39-.8-8.06-1.34-1.34-.25-2.67-.54-4-.85s-2.65-.6-4-.95-2.64-.65-3.94-1-2.61-.75-3.91-1.14l-9.43-2.83,9.86.2,4,.08c1.32,0,2.63,0,3.95-.05s2.62-.13,3.93-.21,2.61-.25,3.91-.4,2.58-.4,3.87-.61,2.54-.58,3.82-.86,2.51-.7,3.72-1.17l1.82-.67,1.77-.8c.6-.24,1.14-.6,1.72-.9a14,14,0,0,0,1.66-1,23.5,23.5,0,0,0,3.07-2.34,22,22,0,0,0,4.75-6.07,22.26,22.26,0,0,0,2.46-7.42,24.5,24.5,0,0,0-.06-7.93l.15,0a24.8,24.8,0,0,1,.37,8,22.94,22.94,0,0,1-2.23,7.71,20.72,20.72,0,0,1-2.1,3.43,22.8,22.8,0,0,1-2.68,3,24.49,24.49,0,0,1-3.14,2.51,14.86,14.86,0,0,1-1.69,1.08c-.59.32-1.14.7-1.76,1l-1.81.87-1.87.74c-1.24.52-2.54.84-3.8,1.26s-2.59.68-3.9.91-2.62.52-3.95.66-2.65.36-4,.44-2.66.24-4,.25-2.67.12-4,.09l-4,0,0-.29,3.89,1.12c1.29.39,2.6.7,3.9,1.06s2.61.67,3.93,1,2.63.62,3.95.87c2.64.55,5.29,1,8,1.4,1.33.2,2.67.36,4,.49s2.69.22,4,.32,2.69.11,4,.11,2.69,0,4-.14,2.69-.21,4-.43a34.92,34.92,0,0,0,4-.8,28.89,28.89,0,0,0,3.84-1.25,22.51,22.51,0,0,0,3.6-1.82,17.27,17.27,0,0,0,3.16-2.5,10.67,10.67,0,0,0,2.31-3.27Z" fill="#f68092"/><path d="M291,363.86,289.73,365c-.87.72-2.12,1.82-3.82,3.07a144.74,144.74,0,0,1-14.54,9.7c-3.12,1.83-6.54,3.77-10.27,5.59s-7.67,3.74-11.86,5.48c-2.1.84-4.22,1.75-6.42,2.55l-3.29,1.25-3.38,1.13c-4.52,1.51-9.17,2.85-13.85,4.11l-7.08,1.6c-2.37.45-4.72,1-7.07,1.35-4.7.84-9.37,1.34-13.89,1.76s-8.92.55-13.07.6c-2.08,0-4.1,0-6.05-.06l-5.65-.35c-3.61-.23-6.91-.67-9.82-1.06s-5.42-.87-7.48-1.32-3.66-.86-4.76-1.12l-1.67-.41.06-.45,6.49.75c2.07.23,4.59.36,7.48.59,1.44.11,3,.12,4.61.19s3.33.14,5.11.11l5.56,0,5.94-.25c4.07-.25,8.37-.59,12.79-1.13s9-1.23,13.57-2.09c2.3-.41,4.6-.94,6.92-1.41l6.92-1.65c4.6-1.19,9.19-2.44,13.64-3.87s8.8-2.95,13-4.5c8.33-3.18,15.93-6.6,22.32-9.79s11.56-6.14,15.11-8.31,5.51-3.52,5.51-3.52Z" fill="#f68092"/><path d="M146.38,398.49l1.67.35c1.09.23,2.7.47,4.74.82s4.54.68,7.41,1,6.09.83,9.65,1l11.45.89c4.07.27,8.37.32,12.81.5l6.77.23c1.14,0,2.29.1,3.45.1l3.49,0L222,403.3l7.11,0c2.36,0,4.71-.19,7-.28l13.7-.61c4.44-.22,8.74-.33,12.81-.63l11.45-1,23.64-2,0,.45-1.68.36c-1.1.22-2.7.6-4.75,1-4.1.79-10,1.87-17,2.94-3.54.55-7.37,1.15-11.44,1.67s-8.38.86-12.83,1.19-9.07.75-13.76,1c-2.35.12-4.71.3-7.08.36l-7.16.11-14.25-.05h-3.51c-1.16,0-2.33-.14-3.48-.21l-6.82-.45c-4.48-.29-8.79-.58-12.88-1.06s-7.94-1.06-11.49-1.59-6.78-1.23-9.64-1.81-5.34-1.15-7.37-1.76-3.61-1-4.67-1.39l-1.62-.56Z" fill="#f68092"/><path d="M299.7,396.41l-2.37,6.25-5.81-3.57-3.22,6.58-6.11-3.36h0l-4.46,6.14-6.83-3.19v0L265.68,411l-7.48-3-.07-.3,0,.27-6.51,5.72L243.83,410l0-.18V410l-6.9,5.23L229.37,411l0-.32V411l-7.18,4.8-7.29-4.59v.05l-7.43,4.45-7-5-7.68,3.86L186.13,409v.06l-7.39,3.23-5.34-5.61-6.73,3.37-4.59-6v0l-6,3.54-3.37-6.44,0,.12-5.37,3.81-2.78-6.94-2.16,4.27,22.63,84c.13,9.58,26.29,17,58.42,16.54s58.08-8.57,57.95-18.16l20.36-84.77Z" fill="#b1d5f1"/><path d="M296.54,421.46l-15.69,65.68s-9.87,19.3-77.52,15.1c-22.88-1.42-43.12-11-35.69-19.07,14.54-15.76,75.6-1.82,101.11-35.46C275.7,438.55,285.22,414.18,296.54,421.46Z" fill="#a1c2db"/><ellipse cx="162.42" cy="424.65" rx="7.64" ry="7.68" transform="translate(-5.88 2.29) rotate(-0.79)" fill="#fff"/><ellipse cx="208.45" cy="457.96" rx="7.64" ry="7.68" transform="translate(-6.34 2.94) rotate(-0.8)" fill="#fff"/><ellipse cx="173.28" cy="454.97" rx="7.64" ry="7.68" transform="translate(-6.31 2.45) rotate(-0.8)" fill="#fff"/><ellipse cx="248.29" cy="426.96" rx="7.64" ry="7.68" transform="translate(-5.92 3.5) rotate(-0.8)" fill="#fff"/><path d="M247.92,455a7.69,7.69,0,0,0-6.61,11.33,69,69,0,0,0,13.84-6.4A7.63,7.63,0,0,0,247.92,455Z" fill="#fff"/><path d="M248.13,470.32a7.67,7.67,0,0,0,7-10.43,69,69,0,0,1-13.84,6.4A7.63,7.63,0,0,0,248.13,470.32Z" fill="#e1dad5"/><ellipse cx="211.43" cy="431.65" rx="7.64" ry="7.68" transform="translate(-5.96 2.97) rotate(-0.79)" fill="#fff"/><ellipse cx="270.76" cy="479.73" rx="7.64" ry="7.68" transform="translate(-6.63 3.8) rotate(-0.79)" fill="#e1dad5"/><ellipse cx="224.14" cy="488.06" rx="7.64" ry="7.68" transform="translate(-6.74 3.15) rotate(-0.79)" fill="#e1dad5"/><ellipse cx="182.6" cy="485.57" rx="7.64" ry="7.68" transform="translate(-6.73 2.58) rotate(-0.8)" fill="#e1dad5"/><path d="M287.19,422a7.63,7.63,0,0,0-13.41,5.13,7.68,7.68,0,0,0,3.73,6.48C280.48,428.86,283.72,424.38,287.19,422Z" fill="#fff"/><path d="M289.05,426.91a7.66,7.66,0,0,0-1.86-4.91c-3.47,2.38-6.71,6.86-9.69,11.61a7.58,7.58,0,0,0,4,1.09A7.66,7.66,0,0,0,289.05,426.91Z" fill="#e1dad5"/></g></svg>