<svg id="card-3-2" xmlns="http://www.w3.org/2000/svg" viewBox="0 0 444 666"><title>card-3-2</title><g id="card-3-2-lines"><path d="M53.37,369l-38.46-.11h0a.91.91,0,0,0,0,1.83l38.47.11c0-.41,0-.82,0-1.23C53.36,369.41,53.37,369.21,53.37,369Z"/><path d="M22,403.47a.91.91,0,0,0,.15,1.81h.15l33-5.6c-.07-.6-.12-1.21-.19-1.82Z"/><path d="M42.73,435.69a.91.91,0,0,0,.32,1.77.84.84,0,0,0,.32-.06l18.15-6.69c-.16-.59-.35-1.17-.5-1.76Z"/><path d="M401.41,437a.86.86,0,0,0,.32.06.91.91,0,0,0,.32-1.77l-18.88-7.08c-.15.59-.32,1.18-.49,1.77Z"/><path d="M422.08,404.84h.16a.91.91,0,0,0,.16-1.81L389,397.18c-.07.6-.12,1.21-.2,1.82Z"/><path d="M429.09,368.47l-38.47-.11c0,.41,0,.83,0,1.24,0,.19,0,.39,0,.59l38.46.11h0a.91.91,0,0,0,0-1.83Z"/><path d="M422,335.74a.91.91,0,0,0,.75-1.06.89.89,0,0,0-1.05-.75l-33,5.61c.08.6.12,1.21.2,1.82Z"/><path d="M401.27,303.52a.91.91,0,0,0-.63-1.71l-18.15,6.7c.16.59.35,1.17.5,1.76Z"/><path d="M42.6,302.2a.9.9,0,0,0-1.18.53A.92.92,0,0,0,42,303.9L60.83,311c.16-.59.33-1.18.49-1.77Z"/><path d="M21.93,334.37a.89.89,0,0,0-1.06.74.91.91,0,0,0,.74,1.06L55,342c.07-.61.12-1.22.2-1.82Z"/></g><g id="card-3-2-letters"><path d="M138.53,340.57l-.12.43-.21,1q-.25,1.13-.27,1.25l-.78,7.15q-.19,1.8-.41,6.31a38.62,38.62,0,0,1-1.07,8.36,11.77,11.77,0,0,1-2.83,4.84q-4.65,4.9-9.9,4.9a5.66,5.66,0,0,1-4.22-1.72,5.89,5.89,0,0,1-1.68-4.29q0-5.25,6.43-10.36-1.37-1.08-1.37-3.79A14.93,14.93,0,0,1,126,344.42a11.93,11.93,0,0,1,9.18-4.36A8.65,8.65,0,0,1,138.53,340.57Zm-4.22,10.27q-5.27,8.05-9.55,8.05l-.62,0q-4.55,4.56-4.55,8.13a5.42,5.42,0,0,0,1.73,4.09,6,6,0,0,0,4.29,1.65,6.7,6.7,0,0,0,6.06-3.47q1.6-2.67,2.23-12.75Q134.13,352.69,134.31,350.84Zm.87-7.82a6,6,0,0,0-3.54-1q-2.68,0-4.52,3.36a17,17,0,0,0-1.85,8.26q0,2.54,1.5,2.54,1.72,0,4.2-2.66a14.31,14.31,0,0,0,3.95-8.36Z"/><path d="M148.89,352.76q.57.27.56.7,0,1.41-2.1,3.48T143.83,359q-1.62,0-1.62-2.34a24.75,24.75,0,0,1,.18-2.91l.21-1.74,1.51-13.59a18.75,18.75,0,0,1,4.27-10.37q3.56-4.16,8.21-4.16a8,8,0,0,1,1.91.2l-2.77,2.83a6.67,6.67,0,0,0-2.15-.31,5,5,0,0,0-4.38,2.06q-1.45,2.06-2,7L145.39,352q-.22,1.89-.21,2.71,0,1.76.6,1.76t1.69-1.16A7.46,7.46,0,0,0,148.89,352.76Z"/><path d="M165.77,350.82a26.68,26.68,0,0,1-5,5.8q-2.8,2.38-4.56,2.38-1.94,0-1.94-2.58a31.08,31.08,0,0,1,.25-3.14l.7-6.4q0-.13.1-1.13l.12-1.27a10,10,0,0,0,.06-1q0-1.13-.64-1.13-1.48,0-3.2,3.32a.81.81,0,0,1-.37-.62q0-1.21,2.16-3.22t3.43-2q1.62,0,1.62,2.23a11.4,11.4,0,0,1-.08,1.23l-.18,1.5-.17,1.64-.61,5.59a26.69,26.69,0,0,0-.16,2.89q0,1.35,1,1.35,2.2,0,5-3.63a15.56,15.56,0,0,0,3.28-7.19l.68-4.63,3.16-1.07q-.55,2.26-.82,4l-1.18,8.15q-.1.74-.16,1.25l-.14,1.07a13.74,13.74,0,0,0-.12,1.4q0,.84.47.84,1.66,0,3.38-3.65.53.31.53.63,0,.68-1.7,2.75Q168.35,359,166.4,359q-1.43,0-1.43-1.91a12.88,12.88,0,0,1,.14-1.62l.22-1.56q.18-1.27.24-1.72ZM160,337.29a4.93,4.93,0,0,0-1.84-2.19l2.32-2.19a5.08,5.08,0,0,1,1.74,2.19Zm6.31,0a4.93,4.93,0,0,0-1.84-2.19l2.32-2.19a5.08,5.08,0,0,1,1.74,2.19Z"/><path d="M187.65,340.32,185.43,343a7.83,7.83,0,0,0-3-.64,4.63,4.63,0,0,0-4,2.17,10.43,10.43,0,0,0-1.47,5.94,7.67,7.67,0,0,0,1.06,4.28,3.21,3.21,0,0,0,2.78,1.62q2.91,0,4.57-3.81a1.36,1.36,0,0,1,.43.88q0,1.62-2.53,3.6a7.78,7.78,0,0,1-4.64,2,4.07,4.07,0,0,1-3.33-1.63,6.58,6.58,0,0,1-1.3-4.23,14.05,14.05,0,0,1,3.44-9.2q3.44-4.14,7.64-4.14A6,6,0,0,1,187.65,340.32Z"/><path d="M194.64,346.21a15.13,15.13,0,0,1,3.68-4.57,6.63,6.63,0,0,1,4.07-1.84q2.5,0,2.5,2.58a6.2,6.2,0,0,1-2.08,4.5,12,12,0,0,1-5.5,2.94q3.71,6.64,5.53,6.64,1.31,0,2.75-2.27.45.33.45.64,0,.92-1.79,2.52a5.35,5.35,0,0,1-2.89,1.64q-2,.1-6.67-8.3l-.47-.88-.87,8L190.43,359l.06-.55.16-1.45.16-1.37,1.9-17.12a18.11,18.11,0,0,1,4.48-10.36q3.81-4.28,8.54-4.28a8.06,8.06,0,0,1,1.88.21l-2.87,2.81a7.39,7.39,0,0,0-2.11-.33q-5.8,0-6.81,9.07Zm-.35,3a9.18,9.18,0,0,0,5.23-1.41,4.13,4.13,0,0,0,2.1-3.5q0-2.1-1.48-2.1t-3,2A17.8,17.8,0,0,0,194.28,349.24Z"/><path d="M212.17,358.95a55.09,55.09,0,0,0-.64-8.6l-.64-4.13q-.55-3.53-1.87-3.63-1.48-.12-2.07,2.93a.76.76,0,0,1-.62-.78,5.24,5.24,0,0,1,1.4-3.2q1.4-1.72,2.57-1.72,1.72,0,2.71,2.83a48.15,48.15,0,0,1,1.69,9.73l.12,1.19A69.55,69.55,0,0,0,219.92,342l2.32-2.23q.23,2.64.45,4.08l.47,3.13.33,2.19.86,5,.47-.76q4.52-7.38,4.53-9.47a2.31,2.31,0,0,0-1.19-1.93l2.36-2.23a2.4,2.4,0,0,1,1.45,2.13q0,1.6-2.23,5.29l-1.19,2-1.46,2.56a28,28,0,0,0-2.31,4.9L222.42,359q-.27-3.52-1-7.4l-.33-1.84-.84-4.57-.91,1.68a65.86,65.86,0,0,0-4.2,9.36Z"/><path d="M247.1,350.82a26.68,26.68,0,0,1-5,5.8q-2.8,2.38-4.56,2.38-1.94,0-1.94-2.58a31.08,31.08,0,0,1,.25-3.14l.7-6.4q0-.13.1-1.13l.12-1.27a10,10,0,0,0,.06-1q0-1.13-.64-1.13-1.48,0-3.2,3.32a.81.81,0,0,1-.37-.62q0-1.21,2.16-3.22t3.43-2q1.62,0,1.62,2.23a11.4,11.4,0,0,1-.08,1.23l-.18,1.5-.17,1.64-.61,5.59a26.69,26.69,0,0,0-.16,2.89q0,1.35,1,1.35,2.2,0,5-3.63a15.56,15.56,0,0,0,3.28-7.19l.68-4.63,3.16-1.07q-.55,2.26-.82,4l-1.18,8.15q-.1.74-.16,1.25l-.14,1.07a13.74,13.74,0,0,0-.12,1.4q0,.84.47.84,1.66,0,3.38-3.65.53.31.53.63,0,.68-1.7,2.75-2.29,2.81-4.24,2.81-1.43,0-1.43-1.91a12.88,12.88,0,0,1,.14-1.62l.22-1.56q.18-1.27.24-1.72Zm-5.81-13.54a4.93,4.93,0,0,0-1.84-2.19l2.32-2.19a5.08,5.08,0,0,1,1.74,2.19Zm6.31,0a4.93,4.93,0,0,0-1.84-2.19l2.32-2.19a5.08,5.08,0,0,1,1.74,2.19Z"/><path d="M260.66,357.82,257.73,359l.06-.55.16-1.45.16-1.37,1-9.06.12-1q.12-1.21.12-2,0-1.25-.63-1.25-1.47,0-3.15,3.32-.45-.37-.45-.64,0-1.17,2.14-3.19t3.37-2q1.68,0,1.68,2.15a14.46,14.46,0,0,1-.1,1.46l-.16,1.58-.16,1.33-.16,1.39a25.72,25.72,0,0,1,5-5.67q2.74-2.24,4.68-2.24t1.89,2.63a20.58,20.58,0,0,1-.21,2.4l-1.06,7.28a24.94,24.94,0,0,0-.32,3.45q0,1,.55,1,1.35,0,3.33-3.57c.31.2.47.4.47.61q0,1.27-2.18,3.33T270.4,359q-1.52,0-1.53-2.19a33,33,0,0,1,.41-4.43l.69-4.73a27.2,27.2,0,0,0,.33-3.65q0-1.54-1.07-1.54-2.5,0-5.06,3.39a14.56,14.56,0,0,0-3,7.28Z"/><path d="M276.72,358l2.7-2.21a5,5,0,0,0,3.84,1.62q2.82,0,2.82-2.71,0-1.5-2.59-4.2l-1.12-1.15q-2.45-2.56-2.45-4.14a4.68,4.68,0,0,1,2-3.81,7.58,7.58,0,0,1,4.83-1.54,11.42,11.42,0,0,1,3.42.59l-2.34,2.17a5.37,5.37,0,0,0-3.3-1.11q-2.13,0-2.13,1.78,0,1.27,2.36,3.73l1.21,1.29q2.7,2.81,2.7,4.53a5.48,5.48,0,0,1-2.36,4.35,8.49,8.49,0,0,1-5.45,1.88A8.37,8.37,0,0,1,276.72,358Z"/><path d="M305.78,340.32,303.55,343a7.83,7.83,0,0,0-3-.64,4.63,4.63,0,0,0-4,2.17,10.43,10.43,0,0,0-1.47,5.94,7.67,7.67,0,0,0,1.06,4.28,3.21,3.21,0,0,0,2.78,1.62q2.91,0,4.57-3.81a1.36,1.36,0,0,1,.43.88q0,1.62-2.53,3.6a7.78,7.78,0,0,1-4.64,2,4.07,4.07,0,0,1-3.33-1.63,6.58,6.58,0,0,1-1.3-4.23,14.05,14.05,0,0,1,3.44-9.2q3.44-4.14,7.64-4.14A6,6,0,0,1,305.78,340.32Z"/><path d="M312.58,347.72a25.34,25.34,0,0,1,5-5.67q2.74-2.24,4.7-2.24t1.89,2.63a19.31,19.31,0,0,1-.23,2.4l-1,7.28a24.94,24.94,0,0,0-.32,3.45q0,1,.55,1,1.35,0,3.31-3.57.49.29.49.61,0,1.27-2.18,3.33T321.22,359q-1.52,0-1.52-2.19a33,33,0,0,1,.41-4.43l.68-4.73a27.67,27.67,0,0,0,.33-3.69q0-1.5-1.07-1.5-2.49,0-5,3.39a14.76,14.76,0,0,0-3,7.28l-.52,4.69L308.55,359l.06-.55.16-1.45.16-1.37,1.9-17.12a18.26,18.26,0,0,1,4.49-10.35q3.81-4.29,8.51-4.29a8.29,8.29,0,0,1,1.89.21l-2.87,2.81a7.39,7.39,0,0,0-2.11-.33q-5.8,0-6.81,9.07Z"/><path d="M99.5,454.5v-4.58h11.84v10.84a14.91,14.91,0,0,1-5,2.94A18.21,18.21,0,0,1,99.71,465a14.89,14.89,0,0,1-7.44-1.79,11.38,11.38,0,0,1-4.77-5.12,16.55,16.55,0,0,1-1.6-7.25,15.66,15.66,0,0,1,1.78-7.55,12,12,0,0,1,5.21-5.07,14.08,14.08,0,0,1,6.51-1.35q5.07,0,7.91,2.12a9.6,9.6,0,0,1,3.67,5.87l-5.46,1a5.76,5.76,0,0,0-2.16-3.16,6.53,6.53,0,0,0-4-1.16,7.44,7.44,0,0,0-5.72,2.28q-2.12,2.28-2.12,6.77,0,4.84,2.15,7.26a7.18,7.18,0,0,0,5.64,2.42,9.44,9.44,0,0,0,3.46-.68,11.85,11.85,0,0,0,3-1.64V454.5Z"/><path d="M116.41,464.5V437.3h20.17v4.6H121.9v6h13.66v4.58H121.9v7.4h15.2v4.58Z"/><path d="M141.77,437.3h10.87a31.34,31.34,0,0,1,4.81.27,7.08,7.08,0,0,1,2.84,1.12,7,7,0,0,1,2.09,2.27,6.16,6.16,0,0,1,.83,3.18,6.45,6.45,0,0,1-3.82,5.9,7.16,7.16,0,0,1,3.82,2.47,6.55,6.55,0,0,1,1.34,4.1,8.07,8.07,0,0,1-.86,3.61,7.26,7.26,0,0,1-2.36,2.8,7.78,7.78,0,0,1-3.68,1.29q-1.37.15-6.62.19h-9.26Zm5.49,4.53v6.29h3.6q3.21,0,4-.09a3.63,3.63,0,0,0,2.22-1,2.87,2.87,0,0,0,.81-2.12,3,3,0,0,0-.7-2,3.16,3.16,0,0,0-2.07-1q-.82-.09-4.69-.09Zm0,10.82v7.27h5.08a24.85,24.85,0,0,0,3.77-.17,3.4,3.4,0,0,0,2-1.09,3.34,3.34,0,0,0,.77-2.31,3.55,3.55,0,0,0-.59-2.08,3.36,3.36,0,0,0-1.72-1.24,18.65,18.65,0,0,0-4.87-.39Z"/><path d="M169.16,437.3h5.49V452a30.46,30.46,0,0,0,.2,4.55,4.4,4.4,0,0,0,1.68,2.68,5.84,5.84,0,0,0,3.63,1,5.54,5.54,0,0,0,3.53-1,3.78,3.78,0,0,0,1.43-2.35,30.69,30.69,0,0,0,.24-4.62v-15h5.49v14.29a36.71,36.71,0,0,1-.45,6.92,7.65,7.65,0,0,1-1.64,3.41,8.29,8.29,0,0,1-3.2,2.22,13.94,13.94,0,0,1-5.23.83,15.07,15.07,0,0,1-5.91-.9,8.44,8.44,0,0,1-3.18-2.34,7.49,7.49,0,0,1-1.54-3,33,33,0,0,1-.54-6.9Z"/><path d="M196.65,464.5V437.3h11.56a19.81,19.81,0,0,1,6.34.73,6.26,6.26,0,0,1,3.16,2.61,7.84,7.84,0,0,1,1.19,4.29,7.26,7.26,0,0,1-1.8,5.06,8.65,8.65,0,0,1-5.38,2.51,12.83,12.83,0,0,1,2.94,2.28,31.11,31.11,0,0,1,3.13,4.42l3.32,5.31h-6.57l-4-5.92a38.46,38.46,0,0,0-2.89-4,4.21,4.21,0,0,0-1.65-1.13,9,9,0,0,0-2.76-.31h-1.11V464.5Zm5.49-15.7h4.06a21,21,0,0,0,4.94-.33,3,3,0,0,0,1.54-1.15,3.54,3.54,0,0,0,.56-2,3.26,3.26,0,0,0-.73-2.22,3.37,3.37,0,0,0-2.07-1.07q-.67-.09-4-.09h-4.29Z"/><path d="M230.2,464.5V441.9h-8.07v-4.6h21.62v4.6h-8.05v22.6Z"/><path d="M245.9,455.65l5.34-.52a6.52,6.52,0,0,0,2,4,5.92,5.92,0,0,0,4,1.26,6.11,6.11,0,0,0,4-1.12,3.34,3.34,0,0,0,1.35-2.62A2.48,2.48,0,0,0,262,455a4.53,4.53,0,0,0-2-1.18q-1-.33-4.4-1.19-4.42-1.09-6.2-2.69a7.08,7.08,0,0,1-2.5-5.47,7,7,0,0,1,1.18-3.89,7.37,7.37,0,0,1,3.39-2.76,13.61,13.61,0,0,1,5.35-.95q5.12,0,7.71,2.25a7.92,7.92,0,0,1,2.72,6l-5.49.24a4.67,4.67,0,0,0-1.51-3,5.55,5.55,0,0,0-3.48-.92,6.28,6.28,0,0,0-3.75,1,2,2,0,0,0-.87,1.69,2.09,2.09,0,0,0,.82,1.65q1,.87,5,1.82a26.62,26.62,0,0,1,5.93,2,7.63,7.63,0,0,1,3,2.76,8.56,8.56,0,0,1-.21,8.71,7.79,7.79,0,0,1-3.67,3,15.42,15.42,0,0,1-5.92,1q-5.16,0-7.92-2.38A10.36,10.36,0,0,1,245.9,455.65Z"/><path d="M278.76,464.5V441.9h-8.07v-4.6H292.3v4.6h-8.05v22.6Z"/><path d="M317.56,464.5h-6l-2.37-6.18H298.33l-2.25,6.18h-5.83l10.59-27.2h5.81Zm-10.11-10.76-3.75-10.09L300,453.74Z"/><path d="M333.12,454.5v-4.58H345v10.84a14.91,14.91,0,0,1-5,2.94,18.21,18.21,0,0,1-6.63,1.27,14.89,14.89,0,0,1-7.44-1.79,11.38,11.38,0,0,1-4.77-5.12,16.54,16.54,0,0,1-1.6-7.25,15.66,15.66,0,0,1,1.78-7.55,12,12,0,0,1,5.21-5.07,14.08,14.08,0,0,1,6.51-1.35q5.07,0,7.91,2.12a9.6,9.6,0,0,1,3.66,5.87l-5.46,1a5.76,5.76,0,0,0-2.16-3.16,6.53,6.53,0,0,0-4-1.16,7.44,7.44,0,0,0-5.72,2.28q-2.12,2.28-2.12,6.77,0,4.84,2.15,7.26a7.18,7.18,0,0,0,5.64,2.42,9.44,9.44,0,0,0,3.46-.68,11.83,11.83,0,0,0,3-1.64V454.5Z"/><path d="M352,457.49l-1.35-13.8V437.3h5.64v6.38L355,457.49Zm-1.13,7v-5.21h5.21v5.21Z"/><path d="M83.06,401.59a26.72,26.72,0,0,1-5,5.8q-2.8,2.38-4.56,2.38-1.94,0-1.94-2.58a30.94,30.94,0,0,1,.25-3.14l.7-6.4q0-.13.1-1.13l.12-1.27a10,10,0,0,0,.06-1q0-1.13-.64-1.13-1.48,0-3.2,3.32a.81.81,0,0,1-.37-.62q0-1.21,2.16-3.22t3.43-2q1.62,0,1.62,2.23a11.4,11.4,0,0,1-.08,1.23l-.18,1.5-.17,1.64-.61,5.59a26.44,26.44,0,0,0-.16,2.89q0,1.35,1,1.35,2.2,0,5-3.63a15.56,15.56,0,0,0,3.28-7.19l.68-4.63,3.16-1.07q-.55,2.26-.82,4l-1.18,8.15q-.1.74-.16,1.25L85.37,405a13.85,13.85,0,0,0-.12,1.4q0,.84.47.84,1.66,0,3.38-3.65.53.31.53.63,0,.68-1.7,2.75-2.29,2.81-4.24,2.81-1.43,0-1.43-1.91a12.78,12.78,0,0,1,.14-1.62l.22-1.56q.18-1.27.24-1.72Z"/><path d="M96.61,408.59l-2.92,1.19.06-.55.16-1.45.16-1.37,1-9.06.12-1q.12-1.21.12-2,0-1.25-.63-1.25-1.47,0-3.15,3.32-.45-.37-.45-.64,0-1.17,2.14-3.19t3.37-2q1.68,0,1.68,2.15a14.6,14.6,0,0,1-.1,1.46L98,395.77l-.16,1.33-.16,1.39a25.71,25.71,0,0,1,5-5.67q2.74-2.24,4.68-2.24t1.89,2.63a20.58,20.58,0,0,1-.21,2.4l-1.06,7.28a25,25,0,0,0-.32,3.45q0,1,.55,1,1.35,0,3.33-3.57c.31.2.47.4.47.61q0,1.27-2.18,3.33t-3.55,2.06q-1.53,0-1.53-2.19a33,33,0,0,1,.41-4.43l.69-4.73a27,27,0,0,0,.33-3.65q0-1.54-1.07-1.54-2.5,0-5.06,3.39a14.56,14.56,0,0,0-3,7.28Z"/><path d="M127,390.87l.19-1.68a18.68,18.68,0,0,1,4.27-10.39,10.63,10.63,0,0,1,8.22-4.14,8.22,8.22,0,0,1,1.92.2l-2.78,2.83a6.76,6.76,0,0,0-2.17-.31,5,5,0,0,0-4.38,2q-1.45,2-2,7l-1.8,16.28-.14,1.23q-.18,1.66-.18,2.36,0,1,.51,1,1.62,0,3.26-3.65.53.31.53.63a6.63,6.63,0,0,1-1.58,2.75q-2.21,2.81-4.14,2.81-1.5,0-1.5-2.07,0-.76.23-3l.2-1.72.14-1.45a17.12,17.12,0,0,1-4.3,5.6q-3,2.67-4.9,2.67-2.75,0-2.75-4.32a15.27,15.27,0,0,1,3.81-10.14q3.8-4.49,8.59-4.49Zm-.31,2.81a6.36,6.36,0,0,0-3-.9q-2.89,0-4.77,3.28a16.58,16.58,0,0,0-1.88,8.33q0,2.53,1.48,2.54,1.8,0,4.22-2.65a14.43,14.43,0,0,0,3.71-8.39Z"/><path d="M157.68,401.52a25.19,25.19,0,0,1-4.85,5.95q-2.64,2.31-4.59,2.31-2.67,0-2.67-4.32a14.9,14.9,0,0,1,3.9-10.28,12,12,0,0,1,9.23-4.35,10.34,10.34,0,0,1,3.46.51l-.12.43-.23,1q-.23,1.07-.25,1.25l-1.25,8.62-.18,1.25a23,23,0,0,0-.25,2.48q0,.84.49.84,1.63,0,3.34-3.65.53.31.53.63,0,.68-1.68,2.75-2.29,2.81-4.24,2.81-1.43,0-1.43-1.91a13.1,13.1,0,0,1,.14-1.62l.2-1.56.25-1.72Zm1.12-7.74a7.31,7.31,0,0,0-3.6-1q-2.74,0-4.59,3.34a16.8,16.8,0,0,0-1.86,8.27q0,2.53,1.5,2.54,1.74,0,4.2-2.65a15.28,15.28,0,0,0,4-8.39Z"/><path d="M174,403.53q.57.27.56.7,0,1.41-2.1,3.48t-3.53,2.07q-1.62,0-1.62-2.34a24.75,24.75,0,0,1,.18-2.91l.21-1.74,1.51-13.59a18.75,18.75,0,0,1,4.27-10.37q3.56-4.16,8.21-4.16a8,8,0,0,1,1.91.2l-2.77,2.83a6.67,6.67,0,0,0-2.15-.31,5,5,0,0,0-4.38,2.06q-1.45,2.06-2,7l-1.81,16.36q-.22,1.89-.21,2.71,0,1.76.6,1.76t1.69-1.16A7.46,7.46,0,0,0,174,403.53Z"/><path d="M184.67,403.53q.57.27.56.7,0,1.41-2.1,3.48t-3.53,2.07q-1.62,0-1.62-2.34a24.75,24.75,0,0,1,.18-2.91l.21-1.74,1.51-13.59a18.75,18.75,0,0,1,4.27-10.37q3.56-4.16,8.21-4.16a8,8,0,0,1,1.91.2l-2.77,2.83a6.67,6.67,0,0,0-2.15-.31,5,5,0,0,0-4.38,2.06q-1.45,2.06-2,7l-1.81,16.36q-.22,1.89-.21,2.71,0,1.76.6,1.76t1.69-1.16A7.46,7.46,0,0,0,184.67,403.53Z"/><path d="M199.27,403.06a1,1,0,0,1,.49.78,4.38,4.38,0,0,1-1.25,2.07q-3.34,3.87-6.6,3.87a4.05,4.05,0,0,1-3.28-1.58,6.19,6.19,0,0,1-1.29-4,15.18,15.18,0,0,1,3.37-9q3.37-4.56,6.67-4.56,2.38,0,2.38,2.56a7.93,7.93,0,0,1-2.78,5.61,15.06,15.06,0,0,1-6.79,3.81q.39,4.69,3.71,4.69T199.27,403.06Zm-9-2.89a3.19,3.19,0,0,0,1,.2,6.49,6.49,0,0,0,4.24-1.48,4.39,4.39,0,0,0,1.82-3.48,2,2,0,0,0-2.32-2.29,3.77,3.77,0,0,0-3,2A11.31,11.31,0,0,0,190.27,400.17Z"/><path d="M201,408.72l2.7-2.21a5,5,0,0,0,3.84,1.62q2.82,0,2.82-2.71,0-1.5-2.59-4.2l-1.12-1.15q-2.45-2.56-2.45-4.14a4.68,4.68,0,0,1,2-3.81,7.58,7.58,0,0,1,4.83-1.54,11.42,11.42,0,0,1,3.42.59l-2.34,2.17a5.37,5.37,0,0,0-3.3-1.11q-2.13,0-2.13,1.78,0,1.27,2.36,3.73l1.21,1.29q2.7,2.81,2.7,4.53a5.48,5.48,0,0,1-2.36,4.35,8.49,8.49,0,0,1-5.45,1.88A8.37,8.37,0,0,1,201,408.72Z"/><path d="M243.82,391.34l-.12.43-.21,1q-.25,1.13-.27,1.25l-.78,7.15q-.19,1.8-.41,6.31a38.62,38.62,0,0,1-1.07,8.36,11.77,11.77,0,0,1-2.83,4.84q-4.65,4.9-9.9,4.9A5.66,5.66,0,0,1,224,423.9a5.89,5.89,0,0,1-1.68-4.29q0-5.25,6.43-10.36-1.37-1.08-1.37-3.79a14.93,14.93,0,0,1,3.89-10.27,11.93,11.93,0,0,1,9.18-4.36A8.65,8.65,0,0,1,243.82,391.34Zm-4.22,10.27q-5.27,8.05-9.54,8.05l-.62,0q-4.55,4.56-4.55,8.13a5.42,5.42,0,0,0,1.73,4.09,6,6,0,0,0,4.29,1.65A6.71,6.71,0,0,0,237,420q1.6-2.67,2.23-12.75Q239.43,403.46,239.6,401.61Zm.87-7.82a6,6,0,0,0-3.54-1q-2.68,0-4.52,3.36a17,17,0,0,0-1.85,8.26q0,2.54,1.5,2.54,1.72,0,4.2-2.66a14.3,14.3,0,0,0,3.95-8.36Z"/><path d="M260.4,401.59a26.68,26.68,0,0,1-5,5.8q-2.8,2.38-4.56,2.38-1.94,0-1.94-2.58a31.08,31.08,0,0,1,.25-3.14l.7-6.4q0-.13.1-1.13l.12-1.27a10,10,0,0,0,.06-1q0-1.13-.64-1.13-1.48,0-3.2,3.32a.81.81,0,0,1-.37-.62q0-1.21,2.16-3.22t3.43-2q1.62,0,1.62,2.23A11.4,11.4,0,0,1,253,394l-.18,1.5-.17,1.64-.61,5.59a26.69,26.69,0,0,0-.16,2.89q0,1.35,1,1.35,2.2,0,5-3.63a15.56,15.56,0,0,0,3.28-7.19l.68-4.63,3.16-1.07q-.55,2.26-.82,4L263,402.67q-.1.74-.16,1.25l-.14,1.07a13.74,13.74,0,0,0-.12,1.4q0,.84.47.84,1.66,0,3.38-3.65.53.31.53.63,0,.68-1.7,2.75-2.29,2.81-4.24,2.81-1.43,0-1.43-1.91a12.88,12.88,0,0,1,.14-1.62l.22-1.56q.18-1.27.24-1.72Z"/><path d="M274.79,393.35l-.95,8.63q-.25,2.32-.25,3.44,0,2.21,1.5,2.21t3.35-2.66a1.13,1.13,0,0,1,.29.66q0,1.09-1.92,2.62a5.74,5.74,0,0,1-3.31,1.52q-2.77,0-2.77-3.55a42.49,42.49,0,0,1,.33-4.24l.94-8.63h-4.1l2.27-2.27h2.08l.41-3.55,2.88-1-.47,4.51h8.28L281,393.35Z"/><path d="M294.41,403.06a1,1,0,0,1,.49.78,4.38,4.38,0,0,1-1.25,2.07q-3.34,3.87-6.6,3.87a4.05,4.05,0,0,1-3.28-1.58,6.19,6.19,0,0,1-1.29-4,15.18,15.18,0,0,1,3.37-9q3.37-4.56,6.67-4.56,2.38,0,2.38,2.56a7.93,7.93,0,0,1-2.78,5.61,15.06,15.06,0,0,1-6.79,3.81q.39,4.69,3.71,4.69T294.41,403.06Zm-9-2.89a3.19,3.19,0,0,0,1,.2,6.49,6.49,0,0,0,4.24-1.48,4.39,4.39,0,0,0,1.82-3.48,2,2,0,0,0-2.32-2.29,3.77,3.77,0,0,0-3,2A11.31,11.31,0,0,0,285.41,400.17Z"/><path d="M307.36,409.66l1.62-3.12q1.11-1.17,2.15-2.5l1.25-1.54q.63-.8,1-1.19l.9-1.09q.43-.53,1.37-1.76l1.76-2.26,1.5-2q.16-.18.45-.55l-.57,0A14.56,14.56,0,0,1,315,393l-.7-.2-.59-.2a3.59,3.59,0,0,0-1-.16q-1.37,0-1.37,1.54a2.59,2.59,0,0,0,.31,1.19l-2.27,2a9.32,9.32,0,0,1-.08-1,5.74,5.74,0,0,1,1.51-4,4.63,4.63,0,0,1,3.54-1.69,7.93,7.93,0,0,1,1.39.16l1.13.2.94.14a16,16,0,0,0,2.27.27,8.31,8.31,0,0,0,3.07-.64l-1.7,3.13q-1.45,1.6-2.95,3.46L317,399.21l-1.37,1.7-.9,1.11-.82,1q-1.13,1.39-1.27,1.58l-.94,1.35q-.16.22-.72.9a17,17,0,0,1,1.78-.12,20.93,20.93,0,0,1,2.79.21l1.27.17,1.19.15a10.62,10.62,0,0,0,1.43.09,3.09,3.09,0,0,0,2.66-1.13.85.85,0,0,1,.33.57,2.58,2.58,0,0,1-1.11,1.94,3.62,3.62,0,0,1-2.34.93,13.59,13.59,0,0,1-1.43-.09l-1.27-.11-1.15-.07q-1.43-.11-2.79-.11A28.42,28.42,0,0,0,307.36,409.66Z"/><path d="M339.13,401.59a26.68,26.68,0,0,1-5,5.8q-2.8,2.38-4.56,2.38-1.94,0-1.94-2.58a31.08,31.08,0,0,1,.25-3.14l.7-6.4q0-.13.1-1.13l.12-1.27a10,10,0,0,0,.06-1q0-1.13-.64-1.13-1.48,0-3.2,3.32a.81.81,0,0,1-.37-.62q0-1.21,2.16-3.22t3.43-2q1.62,0,1.62,2.23a11.4,11.4,0,0,1-.08,1.23l-.18,1.5-.17,1.64-.61,5.59a26.69,26.69,0,0,0-.16,2.89q0,1.35,1,1.35,2.2,0,5-3.63a15.56,15.56,0,0,0,3.28-7.19l.68-4.63,3.16-1.07q-.55,2.26-.82,4l-1.18,8.15q-.1.74-.16,1.25l-.14,1.07a13.74,13.74,0,0,0-.12,1.4q0,.84.47.84,1.66,0,3.38-3.65.53.31.53.63,0,.68-1.7,2.75-2.29,2.81-4.24,2.81-1.43,0-1.43-1.91a12.88,12.88,0,0,1,.14-1.62l.22-1.56q.18-1.27.24-1.72Z"/><path d="M362.67,408.59l-2.9,1.19.06-.55.16-1.45.14-1.37,1-8.77.14-1q.08-.78.08-1.52,0-1.89-1.15-1.89-1.8,0-4.19,3.67a16.28,16.28,0,0,0-2.77,7l-.5,4.69-2.92,1.19.06-.55.16-1.45.16-1.37,1-9.06.12-1a18.3,18.3,0,0,0,.14-2q0-1.25-.63-1.25-1.47,0-3.17,3.32-.45-.37-.45-.64,0-1.17,2.14-3.19t3.39-2q1.68,0,1.68,2.15a14.46,14.46,0,0,1-.1,1.46l-.16,1.58L354,397.1l-.16,1.39.55-.86q4.38-7.05,8.15-7.05,1.82,0,1.82,2.62,0,.45-.16,1.89l-.2,1.8-.27,2.44a22.64,22.64,0,0,1,4.3-6.26q2.49-2.49,4.44-2.49t1.93,2.5a17.49,17.49,0,0,1-.22,2.56l-1,7.25a24.54,24.54,0,0,0-.35,3.48q0,1,.57,1t1.68-1.11a9.09,9.09,0,0,0,1.62-2.52q.53.35.53.64,0,1.23-2.19,3.3t-3.48,2.07q-1.67,0-1.67-2.23a33.66,33.66,0,0,1,.43-4.36l.7-4.71q0-.25.14-1.11,0-.35.14-1.19a12.19,12.19,0,0,0,.1-1.29q0-1.66-1.09-1.66-1.83,0-4.25,3.67a16.09,16.09,0,0,0-2.79,7Z"/></g><g id="card-3-2-banner"><path d="M102.47,306.79l-13.94-25,3.31-1.85,5.73,10.27,13-7.25-5.73-10.27,3.31-1.84,13.95,25-3.31,1.85-6.57-11.79-13,7.25L105.78,305Z"/><path d="M127,293.91l-9.5-27L137,260l1.12,3.19-16,5.61,2.91,8.27L140,271.84l1.11,3.17-14.94,5.26,3.23,9.19L146,283.63l1.12,3.19Z"/><path d="M151.44,285.67l-5.94-28L157.92,255a16.92,16.92,0,0,1,5.85-.45,6.37,6.37,0,0,1,3.68,2,8.13,8.13,0,0,1,2.06,4,7.21,7.21,0,0,1-.87,5.43,10,10,0,0,1-5.41,3.86,9.79,9.79,0,0,1,2.53.92,19.65,19.65,0,0,1,3.87,3.07l6.49,6.59-4.66,1-4.94-5q-2.16-2.18-3.49-3.29a8.6,8.6,0,0,0-2.28-1.47,5.69,5.69,0,0,0-1.85-.39,11.43,11.43,0,0,0-2.09.3l-4.3.91,2.64,12.44Zm.39-16.43,8-1.69a12.2,12.2,0,0,0,3.86-1.37,4.32,4.32,0,0,0,1.82-2.14,4.65,4.65,0,0,0,.21-2.67,4.26,4.26,0,0,0-2.14-3,6.89,6.89,0,0,0-4.83-.31L149.87,260Z"/><path d="M176.78,280.5l-.37-3.5,12.67-19.77q1.35-2.1,2.6-3.69l-15.89,1.67-.35-3.36,20.39-2.14.35,3.36L182.28,274.5l-1.52,2.18,18.18-1.91.35,3.36Z"/><path d="M202.67,278.05l-.73-28.62,3.79-.1.64,25.25,14.1-.36.09,3.38Z"/><path d="M225.35,277.81l.66-28.62,3.79.09-.66,28.63Z"/><path d="M263.63,280.68,269,252.55l3.72.71-2.2,11.55,14.62,2.79,2.2-11.55,3.72.71-5.36,28.13-3.72-.71,2.53-13.26-14.62-2.79-2.53,13.26Z"/><path d="M291.16,286.28l8.54-27.33,19.76,6.17-1,3.23-16.14-5-2.62,8.37,15.12,4.72-1,3.21-15.12-4.72-2.91,9.3,16.78,5.24-1,3.23Z"/><path d="M315.57,294.13l12.22-25.89,3.51,1.66,4,26.75,9.6-20.33,3.28,1.55L336,303.75l-3.51-1.66-4-26.77-9.61,20.35Z"/><path d="M256.66,269.74l3.69,1.28a12.74,12.74,0,0,1-4.89,6.72,11.81,11.81,0,0,1-7.75,1.78,13.59,13.59,0,0,1-7.34-2.53,11.77,11.77,0,0,1-3.92-5.82,19.46,19.46,0,0,1-.84-7.78,16.86,16.86,0,0,1,2.38-7.62,11.71,11.71,0,0,1,5.29-4.62,14.21,14.21,0,0,1,7.07-1.12,11.74,11.74,0,0,1,7,2.81,11.36,11.36,0,0,1,3.53,6.49l-3.79.55a8.85,8.85,0,0,0-2.48-4.79,7.7,7.7,0,0,0-4.62-1.84,9.26,9.26,0,0,0-5.64,1.1,8.36,8.36,0,0,0-3.47,4,17.08,17.08,0,0,0-1.37,5.4,17.45,17.45,0,0,0,.5,6.45,7.93,7.93,0,0,0,2.94,4.34,9.28,9.28,0,0,0,4.73,1.77,8.15,8.15,0,0,0,5.53-1.36A9.4,9.4,0,0,0,256.66,269.74Z"/><path d="M388,287.6a330.68,330.68,0,0,0-332,0,285.76,285.76,0,0,1,28.74,7.21q-5,13.89-8.43,27.8a290.12,290.12,0,0,1,291.35,0Q364,309,359,295.34A287.91,287.91,0,0,1,388,287.6Z" fill="none" stroke="#231f20" stroke-miterlimit="10" stroke-width="0.56"/></g></svg>