<svg id="card-3-0" xmlns="http://www.w3.org/2000/svg" xmlns:xlink="http://www.w3.org/1999/xlink" viewBox="0 0 444 666"><defs><linearGradient id="linear-gradient" y1="31.13" x2="22.16" y2="31.13" gradientUnits="userSpaceOnUse"><stop offset="0" stop-color="#fff"/><stop offset="0.05" stop-color="#eef7f6"/><stop offset="0.15" stop-color="#d3ebe7"/><stop offset="0.25" stop-color="#c0e3dd"/><stop offset="0.36" stop-color="#b5ded7"/><stop offset="0.47" stop-color="#b1dcd5"/><stop offset="1" stop-color="#00e0f1"/></linearGradient><linearGradient id="linear-gradient-2" x1="46.4" y1="33.1" x2="67.84" y2="33.1" xlink:href="#linear-gradient"/><linearGradient id="linear-gradient-3" x1="47.07" y1="35.84" x2="67.09" y2="35.84" xlink:href="#linear-gradient"/><linearGradient id="linear-gradient-4" x1="9.05" y1="34.14" x2="28.95" y2="34.14" xlink:href="#linear-gradient"/><linearGradient id="linear-gradient-5" x1="0.4" y1="40.85" x2="22.49" y2="40.85" xlink:href="#linear-gradient"/><linearGradient id="linear-gradient-6" x1="55.2" y1="41.51" x2="71.44" y2="41.51" xlink:href="#linear-gradient"/><linearGradient id="linear-gradient-7" x1="1.76" y1="46.28" x2="22.49" y2="46.28" xlink:href="#linear-gradient"/><linearGradient id="linear-gradient-8" x1="67.99" y1="40.33" x2="75.5" y2="40.33" xlink:href="#linear-gradient"/><linearGradient id="linear-gradient-9" x1="50.4" y1="46.59" x2="67.37" y2="46.59" xlink:href="#linear-gradient"/><linearGradient id="linear-gradient-10" x1="67.33" y1="61.21" x2="69.76" y2="61.21" xlink:href="#linear-gradient"/><linearGradient id="linear-gradient-11" x1="47.07" y1="54.95" x2="59.8" y2="54.95" xlink:href="#linear-gradient"/><linearGradient id="linear-gradient-12" x1="58.27" y1="71.08" x2="59.19" y2="71.08" xlink:href="#linear-gradient"/><linearGradient id="linear-gradient-13" x1="0.76" y1="38.51" x2="8.51" y2="38.51" xlink:href="#linear-gradient"/><linearGradient id="linear-gradient-14" x1="6.44" y1="45.76" x2="25.27" y2="45.76" xlink:href="#linear-gradient"/><linearGradient id="linear-gradient-15" x1="4.68" y1="59.3" x2="7.5" y2="59.3" xlink:href="#linear-gradient"/><linearGradient id="linear-gradient-16" x1="14.56" y1="53.88" x2="27.88" y2="53.88" xlink:href="#linear-gradient"/><linearGradient id="linear-gradient-17" x1="14.65" y1="69.73" x2="15.64" y2="69.73" xlink:href="#linear-gradient"/><linearGradient id="linear-gradient-18" x1="24.81" y1="59.2" x2="30.79" y2="59.2" xlink:href="#linear-gradient"/><linearGradient id="linear-gradient-19" x1="35.56" y1="56.77" x2="37.1" y2="56.77" xlink:href="#linear-gradient"/><linearGradient id="linear-gradient-20" x1="40.92" y1="58.62" x2="47.51" y2="58.62" xlink:href="#linear-gradient"/><linearGradient id="linear-gradient-21" x1="22.13" y1="75.92" x2="24.46" y2="75.92" xlink:href="#linear-gradient"/><linearGradient id="linear-gradient-22" x1="35.59" y1="77.94" x2="37.25" y2="77.94" xlink:href="#linear-gradient"/><linearGradient id="linear-gradient-23" x1="48.04" y1="73.79" x2="50.82" y2="73.79" xlink:href="#linear-gradient"/><linearGradient id="linear-gradient-24" x1="44.24" y1="40.95" x2="66.69" y2="40.95" xlink:href="#linear-gradient"/><linearGradient id="linear-gradient-25" x1="45.9" y1="49.21" x2="58.75" y2="49.21" xlink:href="#linear-gradient"/><linearGradient id="linear-gradient-26" x1="38.27" y1="57.8" x2="41.95" y2="57.8" xlink:href="#linear-gradient"/><linearGradient id="linear-gradient-27" x1="29.88" y1="60.9" x2="33.78" y2="60.9" xlink:href="#linear-gradient"/><linearGradient id="linear-gradient-28" x1="23.14" y1="50.1" x2="30.81" y2="50.1" xlink:href="#linear-gradient"/><linearGradient id="linear-gradient-29" x1="12.13" y1="38.23" x2="29.8" y2="38.23" xlink:href="#linear-gradient"/><linearGradient id="linear-gradient-30" x1="38.27" y1="43.3" x2="50.7" y2="43.3" xlink:href="#linear-gradient"/><linearGradient id="linear-gradient-31" x1="37.44" y1="48.33" x2="47.07" y2="48.33" xlink:href="#linear-gradient"/><linearGradient id="linear-gradient-32" x1="31.52" y1="49.64" x2="35.28" y2="49.64" xlink:href="#linear-gradient"/><linearGradient id="linear-gradient-33" x1="20.14" y1="42.91" x2="35.77" y2="42.91" xlink:href="#linear-gradient"/><linearGradient id="linear-gradient-34" x1="9.27" y1="56.84" x2="20.33" y2="56.84" xlink:href="#linear-gradient"/><linearGradient id="linear-gradient-35" x1="49.06" y1="61.29" x2="53.47" y2="61.29" xlink:href="#linear-gradient"/><linearGradient id="linear-gradient-36" x1="29.19" y1="92.8" x2="32.28" y2="92.8" xlink:href="#linear-gradient"/><linearGradient id="linear-gradient-37" x1="44.1" y1="96.25" x2="46.74" y2="96.25" xlink:href="#linear-gradient"/><linearGradient id="linear-gradient-38" x1="7.76" y1="52.27" x2="22.16" y2="52.27" xlink:href="#linear-gradient"/><linearGradient id="linear-gradient-39" x1="42.92" y1="51.89" x2="52.5" y2="51.89" xlink:href="#linear-gradient"/><linearGradient id="linear-gradient-40" x1="18.37" y1="40.79" x2="33.28" y2="40.79" xlink:href="#linear-gradient"/><linearGradient id="linear-gradient-41" x1="36.44" y1="50.35" x2="41.59" y2="50.35" xlink:href="#linear-gradient"/><linearGradient id="linear-gradient-42" x1="37.93" y1="37.58" x2="54.22" y2="37.58" xlink:href="#linear-gradient"/><linearGradient id="linear-gradient-43" x1="25.9" y1="19.63" x2="34.94" y2="19.63" xlink:href="#linear-gradient"/><linearGradient id="linear-gradient-44" x1="16.16" y1="20.49" x2="29.13" y2="20.49" xlink:href="#linear-gradient"/><linearGradient id="linear-gradient-45" x1="3.35" y1="27.5" x2="21.49" y2="27.5" xlink:href="#linear-gradient"/><linearGradient id="linear-gradient-46" x1="29.63" y1="6.71" x2="32.12" y2="6.71" xlink:href="#linear-gradient"/><linearGradient id="linear-gradient-47" x1="36.1" y1="3.72" x2="37.54" y2="3.72" xlink:href="#linear-gradient"/><linearGradient id="linear-gradient-48" x1="42.92" y1="6.72" x2="45.81" y2="6.72" xlink:href="#linear-gradient"/><linearGradient id="linear-gradient-49" x1="46.4" y1="9.67" x2="54.76" y2="9.67" xlink:href="#linear-gradient"/><linearGradient id="linear-gradient-50" x1="38.27" y1="19.54" x2="45.45" y2="19.54" xlink:href="#linear-gradient"/><linearGradient id="linear-gradient-51" x1="35.35" y1="20.92" x2="36.32" y2="20.92" xlink:href="#linear-gradient"/><linearGradient id="linear-gradient-52" x1="32.12" y1="23.84" x2="33.45" y2="23.84" xlink:href="#linear-gradient"/><linearGradient id="linear-gradient-53" x1="20.12" y1="10.63" x2="25.48" y2="10.63" xlink:href="#linear-gradient"/><linearGradient id="linear-gradient-54" x1="25.61" y1="24.24" x2="31.46" y2="24.24" xlink:href="#linear-gradient"/><linearGradient id="linear-gradient-55" x1="19.47" y1="25.77" x2="30.63" y2="25.77" xlink:href="#linear-gradient"/><linearGradient id="linear-gradient-56" x1="15.87" y1="12.35" x2="23.98" y2="12.35" xlink:href="#linear-gradient"/><linearGradient id="linear-gradient-57" x1="9.43" y1="12.86" x2="14.68" y2="12.86" xlink:href="#linear-gradient"/><linearGradient id="linear-gradient-58" x1="6.37" y1="17.94" x2="14.18" y2="17.94" xlink:href="#linear-gradient"/><linearGradient id="linear-gradient-59" x1="15.92" y1="26.55" x2="25.98" y2="26.55" xlink:href="#linear-gradient"/><linearGradient id="linear-gradient-60" x1="38.93" y1="22.93" x2="49.94" y2="22.93" xlink:href="#linear-gradient"/><linearGradient id="linear-gradient-61" x1="53.81" y1="11.33" x2="63.44" y2="11.33" xlink:href="#linear-gradient"/><linearGradient id="linear-gradient-62" x1="41.09" y1="25.56" x2="56.3" y2="25.56" xlink:href="#linear-gradient"/><linearGradient id="linear-gradient-63" x1="53.88" y1="16.06" x2="65.18" y2="16.06" xlink:href="#linear-gradient"/><linearGradient id="linear-gradient-64" x1="41.75" y1="29.82" x2="62.39" y2="29.82" xlink:href="#linear-gradient"/><linearGradient id="linear-gradient-65" x1="65.17" y1="26.77" x2="75" y2="26.77" xlink:href="#linear-gradient"/><linearGradient id="linear-gradient-66" x1="28.93" y1="24.7" x2="34.94" y2="24.7" xlink:href="#linear-gradient"/><linearGradient id="linear-gradient-67" x1="36.94" y1="24.74" x2="46.6" y2="24.74" xlink:href="#linear-gradient"/><linearGradient id="linear-gradient-68" x1="38.93" y1="27.86" x2="51.73" y2="27.86" xlink:href="#linear-gradient"/><linearGradient id="linear-gradient-69" x1="17.01" y1="29.45" x2="32.95" y2="29.45" xlink:href="#linear-gradient"/><linearGradient id="linear-gradient-70" x1="41.92" y1="31.95" x2="62.78" y2="31.95" xlink:href="#linear-gradient"/><linearGradient id="linear-gradient-71" x1="29.04" y1="30.72" x2="35.61" y2="30.72" xlink:href="#linear-gradient"/><linearGradient id="linear-gradient-72" x1="37.27" y1="31.47" x2="50.31" y2="31.47" xlink:href="#linear-gradient"/><linearGradient id="linear-gradient-73" x1="37.6" y1="15.24" x2="40.95" y2="15.24" xlink:href="#linear-gradient"/><linearGradient id="linear-gradient-74" x1="50.39" y1="22.96" x2="66" y2="22.96" xlink:href="#linear-gradient"/><linearGradient id="linear-gradient-75" x1="39.08" y1="33.27" x2="48.7" y2="33.27" xlink:href="#linear-gradient"/><linearGradient id="linear-gradient-76" x1="36.11" y1="27.87" x2="41.69" y2="27.87" xlink:href="#linear-gradient"/><linearGradient id="linear-gradient-77" x1="30.05" y1="24.45" x2="35.28" y2="24.45" xlink:href="#linear-gradient"/><linearGradient id="linear-gradient-78" x1="18.32" y1="34.52" x2="33.78" y2="34.52" xlink:href="#linear-gradient"/><linearGradient id="linear-gradient-79" x1="53.3" y1="65.24" x2="56.45" y2="65.24" xlink:href="#linear-gradient"/><linearGradient id="linear-gradient-80" x1="20.22" y1="68.27" x2="23.4" y2="68.27" xlink:href="#linear-gradient"/><linearGradient id="linear-gradient-81" x1="37.1" y1="34.19" x2="42.63" y2="34.19" xlink:href="#linear-gradient"/><linearGradient id="linear-gradient-82" x1="25.39" y1="38.66" x2="34.78" y2="38.66" xlink:href="#linear-gradient"/><symbol id="Firework" data-name="Firework" viewBox="0 0 75.5 103.82"><g opacity="0.8"><path d="M22.16,33c-4.65-1.38-12.62-3.78-15.61-3.78S-1.1,31.3.23,31.65s4.65-1.72,8.64-1S22.16,33,22.16,33Z" opacity="0.5" fill="url(#linear-gradient)"/><path d="M46.4,34.57c1.49-1,10.63-3.09,14.45-2.92s6.81,1.72,7,2.23-1.83.34-4.15-.34-8.15-.16-12.12.17C47.4,34.05,46.4,34.57,46.4,34.57Z" fill="url(#linear-gradient-2)"/><path d="M47.07,34.91c1-.34,13.12-.86,15.94,0s4.82,1.72,3.82,2.23-2.49-1.2-7.64-1.55S47.07,34.91,47.07,34.91Z" fill="url(#linear-gradient-3)"/><path d="M29,34.35c-1-.41-13-1.67-15.91-1-1.7.4-5,1.6-3.66,1.74,1,.09,3.31-.79,7.43-1.25A57.49,57.49,0,0,1,29,34.35Z" fill="url(#linear-gradient-4)"/><path d="M22.49,35.89c-2-1-24.25,9.62-21.92,10s4.65-2.75,9.3-4.12S22.49,35.89,22.49,35.89Z" opacity="0.5" fill="url(#linear-gradient-5)"/><path d="M55.2,36.58c2.66,0,13.78,3.78,15.11,6.18s1.66,4.81,0,3.09-3-4.81-7-5.84A38.27,38.27,0,0,1,55.2,36.58Z" opacity="0.5" fill="url(#linear-gradient-6)"/><path d="M22.49,39c-1.66-.17-11.13,5.5-14.28,8.08S.57,53.59,2.06,53.59s7.31-6.87,12-9.79S22.49,39,22.49,39Z" opacity="0.1" fill="url(#linear-gradient-7)"/><path d="M68,37.61a24.3,24.3,0,0,1,4.65,3.09c1.16,1,1.49,3.09,2.49,2.06S75,40.19,73,39.15A20.83,20.83,0,0,0,68,37.61Z" fill="url(#linear-gradient-8)"/><path d="M63.34,46.2c1.83,1.6,2.33,3.09,3.32,4.64s.83,2.06.17,1.55-.67-1.89-4.15-4.81-10.46-6-12.12-6.87S61.36,44.47,63.34,46.2Z" opacity="0.5" fill="url(#linear-gradient-9)"/><path d="M67.33,56c.17,1.72.83,4.64.83,6.7s.16,4.3.83,3.61,1.16-4.81.33-6.7A26,26,0,0,0,67.33,56Z" opacity="0.3" fill="url(#linear-gradient-10)"/><path d="M47.07,45.34c1,1.2,7.14,7,10.13,11.68,2.55,4,2.82,6.36,2.49,7.39s-2.82-3.78-3-5.33S53,52.2,51.22,50.31,47.07,45.34,47.07,45.34Z" fill="url(#linear-gradient-11)"/><path d="M58.69,67.16c-.33,2.06-.66,6-.17,7.39s.67-.69.67-2.75A29.38,29.38,0,0,0,58.69,67.16Z" fill="url(#linear-gradient-12)"/><path d="M8.51,36a24.16,24.16,0,0,0-4.82,2.8c-1.22,1-1.67,3-2.61,1.9s.31-2.56,2.36-3.47A20.71,20.71,0,0,1,8.51,36Z" opacity="0.1" fill="url(#linear-gradient-13)"/><path d="M11.15,45.59A56.25,56.25,0,0,0,7.24,50c-1.08,1.48-.95,2-.26,1.53s2-2.8,5.64-5.5,10.79-5.36,12.5-6.11S12.93,43.63,11.15,45.59Z" fill="url(#linear-gradient-14)"/><path d="M7.5,54.14c-.26,1.71-1.1,4.58-1.22,6.64s-.41,4.28-1,3.55-.88-4.88.06-6.71A26.07,26.07,0,0,1,7.5,54.14Z" opacity="0.1" fill="url(#linear-gradient-15)"/><path d="M27.88,44.59c-1.06,1.14-7.07,6.76-10.33,11.21C14.78,59.58,14.36,62,14.64,63s3-3.6,3.29-5.13,4-6.64,6-8.42A31.4,31.4,0,0,0,27.88,44.59Z" fill="url(#linear-gradient-16)"/><path d="M15.47,65.82c.21,2.08.32,6-.26,7.38s-.62-.73-.51-2.79A29.42,29.42,0,0,1,15.47,65.82Z" fill="url(#linear-gradient-17)"/><path d="M30.79,47.92C30,50,26,59.08,25.31,62.35s-.67,7.39,0,8.07.5-5.5,1.83-9.79S30.79,47.92,30.79,47.92Z" opacity="0.5" fill="url(#linear-gradient-18)"/><path d="M36.11,47.23a26.88,26.88,0,0,0-.5,7c.17,3.27-.33,13.57.83,11.86s.5-8.25.17-13.4A38.28,38.28,0,0,0,36.11,47.23Z" fill="url(#linear-gradient-19)"/><path d="M40.92,47.06c.5.86,3.82,10,4.48,14.26s.66,7.73,1.49,8.76.83-6.19-.16-9.45a61.83,61.83,0,0,0-2.16-6.7C43.75,52,40.92,47.06,40.92,47.06Z" opacity="0.5" fill="url(#linear-gradient-20)"/><path d="M24.46,70.17c-.33,1.2-2.49,4.81-2.32,7.22s.83,5,1.16,4.12,0-2.41.17-4.47S24.46,70.17,24.46,70.17Z" fill="url(#linear-gradient-21)"/><path d="M36.25,71a53.81,53.81,0,0,1-.5,7.73c-.51,3.05.29,6.66.83,6s.66-5.16.66-6.19S36.25,71,36.25,71Z" fill="url(#linear-gradient-22)"/><path d="M48,68.62a46.23,46.23,0,0,1,1,5.15c.17,2.23-.5,5.5,1,5.15s.5-4.64-.17-6.19S48,68.62,48,68.62Z" fill="url(#linear-gradient-23)"/><path d="M44.24,37.26C46.9,36.75,60,39.33,62.18,41s4.82,2.41,4.48,3.44-2.32-1.89-9.3-3.61S44.24,37.26,44.24,37.26Z" fill="url(#linear-gradient-24)"/><path d="M45.9,41.73a29.87,29.87,0,0,1,7.31,5.33c2,2.23,5,6,5.31,7.39s.33,2.75-.33,2.06S54,50.15,51.88,47.75,45.9,41.73,45.9,41.73Z" opacity="0.7" fill="url(#linear-gradient-25)"/><path d="M38.27,45.34c1,2.58,3.49,17.18,3.65,20.1s-.33,5-1,4.81S38.93,55,38.6,52.38,38.27,45.34,38.27,45.34Z" opacity="0.5" fill="url(#linear-gradient-26)"/><path d="M33.78,50c-1,1.72-2.49,14.78-2.49,17.52s-.16,5-1.16,4.12S31.46,59.43,32,54.79,33.78,50,33.78,50Z" fill="url(#linear-gradient-27)"/><path d="M24.81,55.13c-.17,1-1.83,5.15-1.66,1.89s6.25-13.93,7.14-14.77c1.58-1.49-.83,2.92-2.66,6.87S24.81,55.13,24.81,55.13Z" opacity="0.8" fill="url(#linear-gradient-28)"/><path d="M29.8,35.55c-.83-.69-11.46,1.2-14.12,2.06S11.53,40.87,12.36,41s3.82-2.4,8.3-3.27S29.8,35.55,29.8,35.55Z" opacity="0.8" fill="url(#linear-gradient-29)"/><path d="M38.27,37.78c2,.17,7.8,1.37,9.47,4.3s3.49,6.19,2.82,6.7-2.82-4.3-4.15-6S38.27,37.78,38.27,37.78Z" opacity="0.8" fill="url(#linear-gradient-30)"/><path d="M37.44,39.33c1.66.69,8.64,11,9.3,14.09s.16,4.81,0,3.44-5.15-9.11-6.31-11.34S37.44,39.33,37.44,39.33Z" fill="url(#linear-gradient-31)"/><path d="M35.28,39c-.83,2.23-2.49,15.81-2.49,18.21s-.5,4-.66,2.58S31,52.56,32,49.63,35.28,39,35.28,39Z" fill="url(#linear-gradient-32)"/><path d="M35.77,37.78c-.78,0-10,4.84-11.79,7.73-1.16,1.89-3.32,2.92-3.82,2.41s6-5.93,7.64-7C29.71,39.55,35.77,37.78,35.77,37.78Z" opacity="0.8" fill="url(#linear-gradient-33)"/><path d="M10.7,63.72c-1.16.86-1.83,1-1.16-.34a104.26,104.26,0,0,1,7-10.31,24.13,24.13,0,0,1,3.82-3.78s-5.31,6-6.48,8.25S10.7,63.72,10.7,63.72Z" fill="url(#linear-gradient-34)"/><path d="M49.06,52.21c1,1.89,3,10.14,3.32,13.23s-.17,5.84.83,4.64S52,61,51.22,58.57,49.06,52.21,49.06,52.21Z" fill="url(#linear-gradient-35)"/><g opacity="0.3"><path d="M29.46,84.91c-.66,2.75,0,6.87.66,9.28s.33,7.9,1.66,6.19-.33-6.19-1.33-9.28A22.78,22.78,0,0,1,29.46,84.91Z" fill="url(#linear-gradient-36)"/></g><path d="M46.07,88.69c.33,2.06.33,6.53-.33,8.25s-2.66,6.53-1,6.87,2-6.53,2-9.28A32.6,32.6,0,0,0,46.07,88.69Z" opacity="0.3" fill="url(#linear-gradient-37)"/><path d="M22.16,43.16c-1.16.69-4.32,3.78-6.31,5.33a29,29,0,0,0-6.31,7.9c-1.16,2.4-2.49,5.15-1.33,5s2.82-4.64,4-7S22.16,43.16,22.16,43.16Z" opacity="0.5" fill="url(#linear-gradient-38)"/><path d="M42.92,44a51,51,0,0,1,7.31,9.79c1.83,3.61,1.49,6.53,2.16,5.84s-1.49-7.39-4.15-10.82A18.12,18.12,0,0,0,42.92,44Z" fill="url(#linear-gradient-39)"/><path d="M33.28,36.63c-1.16,0-8.47.24-10.8,2.35S17,46.08,19,44.7s3.15-4.47,5.32-5.5S33.28,36.63,33.28,36.63Z" opacity="0.7" fill="url(#linear-gradient-40)"/><path d="M36.44,38.69c.5,1,5.15,14.61,5.15,18.56s-.83,5.67-1.16,4.3-1.49-10.82-2.49-15.12S36.44,38.69,36.44,38.69Z" opacity="0.7" fill="url(#linear-gradient-41)"/><path d="M37.93,36.29c2.29-1.05,11.1-1.64,13.29,0C53,37.66,55,40.07,53.88,39.89S50.72,37,47.23,36.63,37.93,36.29,37.93,36.29Z" opacity="0.8" fill="url(#linear-gradient-42)"/><path d="M34.94,27.24c-.66-2.22-5.31-10.77-7-12.35s-2.82-3-1.49-2.85,4.48,4.75,5.65,7.6S34.94,27.24,34.94,27.24Z" opacity="0.5" fill="url(#linear-gradient-43)"/><path d="M29.13,27.55c-1-1.27-7.31-9.82-10-11.4s-4-2.22-2.16-2.69,6.81,4.59,8.14,7.13S29.13,27.55,29.13,27.55Z" opacity="0.5" fill="url(#linear-gradient-44)"/><path d="M21.49,30.4c-1.66-.63-9-4.75-11.79-5.22S2.89,24.23,3.39,25s4.48.32,7.81,1.43S21.49,30.4,21.49,30.4Z" fill="url(#linear-gradient-45)"/><path d="M32.12,11.4A43.49,43.49,0,0,0,30,3.64c-.33-1.11-.67-2.22.33-1.27s.89,2,1.39,3.92A24.3,24.3,0,0,1,32.12,11.4Z" fill="url(#linear-gradient-46)"/><path d="M36.11,7.44c0-1.11-.17-7.44.83-7.44s.5,2.69.33,3.48S36.11,7.44,36.11,7.44Z" opacity="0.1" fill="url(#linear-gradient-47)"/><path d="M42.92,9.66c.33-1.27,2-6.18,2.66-5.86s-.17,2.53-1.16,4A14.06,14.06,0,0,1,42.92,9.66Z" opacity="0.3" fill="url(#linear-gradient-48)"/><path d="M46.4,13.14c.93-1.33,4.66-6.11,5.81-6.33,1.66-.32,2.82-1.11,2.49-.16S53,7.6,51.38,8.87,46.4,13.14,46.4,13.14Z" fill="url(#linear-gradient-49)"/><path d="M38.27,27.71c.67-1.43,1.33-6.18,3.49-10.77s4-6.17,3.65-5.38S42.75,16.47,41.75,19,38.27,27.71,38.27,27.71Z" fill="url(#linear-gradient-50)"/><path d="M35.61,30.09c0-2.69.17-10.77-.16-13.78s.33-5.38.5-4.28.5,9,.33,12.35A40.6,40.6,0,0,1,35.61,30.09Z" opacity="0.8" fill="url(#linear-gradient-51)"/><path d="M32.12,15c0-1,.33-2.06.66-1s.66,12.67.66,14.72S33.28,34,33.28,34s-.83-10.29-.83-13S32.12,15,32.12,15Z" fill="url(#linear-gradient-52)"/><path d="M25.48,14.73c-.33-1.9-1.16-5.38-2.49-6.49S19.83,6,20.16,6.81s2,2.06,3,3.64S25.48,14.73,25.48,14.73Z" opacity="0.3" fill="url(#linear-gradient-53)"/><path d="M27.8,20.11c-.5-1.27-2.49-3.64-2.16-4.43s2.49,2.06,3.16,4.91,1,1.58,1.66,6.17,1,6.18,1,6.18-1.83-7.28-2.33-8.87S27.8,20.11,27.8,20.11Z" fill="url(#linear-gradient-54)"/><path d="M30.63,34.2a45.62,45.62,0,0,0-4.48-8.55c-2.66-4-6.15-9-6.64-8.23s5.81,9,7.14,11.08S30.63,34.2,30.63,34.2Z" fill="url(#linear-gradient-55)"/><path d="M20.33,12.6A27.18,27.18,0,0,0,24,15.77C22.66,13.23,19,9.12,17.51,9s-2.16.32-1.16.79Z" opacity="0.3" fill="url(#linear-gradient-56)"/><path d="M14.68,13.81a14.81,14.81,0,0,0-3.82-.63c-1.33,0-2-1.27-.83-1.27a11.79,11.79,0,0,1,3.15.63A6.14,6.14,0,0,1,14.68,13.81Z" fill="url(#linear-gradient-57)"/><path d="M14.18,20.11c-1-2.06-3.65-4.43-5.31-4.28s-3-.47-2.33.48,2,.79,3.65,1.43A21.58,21.58,0,0,1,14.18,20.11Z" opacity="0.5" fill="url(#linear-gradient-58)"/><g opacity="0.8"><path d="M16.18,22c-.33-.95-.5-1.58.5-.95s5.81,6,7.31,8.07a20.57,20.57,0,0,1,2,3.17s-4.65-5.38-6-6.65Z" fill="url(#linear-gradient-59)"/></g><path d="M38.93,31.19c1.49-2.06,6.31-12.67,7.64-13.62s2.82-3.33,3.32-2.85-2.66,4-4.15,5.54-5,8.88-5.31,9.19S38.93,31.19,38.93,31.19Z" opacity="0.8" fill="url(#linear-gradient-60)"/><path d="M53.81,14.17c1.15-.89,5.69-3.32,6.87-4.07s3.94-1.33,2.18-1.6-5,1.88-6.52,2.69A7.52,7.52,0,0,0,53.81,14.17Z" opacity="0.1" fill="url(#linear-gradient-61)"/><path d="M41.09,32.94c2.49-2.85,10-10.66,11.29-11.88,2-1.9,3.15-3.64,3.82-2.53s-2.16,2.06-3.65,4a31.81,31.81,0,0,1-4.65,4.43C45.9,28.5,41.09,32.94,41.09,32.94Z" opacity="0.8" fill="url(#linear-gradient-62)"/><path d="M53.88,18.21c.67-1.11,6.31-3.48,8.14-4s3.32-.47,3.16.16-.5.48-4.82,1.58A34.25,34.25,0,0,0,53.88,18.21Z" opacity="0.5" fill="url(#linear-gradient-63)"/><path d="M41.75,34.52C43.08,33.09,52,27.24,55,26.44s6.81-1.74,7.31-1.11-3.82,1.42-7.64,2.53S41.75,34.52,41.75,34.52Z" opacity="0.5" fill="url(#linear-gradient-64)"/><path d="M65.17,25.33a16.73,16.73,0,0,1,6,1.74c2,.95,3.32,2.22,3.82,1.27s-5-3.48-6.81-3.48A8.6,8.6,0,0,0,65.17,25.33Z" opacity="0.3" fill="url(#linear-gradient-65)"/><path d="M34.94,33.09c-.17-2.38-2.16-8.24-3-10.13s-3.82-6.65-2.82-6.65,4.48,8.07,5,10.45S34.94,33.09,34.94,33.09Z" fill="url(#linear-gradient-66)"/><path d="M36.94,32.46c.33-2.06,4.2-11.11,6-13.3,1.16-1.43,2.66-3,3.65-1.58.41.59-4,2.85-4.82,4.59S36.94,32.46,36.94,32.46Z" fill="url(#linear-gradient-67)"/><path d="M38.93,34.36c1-1.58,6-9.31,8.3-11.24s4.65-2.06,4.48-1.27-2.66,1.59-3.65,2.53a46.83,46.83,0,0,0-4.82,4.75C41.75,31,38.93,34.36,38.93,34.36Z" opacity="0.7" fill="url(#linear-gradient-68)"/><path d="M33,34.84S25.64,26,22.16,25.18,17,23.59,17,24.38s3.16,1.11,5.15,2.06a27.82,27.82,0,0,1,6.48,4.75A42.78,42.78,0,0,0,33,34.84Z" opacity="0.8" fill="url(#linear-gradient-69)"/><path d="M41.92,34.68c3.49-3.64,13-5.86,15.11-5.38s4.82.16,5.65,1.27-3.82.16-5.48.16a49.59,49.59,0,0,0-9.3,1.11A48.34,48.34,0,0,0,41.92,34.68Z" opacity="0.8" fill="url(#linear-gradient-70)"/><path d="M35.61,36.1c0-1.11-6-7.6-6.31-9.34s-.5-1.58.5-1.11,4.82,6.18,5.15,7.28S35.61,36.1,35.61,36.1Z" opacity="0.8" fill="url(#linear-gradient-71)"/><path d="M37.27,35.15c0-1.11,6.48-6.33,9.47-7s4.32-.47,3.16.32-4.65,1.11-6.48,2.06A56.72,56.72,0,0,0,37.27,35.15Z" fill="url(#linear-gradient-72)"/><path d="M37.6,25.33c0-3.17,1.49-15.36,2.16-17.42s1.33-3.8,1.16-2.06S38.76,16.47,38.6,18.21s-.83,6.65-.83,6.65Z" opacity="0.8" fill="url(#linear-gradient-73)"/><path d="M50.39,27.24c1.5-1.43,8.64-6.81,11.13-7.76s6.31-1.11,3.49-.16A39.85,39.85,0,0,0,58.69,22C56.87,23,50.39,27.24,50.39,27.24Z" opacity="0.8" fill="url(#linear-gradient-74)"/><path d="M39.08,35.24c1.2-1.14,4.38-3,6.38-2.47s2.79,3.23,3.19,1.9-1.39-4-4.18-3.23S39.08,35.24,39.08,35.24Z" fill="url(#linear-gradient-75)"/><path d="M36.11,32c0-1.43,2-8.24,4.15-8.24s1.5.48.5,1a8.86,8.86,0,0,0-3.15,3.8A23.72,23.72,0,0,0,36.11,32Z" fill="url(#linear-gradient-76)"/><path d="M35.28,26.76c-.33-1.74-1.49-4.43-3.16-4.59s-2.82.47-1.49.63S35.28,26.76,35.28,26.76Z" opacity="0.7" fill="url(#linear-gradient-77)"/><path d="M33.78,36.58s-4.13-4.28-8.14-4.12c-3.82.16-8.3,1.9-7.14,2.22s7.8-1.11,9.63-.63A38.5,38.5,0,0,1,33.78,36.58Z" opacity="0.7" fill="url(#linear-gradient-78)"/><path d="M53.3,55.87c1,2.75,2.66,7.22,2.16,10.65s-.17,8.08.66,8.08-.17-2.75,0-7.22,0-6.19-.83-7.9S53.3,55.87,53.3,55.87Z" opacity="0.1" fill="url(#linear-gradient-79)"/><path d="M23.4,60.17c-1,1.72-2,9.28-2,12s-.83,5.16-.83,3.78-1-4,.33-9.62S23.4,60.17,23.4,60.17Z" opacity="0.3" fill="url(#linear-gradient-80)"/><path d="M37.1,36.8c.17-.86,2.82-3.44,4.32-4s1.66-1.55.17-1.2a6.21,6.21,0,0,0-3.65,2.92A4.86,4.86,0,0,0,37.1,36.8Z" fill="url(#linear-gradient-81)"/><path d="M34.78,36.46c-1-.34-5.81.69-7,1.89s-3.32,2.41-2,2.58,3-1.89,4.32-2.75A22.57,22.57,0,0,1,34.78,36.46Z" fill="url(#linear-gradient-82)"/></g></symbol></defs><title>card-3-0</title><g id="card-3-0-lines"><circle cx="217.76" cy="54.65" r="10" fill="#f8a3b0"/><circle cx="73.19" cy="81.67" r="10" fill="#f8a3b0"/><circle cx="11.69" cy="15.55" r="10" fill="#f8a3b0"/><circle cx="30.15" cy="261.21" r="10" fill="#f8a3b0"/><circle cx="72.69" cy="261.21" r="10" fill="#fbb040"/><circle cx="350.94" cy="10.42" r="10" fill="#b1d5f1"/><circle cx="378.65" cy="162.55" r="10" fill="#b1d5f1"/><circle cx="228.19" cy="135.21" r="10" fill="#b1d5f1"/><circle cx="425.48" cy="177.88" r="10" fill="#fbb040"/><circle cx="337.64" cy="210.73" r="10" fill="#fbb040"/><circle cx="322.98" cy="156.88" r="10" fill="#fbb040"/><circle cx="180.52" cy="118.88" r="10" fill="#fbb040"/><circle cx="50.15" cy="45.55" r="10" fill="#fbb040"/><circle cx="252.73" cy="234.55" r="10" fill="#f8a3b0"/><circle cx="274.4" cy="149.88" r="10" fill="#f8a3b0"/><circle cx="296.4" cy="223.21" r="10" fill="#b1d5f1"/><circle cx="160.52" cy="252.21" r="10" fill="#b1d5f1"/><circle cx="263.4" cy="41.88" r="10" fill="#fbb040"/><circle cx="25.98" cy="81.21" r="10" fill="#aec63f"/><circle cx="381.65" cy="195.55" r="10" fill="#aec63f"/><circle cx="116.77" cy="258.55" r="10" fill="#aec63f"/><circle cx="136.77" cy="100.21" r="10" fill="#aec63f"/><circle cx="169.52" cy="66.88" r="10" fill="#aec63f"/><circle cx="311.19" cy="23.21" r="10" fill="#aec63f"/><circle cx="206.9" cy="244.55" r="10" fill="#fbb040"/><circle cx="119.44" cy="76.21" r="10" fill="#fbb040"/><path d="M0,59.16S103.27,79.68,317.62,0" fill="none" stroke="#d1d3d4" stroke-miterlimit="10" stroke-width="5"/><path d="M0,243.66s206,22.27,444-91.23" fill="none" stroke="#d1d3d4" stroke-miterlimit="10" stroke-width="5"/><path d="M444,140.92S232.15,183.08,22.8,0" fill="none" stroke="#d1d3d4" stroke-miterlimit="10" stroke-width="5"/><circle cx="225.69" cy="611.77" r="10" fill="#f8a3b0"/><circle cx="370.26" cy="584.74" r="10" fill="#f8a3b0"/><circle cx="431.76" cy="650.87" r="10" fill="#f8a3b0"/><circle cx="92.51" cy="656" r="10" fill="#b1d5f1"/><circle cx="64.8" cy="503.87" r="10" fill="#b1d5f1"/><circle cx="215.26" cy="531.2" r="10" fill="#b1d5f1"/><circle cx="19.97" cy="503.54" r="10" fill="#fbb040"/><circle cx="120.47" cy="509.54" r="10" fill="#fbb040"/><circle cx="262.92" cy="547.54" r="10" fill="#fbb040"/><circle cx="393.3" cy="620.87" r="10" fill="#fbb040"/><circle cx="169.05" cy="516.54" r="10" fill="#f8a3b0"/><circle cx="180.05" cy="624.54" r="10" fill="#fbb040"/><circle cx="417.47" cy="585.2" r="10" fill="#aec63f"/><circle cx="306.67" cy="566.2" r="10" fill="#aec63f"/><circle cx="273.92" cy="599.54" r="10" fill="#aec63f"/><circle cx="132.26" cy="643.2" r="10" fill="#aec63f"/><circle cx="324.01" cy="590.2" r="10" fill="#fbb040"/><path d="M444,606.84S340.73,586.32,126.38,666" fill="none" stroke="#d1d3d4" stroke-miterlimit="10" stroke-width="5"/><path d="M0,525.08S211.85,482.92,421.2,666" fill="none" stroke="#d1d3d4" stroke-miterlimit="10" stroke-width="5"/></g><g id="card-3-0-fireworks"><use id="card-3-0-firework-2" width="75.5" height="103.82" transform="translate(272.84 228.35) scale(2.07 2.11)" xlink:href="#Firework"/><use id="card-3-0-firework-1" width="75.5" height="103.82" transform="translate(14.96 88.58) scale(1.68 1.71)" xlink:href="#Firework"/><use id="card-3-0-firework-0" width="75.5" height="103.82" transform="translate(22.69 274.04) scale(3.42)" xlink:href="#Firework"/></g></svg>