<svg id="card-4-1" xmlns="http://www.w3.org/2000/svg" viewBox="0 0 444 666"><title>card-4-1</title><g id="card-4-1-particles"><ellipse id="card-4-1-particle" cx="33.87" cy="63.14" rx="6.49" ry="6.53" fill="#dbecf9"/><ellipse id="card-4-1-particle-2" data-name="card-4-1-particle" cx="147.28" cy="146.76" rx="6.49" ry="6.53" fill="#dbecf9"/><ellipse id="card-4-1-particle-3" data-name="card-4-1-particle" cx="189.97" cy="77.34" rx="6.49" ry="6.53" fill="#dbecf9"/><ellipse id="card-4-1-particle-4" data-name="card-4-1-particle" cx="430.27" cy="59.43" rx="6.49" ry="6.53" fill="#dbecf9"/><ellipse id="card-4-1-particle-5" data-name="card-4-1-particle" cx="102.46" cy="69.67" rx="6.49" ry="6.53" fill="#aec0ce"/><ellipse id="card-4-1-particle-6" data-name="card-4-1-particle" cx="13.89" cy="176.45" rx="6.49" ry="6.53" fill="#aec0ce"/><ellipse id="card-4-1-particle-7" data-name="card-4-1-particle" cx="423.77" cy="166.62" rx="6.49" ry="6.53" fill="#aec0ce"/><ellipse id="card-4-1-particle-8" data-name="card-4-1-particle" cx="226.94" cy="77.34" rx="3.75" ry="3.78" fill="#aec0ce"/><ellipse id="card-4-1-particle-9" data-name="card-4-1-particle" cx="147.28" cy="228.42" rx="3.75" ry="3.78" fill="#aec0ce"/><ellipse id="card-4-1-particle-10" data-name="card-4-1-particle" cx="307.17" cy="228.42" rx="3.75" ry="3.78" fill="#aec0ce"/><ellipse id="card-4-1-particle-11" data-name="card-4-1-particle" cx="257.36" cy="59.43" rx="6.49" ry="6.53" fill="#dbecf9"/><ellipse id="card-4-1-particle-12" data-name="card-4-1-particle" cx="362.44" cy="173.01" rx="6.49" ry="6.53" fill="#dbecf9"/><ellipse id="card-4-1-particle-13" data-name="card-4-1-particle" cx="300.46" cy="265.7" rx="6.49" ry="6.53" fill="#dbecf9"/><ellipse id="card-4-1-particle-14" data-name="card-4-1-particle" cx="404.29" cy="207.45" rx="6.49" ry="6.53" fill="#dbecf9"/><ellipse id="card-4-1-particle-15" data-name="card-4-1-particle" cx="230.7" cy="213.98" rx="3.67" ry="3.69" fill="#dbecf9"/><ellipse id="card-4-1-particle-16" data-name="card-4-1-particle" cx="417.28" cy="119.41" rx="6.49" ry="6.53" fill="#dbecf9"/><ellipse id="card-4-1-particle-17" data-name="card-4-1-particle" cx="343.54" cy="31.92" rx="6.49" ry="6.53" fill="#dbecf9"/><ellipse id="card-4-1-particle-18" data-name="card-4-1-particle" cx="201.06" cy="179.54" rx="6.49" ry="6.53" fill="#dbecf9"/><ellipse id="card-4-1-particle-19" data-name="card-4-1-particle" cx="202.2" cy="105.76" rx="3.67" ry="3.69" fill="#e7f2fb"/><ellipse id="card-4-1-particle-20" data-name="card-4-1-particle" cx="279.16" cy="265.7" rx="3.67" ry="3.69" fill="#e7f2fb"/><ellipse id="card-4-1-particle-21" data-name="card-4-1-particle" cx="95.97" cy="273.15" rx="3.67" ry="3.69" fill="#e7f2fb"/><ellipse id="card-4-1-particle-22" data-name="card-4-1-particle" cx="119.2" cy="292.6" rx="3.67" ry="3.69" fill="#d5e8f7"/><ellipse id="card-4-1-particle-23" data-name="card-4-1-particle" cx="350.04" cy="248.77" rx="3.67" ry="3.69" fill="#d5e8f7"/><ellipse id="card-4-1-particle-24" data-name="card-4-1-particle" cx="333.35" cy="180.56" rx="3.67" ry="3.69" fill="#d5e8f7"/><ellipse id="card-4-1-particle-25" data-name="card-4-1-particle" cx="247.09" cy="92.31" rx="3.67" ry="3.69" fill="#e7f2fb"/><ellipse id="card-4-1-particle-26" data-name="card-4-1-particle" cx="137.12" cy="276.84" rx="3.67" ry="3.69" fill="#e7f2fb"/><ellipse id="card-4-1-particle-27" data-name="card-4-1-particle" cx="21.23" cy="245.08" rx="3.67" ry="3.69" fill="#e7f2fb"/><ellipse id="card-4-1-particle-28" data-name="card-4-1-particle" cx="143.61" cy="211.14" rx="3.67" ry="3.69" fill="#f3f9fd"/><ellipse id="card-4-1-particle-29" data-name="card-4-1-particle" cx="368.63" cy="220.95" rx="3.67" ry="3.69" fill="#f3f9fd"/><ellipse id="card-4-1-particle-30" data-name="card-4-1-particle" cx="252.95" cy="241.38" rx="3.67" ry="3.69" fill="#f3f9fd"/><ellipse id="card-4-1-particle-31" data-name="card-4-1-particle" cx="309.24" cy="59.43" rx="3.67" ry="3.69" fill="#e7f2fb"/><ellipse id="card-4-1-particle-32" data-name="card-4-1-particle" cx="390.15" cy="146.01" rx="3.67" ry="3.69" fill="#edf5fc"/><ellipse id="card-4-1-particle-33" data-name="card-4-1-particle" cx="151.7" cy="82.65" rx="3.67" ry="3.69" fill="#edf5fc"/><ellipse id="card-4-1-particle-34" data-name="card-4-1-particle" cx="17.56" cy="31.92" rx="3.67" ry="3.69" fill="#edf5fc"/><ellipse id="card-4-1-particle-35" data-name="card-4-1-particle" cx="77.82" cy="109.46" rx="3.67" ry="3.69" fill="#edf5fc"/><ellipse id="card-4-1-particle-36" data-name="card-4-1-particle" cx="202.2" cy="49.21" rx="3.67" ry="3.69" fill="#edf5fc"/><ellipse id="card-4-1-particle-37" data-name="card-4-1-particle" cx="407.11" cy="38.45" rx="3.67" ry="3.69" fill="#edf5fc"/><ellipse id="card-4-1-particle-38" data-name="card-4-1-particle" cx="130.62" cy="34.75" rx="3.67" ry="3.69" fill="#edf5fc"/><ellipse id="card-4-1-particle-39" data-name="card-4-1-particle" cx="33.87" cy="137.3" rx="3.67" ry="3.69" fill="#e7f2fb"/><ellipse id="card-4-1-particle-40" data-name="card-4-1-particle" cx="107.86" cy="102.07" rx="3.67" ry="3.69" fill="#e7f2fb"/></g><g id="card-4-1-gifts"><g id="card-4-1-gift-3"><rect x="382.91" width="3" height="124.65" fill="#cabfb6"/><polygon points="435.55 138.18 344.74 164.14 339.42 145.31 430.22 119.35 435.55 138.18" fill="#dfd84f"/><polygon points="433.21 123.59 339.1 150.5 335.52 137.84 429.63 110.93 433.21 123.59" fill="#dfd84f"/><polygon points="431.56 124.06 340.75 150.02 432.77 128.37 431.56 124.06" fill="#b6b141"/><polygon points="377.63 154.74 363.34 158.82 355.77 132.05 370.06 127.96 377.63 154.74" fill="#fbb040"/><path d="M364,129.72s3.92-26.83,9.84-25.5S384.3,126.23,364,129.72Z" fill="#fbb040"/><path d="M364,129.72S346.64,109,342.31,113.23,344.94,137.48,364,129.72Z" fill="#fbb040"/></g><g id="card-4-1-gift-2"><rect x="275.02" y="162.43" width="24.81" height="80.88" transform="translate(76.14 484.16) rotate(-88.3)" fill="#f04950"/><rect x="275.02" y="162.43" width="24.81" height="80.88" transform="translate(76.23 484.23) rotate(-88.32)" fill="none"/><path d="M327.75,207.41a4.53,4.53,0,0,1,.21-7.12l.25-8.63-2.48-.07a4.54,4.54,0,1,1-6.7-.2l-10.59-.31a4.54,4.54,0,1,1-6.7-.2l-10.59-.31a4.54,4.54,0,1,1-6.7-.2l-10.59-.31a4.54,4.54,0,1,1-6.7-.2l-10.59-.31a4.54,4.54,0,1,1-6.7-.2l-2.48-.07-.25,8.63a4.53,4.53,0,0,1-.21,7.12l-.27,9.05,2.93.09a4.54,4.54,0,1,1,5.81.17l11.49.34a4.54,4.54,0,1,1,5.81.17l11.49.34a4.54,4.54,0,1,1,5.81.17l11.49.34a4.54,4.54,0,1,1,5.81.17l11.49.34a4.54,4.54,0,1,1,5.81.17l2.93.09Zm-66.39-1A4.57,4.57,0,1,1,266,202,4.56,4.56,0,0,1,261.36,206.45Zm17.29.51a4.57,4.57,0,1,1,4.67-4.43A4.56,4.56,0,0,1,278.65,207Zm17.29.51a4.57,4.57,0,1,1,4.67-4.43A4.56,4.56,0,0,1,295.94,207.48Zm17.29.51a4.57,4.57,0,1,1,4.67-4.43A4.56,4.56,0,0,1,313.24,208Z" fill="none"/><path d="M326.12,203.8l1.73.05.1-3.56A4.55,4.55,0,0,0,326.12,203.8Z" fill="#f08d69"/><path d="M313.5,198.86l-.13,4.56,4.54.13A4.56,4.56,0,0,0,313.5,198.86Z" fill="#f08d69"/><path d="M322.15,199.11a4.55,4.55,0,0,0,3.58-7.52l-6.7-.2a4.56,4.56,0,0,0,3.13,7.72Z" fill="#f08d69"/><path d="M326.29,212.94a4.54,4.54,0,1,0-7.54,3.26l5.81.17A4.54,4.54,0,0,0,326.29,212.94Z" fill="#f08d69"/><path d="M327.75,207.41l.1-3.56-1.73-.05A4.55,4.55,0,0,0,327.75,207.41Z" fill="#f08d69"/><path d="M313.24,208a4.55,4.55,0,0,0,4.67-4.43l-4.54-.13Z" fill="#f08d69"/><path d="M313.5,198.86a4.55,4.55,0,0,0-4.67,4.43l4.54.13Z" fill="#f08d69"/><path d="M296.21,198.35l-.13,4.57,4.54.13A4.56,4.56,0,0,0,296.21,198.35Z" fill="#f08d69"/><path d="M304.86,198.6a4.55,4.55,0,0,0,3.57-7.52l-6.7-.2a4.56,4.56,0,0,0,3.13,7.72Z" fill="#f08d69"/><path d="M309,212.43a4.54,4.54,0,1,0-7.54,3.26l5.81.17A4.54,4.54,0,0,0,309,212.43Z" fill="#f08d69"/><path d="M308.83,203.29a4.56,4.56,0,0,0,4.41,4.7l.13-4.57Z" fill="#f08d69"/><path d="M295.94,207.48a4.55,4.55,0,0,0,4.67-4.43l-4.54-.13Z" fill="#f08d69"/><path d="M296.21,198.35a4.55,4.55,0,0,0-4.67,4.43l4.54.13Z" fill="#f08d69"/><path d="M278.92,197.83l-.13,4.57,4.54.13A4.56,4.56,0,0,0,278.92,197.83Z" fill="#f08d69"/><path d="M287.56,198.09a4.55,4.55,0,0,0,3.58-7.52l-6.7-.2a4.56,4.56,0,0,0,3.13,7.72Z" fill="#f08d69"/><path d="M291.7,211.92a4.54,4.54,0,1,0-7.54,3.26l5.81.17A4.55,4.55,0,0,0,291.7,211.92Z" fill="#f08d69"/><path d="M291.54,202.78a4.56,4.56,0,0,0,4.41,4.7l.13-4.56Z" fill="#f08d69"/><path d="M278.65,207a4.55,4.55,0,0,0,4.67-4.43l-4.54-.13Z" fill="#f08d69"/><path d="M278.92,197.83a4.55,4.55,0,0,0-4.67,4.43l4.54.13Z" fill="#f08d69"/><path d="M261.62,197.32l-.13,4.57L266,202A4.56,4.56,0,0,0,261.62,197.32Z" fill="#f08d69"/><path d="M270.27,197.58a4.55,4.55,0,0,0,3.58-7.52l-6.7-.2a4.56,4.56,0,0,0,3.13,7.72Z" fill="#f08d69"/><path d="M274.41,211.41a4.54,4.54,0,1,0-7.54,3.26l5.81.17A4.54,4.54,0,0,0,274.41,211.41Z" fill="#f08d69"/><path d="M274.24,202.26a4.56,4.56,0,0,0,4.41,4.7l.13-4.56Z" fill="#f08d69"/><path d="M261.36,206.45A4.55,4.55,0,0,0,266,202l-4.54-.13Z" fill="#f08d69"/><path d="M261.62,197.32a4.55,4.55,0,0,0-4.67,4.43l4.54.13Z" fill="#f08d69"/><path d="M247.11,197.9l-.1,3.56,1.73.05A4.55,4.55,0,0,0,247.11,197.9Z" fill="#f08d69"/><path d="M253,197.07a4.55,4.55,0,0,0,3.57-7.52l-6.7-.2a4.56,4.56,0,0,0,3.13,7.72Z" fill="#f08d69"/><path d="M257.11,210.9a4.54,4.54,0,1,0-7.54,3.26l5.81.17A4.54,4.54,0,0,0,257.11,210.9Z" fill="#f08d69"/><path d="M256.95,201.75a4.56,4.56,0,0,0,4.41,4.7l.13-4.56Z" fill="#f08d69"/><path d="M248.73,201.51l-1.73-.05-.1,3.56A4.55,4.55,0,0,0,248.73,201.51Z" fill="#f08d69"/><rect x="267.67" y="199.76" width="37.68" height="68.77" transform="translate(43.98 513.6) rotate(-88.3)" fill="#f04950"/><polygon points="321.2 224.24 252.69 214.3 321.43 216.33 321.2 224.24" fill="#c43c41"/><rect x="287.97" width="3" height="225.18" fill="#cabfb6"/><path d="M289.12,192.14s-8-33.49-26.62-25.2S244.94,189.71,289.12,192.14Z" fill="#b1d5f1"/><path d="M289.14,192c.4-1,13-23.46,26.75-24.84s17.29,15,8.92,17.89S289.14,192,289.14,192Z" fill="#b1d5f1"/><rect x="256.3" y="214.66" width="62.54" height="14.17" transform="translate(57.41 502.63) rotate(-88.3)" fill="#b1d5f1"/></g><g id="card-4-1-gift-1"><rect x="179.57" width="3" height="309.19" fill="#cabfb6"/><polygon points="241.59 376.61 161.71 326.01 172.09 309.45 251.96 360.05 241.59 376.61" fill="#fbb040"/><polygon points="250.82 365.11 168.04 312.67 175.01 301.54 257.8 353.97 250.82 365.11" fill="#fbb040"/><polygon points="249.37 364.19 169.49 313.59 246.99 367.98 249.37 364.19" fill="#e4a03a"/><polygon points="190.64 344.33 178.07 336.37 192.83 312.82 205.39 320.78 190.64 344.33" fill="#f04950"/><path d="M200.06,317.43s22.47-15,25.44-9.68S216.19,330.28,200.06,317.43Z" fill="#f04950"/><path d="M200.06,317.43s3.74-26.86-2.31-27.26S181.57,308.35,200.06,317.43Z" fill="#f04950"/></g><g id="card-4-1-gift-0"><rect x="86.05" width="3" height="226.18" fill="#cabfb6"/><path d="M85.78,225.44S88.1,194.66,70,196.58,48.78,211.13,85.78,225.44Z" fill="#f4667c"/><path d="M87.44,226.2c.83-.52,21.69-10.11,32.4-3.82s4.66,20-2.92,17.69S87.44,226.2,87.44,226.2Z" fill="#f4667c"/><polygon points="112.53 260.87 43.8 229.31 52.98 209.09 121.71 240.66 112.53 260.87" fill="#b1d5f1"/><polygon points="87.73 302.37 28.87 275.34 48.72 231.62 107.58 258.65 87.73 302.37" fill="#b1d5f1"/><polygon points="104.65 265.09 48.72 231.62 107.58 258.65 104.65 265.09" fill="#929497"/><polygon points="63.23 291.12 53.36 286.58 82.41 222.61 92.28 227.14 63.23 291.12" fill="#f4667c"/></g></g></svg>