<svg id="card-0-0" xmlns="http://www.w3.org/2000/svg" viewBox="0 0 444 666"><title>card-0-0</title><g id="card-0-0-particles"><polygon points="132.08 59.55 121.33 66.72 132.08 74.22 132.08 59.55" fill="#4ca79d"/><polygon points="222.44 205.08 228.33 216.62 236.94 206.72 222.44 205.08" fill="#4ca79d"/><polygon points="91.33 131.75 103.54 135.93 102.88 122.79 91.33 131.75" fill="#4ca79d"/><polygon points="345.62 171.1 351.51 182.63 360.12 172.73 345.62 171.1" fill="#f4667c"/><polygon points="26.12 171 38.83 173.19 36.13 160.33 26.12 171" fill="#b998b3"/><polygon points="411.09 227.78 420.42 236.74 425.32 224.55 411.09 227.78" fill="#fbb040"/><polygon points="342.02 93.81 351.34 102.77 356.25 90.58 342.02 93.81" fill="#fbb040"/><polygon points="108.12 211.93 117.44 220.89 122.34 208.7 108.12 211.93" fill="#f4667c"/><polygon points="420.04 81.61 430.01 73.38 418.57 67.01 420.04 81.61" fill="#f4667c"/><polygon points="227.73 52.38 226.58 39.46 214.91 45.39 227.73 52.38" fill="#f4667c"/><polygon points="82.09 71.88 80.94 58.96 69.27 64.89 82.09 71.88" fill="#d7df23"/><polygon points="272.64 104.44 285.49 103.38 279.68 91.59 272.64 104.44" fill="#fbb040"/><polygon points="425.71 32.43 438.56 31.37 432.75 19.59 425.71 32.43" fill="#fbb040"/><polygon points="365.41 24.81 371.32 13.28 358.3 12 365.41 24.81" fill="#fbb040"/><polygon points="159.3 26.01 172.15 24.94 166.34 13.16 159.3 26.01" fill="#fbb040"/><polygon points="174.99 105.11 185.95 98.27 175.44 90.44 174.99 105.11" fill="#b998b3"/><polygon points="44.9 114.46 54.87 106.23 43.43 99.86 44.9 114.46" fill="#f4667c"/><polygon points="299.81 45.54 309.78 37.32 298.34 30.95 299.81 45.54" fill="#d7df23"/><polygon points="233.45 125.36 232.99 112.4 221.02 117.69 233.45 125.36" fill="#d7df23"/><polygon points="184.53 180.74 184.07 167.77 172.1 173.06 184.53 180.74" fill="#d7df23"/><polygon points="444.57 143.67 444.11 130.71 432.14 136 444.57 143.67" fill="#d7df23"/><polygon points="17.43 57.64 16.98 44.68 5 49.97 17.43 57.64" fill="#d7df23"/><polygon points="57.64 223.1 57.18 210.14 45.21 215.43 57.64 223.1" fill="#b998b3"/><polygon points="312.47 75.44 299.68 77.12 306.05 88.61 312.47 75.44" fill="#b998b3"/><polygon points="95.64 6.07 87.08 15.77 99.37 20.25 95.64 6.07" fill="#f4667c"/><polygon points="148.47 134.24 135.68 135.92 142.04 147.41 148.47 134.24" fill="#b998b3"/><polygon points="281.03 163.9 290.35 172.86 295.26 160.67 281.03 163.9" fill="#fbb040"/></g><g id="card-0-0-hats"><g id="card-0-0-hat-2"><path d="M227.77,439.9a17,17,0,0,0-1.68-1.83,11.31,11.31,0,0,0-1-.85,8.27,8.27,0,0,0-1.2-.85l-4.18,8.8c0-.07.24,0,.38.06a4.73,4.73,0,0,1,.58.21,8.11,8.11,0,0,1,1.11.57,6.63,6.63,0,0,1,3.41,6.54,17.83,17.83,0,0,1-1.87,6.52,38,38,0,0,1-3.16,5.33,37,37,0,0,0,.67-4.3,21.93,21.93,0,0,0-.67-8.11,13.17,13.17,0,0,0-5.67-7.52,14.59,14.59,0,0,0-4.69-1.86,16.6,16.6,0,0,0-2.46-.36,8,8,0,0,0-1.27,0,6.11,6.11,0,0,0-1.48.09l2.29,9.48c-.09,0,.19-.14.33-.21l.57-.2a11.25,11.25,0,0,1,1.23-.28,7.51,7.51,0,0,1,2.42,0,6.82,6.82,0,0,1,4.34,2.93,18.21,18.21,0,0,1,2.63,6.22,39.89,39.89,0,0,1,.73,4.3,41.38,41.38,0,0,0-4.63-5.54,20.68,20.68,0,0,0-6.66-4.66,13,13,0,0,0-9.38-.35,14.89,14.89,0,0,0-4.39,2.44,15.53,15.53,0,0,0-1.85,1.7,9.18,9.18,0,0,0-.83,1,9,9,0,0,0-.87,1.2l8.75,4.25c-.08,0,0-.24.07-.39a4.65,4.65,0,0,1,.2-.58,10.45,10.45,0,0,1,.56-1.11,7.23,7.23,0,0,1,1.54-1.87,6.73,6.73,0,0,1,5-1.51,17.38,17.38,0,0,1,6.46,1.91,41.56,41.56,0,0,1,6.06,3.72c.09,1,.19,1.91.24,2.87.24-.86.44-1.72.65-2.62a40.38,40.38,0,0,0,5.26-4.5,21.33,21.33,0,0,0,4.59-6.72,13.28,13.28,0,0,0,.3-9.45A15.33,15.33,0,0,0,227.77,439.9Z" fill="#231f20"/><path d="M264.9,583.5l-22.63-60.45L219.43,462,198.07,523.6l-21.14,61a1,1,0,0,0-.21.62c0,3.39,19.94,12,44.35,11.74s44.09-9.44,44.06-12.83A1.2,1.2,0,0,0,264.9,583.5Z" fill="#ed1c24"/><polygon points="215.89 563.56 207.47 561.76 201.22 567.74 200.31 559.12 192.73 554.99 200.6 551.46 202.16 542.93 207.93 549.37 216.48 548.23 212.18 555.73 215.89 563.56" fill="#fff"/><polygon points="243.61 585.21 232.85 582.93 224.88 590.55 223.71 579.55 214.04 574.28 224.09 569.77 226.08 558.88 233.45 567.1 244.36 565.65 238.86 575.23 243.61 585.21" fill="#f9ed32"/><polygon points="222.91 511.78 218.53 510.85 215.28 513.95 214.81 509.48 210.88 507.33 214.96 505.5 215.77 501.07 218.77 504.41 223.21 503.82 220.98 507.72 222.91 511.78" fill="#fff"/><polygon points="222.69 489.34 219.92 488.75 217.87 490.71 217.56 487.88 215.08 486.52 217.66 485.36 218.18 482.56 220.07 484.68 222.88 484.3 221.47 486.77 222.69 489.34" fill="#f9ed32"/><polygon points="235.47 529.84 228.89 532.61 227.42 539.64 222.76 534.2 215.66 534.97 219.38 528.83 216.45 522.28 223.4 523.94 228.7 519.12 229.28 526.27 235.47 529.84" fill="#f9ed32"/><polygon points="256.27 582.64 253.99 580.87 251.24 581.76 252.21 579.03 250.52 576.69 253.41 576.76 255.1 574.42 255.91 577.21 258.66 578.1 256.28 579.74 256.27 582.64" fill="#fff"/><polygon points="206.26 533.06 203.97 531.3 201.23 532.19 202.2 529.46 200.5 527.12 203.39 527.2 205.09 524.86 205.9 527.63 208.64 528.53 206.26 530.17 206.26 533.06" fill="#f9ed32"/><polygon points="243.81 552.54 239.65 551.66 236.56 554.61 236.11 550.35 232.37 548.31 236.25 546.56 237.03 542.35 239.88 545.53 244.1 544.97 241.98 548.67 243.81 552.54" fill="#f9ed32"/><polygon points="204.74 585.09 198.95 583.86 194.67 587.96 194.04 582.04 188.84 579.21 194.24 576.78 195.31 570.93 199.28 575.35 205.14 574.57 202.19 579.72 204.74 585.09" fill="#f9ed32"/></g><g id="card-0-0-hat-1"><path d="M81.07,578.18a206.7,206.7,0,0,1-21,1.06c-3.66,0-7-.1-10-.24l-1.61,4.45a1.1,1.1,0,0,0-.23.65C48.31,587.66,69,597,94.57,597s46.26-9.31,46.26-12.86a1.1,1.1,0,0,0-.24-.65l-7-19.42q-5.55,2.69-11.52,4.9A166.7,166.7,0,0,1,81.07,578.18Z" fill="#f7aebe"/><path d="M116.73,517.24l-4.11-11.4q-5.26,1.73-10.76,3.2a208,208,0,0,1-28.47,5.42l-2,5.46-3,8.44a188.65,188.65,0,0,0,25.13-3.94A157.92,157.92,0,0,0,116.73,517.24Z" fill="#f7aebe"/><path d="M106.3,488.29,94.57,455.72l-14,38.86c5.18-.88,10.95-2.07,17-3.7C100.37,490.14,103.28,489.28,106.3,488.29Z" fill="#f7aebe"/><path d="M61.49,547.52l-4.69,13a187.41,187.41,0,0,0,22.86-1c13.71-1.44,31.18-5,47.57-13.22l-4.16-11.55a178,178,0,0,1-25.94,7.91A206.42,206.42,0,0,1,61.49,547.52Z" fill="#f7aebe"/><path d="M56.8,560.55,50.15,579c3,.14,6.29.24,10,.24a206.7,206.7,0,0,0,21-1.06,166.7,166.7,0,0,0,41-9.25q6-2.22,11.52-4.9l-6.36-17.67c-16.38,8.24-33.86,11.78-47.57,13.22A187.41,187.41,0,0,1,56.8,560.55Z" fill="#d375af"/><path d="M116.73,517.24a157.92,157.92,0,0,1-23.21,7.18,188.65,188.65,0,0,1-25.13,3.94l-6.91,19.16a206.42,206.42,0,0,0,35.63-4.8,178,178,0,0,0,25.94-7.91l-5.37-14.9Z" fill="#d375af"/><path d="M112.63,505.84l-6.33-17.55c-3,1-5.94,1.85-8.71,2.6-6.08,1.63-11.85,2.82-17,3.7L73.4,514.46A208,208,0,0,0,101.87,509Q107.36,507.58,112.63,505.84Z" fill="#d375af"/><polygon points="94.57 433.61 96.19 440.12 100.82 435.29 98.99 441.75 105.41 439.9 100.61 444.56 107.08 446.19 100.61 447.82 105.41 452.49 98.99 450.64 100.82 457.09 96.19 452.27 94.57 458.78 92.95 452.27 88.31 457.09 90.14 450.64 83.73 452.49 88.52 447.82 82.05 446.19 88.52 444.56 83.73 439.9 90.14 441.75 88.31 435.29 92.95 440.12 94.57 433.61" fill="#ed1c24"/></g><g id="card-0-0-hat-0"><path d="M395.45,582.81l-24-66.5-24.2-67.19-24.22,67.19-24,66.5a1.19,1.19,0,0,0-.25.69c0,3.72,21.68,13.47,48.43,13.47s48.41-9.75,48.41-13.47A1.23,1.23,0,0,0,395.45,582.81Z" fill="#ffde17"/><ellipse cx="312.4" cy="579.67" rx="4.53" ry="4.56" fill="#fff"/><path d="M338.39,524.74a2.5,2.5,0,1,1-2.5-2.52A2.51,2.51,0,0,1,338.39,524.74Z" fill="#fff"/><ellipse cx="358.5" cy="507.74" rx="3.67" ry="3.69" fill="#fff"/><ellipse cx="333.1" cy="568.86" rx="3.66" ry="3.69" fill="#8dc63f"/><ellipse cx="326.94" cy="586.7" rx="2.5" ry="2.51" fill="#ee2a7b"/><path d="M369.1,587.76a2.5,2.5,0,1,1-2.49-2.51A2.5,2.5,0,0,1,369.1,587.76Z" fill="#fff"/><path d="M373.34,540.45a2.5,2.5,0,1,1-2.49-2.51A2.5,2.5,0,0,1,373.34,540.45Z" fill="#ee2a7b"/><path d="M363.82,529.16a7.17,7.17,0,1,1-7.18-7.21A7.2,7.2,0,0,1,363.82,529.16Z" fill="#00aeef"/><ellipse cx="348.57" cy="551.09" rx="4.53" ry="4.56" fill="#fdb913"/><ellipse cx="348.56" cy="582.76" rx="8.08" ry="8.13" fill="#ee2a7b"/><ellipse cx="348.57" cy="476.99" rx="3.45" ry="3.47" fill="#8dc63f"/><ellipse cx="330.2" cy="540.45" rx="8.08" ry="8.13" fill="#ee2a7b"/><ellipse cx="381.84" cy="579.53" rx="5.14" ry="5.17" fill="#00aeef"/><ellipse cx="345.12" cy="494.58" rx="4.58" ry="4.61" fill="#00aeef"/><ellipse cx="318.29" cy="558.68" rx="5.89" ry="5.92" fill="#d293c1"/><ellipse cx="335.34" cy="510.26" rx="5.14" ry="5.17" fill="#ee2a7b"/><ellipse cx="368.35" cy="562.29" rx="10.12" ry="10.18" fill="#d293c1"/></g></g><g id="card-0-0-flags"><polygon points="58.34 202.14 52.35 202.01 33.45 235.42 37.23 243.78 58.34 202.14" fill="#dfe54f"/><polygon points="17.98 201.25 33.45 235.42 52.35 202.01 17.98 201.25" fill="#d7df23"/><polygon points="122.4 195.21 116.45 195.85 102 231.44 106.82 239.23 122.4 195.21" fill="#c7acc2"/><polygon points="82.26 199.56 102 231.44 116.45 195.85 82.26 199.56" fill="#b998b3"/><polygon points="187.26 178.77 181.51 180.47 173.53 218.06 179.64 224.87 187.26 178.77" fill="#fcc066"/><polygon points="148.51 190.18 173.53 218.06 181.51 180.47 148.51 190.18" fill="#fbb040"/><polygon points="257.5 149.09 252.05 151.58 249.38 189.93 256.38 195.81 257.5 149.09" fill="#f68596"/><polygon points="220.73 165.84 249.38 189.93 252.05 151.58 220.73 165.84" fill="#f4667c"/><polygon points="325.18 104.74 320.22 108.11 324 146.36 331.88 150.98 325.18 104.74" fill="#fcc066"/><polygon points="291.73 127.47 324 146.36 320.22 108.11 291.73 127.47" fill="#fbb040"/><polygon points="376.46 63.23 372.03 67.28 381.2 104.6 389.66 108.03 376.46 63.23" fill="#f68596"/><polygon points="346.58 90.53 381.2 104.6 372.03 67.28 346.58 90.53" fill="#f4667c"/><polygon points="425.91 8.3 421.95 12.82 435.21 48.88 444 51.34 425.91 8.3" fill="#c7acc2"/><polygon points="399.25 38.79 435.21 48.88 421.95 12.82 399.25 38.79" fill="#b998b3"/><path d="M41.61,203.37A373,373,0,0,1,0,201.5v-3.14c146.56,14.5,253-42.15,320.75-91.85C394.23,52.61,429.16.58,429.55,0h3.82c-.39.58-36.8,54.74-110.68,109C261.91,153.57,166.14,203.37,41.61,203.37Z" fill="#bcbec0"/><polygon points="51.16 86.64 46.26 83.92 16.19 103.36 15.72 111.93 51.16 86.64" fill="#f68596"/><polygon points="18.11 68.29 16.19 103.36 46.26 83.92 18.11 68.29" fill="#f4667c"/><polygon points="106.67 109.81 101.44 107.8 74.33 131.23 75.04 139.78 106.67 109.81" fill="#dfe54f"/><polygon points="71.42 96.23 74.33 131.23 101.44 107.8 71.42 96.23" fill="#d7df23"/><polygon points="168.01 126.21 162.56 124.94 138.91 151.9 140.78 160.27 168.01 126.21" fill="#70b9b1"/><polygon points="131.23 117.64 138.91 151.9 162.56 124.94 131.23 117.64" fill="#4ca79d"/><polygon points="233.43 133.21 227.83 132.9 209.15 163.56 212.43 171.48 233.43 133.21" fill="#c7acc2"/><polygon points="195.72 131.13 209.15 163.56 227.83 132.9 195.72 131.13" fill="#b998b3"/><polygon points="307.25 130.59 301.66 131.07 287.37 164.02 291.7 171.41 307.25 130.59" fill="#dfe54f"/><polygon points="269.62 133.77 287.37 164.02 301.66 131.07 269.62 133.77" fill="#d7df23"/><polygon points="373 119.62 367.5 120.7 356.83 155.01 361.94 161.89 373 119.62" fill="#70b9b1"/><polygon points="335.93 126.87 356.83 155.01 367.5 120.7 335.93 126.87" fill="#4ca79d"/><polygon points="436.78 98.95 431.5 100.82 425.94 136.34 431.99 142.39 436.78 98.95" fill="#fcc066"/><polygon points="401.17 111.58 425.94 136.34 431.5 100.82 401.17 111.58" fill="#fbb040"/><path d="M253,135.78c-73.24,0-161.41-13.64-253-77.84V54.38c113.06,79.21,225.16,83.95,302.08,75.91,83.36-8.71,141.29-36.83,141.86-37.11l.06,3.25c-.57.28-57.76,28-141.62,36.77A475.29,475.29,0,0,1,253,135.78Z" fill="#bcbec0"/></g><g id="card-0-0-letters"><path d="M169.64,314.78a6.91,6.91,0,0,1-1.7,4.57,15.11,15.11,0,0,1-5.4,4Q161,324,158.8,325t-4.53,2.19l-4.8,2.26q-2.42,1.13-4.53,2a2.49,2.49,0,0,1-2.3.07,3.17,3.17,0,0,1-1.47-1.51,3.39,3.39,0,0,1-.15-2,2.44,2.44,0,0,1,1.51-1.62q2.34-1.06,4.72-2.19l4.64-2.19q2.27-1.06,4.23-2t3.47-1.7q3.32-1.51,3.17-3.4a2.92,2.92,0,0,0-1.28-2.19,10.38,10.38,0,0,0-4.08-1.74q-2.49-.68-5.59-1.28l-6.38-1.25-6.53-1.24q-3.25-.6-6-1.17T128,305a14.19,14.19,0,0,1-3.1-1.06,3,3,0,0,1-1.59-1.62,3.12,3.12,0,0,1,0-1.92,3.06,3.06,0,0,1,1.21-1.62,3.69,3.69,0,0,1,2.19-.64,4.24,4.24,0,0,1,3,1.36q2.94.83,6.64,1.59t7.63,1.47q3.92.72,7.81,1.47t7.14,1.59q5.44,1.51,8,3.93A7.36,7.36,0,0,1,169.64,314.78Z" fill="#249cc9"/><path d="M141,311.76q-.68,2.94-1.36,7.47t-1,9.7q-.34,5.17-.19,10.61a59.84,59.84,0,0,0,1.13,10.27,2,2,0,0,1-.34,1.89,3,3,0,0,1-1.7,1,3.14,3.14,0,0,1-2.19-.19,2.81,2.81,0,0,1-1.43-2.08,61.79,61.79,0,0,1-1.21-10.87q-.15-5.74.23-11.14t1.09-10q.72-4.6,1.32-7.55a2.26,2.26,0,0,1,1.36-1.89,3.28,3.28,0,0,1,2.19,0,3.35,3.35,0,0,1,1.62,1A1.91,1.91,0,0,1,141,311.76Z" fill="#249cc9"/><path d="M214.79,338.26a2.89,2.89,0,0,1,.57,2.26,2.82,2.82,0,0,1-1.4,2,38.41,38.41,0,0,1-5.85,2.61,26.93,26.93,0,0,1-6.08,1.47,11.87,11.87,0,0,1-5.1-.38,6.46,6.46,0,0,1-3.06-2.64,6.39,6.39,0,0,1-.94-2,8.35,8.35,0,0,1-.42-2.42.74.74,0,0,0-.57-.72,1.34,1.34,0,0,0-1.09.34,23.22,23.22,0,0,0-2,1.47q-1.17.95-2.49,2.08t-2.68,2.34q-1.36,1.21-2.57,2.19a9.8,9.8,0,0,1-5.36,2.3,5.45,5.45,0,0,1-4.08-1.32,6.6,6.6,0,0,1-2-5.21,14.58,14.58,0,0,1,.53-3.28,17.56,17.56,0,0,1,1.21-3.13,28.5,28.5,0,0,1,2.79-4.45,46.4,46.4,0,0,1,3.51-4.11,43,43,0,0,1,3.74-3.47q1.89-1.55,3.47-2.6,1.36-.91,3.1-1.93a13.88,13.88,0,0,1,3.74-1.51A11.09,11.09,0,0,1,196,318a8.83,8.83,0,0,1,4.38,2.11,2.66,2.66,0,0,1,1.06,1.81,3.21,3.21,0,0,1-.38,1.81,3,3,0,0,1-1.93,1.4,3.12,3.12,0,0,1-2.53-.42,4.73,4.73,0,0,0-3.81-1,12.91,12.91,0,0,0-4.87,2.23,31.29,31.29,0,0,0-3.06,2.38,39.5,39.5,0,0,0-3.28,3.21q-1.59,1.74-3,3.59a21.12,21.12,0,0,0-2.23,3.59,6.62,6.62,0,0,0-.6,2.19q-.15,1.28.45,1.74.83.68,2.42-.68l2.83-2.42q1.7-1.43,3.51-2.91t3.59-2.83a37,37,0,0,1,3.13-2.19,7.8,7.8,0,0,1,2.3-.94,4.49,4.49,0,0,1,2.08,0,2.41,2.41,0,0,1,1.43,1,3.51,3.51,0,0,1,.53,2,20.84,20.84,0,0,0,0,2.83,8.4,8.4,0,0,0,.49,2.3,3.06,3.06,0,0,0,1.25,1.74,3.71,3.71,0,0,0,2.08.38,22.4,22.4,0,0,0,2.27-.49q1.28-.34,2.57-.79t2.53-.94q1.25-.49,2.15-.94a2.87,2.87,0,0,1,2-.3A2.92,2.92,0,0,1,214.79,338.26Z" fill="#249cc9"/><path d="M247.61,329.13a2.66,2.66,0,0,1-1.4,1.13,2.47,2.47,0,0,1-2-.3,6.32,6.32,0,0,0-1.47-.49,3,3,0,0,0-1.25,0,15.82,15.82,0,0,0-2.83.68q-1.62.53-3.43,1.28a36.25,36.25,0,0,0-3.59,1.74q-1.77,1-3.36,2a16.42,16.42,0,0,0-2.19,1.66,6.42,6.42,0,0,0-1.28,1.51,7.73,7.73,0,0,0-.83,2q-.23.94-.38,2a2.94,2.94,0,0,1-.94,2.08,2.85,2.85,0,0,1-1.85.64,2.73,2.73,0,0,1-1.89-.76A3.12,3.12,0,0,1,218,342q-.08-1.43-.08-3.32v-3.78q0-2,.11-3.74t.26-3.13a.83.83,0,0,1-.64-.6,1.1,1.1,0,0,1,.19-.91,9.27,9.27,0,0,0,.75-1.36q.3-.68.6-1.43a1.93,1.93,0,0,1,1.32-1.32,4.12,4.12,0,0,1,2,0,3.8,3.8,0,0,1,1.47,1,1.82,1.82,0,0,1,.42,1.74c-.1.45-.2,1-.3,1.59s-.19,1.23-.26,1.89-.13,1.3-.15,1.92,0,1.17,0,1.62a7.25,7.25,0,0,1,1-1l1.09-.83a36.78,36.78,0,0,1,3.85-2.26q2.19-1.13,4.45-2.08a36.6,36.6,0,0,1,4.49-1.55,18.39,18.39,0,0,1,4-.68,6.72,6.72,0,0,1,2.72.38,9.48,9.48,0,0,1,1.89.91,2.51,2.51,0,0,1,1.06,2A3.6,3.6,0,0,1,247.61,329.13Z" fill="#249cc9"/><path d="M279,324.34a2.56,2.56,0,0,1-.68,1.73,2.88,2.88,0,0,1-2.11.85q-1.66,0-4.8-.15t-6.08-.15q0,2.11.15,4.42t.42,4.45q.26,2.15.57,4.12a32.84,32.84,0,0,0,.68,3.4,2.5,2.5,0,0,1-.34,2.15,2.75,2.75,0,0,1-1.62,1.09,3,3,0,0,1-3.75-2.42,58.19,58.19,0,0,1-1.34-7.85,85.69,85.69,0,0,1-.5-9.36h-5.51a2.44,2.44,0,0,1-2.08-.73,2.69,2.69,0,0,1-.72-1.84,2.92,2.92,0,0,1,.68-1.87,3,3,0,0,1,2.11-1q1,0,2.42,0t3.1,0q0-2.34.19-5.36t.6-6.31q.41-3.28,1-6.57t1.25-6.23q-.83-.38-.53-1.43a5.06,5.06,0,0,1,.6-1.25c.3-.48.58-.94.83-1.4q.15-.38.3-.79a6.76,6.76,0,0,1,.3-.72,2.36,2.36,0,0,1,1.66-1.47,2.72,2.72,0,0,1,2.11.34,3.68,3.68,0,0,1,1.36,1.28,3.18,3.18,0,0,1,.45,2,3,3,0,0,1-.3,1.4q-.3.57-.68,1.17-.68,2.49-1.28,5.74t-1.09,6.68q-.49,3.44-.76,6.83t-.26,6.12l2.3,0q1.47,0,3.1.11t3.25.18q1.62.11,2.76.26a2.37,2.37,0,0,1,1.7.92A2.85,2.85,0,0,1,279,324.34Z" fill="#249cc9"/><path d="M320.72,325.65q.15,1.74.15,4.53t-.22,6.23q-.22,3.44-.55,7.32t-.85,7.89q-.52,4-1.1,7.93t-1.32,7.4a2.94,2.94,0,0,1-1.33,2.11,2.86,2.86,0,0,1-2.09.38,2.7,2.7,0,0,1-1.85-1.09,2.9,2.9,0,0,1-.34-2.53q.91-3.55,1.59-7.93t1.13-8.91q.45-4.53.72-8.87t.34-7.81a1.4,1.4,0,0,0-.15-1,1,1,0,0,0-.64-.38,1.38,1.38,0,0,0-.87.15,3.18,3.18,0,0,0-.83.6q-1.21,1.13-3,2.72t-3.85,3.28q-2,1.7-4.12,3.28t-3.81,2.72a17.1,17.1,0,0,1-6.08,2.45,6.72,6.72,0,0,1-5.47-1.55,10.29,10.29,0,0,1-1.77-2.26,7.88,7.88,0,0,1-.94-3.85,14.83,14.83,0,0,1,.57-3.89,26,26,0,0,1,1.47-4,35.05,35.05,0,0,1,1.93-3.62,21.93,21.93,0,0,1,1.85-2.64,3,3,0,0,1,2-1.21,3.54,3.54,0,0,1,2,.23,2.7,2.7,0,0,1,1.51,1.77,3,3,0,0,1-.83,2.6,17,17,0,0,0-1.43,2.11q-.76,1.28-1.44,2.64a17.59,17.59,0,0,0-1.09,2.72,8.4,8.4,0,0,0-.42,2.42,2.5,2.5,0,0,0,.3,1.32,4.21,4.21,0,0,0,.6.79,1.83,1.83,0,0,0,1.77.45,8,8,0,0,0,2.6-1.21,57.74,57.74,0,0,0,4.72-3.36q2.45-1.93,4.95-4.08t4.87-4.34q2.38-2.19,4.42-4.15a3.8,3.8,0,0,1,2.16-1.21,4.65,4.65,0,0,1,2.36.15,3.88,3.88,0,0,1,1.65,1.28A4.62,4.62,0,0,1,320.72,325.65Z" fill="#249cc9"/></g></svg>