<svg id="card-2-2" xmlns="http://www.w3.org/2000/svg" viewBox="0 0 444 666"><title>card-2-2</title><g id="card-2-2-particles"><circle id="card-2-1-particle" cx="371.5" cy="478.25" r="4" fill="#c1ced7"/><circle id="card-2-1-particle-2" data-name="card-2-1-particle" cx="235" cy="425.58" r="4" fill="#c1ced7"/><circle id="card-2-1-particle-3" data-name="card-2-1-particle" cx="222.5" cy="530.42" r="4" fill="#c1ced7"/><circle id="card-2-1-particle-4" data-name="card-2-1-particle" cx="392.33" cy="432.33" r="4" fill="#c1ced7"/><circle id="card-2-1-particle-5" data-name="card-2-1-particle" cx="274.83" cy="478.25" r="4" fill="#c1ced7"/><circle id="card-2-1-particle-6" data-name="card-2-1-particle" cx="243" cy="327.42" r="4" fill="#c1ced7"/><circle id="card-2-1-particle-7" data-name="card-2-1-particle" cx="189.5" cy="383.58" r="4" fill="#c1ced7"/><circle id="card-2-1-particle-8" data-name="card-2-1-particle" cx="160.83" cy="449.58" r="4" fill="#c1ced7"/><circle id="card-2-1-particle-9" data-name="card-2-1-particle" cx="126.17" cy="383.58" r="4" fill="#c1ced7"/><circle id="card-2-1-particle-10" data-name="card-2-1-particle" cx="379.5" cy="260.92" r="4" fill="#c1ced7"/><circle id="card-2-1-particle-11" data-name="card-2-1-particle" cx="243" cy="208.25" r="4" fill="#c1ced7"/><circle id="card-2-1-particle-12" data-name="card-2-1-particle" cx="215.5" cy="264.92" r="4" fill="#c1ced7"/><circle id="card-2-1-particle-13" data-name="card-2-1-particle" cx="298.83" cy="158.25" r="4" fill="#c1ced7"/><circle id="card-2-1-particle-14" data-name="card-2-1-particle" cx="282.83" cy="260.92" r="4" fill="#c1ced7"/><circle id="card-2-1-particle-15" data-name="card-2-1-particle" cx="251" cy="110.08" r="4" fill="#c1ced7"/><circle id="card-2-1-particle-16" data-name="card-2-1-particle" cx="152.17" cy="66.17" r="4" fill="#c1ced7"/><circle id="card-2-1-particle-17" data-name="card-2-1-particle" cx="168.83" cy="232.25" r="4" fill="#c1ced7"/><circle id="card-2-1-particle-18" data-name="card-2-1-particle" cx="134.17" cy="166.25" r="4" fill="#c1ced7"/><circle id="card-2-1-particle-19" data-name="card-2-1-particle" cx="119.33" cy="300.25" r="4" fill="#c1ced7"/><circle id="card-2-1-particle-20" data-name="card-2-1-particle" cx="91.83" cy="356.92" r="4" fill="#c1ced7"/><circle id="card-2-1-particle-21" data-name="card-2-1-particle" cx="176.17" cy="284.83" r="4" fill="#c1ced7"/><circle id="card-2-1-particle-22" data-name="card-2-1-particle" cx="159.17" cy="352.92" r="4" fill="#c1ced7"/><circle id="card-2-1-particle-23" data-name="card-2-1-particle" cx="127.33" cy="202.08" r="4" fill="#c1ced7"/><circle id="card-2-1-particle-24" data-name="card-2-1-particle" cx="73.83" cy="258.25" r="4" fill="#c1ced7"/><circle id="card-2-1-particle-25" data-name="card-2-1-particle" cx="45.17" cy="324.25" r="4" fill="#c1ced7"/><circle id="card-2-1-particle-26" data-name="card-2-1-particle" cx="10.5" cy="258.25" r="4" fill="#c1ced7"/><circle id="card-2-1-particle-27" data-name="card-2-1-particle" cx="75.67" cy="470.33" r="4" fill="#c1ced7"/><circle id="card-2-1-particle-28" data-name="card-2-1-particle" cx="48.17" cy="527" r="4" fill="#c1ced7"/><circle id="card-2-1-particle-29" data-name="card-2-1-particle" cx="131.5" cy="420.33" r="4" fill="#c1ced7"/><circle id="card-2-1-particle-30" data-name="card-2-1-particle" cx="115.5" cy="523" r="4" fill="#c1ced7"/><circle id="card-2-1-particle-31" data-name="card-2-1-particle" cx="73.83" cy="420.33" r="4" fill="#c1ced7"/><circle id="card-2-1-particle-32" data-name="card-2-1-particle" cx="21.5" cy="406.92" r="4" fill="#c1ced7"/><circle id="card-2-1-particle-33" data-name="card-2-1-particle" cx="252.83" cy="637.08" r="4" fill="#c1ced7"/><circle id="card-2-1-particle-34" data-name="card-2-1-particle" cx="116.33" cy="584.42" r="4" fill="#c1ced7"/><circle id="card-2-1-particle-35" data-name="card-2-1-particle" cx="88.83" cy="641.08" r="4" fill="#c1ced7"/><circle id="card-2-1-particle-36" data-name="card-2-1-particle" cx="172.83" cy="584.42" r="4" fill="#c1ced7"/><circle id="card-2-1-particle-37" data-name="card-2-1-particle" cx="156.17" cy="637.08" r="4" fill="#c1ced7"/><circle id="card-2-1-particle-38" data-name="card-2-1-particle" cx="124.33" cy="486.25" r="4" fill="#c1ced7"/><circle id="card-2-1-particle-39" data-name="card-2-1-particle" cx="70.83" cy="542.42" r="4" fill="#c1ced7"/><circle id="card-2-1-particle-40" data-name="card-2-1-particle" cx="42.17" cy="608.42" r="4" fill="#c1ced7"/><circle id="card-2-1-particle-41" data-name="card-2-1-particle" cx="7.5" cy="542.42" r="4" fill="#c1ced7"/><circle id="card-2-1-particle-42" data-name="card-2-1-particle" cx="431.33" cy="248.08" r="4" fill="#c1ced7"/><circle id="card-2-1-particle-43" data-name="card-2-1-particle" cx="403.83" cy="304.75" r="4" fill="#c1ced7"/><circle id="card-2-1-particle-44" data-name="card-2-1-particle" cx="385.83" cy="206.08" r="4" fill="#c1ced7"/><circle id="card-2-1-particle-45" data-name="card-2-1-particle" cx="357.17" cy="272.08" r="4" fill="#c1ced7"/><circle id="card-2-1-particle-46" data-name="card-2-1-particle" cx="322.5" cy="206.08" r="4" fill="#c1ced7"/><circle id="card-2-1-particle-47" data-name="card-2-1-particle" cx="439.33" cy="30.75" r="4" fill="#c1ced7"/><circle id="card-2-1-particle-48" data-name="card-2-1-particle" cx="411.83" cy="87.42" r="4" fill="#c1ced7"/><circle id="card-2-1-particle-49" data-name="card-2-1-particle" cx="365.17" cy="54.75" r="4" fill="#c1ced7"/><circle id="card-2-1-particle-50" data-name="card-2-1-particle" cx="315.67" cy="122.75" r="4" fill="#c1ced7"/><circle id="card-2-1-particle-51" data-name="card-2-1-particle" cx="66.83" cy="224.25" r="4" fill="#c1ced7"/><circle id="card-2-1-particle-52" data-name="card-2-1-particle" cx="371.5" cy="72.75" r="4" fill="#c1ced7"/><circle id="card-2-1-particle-53" data-name="card-2-1-particle" cx="355.5" cy="175.42" r="4" fill="#c1ced7"/><circle id="card-2-1-particle-54" data-name="card-2-1-particle" cx="323.67" cy="24.58" r="4" fill="#c1ced7"/><circle id="card-2-1-particle-55" data-name="card-2-1-particle" cx="239.83" cy="607.92" r="4" fill="#c1ced7"/><circle id="card-2-1-particle-56" data-name="card-2-1-particle" cx="380.33" cy="599.58" r="4" fill="#c1ced7"/><circle id="card-2-1-particle-57" data-name="card-2-1-particle" cx="352.83" cy="537.08" r="4" fill="#c1ced7"/><circle id="card-2-1-particle-58" data-name="card-2-1-particle" cx="420.17" cy="533.08" r="4" fill="#c1ced7"/><circle id="card-2-1-particle-59" data-name="card-2-1-particle" cx="388.33" cy="382.25" r="4" fill="#c1ced7"/><circle id="card-2-1-particle-60" data-name="card-2-1-particle" cx="334.83" cy="438.42" r="4" fill="#c1ced7"/><circle id="card-2-1-particle-61" data-name="card-2-1-particle" cx="302.17" cy="504.42" r="4" fill="#c1ced7"/><circle id="card-2-1-particle-62" data-name="card-2-1-particle" cx="271.5" cy="438.42" r="4" fill="#c1ced7"/><circle id="card-2-1-particle-63" data-name="card-2-1-particle" cx="256.67" cy="572.42" r="4" fill="#c1ced7"/><circle id="card-2-1-particle-64" data-name="card-2-1-particle" cx="229.17" cy="629.08" r="4" fill="#c1ced7"/><circle id="card-2-1-particle-65" data-name="card-2-1-particle" cx="320.67" cy="576.42" r="4" fill="#c1ced7"/><circle id="card-2-1-particle-66" data-name="card-2-1-particle" cx="296.5" cy="625.08" r="4" fill="#c1ced7"/><circle id="card-2-1-particle-67" data-name="card-2-1-particle" cx="103.67" cy="104.17" r="4" fill="#c1ced7"/><circle id="card-2-1-particle-68" data-name="card-2-1-particle" cx="76.17" cy="160.83" r="4" fill="#c1ced7"/><circle id="card-2-1-particle-69" data-name="card-2-1-particle" cx="199.83" cy="186.67" r="4" fill="#c1ced7"/><circle id="card-2-1-particle-70" data-name="card-2-1-particle" cx="111.67" cy="6" r="4" fill="#c1ced7"/><circle id="card-2-1-particle-71" data-name="card-2-1-particle" cx="58.17" cy="62.17" r="4" fill="#c1ced7"/><circle id="card-2-1-particle-72" data-name="card-2-1-particle" cx="29.5" cy="128.17" r="4" fill="#c1ced7"/><circle id="card-2-1-particle-73" data-name="card-2-1-particle" cx="35.83" cy="146.17" r="4" fill="#c1ced7"/><circle id="card-2-1-particle-74" data-name="card-2-1-particle" cx="270.17" cy="80.75" r="4" fill="#c1ced7"/><circle id="card-2-1-particle-75" data-name="card-2-1-particle" cx="241.5" cy="146.75" r="4" fill="#c1ced7"/><circle id="card-2-1-particle-76" data-name="card-2-1-particle" cx="233.17" cy="38.75" r="4" fill="#c1ced7"/><circle id="card-2-1-particle-77" data-name="card-2-1-particle" cx="272" cy="292.83" r="4" fill="#c1ced7"/><circle id="card-2-1-particle-78" data-name="card-2-1-particle" cx="244.5" cy="349.5" r="4" fill="#c1ced7"/><circle id="card-2-1-particle-79" data-name="card-2-1-particle" cx="327.83" cy="242.83" r="4" fill="#c1ced7"/><circle id="card-2-1-particle-80" data-name="card-2-1-particle" cx="311.83" cy="345.5" r="4" fill="#c1ced7"/><circle id="card-2-1-particle-81" data-name="card-2-1-particle" cx="280" cy="194.67" r="4" fill="#c1ced7"/><circle id="card-2-1-particle-82" data-name="card-2-1-particle" cx="226.5" cy="250.83" r="4" fill="#c1ced7"/><circle id="card-2-1-particle-83" data-name="card-2-1-particle" cx="197.83" cy="316.83" r="4" fill="#c1ced7"/><circle id="card-2-1-particle-84" data-name="card-2-1-particle" cx="312.67" cy="406.92" r="4" fill="#c1ced7"/><circle id="card-2-1-particle-85" data-name="card-2-1-particle" cx="285.17" cy="463.58" r="4" fill="#c1ced7"/><circle id="card-2-1-particle-86" data-name="card-2-1-particle" cx="368.5" cy="356.92" r="4" fill="#c1ced7"/><circle id="card-2-1-particle-87" data-name="card-2-1-particle" cx="352.5" cy="459.58" r="4" fill="#c1ced7"/><circle id="card-2-1-particle-88" data-name="card-2-1-particle" cx="320.67" cy="308.75" r="4" fill="#c1ced7"/><circle id="card-2-1-particle-89" data-name="card-2-1-particle" cx="243" cy="386.25" r="4" fill="#c1ced7"/><circle id="card-2-1-particle-90" data-name="card-2-1-particle" cx="203.83" cy="474.33" r="4" fill="#c1ced7"/></g><g id="card-2-2-bg"><path d="M503.63,281.95c66.21-155.6,15.11-327.43-114.12-383.8S101.84-77.77,35.64,77.84c-64.38,151.32-17.81,318,103.66,378.85L83.4,511.85l93.28,40.68-6.24-83.2C295.46,509.22,440.92,429.34,503.63,281.95Z" fill="#c5d6e7"/></g><g id="card-2-2-letters"><path d="M151.17,134.64V93.12h15.58a19.28,19.28,0,0,1,7.63,1.26,9.81,9.81,0,0,1,4.5,3.88,10.23,10.23,0,0,1,1.63,5.48,9.41,9.41,0,0,1-1.44,5,10.32,10.32,0,0,1-4.36,3.79,10.85,10.85,0,0,1,5.79,3.77,10.09,10.09,0,0,1,2,6.29,12.14,12.14,0,0,1-1.23,5.42,10.5,10.5,0,0,1-3,3.87,12.69,12.69,0,0,1-4.54,2.05,27.63,27.63,0,0,1-6.7.69Zm5.49-24.07h9a20,20,0,0,0,5.24-.48A5.82,5.82,0,0,0,174,108a6,6,0,0,0,1.06-3.62,6.67,6.67,0,0,0-1-3.64,5,5,0,0,0-2.83-2.15A23.68,23.68,0,0,0,165,98h-8.3Zm0,19.17H167a23.76,23.76,0,0,0,3.74-.2,9,9,0,0,0,3.17-1.13,6,6,0,0,0,2.1-2.31,7.23,7.23,0,0,0,.82-3.5,6.9,6.9,0,0,0-1.19-4,6.28,6.28,0,0,0-3.3-2.41,20.47,20.47,0,0,0-6.08-.69h-9.6Z" fill="#da6e7e"/><path d="M210,125l5.27.65a12.85,12.85,0,0,1-4.62,7.17,13.88,13.88,0,0,1-8.61,2.55q-6.6,0-10.46-4.06t-3.87-11.4q0-7.59,3.91-11.78a13.23,13.23,0,0,1,10.14-4.19,12.86,12.86,0,0,1,9.86,4.11q3.82,4.11,3.82,11.55,0,.45,0,1.36H193q.28,5,2.8,7.59a8.35,8.35,0,0,0,6.29,2.63,7.8,7.8,0,0,0,4.79-1.47A9.78,9.78,0,0,0,210,125Zm-16.74-8.24h16.79a10.19,10.19,0,0,0-1.93-5.69,7.81,7.81,0,0,0-6.32-2.95,8.1,8.1,0,0,0-5.91,2.35A9.31,9.31,0,0,0,193.28,116.71Z" fill="#da6e7e"/><path d="M219.65,125.66l5-.79a7,7,0,0,0,2.36,4.64,8.24,8.24,0,0,0,5.42,1.61,8,8,0,0,0,5.21-1.43,4.28,4.28,0,0,0,1.7-3.36,3.1,3.1,0,0,0-1.5-2.72,22.11,22.11,0,0,0-5.21-1.73,47.54,47.54,0,0,1-7.77-2.45,7.42,7.42,0,0,1-4.4-6.9,7.74,7.74,0,0,1,.92-3.72,8.25,8.25,0,0,1,2.51-2.85,10.53,10.53,0,0,1,3.24-1.49,15.43,15.43,0,0,1,4.4-.61,17.41,17.41,0,0,1,6.22,1,8.46,8.46,0,0,1,4,2.76,10.8,10.8,0,0,1,1.76,4.66l-5,.68a5.45,5.45,0,0,0-2-3.62,7.2,7.2,0,0,0-4.6-1.3q-3.51,0-5,1.16a3.38,3.38,0,0,0-1.5,2.72,2.81,2.81,0,0,0,.62,1.78,4.49,4.49,0,0,0,2,1.36q.76.28,4.5,1.3a62.76,62.76,0,0,1,7.55,2.36,7.66,7.66,0,0,1,3.36,2.68,7.47,7.47,0,0,1,1.22,4.36,8.55,8.55,0,0,1-1.49,4.8,9.6,9.6,0,0,1-4.29,3.48,15.62,15.62,0,0,1-6.34,1.23q-5.86,0-8.93-2.44A11.32,11.32,0,0,1,219.65,125.66Z" fill="#da6e7e"/><path d="M261.82,130.08l.74,4.5a18.93,18.93,0,0,1-3.85.45,8.72,8.72,0,0,1-4.3-.88,4.91,4.91,0,0,1-2.15-2.31q-.62-1.43-.62-6v-17.3h-3.74v-4h3.74V97.11l5.07-3.06v10.51h5.13v4h-5.13v17.59a8.91,8.91,0,0,0,.27,2.8,2.12,2.12,0,0,0,.88,1,3.39,3.39,0,0,0,1.74.37A16.55,16.55,0,0,0,261.82,130.08Z" fill="#da6e7e"/><path d="M287.39,125l5.27.65a12.85,12.85,0,0,1-4.62,7.17,13.88,13.88,0,0,1-8.61,2.55q-6.6,0-10.46-4.06t-3.87-11.4q0-7.59,3.91-11.78a13.23,13.23,0,0,1,10.14-4.19A12.86,12.86,0,0,1,289,108q3.82,4.11,3.82,11.55,0,.45,0,1.36H270.37q.28,5,2.8,7.59a8.35,8.35,0,0,0,6.29,2.63,7.8,7.8,0,0,0,4.79-1.47A9.78,9.78,0,0,0,287.39,125Zm-16.74-8.24h16.79a10.19,10.19,0,0,0-1.93-5.69,7.81,7.81,0,0,0-6.32-2.95,8.1,8.1,0,0,0-5.91,2.35A9.31,9.31,0,0,0,270.65,116.71Z" fill="#da6e7e"/><path d="M57,188.16v-4.87l17.59,0v15.41a31.06,31.06,0,0,1-8.35,4.86,24.78,24.78,0,0,1-8.84,1.63,23.57,23.57,0,0,1-11.12-2.62A17.31,17.31,0,0,1,38.71,195a23.85,23.85,0,0,1-2.55-11.07,25.69,25.69,0,0,1,2.53-11.31,16.86,16.86,0,0,1,7.29-7.8,22.85,22.85,0,0,1,11-2.55,21.72,21.72,0,0,1,8.14,1.46,13.51,13.51,0,0,1,5.71,4.06,18,18,0,0,1,3.14,6.8l-5,1.36a15.35,15.35,0,0,0-2.32-5,9.53,9.53,0,0,0-4-2.9A14.55,14.55,0,0,0,57,166.92a16.84,16.84,0,0,0-6.51,1.15,12.15,12.15,0,0,0-4.43,3,14.38,14.38,0,0,0-2.62,4.11,21.72,21.72,0,0,0-1.59,8.35,20.27,20.27,0,0,0,1.91,9.29,12.23,12.23,0,0,0,5.56,5.55,17.23,17.23,0,0,0,7.76,1.81,18.43,18.43,0,0,0,7-1.37,18,18,0,0,0,5.15-2.93v-7.73Z" fill="#da6e7e"/><path d="M81.9,204.45V162.93H87v41.52Z" fill="#da6e7e"/><path d="M114.61,204.45V200a11,11,0,0,1-9.54,5.1,12.16,12.16,0,0,1-5-1,8.18,8.18,0,0,1-3.43-2.56,9.59,9.59,0,0,1-1.57-3.78,25.85,25.85,0,0,1-.31-4.76V174.37h5.1v16.68a29.69,29.69,0,0,0,.31,5.38,5.32,5.32,0,0,0,2,3.16,6.32,6.32,0,0,0,3.85,1.15,8.39,8.39,0,0,0,4.3-1.18,6.54,6.54,0,0,0,2.85-3.2,16.07,16.07,0,0,0,.83-5.88V174.37h5.1v30.08ZM99,168.48v-5.81h5.32v5.81Zm10.56,0v-5.81h5.32v5.81Z" fill="#da6e7e"/><path d="M146.78,193.43l5,.65a13,13,0,0,1-4.21,8.11,12.25,12.25,0,0,1-8.31,2.93,12.91,12.91,0,0,1-9.93-4q-3.75-4-3.75-11.57a20.94,20.94,0,0,1,1.61-8.52,11.26,11.26,0,0,1,4.91-5.48,14.58,14.58,0,0,1,7.18-1.83,12.48,12.48,0,0,1,8,2.48,11.37,11.37,0,0,1,4,7l-5,.76a8.23,8.23,0,0,0-2.51-4.56,6.48,6.48,0,0,0-4.35-1.53,7.91,7.91,0,0,0-6.26,2.76q-2.41,2.76-2.41,8.74t2.32,8.81a7.56,7.56,0,0,0,6.06,2.75,7.14,7.14,0,0,0,5-1.84A9.14,9.14,0,0,0,146.78,193.43Z" fill="#da6e7e"/><path d="M156.18,204.45V162.93h5.1v23.68l12.06-12.23h6.6l-11.5,11.16,12.66,18.92h-6.29l-9.94-15.38-3.6,3.46v11.92Z" fill="#da6e7e"/><path d="M190.71,204.45l-9.2-30.08h5.27l4.79,17.36,1.78,6.46q.11-.48,1.56-6.2l4.79-17.62h5.24l4.5,17.45,1.5,5.75,1.73-5.81,5.15-17.39h5l-9.4,30.08h-5.3l-4.79-18-1.16-5.13L196,204.45Z" fill="#da6e7e"/><path d="M246.75,204.45V200a11,11,0,0,1-9.54,5.1,12.17,12.17,0,0,1-5-1,8.18,8.18,0,0,1-3.43-2.56,9.59,9.59,0,0,1-1.57-3.78,25.85,25.85,0,0,1-.31-4.76V174.37H232v16.68a29.69,29.69,0,0,0,.31,5.38,5.32,5.32,0,0,0,2,3.16,6.32,6.32,0,0,0,3.85,1.15,8.39,8.39,0,0,0,4.3-1.18,6.53,6.53,0,0,0,2.85-3.2,16,16,0,0,0,.84-5.88V174.37h5.1v30.08Zm-15.58-36v-5.81h5.32v5.81Zm10.56,0v-5.81h5.32v5.81Z" fill="#da6e7e"/><path d="M259.3,204.45V174.37h4.59v4.28a10.81,10.81,0,0,1,9.57-5,12.56,12.56,0,0,1,5,1,7.86,7.86,0,0,1,3.41,2.56,9.84,9.84,0,0,1,1.59,3.77,29.23,29.23,0,0,1,.28,5v18.49h-5.1V186.15a13.74,13.74,0,0,0-.59-4.66,4.9,4.9,0,0,0-2.11-2.46,6.71,6.71,0,0,0-3.55-.92,8.26,8.26,0,0,0-5.62,2.07q-2.36,2.07-2.36,7.84v16.43Z" fill="#da6e7e"/><path d="M289.52,195.47l5-.79a7,7,0,0,0,2.36,4.64,8.24,8.24,0,0,0,5.42,1.61,8,8,0,0,0,5.21-1.43,4.28,4.28,0,0,0,1.7-3.36,3.1,3.1,0,0,0-1.5-2.72,22.11,22.11,0,0,0-5.21-1.73,47.54,47.54,0,0,1-7.77-2.45,7.42,7.42,0,0,1-4.4-6.9,7.74,7.74,0,0,1,.92-3.72,8.25,8.25,0,0,1,2.51-2.85A10.53,10.53,0,0,1,297,174.3a15.43,15.43,0,0,1,4.4-.61,17.41,17.41,0,0,1,6.22,1,8.46,8.46,0,0,1,4,2.76,10.8,10.8,0,0,1,1.76,4.66l-5,.68a5.45,5.45,0,0,0-2-3.62,7.2,7.2,0,0,0-4.6-1.3q-3.51,0-5,1.16a3.38,3.38,0,0,0-1.5,2.72,2.81,2.81,0,0,0,.62,1.78,4.49,4.49,0,0,0,2,1.36q.76.28,4.5,1.3a62.76,62.76,0,0,1,7.55,2.36,7.66,7.66,0,0,1,3.36,2.68,7.47,7.47,0,0,1,1.22,4.36,8.55,8.55,0,0,1-1.49,4.8,9.6,9.6,0,0,1-4.29,3.48,15.62,15.62,0,0,1-6.34,1.23q-5.86,0-8.93-2.44A11.32,11.32,0,0,1,289.52,195.47Z" fill="#da6e7e"/><path d="M340.18,193.43l5,.65A13,13,0,0,1,341,202.2a12.25,12.25,0,0,1-8.31,2.93,12.91,12.91,0,0,1-9.93-4q-3.75-4-3.75-11.57a20.94,20.94,0,0,1,1.61-8.52,11.26,11.26,0,0,1,4.91-5.48,14.58,14.58,0,0,1,7.18-1.83,12.48,12.48,0,0,1,8,2.48,11.36,11.36,0,0,1,4,7l-5,.76a8.23,8.23,0,0,0-2.51-4.56,6.48,6.48,0,0,0-4.35-1.53,7.91,7.91,0,0,0-6.26,2.76q-2.41,2.76-2.41,8.74t2.32,8.81a7.56,7.56,0,0,0,6.06,2.75,7.14,7.14,0,0,0,5-1.84A9.13,9.13,0,0,0,340.18,193.43Z" fill="#da6e7e"/><path d="M349.55,204.45V162.93h5.1v14.9a11.39,11.39,0,0,1,9-4.13,12.14,12.14,0,0,1,5.81,1.32,7.73,7.73,0,0,1,3.53,3.64,16.76,16.76,0,0,1,1.06,6.74v19.06H369V185.39q0-3.82-1.66-5.56a6.16,6.16,0,0,0-4.69-1.74,8.26,8.26,0,0,0-4.26,1.18,6.64,6.64,0,0,0-2.85,3.19,14.63,14.63,0,0,0-.85,5.55v16.45Z" fill="#da6e7e"/><path d="M402.4,194.76l5.27.65a12.85,12.85,0,0,1-4.62,7.17,13.88,13.88,0,0,1-8.61,2.55q-6.6,0-10.46-4.06t-3.87-11.4q0-7.59,3.91-11.78a13.23,13.23,0,0,1,10.14-4.19A12.86,12.86,0,0,1,404,177.8q3.82,4.11,3.82,11.55,0,.45,0,1.36H385.38q.28,5,2.8,7.59a8.35,8.35,0,0,0,6.29,2.63,7.8,7.8,0,0,0,4.79-1.47A9.78,9.78,0,0,0,402.4,194.76Zm-16.74-8.24h16.79a10.19,10.19,0,0,0-1.93-5.69,7.81,7.81,0,0,0-6.32-2.95,8.1,8.1,0,0,0-5.91,2.35A9.31,9.31,0,0,0,385.66,186.52Z" fill="#da6e7e"/><path d="M95.35,321.35v-4.87l17.59,0v15.41a31.05,31.05,0,0,1-8.35,4.86,24.78,24.78,0,0,1-8.84,1.63,23.57,23.57,0,0,1-11.12-2.62,17.31,17.31,0,0,1-7.55-7.58,23.85,23.85,0,0,1-2.55-11.07,25.69,25.69,0,0,1,2.54-11.31,16.86,16.86,0,0,1,7.29-7.8,22.85,22.85,0,0,1,11-2.55,21.72,21.72,0,0,1,8.14,1.46,13.5,13.5,0,0,1,5.71,4.06,18,18,0,0,1,3.14,6.8l-5,1.36a15.35,15.35,0,0,0-2.32-5,9.53,9.53,0,0,0-4-2.9,14.55,14.55,0,0,0-5.72-1.09,16.84,16.84,0,0,0-6.51,1.15,12.15,12.15,0,0,0-4.43,3,14.37,14.37,0,0,0-2.62,4.11,21.72,21.72,0,0,0-1.59,8.35A20.27,20.27,0,0,0,82.11,326a12.23,12.23,0,0,0,5.56,5.55,17.23,17.23,0,0,0,7.76,1.81,18.43,18.43,0,0,0,7-1.37,18,18,0,0,0,5.15-2.93v-7.73Z" fill="#da6e7e"/><path d="M141,328l5.27.65a12.85,12.85,0,0,1-4.62,7.17,13.88,13.88,0,0,1-8.61,2.55q-6.6,0-10.46-4.06t-3.87-11.4q0-7.59,3.91-11.78a13.23,13.23,0,0,1,10.14-4.19,12.86,12.86,0,0,1,9.86,4.11q3.82,4.11,3.82,11.55,0,.45,0,1.36H124q.28,5,2.8,7.59a8.35,8.35,0,0,0,6.29,2.63,7.8,7.8,0,0,0,4.79-1.47A9.78,9.78,0,0,0,141,328Zm-16.74-8.24H141a10.19,10.19,0,0,0-1.93-5.69,7.81,7.81,0,0,0-6.32-2.95,8.1,8.1,0,0,0-5.9,2.35A9.3,9.3,0,0,0,124.24,319.71Z" fill="#da6e7e"/><path d="M157.34,337.64h-4.73V296.12h5.1v14.81a10.09,10.09,0,0,1,8.24-4,12.63,12.63,0,0,1,5.25,1.12,10.74,10.74,0,0,1,4.08,3.14,15.21,15.21,0,0,1,2.51,4.89,20.16,20.16,0,0,1,.91,6.12q0,7.73-3.82,12a12,12,0,0,1-9.18,4.22,9.58,9.58,0,0,1-8.35-4.45Zm-.06-15.26q0,5.41,1.47,7.82a7.29,7.29,0,0,0,12.29,1q2.44-2.9,2.44-8.65t-2.34-8.69a7.12,7.12,0,0,0-5.65-2.8,7.33,7.33,0,0,0-5.78,2.9Q157.29,316.88,157.29,322.37Z" fill="#da6e7e"/><path d="M204.61,337.64v-4.42a11,11,0,0,1-9.54,5.1,12.17,12.17,0,0,1-5-1,8.18,8.18,0,0,1-3.43-2.56A9.59,9.59,0,0,1,185.1,331a25.85,25.85,0,0,1-.31-4.76V307.56h5.1v16.68a29.69,29.69,0,0,0,.31,5.38,5.32,5.32,0,0,0,2,3.16,6.32,6.32,0,0,0,3.85,1.15,8.39,8.39,0,0,0,4.3-1.18,6.53,6.53,0,0,0,2.85-3.2,16,16,0,0,0,.84-5.88V307.56h5.1v30.08Z" fill="#da6e7e"/><path d="M217.1,337.64V307.56h4.59v4.56a12.44,12.44,0,0,1,3.24-4.22,5.66,5.66,0,0,1,3.27-1,10,10,0,0,1,5.24,1.64l-1.76,4.73a7.29,7.29,0,0,0-3.74-1.1,4.86,4.86,0,0,0-3,1,5.45,5.45,0,0,0-1.9,2.79,19.86,19.86,0,0,0-.85,5.95v15.75Z" fill="#da6e7e"/><path d="M247.6,333.08l.74,4.5a18.93,18.93,0,0,1-3.85.45,8.72,8.72,0,0,1-4.3-.88,4.91,4.91,0,0,1-2.15-2.31q-.62-1.43-.62-6v-17.3h-3.74v-4h3.74v-7.45l5.07-3.06v10.51h5.13v4h-5.13v17.59a8.91,8.91,0,0,0,.27,2.8,2.12,2.12,0,0,0,.88,1,3.39,3.39,0,0,0,1.74.37A16.55,16.55,0,0,0,247.6,333.08Z" fill="#da6e7e"/><path d="M250.55,328.66l5-.79a7,7,0,0,0,2.36,4.64,8.24,8.24,0,0,0,5.42,1.61,8,8,0,0,0,5.21-1.43,4.28,4.28,0,0,0,1.7-3.36,3.1,3.1,0,0,0-1.5-2.72,22.11,22.11,0,0,0-5.21-1.73,47.54,47.54,0,0,1-7.77-2.45,7.42,7.42,0,0,1-4.4-6.9,7.74,7.74,0,0,1,.92-3.72,8.25,8.25,0,0,1,2.51-2.85,10.53,10.53,0,0,1,3.24-1.49,15.43,15.43,0,0,1,4.4-.61,17.41,17.41,0,0,1,6.22,1,8.46,8.46,0,0,1,4,2.76,10.8,10.8,0,0,1,1.76,4.66l-5,.68a5.45,5.45,0,0,0-2-3.62,7.2,7.2,0,0,0-4.6-1.3q-3.51,0-5,1.16a3.38,3.38,0,0,0-1.5,2.72,2.81,2.81,0,0,0,.62,1.78,4.49,4.49,0,0,0,2,1.36q.76.28,4.5,1.3a62.76,62.76,0,0,1,7.55,2.36,7.66,7.66,0,0,1,3.36,2.68,7.47,7.47,0,0,1,1.22,4.36,8.55,8.55,0,0,1-1.49,4.8,9.6,9.6,0,0,1-4.29,3.48,15.62,15.62,0,0,1-6.34,1.23q-5.86,0-8.93-2.44A11.32,11.32,0,0,1,250.55,328.66Z" fill="#da6e7e"/><path d="M292.72,333.08l.74,4.5a18.93,18.93,0,0,1-3.85.45,8.72,8.72,0,0,1-4.3-.88,4.91,4.91,0,0,1-2.15-2.31q-.62-1.43-.62-6v-17.3h-3.74v-4h3.74v-7.45l5.07-3.06v10.51h5.13v4h-5.13v17.59a8.91,8.91,0,0,0,.27,2.8,2.12,2.12,0,0,0,.88,1,3.39,3.39,0,0,0,1.74.37A16.55,16.55,0,0,0,292.72,333.08Z" fill="#da6e7e"/><path d="M317.33,333.93a19,19,0,0,1-5.45,3.4,15.76,15.76,0,0,1-5.62,1q-5,0-7.62-2.42a8,8,0,0,1-2.66-6.19,8.22,8.22,0,0,1,1-4,8.32,8.32,0,0,1,2.63-2.93,12.4,12.4,0,0,1,3.67-1.67,36.49,36.49,0,0,1,4.53-.76,46.57,46.57,0,0,0,9.09-1.76q0-1,0-1.33,0-3.11-1.44-4.39-2-1.73-5.81-1.73a9,9,0,0,0-5.31,1.26,7.71,7.71,0,0,0-2.53,4.46l-5-.68a12.36,12.36,0,0,1,2.24-5.17,9.8,9.8,0,0,1,4.5-3,20.08,20.08,0,0,1,6.83-1.06,18.07,18.07,0,0,1,6.26.91,8.25,8.25,0,0,1,3.54,2.28,8,8,0,0,1,1.59,3.47,28.7,28.7,0,0,1,.25,4.7V325a72.24,72.24,0,0,0,.33,9,11.36,11.36,0,0,0,1.29,3.61h-5.32A10.82,10.82,0,0,1,317.33,333.93Zm-.42-11.38a37.38,37.38,0,0,1-8.33,1.93,19.27,19.27,0,0,0-4.45,1,4.44,4.44,0,0,0-2,1.66A4.51,4.51,0,0,0,303,333a6.64,6.64,0,0,0,4.52,1.36,10.51,10.51,0,0,0,5.24-1.29,7.93,7.93,0,0,0,3.37-3.53,12.31,12.31,0,0,0,.82-5.1Z" fill="#da6e7e"/><path d="M329,340.13l5,.74a4.72,4.72,0,0,0,1.73,3.34,8.49,8.49,0,0,0,5.18,1.42,9.11,9.11,0,0,0,5.47-1.42,7,7,0,0,0,2.61-4,32.57,32.57,0,0,0,.37-6.54,10.48,10.48,0,0,1-8.33,3.94,11.35,11.35,0,0,1-9.6-4.47,17.23,17.23,0,0,1-3.4-10.73,20,20,0,0,1,1.56-7.94,12.46,12.46,0,0,1,4.52-5.62,12.2,12.2,0,0,1,7-2,10.78,10.78,0,0,1,8.78,4.3v-3.62h4.7v26q0,7-1.43,10a10.47,10.47,0,0,1-4.53,4.63,15.71,15.71,0,0,1-7.63,1.7,14.39,14.39,0,0,1-8.69-2.42Q328.91,345,329,340.13Zm4.22-18.07q0,5.92,2.35,8.64a7.75,7.75,0,0,0,11.78,0q2.38-2.7,2.38-8.48,0-5.52-2.45-8.33a7.58,7.58,0,0,0-5.91-2.8,7.36,7.36,0,0,0-5.78,2.76Q333.24,316.62,333.24,322.06Z" fill="#da6e7e"/><path d="M363.66,337.64v-5.81h5.81v5.81Z" fill="#da6e7e"/><path d="M169.65,268.2v-4.13l19.14-22q-3.25.17-5.75.17H170.78v-4.13h24.58v3.37l-16.28,19.09-3.14,3.48q3.43-.25,6.43-.25h13.9v4.39Z" fill="#da6e7e"/><path d="M221.05,268.2v-4.42a11,11,0,0,1-9.54,5.1,12.17,12.17,0,0,1-5-1,8.18,8.18,0,0,1-3.43-2.56,9.59,9.59,0,0,1-1.57-3.78,25.85,25.85,0,0,1-.31-4.76V238.12h5.1V254.8a29.69,29.69,0,0,0,.31,5.38,5.32,5.32,0,0,0,2,3.16,6.32,6.32,0,0,0,3.85,1.15,8.39,8.39,0,0,0,4.3-1.18,6.53,6.53,0,0,0,2.85-3.2,16,16,0,0,0,.84-5.88V238.12h5.1V268.2Z" fill="#da6e7e"/><path d="M233.6,268.2V238.12h4.56v4.22a10.72,10.72,0,0,1,3.77-3.55,10.59,10.59,0,0,1,5.35-1.35,9.9,9.9,0,0,1,5.48,1.39,7.43,7.43,0,0,1,3,3.88q3.57-5.27,9.29-5.27,4.48,0,6.88,2.48t2.41,7.63V268.2h-5.07V249.25a14,14,0,0,0-.5-4.4,4.27,4.27,0,0,0-1.8-2.17,5.61,5.61,0,0,0-3.06-.82,7.12,7.12,0,0,0-5.27,2.11q-2.1,2.11-2.1,6.75V268.2h-5.1V248.66a8.6,8.6,0,0,0-1.25-5.1,4.72,4.72,0,0,0-4.08-1.7,7.41,7.41,0,0,0-4,1.13,6.42,6.42,0,0,0-2.65,3.31,18.65,18.65,0,0,0-.82,6.29v15.6Z" fill="#da6e7e"/></g></svg>