<svg id="card-1-2" xmlns="http://www.w3.org/2000/svg" viewBox="0 0 444 666"><title>card-1-2</title><g id="card-1-2-letters"><path d="M106.09,263.68a2.38,2.38,0,0,1,.53,1.58,1.56,1.56,0,0,1-.63,1.21,2.43,2.43,0,0,1-1.65.45,2.13,2.13,0,0,1-1.55-.92,14.72,14.72,0,0,1-.95-1.37q-.53-.84-1-1.79l-1-1.86c-.33-.61-.6-1.16-.81-1.66q-.16-.37-.42-.87l-.58-1.08q-5.57,1.37-10.58,2.49t-9.69,2.23c-.28.6-.59,1.23-.92,1.92s-.69,1.37-1.08,2.08a4,4,0,0,1-.26,1.26,2.28,2.28,0,0,1-1.21,1.21,2.79,2.79,0,0,1-1.26.26,1.49,1.49,0,0,1-1.1-.42,1.8,1.8,0,0,1-.68-1.31,3.19,3.19,0,0,1,.37-1.42c.18-.38.37-.78.58-1.18a10.37,10.37,0,0,1,.74-1.18,4,4,0,0,1-1.89-.24,1.43,1.43,0,0,1-.94-1.39,2.65,2.65,0,0,1,.08-.55,2.37,2.37,0,0,1,.29-.68,1.68,1.68,0,0,1,1.58-.81l1.41-.32a7.7,7.7,0,0,0,1.37-.42q1-1.94,2.23-4.44t2.52-5.2l2.57-5.41,2.42-5.07q1.13-2.36,2-4.18c.62-1.21,1.11-2.11,1.5-2.7a1.88,1.88,0,0,1,.5-1.26A2,2,0,0,1,90,230a2.3,2.3,0,0,1,1.21.21,1.9,1.9,0,0,1,.84,1q1.15,2.73,2.28,5.75t2.23,5.94q1.1,2.92,2.13,5.54t1.92,4.57q.68-.1,1.26-.24l1.05-.24a2.11,2.11,0,0,1,1.24.18,2,2,0,0,1,.92,1.5,2.73,2.73,0,0,1-.26,1,1.62,1.62,0,0,1-1,.87l-.81.24-.87.24c.1.25.23.51.37.79l.42.84c.18.35.4.78.68,1.29s.58,1,.89,1.55l.89,1.5A12.53,12.53,0,0,0,106.09,263.68ZM96.58,254q-1.84-4.25-3.39-8.8T90,236.52q-1.1,2.21-2.42,4.91T84.89,247l-2.68,5.65-2.5,5.23,4-.89L88,256l4.36-1Z" fill="#1d92be"/><path d="M131.3,260.27a2,2,0,0,1,0,1.44,2.17,2.17,0,0,1-1.34,1.18l-3.49,1.21a41.14,41.14,0,0,1-4.49,1.26,27.67,27.67,0,0,1-4.78.63,10.31,10.31,0,0,1-4.36-.68,7.75,7.75,0,0,1-4.52-4.78,25.06,25.06,0,0,1-1.15-8.51,26.33,26.33,0,0,1,.42-4.57,34.52,34.52,0,0,1,1.13-4.54,34.08,34.08,0,0,1,1.63-4.1,24.39,24.39,0,0,1,1.87-3.28,14.43,14.43,0,0,1,3.33-3.52,4.16,4.16,0,0,1,3.12-.89,3.56,3.56,0,0,1,2.6,2,12.77,12.77,0,0,1,1.24,5.38,23,23,0,0,1,0,3.07,31.15,31.15,0,0,1-.39,3.34c-.19,1.12-.44,2.21-.74,3.28a22.86,22.86,0,0,1-2.47,5.72q-.81,1.34-1.71,2.55c-.59.81-1.2,1.56-1.81,2.26s-1.2,1.35-1.76,1.94a6.53,6.53,0,0,0,1,.63,4,4,0,0,0,1.23.47,10.55,10.55,0,0,0,2.89,0,25.6,25.6,0,0,0,3.26-.6c1.12-.28,2.26-.6,3.42-1s2.26-.74,3.31-1.13a2,2,0,0,1,1.63.05A1.92,1.92,0,0,1,131.3,260.27Zm-12.82-21c-.1-1.93-.45-3-1-3.1s-1.32.49-2.3,2a18.62,18.62,0,0,0-1.36,2.6c-.45,1-.88,2.17-1.28,3.42a30,30,0,0,0-1,3.89,26.56,26.56,0,0,0-.41,3.91,12.21,12.21,0,0,0,.73,4.89q1.35-1.63,2.71-3.49a16.42,16.42,0,0,0,2.89-6,25.37,25.37,0,0,0,.57-2.65q.24-1.42.37-2.84A19.92,19.92,0,0,0,118.49,239.31Z" fill="#1d92be"/><path d="M148.85,260.27a2,2,0,0,1,0,1.44,2.17,2.17,0,0,1-1.34,1.18L144,264.1a41.14,41.14,0,0,1-4.49,1.26,27.67,27.67,0,0,1-4.78.63,10.31,10.31,0,0,1-4.36-.68,7.75,7.75,0,0,1-4.52-4.78,25.06,25.06,0,0,1-1.15-8.51,26.33,26.33,0,0,1,.42-4.57,34.52,34.52,0,0,1,1.13-4.54,34.08,34.08,0,0,1,1.63-4.1,24.39,24.39,0,0,1,1.87-3.28,14.43,14.43,0,0,1,3.33-3.52,4.16,4.16,0,0,1,3.12-.89,3.56,3.56,0,0,1,2.6,2,12.77,12.77,0,0,1,1.24,5.38,23,23,0,0,1,0,3.07,31.15,31.15,0,0,1-.39,3.34c-.19,1.12-.44,2.21-.74,3.28a22.86,22.86,0,0,1-2.47,5.72q-.81,1.34-1.71,2.55c-.59.81-1.2,1.56-1.81,2.26s-1.2,1.35-1.76,1.94a6.53,6.53,0,0,0,1,.63,4,4,0,0,0,1.23.47,10.55,10.55,0,0,0,2.89,0,25.6,25.6,0,0,0,3.26-.6c1.12-.28,2.26-.6,3.42-1s2.26-.74,3.31-1.13a2,2,0,0,1,1.63.05A1.92,1.92,0,0,1,148.85,260.27Zm-12.82-21c-.1-1.93-.45-3-1-3.1s-1.32.49-2.3,2a18.62,18.62,0,0,0-1.36,2.6c-.45,1-.88,2.17-1.28,3.42a30,30,0,0,0-1,3.89,26.56,26.56,0,0,0-.41,3.91,12.21,12.21,0,0,0,.73,4.89q1.35-1.63,2.71-3.49a16.42,16.42,0,0,0,2.89-6,25.37,25.37,0,0,0,.57-2.65q.24-1.42.37-2.84A19.92,19.92,0,0,0,136,239.31Z" fill="#1d92be"/><path d="M168.18,260.42a1.85,1.85,0,0,1,.13,1.47,1.7,1.7,0,0,1-1.24,1.1q-1.21.42-3.1,1.18t-4.15,1.44a31.18,31.18,0,0,1-4.78,1,16.11,16.11,0,0,1-4.94-.08,6.52,6.52,0,0,1-3.73-1.73q-2.42-2.31-1.63-6.57a16.79,16.79,0,0,1,1-3.73,24.33,24.33,0,0,1,1.55-3.15,23.45,23.45,0,0,1,1.71-2.52,21,21,0,0,1,1.6-1.84,19.89,19.89,0,0,1,1.47-1.34,6.39,6.39,0,0,1,1.31-.87,9.47,9.47,0,0,1,1.39-.55,7.9,7.9,0,0,1,1.58-.31,7,7,0,0,1,1.6,0,3.75,3.75,0,0,1,1.47.53,3.36,3.36,0,0,1,1.21,1.21,4.91,4.91,0,0,1,.58,1.6,7,7,0,0,1,.08,1.84A12.81,12.81,0,0,1,161,251a8.32,8.32,0,0,1-1.76,3.23,14.78,14.78,0,0,1-3,2.65,18.63,18.63,0,0,1-3.73,1.92,14.1,14.1,0,0,1-3.83.92,2.8,2.8,0,0,0,.42,2.08,2.67,2.67,0,0,0,1.73,1,10,10,0,0,0,3.92.08,31.81,31.81,0,0,0,4.2-1q2.07-.63,3.94-1.37t3.07-1.1a1.64,1.64,0,0,1,1.39.08A2.07,2.07,0,0,1,168.18,260.42Zm-10.87-10.29q.37-1.63-.21-2.15a1.49,1.49,0,0,0-1.05-.16,3.37,3.37,0,0,0-1.1.37,9.47,9.47,0,0,0-1.63,1.37,16,16,0,0,0-2.13,2.71,13.47,13.47,0,0,0-1.55,3.28,11.74,11.74,0,0,0,2.42-.74,13.72,13.72,0,0,0,2.36-1.26,9.36,9.36,0,0,0,1.86-1.6A4.61,4.61,0,0,0,157.31,250.13Z" fill="#1d92be"/><path d="M183.46,246.34a2.09,2.09,0,0,1-.87.74,1.63,1.63,0,0,1-1.29,0,7.27,7.27,0,0,1-1.47-.74,8.13,8.13,0,0,0-1.89.29,22.38,22.38,0,0,0-2.42.76q-1.26.47-2.5,1.08a15.43,15.43,0,0,0-2.13,1.24q-1.37.89-1.41,1.68t1.26,1.37q1.58.84,3.1,1.52a17.11,17.11,0,0,1,3.31,2,5.64,5.64,0,0,1,1.73,2.42,8,8,0,0,1,.53,2.79,9.3,9.3,0,0,1-.47,2.92,10.15,10.15,0,0,1-1.26,2.6A22.28,22.28,0,0,1,174.4,271a21.59,21.59,0,0,1-4.6,3.31,5.07,5.07,0,0,1-2.52.68,5.66,5.66,0,0,1-2.47-.58,2.4,2.4,0,0,1-1.34-1.47,2.45,2.45,0,0,1,.08-1.63,2,2,0,0,1,1.18-1.08,2,2,0,0,1,1.81.34,1.43,1.43,0,0,0,.95.29,2,2,0,0,0,.94-.29,20.71,20.71,0,0,0,3.39-2.6,14.63,14.63,0,0,0,2.55-3,7.15,7.15,0,0,0,.84-1.73,5.28,5.28,0,0,0,.26-1.58,2.9,2.9,0,0,0-.89-2.26,11.58,11.58,0,0,0-2.68-1.71q-1.69-.81-3.68-1.71a6.59,6.59,0,0,1-2.68-1.84,3.69,3.69,0,0,1-.89-2.36,4.37,4.37,0,0,1,.94-2.52,10.24,10.24,0,0,1,2.84-2.52,25.72,25.72,0,0,1,2.36-1.42A26.78,26.78,0,0,1,173.7,244a25.89,25.89,0,0,1,3.18-1,15.12,15.12,0,0,1,3.23-.47,4.36,4.36,0,0,1,1.89.29,3.19,3.19,0,0,1,1.31.92,2,2,0,0,1,.58,1.37A2.16,2.16,0,0,1,183.46,246.34Z" fill="#1d92be"/><path d="M110.55,309.28a2,2,0,0,1-1,2.82,6.26,6.26,0,0,1-1.58.4c-.63.09-1.29.15-2,.19s-1.36.05-2,.05-1.23,0-1.68-.05v10.85c.49.1.74.46.76,1.08a2.89,2.89,0,0,1-.81,1.91V338a2.45,2.45,0,0,1-.58,1.76,1.85,1.85,0,0,1-1.37.6,2.54,2.54,0,0,1-1.18-.31,2.63,2.63,0,0,1-1-1,2.06,2.06,0,0,1-.37-1.1,1.18,1.18,0,0,1,.53-1.1v-8q-3.42,1.47-6.36,2.46a32.18,32.18,0,0,1-6.2,1.41,17,17,0,0,1-5.57,0,7.47,7.47,0,0,1-3.94-1.91,7.88,7.88,0,0,1-2-3.67,15.16,15.16,0,0,1-.18-5.66,20.72,20.72,0,0,1,1.42-5.32,52.35,52.35,0,0,1,2.83-6q1.68-3,3.71-6t4.07-5.41A54.45,54.45,0,0,1,90,294.51,15.5,15.5,0,0,1,93.17,292a2.35,2.35,0,0,1,1.6-.39,2.06,2.06,0,0,1,1.18.66,1.73,1.73,0,0,1,.47.87,2.58,2.58,0,0,1,0,1,2.63,2.63,0,0,1-.58,1.16,2.16,2.16,0,0,1-1.42.58,13.74,13.74,0,0,0-2.57,2.21q-1.53,1.58-3.26,3.76T85.1,306.6q-1.76,2.57-3.23,5.25a43.82,43.82,0,0,0-2.47,5.27,20.14,20.14,0,0,0-1.26,4.75q-.37,4.25,1.26,5.82a4.07,4.07,0,0,0,2.36,1.1,13,13,0,0,0,3.47-.05,30.13,30.13,0,0,0,3.13-.63q1.65-.42,3.36-1t3.39-1.26c1.12-.45,2.18-.93,3.2-1.41V312.69l-2.34,0c-.86,0-1.71,0-2.55-.08s-1.63,0-2.36,0-1.31,0-1.73.08a5.22,5.22,0,0,1-.82.37,2.49,2.49,0,0,1-1.13.16,2.39,2.39,0,0,1-1.24-.53,2.86,2.86,0,0,1-.76-1,1.72,1.72,0,0,1,.06-1.38,2.36,2.36,0,0,1,1.26-1.12,7.27,7.27,0,0,1,2.24-.42q1.49-.11,3.41-.08t4.07.13q2.15.11,4.23.1,2.75,0,4.67-.08a8.18,8.18,0,0,0,2.49-.34,2.42,2.42,0,0,1,1.68,0A2,2,0,0,1,110.55,309.28Z" fill="#1d92be"/><path d="M145.75,323.57a2.19,2.19,0,0,1,.18,1.39,1.91,1.91,0,0,1-1,1.29,16.19,16.19,0,0,1-3,1.37,25,25,0,0,1-3.78,1,8.53,8.53,0,0,1-3.63-.26,4.7,4.7,0,0,1-2.78-2,7,7,0,0,1-.66-1.55,10.53,10.53,0,0,1-.34-2,27.91,27.91,0,0,1-2.57,2.86,19.39,19.39,0,0,1-2.89,2.39,12.55,12.55,0,0,1-4.2,1.86,8.61,8.61,0,0,1-3.83,0,5.71,5.71,0,0,1-2.6-1.37A6.46,6.46,0,0,1,113,326a11.67,11.67,0,0,1-.55-3.2,27.68,27.68,0,0,1,.08-3.57,25.82,25.82,0,0,1,.5-3.31,21.12,21.12,0,0,1,.66-2.42,2.23,2.23,0,0,1,.94-1.21,2.55,2.55,0,0,1,1.31-.37,1.92,1.92,0,0,1,1.39.6,1.49,1.49,0,0,1,.24,1.66,20.71,20.71,0,0,0-.63,2.57c-.18.94-.31,1.88-.42,2.81a17.08,17.08,0,0,0-.1,2.65,8.29,8.29,0,0,0,.31,2.1,2.41,2.41,0,0,0,1.68,1.73,4.35,4.35,0,0,0,2.13,0,6.78,6.78,0,0,0,2.5-1.16,22.19,22.19,0,0,0,5.1-4.94,20.93,20.93,0,0,0,2.89-5.25,1.65,1.65,0,0,1,1-1,3,3,0,0,1,1.42-.13,2.43,2.43,0,0,1,1.21.76,1.38,1.38,0,0,1,.27,1.34,20,20,0,0,0-.63,4.2,8.77,8.77,0,0,0,.42,3.2,2.26,2.26,0,0,0,1.21,1.37,3.69,3.69,0,0,0,1.79.21,11.6,11.6,0,0,0,3-.71,20,20,0,0,0,2.5-1.13,1.79,1.79,0,0,1,1.58-.26A1.75,1.75,0,0,1,145.75,323.57Z" fill="#1d92be"/><path d="M157.83,313.84a1.79,1.79,0,0,1-.47,1.2,2,2,0,0,1-1.47.59q-1.16,0-3.34-.1c-1.45-.07-2.86-.11-4.23-.11q0,1.47.11,3.07c.07,1.07.17,2.1.29,3.1s.26,2,.4,2.86a22.39,22.39,0,0,0,.47,2.36,1.75,1.75,0,0,1-.24,1.5,1.92,1.92,0,0,1-1.13.76,2.09,2.09,0,0,1-2.61-1.68,40.78,40.78,0,0,1-.93-5.46,59.64,59.64,0,0,1-.35-6.51h-3.83a1.7,1.7,0,0,1-1.44-.51,1.87,1.87,0,0,1-.5-1.28,2,2,0,0,1,.47-1.3,2.07,2.07,0,0,1,1.47-.69l1.68,0,2.15,0c0-1.08,0-2.33.13-3.73s.23-2.86.42-4.39.42-3,.68-4.57.55-3,.87-4.33c-.38-.18-.51-.51-.37-1a3.46,3.46,0,0,1,.42-.87c.21-.33.4-.66.58-1s.14-.36.21-.55a4.88,4.88,0,0,1,.21-.5,1.64,1.64,0,0,1,1.15-1,1.89,1.89,0,0,1,1.47.24,2.57,2.57,0,0,1,.94.89,2.22,2.22,0,0,1,.32,1.37,2.08,2.08,0,0,1-.21,1q-.21.39-.47.81c-.32,1.15-.61,2.49-.89,4s-.53,3.05-.76,4.65-.4,3.18-.53,4.75-.18,3-.18,4.25l1.6,0,2.15.08,2.26.13c.75.05,1.39.11,1.92.18a1.64,1.64,0,0,1,1.18.64A2,2,0,0,1,157.83,313.84Z" fill="#1d92be"/><path d="M180,323.46a1.85,1.85,0,0,1,.13,1.47,1.7,1.7,0,0,1-1.24,1.1q-1.21.42-3.1,1.18t-4.15,1.44a31.18,31.18,0,0,1-4.78,1,16.11,16.11,0,0,1-4.94-.08,6.52,6.52,0,0,1-3.73-1.73q-2.42-2.31-1.63-6.57a16.79,16.79,0,0,1,1-3.73,24.33,24.33,0,0,1,1.55-3.15,23.45,23.45,0,0,1,1.71-2.52,21,21,0,0,1,1.6-1.84,19.89,19.89,0,0,1,1.47-1.34,6.39,6.39,0,0,1,1.31-.87,9.47,9.47,0,0,1,1.39-.55,7.9,7.9,0,0,1,1.58-.31,7,7,0,0,1,1.6,0,3.75,3.75,0,0,1,1.47.53,3.36,3.36,0,0,1,1.21,1.21,4.91,4.91,0,0,1,.58,1.6,7,7,0,0,1,.08,1.84,12.81,12.81,0,0,1-.29,1.86,8.32,8.32,0,0,1-1.76,3.23,14.78,14.78,0,0,1-3,2.65,18.63,18.63,0,0,1-3.73,1.92,14.1,14.1,0,0,1-3.83.92,2.8,2.8,0,0,0,.42,2.08,2.67,2.67,0,0,0,1.73,1,10,10,0,0,0,3.92.08,31.81,31.81,0,0,0,4.2-1q2.07-.63,3.94-1.37t3.07-1.1a1.64,1.64,0,0,1,1.39.08A2.07,2.07,0,0,1,180,323.46Zm-10.87-10.29q.37-1.63-.21-2.15a1.49,1.49,0,0,0-1.05-.16,3.37,3.37,0,0,0-1.1.37,9.47,9.47,0,0,0-1.63,1.37,16,16,0,0,0-2.13,2.71,13.47,13.47,0,0,0-1.55,3.28,11.74,11.74,0,0,0,2.42-.74,13.72,13.72,0,0,0,2.36-1.26,9.36,9.36,0,0,0,1.86-1.6A4.61,4.61,0,0,0,169.13,313.16Z" fill="#1d92be"/><path d="M220.6,326.09a2.61,2.61,0,0,1-.16,1.34,1.62,1.62,0,0,1-1.15,1,25.89,25.89,0,0,1-3.63.92c-1.54.3-3.17.53-4.89.71s-3.41.27-5.07.29a21.79,21.79,0,0,1-4.17-.29,2.93,2.93,0,0,1-2.52-1.94,2.66,2.66,0,0,1-.06-1.58,4.87,4.87,0,0,1,.95-1.84,31.2,31.2,0,0,1,2-2.36q1.1-1.15,2.18-2.15c.72-.66,1.39-1.28,2-1.84l1.63-1.47q1.05-.95.79-1.58c-.07-.35-.51-.53-1.31-.53q-1.63,0-3.44-.08t-2.76-.18a2.35,2.35,0,0,1-1.55-.71,1.94,1.94,0,0,1-.55-1.34,1.77,1.77,0,0,1,.95-1.58,2.4,2.4,0,0,1,1.36-.42,2.27,2.27,0,0,1,1.37.42c.42,0,.91.06,1.47.08l1.71.05,1.68.05,1.39,0a6.5,6.5,0,0,1,3,.6,3.23,3.23,0,0,1,1.6,4.12,7.8,7.8,0,0,1-2,2.89L210,320l-1.74,1.58q-.92.84-1.81,1.73a20.23,20.23,0,0,0-1.63,1.84.75.75,0,0,0-.24.76c.09.23.34.36.76.4a19.21,19.21,0,0,0,2.71,0c1.1-.05,2.27-.14,3.49-.26s2.44-.29,3.63-.5a26.18,26.18,0,0,0,3.15-.74,1.76,1.76,0,0,1,1.53.16A1.78,1.78,0,0,1,220.6,326.09Z" fill="#1d92be"/><path d="M256.9,323.57a2.19,2.19,0,0,1,.18,1.39,1.91,1.91,0,0,1-1,1.29,16.19,16.19,0,0,1-3,1.37,25,25,0,0,1-3.78,1,8.53,8.53,0,0,1-3.63-.26,4.7,4.7,0,0,1-2.78-2,7,7,0,0,1-.66-1.55,10.53,10.53,0,0,1-.34-2,27.91,27.91,0,0,1-2.57,2.86,19.39,19.39,0,0,1-2.89,2.39,12.55,12.55,0,0,1-4.2,1.86,8.61,8.61,0,0,1-3.83,0,5.71,5.71,0,0,1-2.6-1.37,6.46,6.46,0,0,1-1.65-2.57,11.67,11.67,0,0,1-.55-3.2,27.68,27.68,0,0,1,.08-3.57,25.82,25.82,0,0,1,.5-3.31,21.12,21.12,0,0,1,.66-2.42,2.23,2.23,0,0,1,.94-1.21,2.55,2.55,0,0,1,1.31-.37,1.92,1.92,0,0,1,1.39.6,1.49,1.49,0,0,1,.24,1.66,20.71,20.71,0,0,0-.63,2.57c-.18.94-.31,1.88-.42,2.81a17.08,17.08,0,0,0-.1,2.65,8.29,8.29,0,0,0,.31,2.1,2.41,2.41,0,0,0,1.68,1.73,4.35,4.35,0,0,0,2.13,0,6.78,6.78,0,0,0,2.5-1.16,22.19,22.19,0,0,0,5.1-4.94,20.93,20.93,0,0,0,2.89-5.25,1.65,1.65,0,0,1,1-1,3,3,0,0,1,1.42-.13,2.43,2.43,0,0,1,1.21.76,1.38,1.38,0,0,1,.27,1.34,20,20,0,0,0-.63,4.2,8.77,8.77,0,0,0,.42,3.2,2.26,2.26,0,0,0,1.21,1.37,3.69,3.69,0,0,0,1.79.21,11.6,11.6,0,0,0,3-.71,20,20,0,0,0,2.5-1.13,1.79,1.79,0,0,1,1.58-.26A1.75,1.75,0,0,1,256.9,323.57Z" fill="#1d92be"/><path d="M305.12,324.77a3.35,3.35,0,0,1-.76.81,2,2,0,0,1-1.08.45A.71.71,0,0,1,303,326a2.27,2.27,0,0,0-.53-.1c-.45.07-1.24.24-2.34.5s-2.21.59-3.33,1a11,11,0,0,1-4.23.63,5.11,5.11,0,0,1-3.71-1.94,10.42,10.42,0,0,1-1.94-3.39q-.74-2-1.31-4.28-.32-1.21-1.1-1.21a5.78,5.78,0,0,0-2.79,1.42,9.74,9.74,0,0,0-1.15.92q-.74.66-1.63,1.58c-.59.61-1.2,1.26-1.81,1.95s-1.18,1.36-1.71,2a2.29,2.29,0,0,1-.94.79,2.76,2.76,0,0,1-1.16.26,2.56,2.56,0,0,1-1.15-.29,2,2,0,0,1-.89-.87,24.47,24.47,0,0,1-1.24-3.31,24.54,24.54,0,0,0-1.13-3.1,1,1,0,0,0-1.15-.52,2.86,2.86,0,0,0-1.95,1.42,23.68,23.68,0,0,1-1.92,2.39q-1.08,1.18-2.13,2.39a21.11,21.11,0,0,0-1.74,2.28q-.89,1.34-1.52,2.34a2.15,2.15,0,0,1-1.39,1,2.47,2.47,0,0,1-1.56-.13,2.24,2.24,0,0,1-1-.84,2.92,2.92,0,0,1-.43-1.42c-.07-1.12-.12-2.35-.16-3.7s0-2.68,0-4,0-2.55.08-3.7.07-2.1.1-2.84a2.11,2.11,0,0,1,.7-1.52,2.08,2.08,0,0,1,1.32-.47,1.93,1.93,0,0,1,1.4.47,1.76,1.76,0,0,1,.57,1.52q0,2.15-.05,4.65t.05,4.75c.21-.28.45-.62.74-1a8.77,8.77,0,0,1,1-1.18q.78-.84,1.57-1.81l1.53-1.86a13.36,13.36,0,0,1,2.26-2.15,6.55,6.55,0,0,1,2.73-1.31,3.76,3.76,0,0,1,2.28.29,4.25,4.25,0,0,1,1.87,2.23c.28.7.56,1.44.84,2.21l.68,1.89c.07.32.21.48.42.5a.78.78,0,0,0,.63-.34q.47-.53,1.08-1.16c.4-.42.82-.84,1.26-1.26s.86-.82,1.29-1.21l1.1-1q3.62-3.1,6.14-3.1a2.92,2.92,0,0,1,2.36,1,6.31,6.31,0,0,1,1.37,3,24.83,24.83,0,0,0,1.08,4,10.64,10.64,0,0,0,1.55,3,2.06,2.06,0,0,0,1.63.81,6.44,6.44,0,0,0,1.74-.29c.63-.21,1.29-.42,2-.63s1.37-.4,2.05-.58l1.94-.47a11.67,11.67,0,0,1,1.6-.26,2.92,2.92,0,0,1,2.1.63A1.58,1.58,0,0,1,305.12,324.77Z" fill="#1d92be"/><path d="M110.55,372.32a2,2,0,0,1-1,2.82,6.26,6.26,0,0,1-1.58.4c-.63.09-1.29.15-2,.19s-1.36.05-2,.05-1.23,0-1.68-.05v10.85c.49.1.74.46.76,1.08a2.89,2.89,0,0,1-.81,1.91V401a2.45,2.45,0,0,1-.58,1.76,1.85,1.85,0,0,1-1.37.6,2.54,2.54,0,0,1-1.18-.31,2.63,2.63,0,0,1-1-1,2.06,2.06,0,0,1-.37-1.1,1.18,1.18,0,0,1,.53-1.1v-8q-3.42,1.47-6.36,2.46a32.18,32.18,0,0,1-6.2,1.41,17,17,0,0,1-5.57,0,7.47,7.47,0,0,1-3.94-1.91,7.88,7.88,0,0,1-2-3.67,15.16,15.16,0,0,1-.18-5.66,20.72,20.72,0,0,1,1.42-5.32,52.35,52.35,0,0,1,2.83-6q1.68-3,3.71-6t4.07-5.41A54.45,54.45,0,0,1,90,357.55,15.5,15.5,0,0,1,93.17,355a2.35,2.35,0,0,1,1.6-.39,2.06,2.06,0,0,1,1.18.66,1.73,1.73,0,0,1,.47.87,2.58,2.58,0,0,1,0,1,2.63,2.63,0,0,1-.58,1.16,2.16,2.16,0,0,1-1.42.58,13.74,13.74,0,0,0-2.57,2.21q-1.53,1.58-3.26,3.76t-3.49,4.76q-1.76,2.57-3.23,5.25a43.82,43.82,0,0,0-2.47,5.27,20.14,20.14,0,0,0-1.26,4.75q-.37,4.25,1.26,5.82a4.07,4.07,0,0,0,2.36,1.1,13,13,0,0,0,3.47-.05,30.13,30.13,0,0,0,3.13-.63q1.65-.42,3.36-1t3.39-1.26c1.12-.45,2.18-.93,3.2-1.41V375.73l-2.34,0c-.86,0-1.71,0-2.55-.08s-1.63,0-2.36,0-1.31,0-1.73.08a5.22,5.22,0,0,1-.82.37,2.49,2.49,0,0,1-1.13.16,2.39,2.39,0,0,1-1.24-.53,2.86,2.86,0,0,1-.76-1,1.72,1.72,0,0,1,.06-1.38,2.36,2.36,0,0,1,1.26-1.12,7.27,7.27,0,0,1,2.24-.42q1.49-.11,3.41-.08t4.07.13q2.15.11,4.23.1,2.75,0,4.67-.08a8.18,8.18,0,0,0,2.49-.34,2.42,2.42,0,0,1,1.68,0A2,2,0,0,1,110.55,372.32Z" fill="#1d92be"/><path d="M132.46,386.49a1.85,1.85,0,0,1,.13,1.47,1.7,1.7,0,0,1-1.24,1.1q-1.21.42-3.1,1.18t-4.15,1.44a31.18,31.18,0,0,1-4.78,1,16.11,16.11,0,0,1-4.94-.08,6.52,6.52,0,0,1-3.73-1.73q-2.42-2.31-1.63-6.57a16.79,16.79,0,0,1,1-3.73,24.33,24.33,0,0,1,1.55-3.15,23.45,23.45,0,0,1,1.71-2.52,21,21,0,0,1,1.6-1.84,19.89,19.89,0,0,1,1.47-1.34,6.39,6.39,0,0,1,1.31-.87,9.47,9.47,0,0,1,1.39-.55,7.9,7.9,0,0,1,1.58-.31,7,7,0,0,1,1.6,0,3.75,3.75,0,0,1,1.47.53,3.36,3.36,0,0,1,1.21,1.21,4.91,4.91,0,0,1,.58,1.6,7,7,0,0,1,.08,1.84,12.81,12.81,0,0,1-.29,1.86,8.32,8.32,0,0,1-1.76,3.23,14.78,14.78,0,0,1-3,2.65,18.63,18.63,0,0,1-3.73,1.92,14.1,14.1,0,0,1-3.83.92,2.8,2.8,0,0,0,.42,2.08,2.67,2.67,0,0,0,1.73,1,10,10,0,0,0,3.92.08,31.81,31.81,0,0,0,4.2-1q2.07-.63,3.94-1.37t3.07-1.1a1.64,1.64,0,0,1,1.39.08A2.07,2.07,0,0,1,132.46,386.49ZM121.59,376.2q.37-1.63-.21-2.15a1.49,1.49,0,0,0-1.05-.16,3.37,3.37,0,0,0-1.1.37,9.47,9.47,0,0,0-1.63,1.37,16,16,0,0,0-2.13,2.71,13.47,13.47,0,0,0-1.55,3.28,11.74,11.74,0,0,0,2.42-.74,13.72,13.72,0,0,0,2.36-1.26,9.36,9.36,0,0,0,1.86-1.6A4.61,4.61,0,0,0,121.59,376.2Z" fill="#1d92be"/><path d="M149.16,375.41a4.61,4.61,0,0,1,1,3.39,10.38,10.38,0,0,1-1.42,4.49,20.33,20.33,0,0,1-1.6,2.73,24,24,0,0,1-6.2,6.23q-2.23,1.55-4.54,3a1.79,1.79,0,0,1-1.52.31,1.94,1.94,0,0,1-1.15-.89,2,2,0,0,1-.21-1.44,1.83,1.83,0,0,1,.79-1.24q2.47-1.58,4.46-3a18,18,0,0,0,3.47-3.12,20.06,20.06,0,0,0,1.76-2.26,13.22,13.22,0,0,0,1.24-2.21,8.37,8.37,0,0,0,.63-1.71,1.53,1.53,0,0,0-.26-1.29,1.33,1.33,0,0,0-.79-.5,4.64,4.64,0,0,0-1.52,0,16.67,16.67,0,0,0-3.26.79,19.18,19.18,0,0,0-3.68,1.68,11.45,11.45,0,0,0-1.74,1.26,5,5,0,0,0-1.26,1.63c-.07.18-.13.34-.18.5l-.18.55a7.9,7.9,0,0,0-.08,1.44c0,.47,0,.92.08,1.34a2,2,0,0,1-1.84,2,1.81,1.81,0,0,1-1.29-.42,2.43,2.43,0,0,1-.81-1.47,22.06,22.06,0,0,1-.39-3.6q-.08-2.07,0-4.41c.05-1.56.15-3.17.29-4.83s.31-3.27.5-4.81.39-3,.6-4.33.42-2.51.63-3.49c.1-.56.22-1.06.34-1.5a3.77,3.77,0,0,1,.6-1.24,2.13,2.13,0,0,1,2-.94,2,2,0,0,1,1.31.45,1.36,1.36,0,0,1,.42,1.29A3.23,3.23,0,0,1,135,361a6,6,0,0,0-.42,1q-.26,1.52-.55,3.44t-.58,4.1q-.29,2.18-.5,4.49t-.32,4.57a7.29,7.29,0,0,1,1.36-1.23,12.21,12.21,0,0,1,1.68-1,29.72,29.72,0,0,1,3.52-1.44,20.48,20.48,0,0,1,4.1-1,8.08,8.08,0,0,1,3.55.13A5.17,5.17,0,0,1,149.16,375.41Z" fill="#1d92be"/><path d="M185.62,386.6a2.19,2.19,0,0,1,.18,1.39,1.91,1.91,0,0,1-1,1.29,16.19,16.19,0,0,1-3,1.37,25,25,0,0,1-3.78,1,8.53,8.53,0,0,1-3.63-.26,4.7,4.7,0,0,1-2.78-2,7,7,0,0,1-.66-1.55,10.53,10.53,0,0,1-.34-2,27.91,27.91,0,0,1-2.57,2.86,19.39,19.39,0,0,1-2.89,2.39,12.55,12.55,0,0,1-4.2,1.86,8.61,8.61,0,0,1-3.83,0,5.71,5.71,0,0,1-2.6-1.37,6.46,6.46,0,0,1-1.65-2.57,11.67,11.67,0,0,1-.55-3.2,27.68,27.68,0,0,1,.08-3.57,25.82,25.82,0,0,1,.5-3.31,21.12,21.12,0,0,1,.66-2.42,2.23,2.23,0,0,1,.94-1.21,2.55,2.55,0,0,1,1.31-.37,1.92,1.92,0,0,1,1.39.6,1.49,1.49,0,0,1,.24,1.66,20.71,20.71,0,0,0-.63,2.57c-.18.94-.31,1.88-.42,2.81a17.08,17.08,0,0,0-.1,2.65,8.29,8.29,0,0,0,.31,2.1,2.41,2.41,0,0,0,1.68,1.73,4.35,4.35,0,0,0,2.13,0,6.78,6.78,0,0,0,2.5-1.16A22.19,22.19,0,0,0,168,383a20.93,20.93,0,0,0,2.89-5.25,1.65,1.65,0,0,1,1-1,3,3,0,0,1,1.42-.13,2.43,2.43,0,0,1,1.21.76,1.38,1.38,0,0,1,.27,1.34,20,20,0,0,0-.63,4.2,8.77,8.77,0,0,0,.42,3.2,2.26,2.26,0,0,0,1.21,1.37,3.69,3.69,0,0,0,1.79.21,11.6,11.6,0,0,0,3-.71,20,20,0,0,0,2.5-1.13,1.79,1.79,0,0,1,1.58-.26A1.75,1.75,0,0,1,185.62,386.6Z" fill="#1d92be"/><path d="M203.43,379.88a1.88,1.88,0,0,1-1,.79,1.71,1.71,0,0,1-1.39-.21,4.4,4.4,0,0,0-1-.34,2,2,0,0,0-.87,0,11,11,0,0,0-2,.47q-1.13.37-2.39.89a25.15,25.15,0,0,0-2.49,1.21q-1.24.68-2.34,1.37a11.53,11.53,0,0,0-1.53,1.16,4.36,4.36,0,0,0-.89,1,5.41,5.41,0,0,0-.58,1.39c-.1.44-.19.9-.26,1.39a2.06,2.06,0,0,1-.66,1.44,2,2,0,0,1-1.29.44,1.91,1.91,0,0,1-1.31-.52,2.18,2.18,0,0,1-.63-1.58c0-.66-.06-1.43-.06-2.31v-2.63c0-.91,0-1.78.08-2.6s.11-1.55.18-2.18a.58.58,0,0,1-.45-.42.77.77,0,0,1,.13-.63,6.53,6.53,0,0,0,.53-.94c.14-.31.28-.65.42-1a1.35,1.35,0,0,1,.92-.92,2.89,2.89,0,0,1,1.39,0,2.65,2.65,0,0,1,1,.68,1.27,1.27,0,0,1,.29,1.21c-.07.32-.14.68-.21,1.1s-.13.86-.18,1.31-.09.9-.11,1.34,0,.81,0,1.13a5.21,5.21,0,0,1,.71-.68l.76-.58a25.6,25.6,0,0,1,2.68-1.58c1-.53,2-1,3.1-1.44a25.68,25.68,0,0,1,3.12-1.08,12.94,12.94,0,0,1,2.76-.47,4.73,4.73,0,0,1,1.89.26,6.63,6.63,0,0,1,1.31.63,1.75,1.75,0,0,1,.74,1.42A2.52,2.52,0,0,1,203.43,379.88Z" fill="#1d92be"/><path d="M223.65,376.87a1.79,1.79,0,0,1-.47,1.2,2,2,0,0,1-1.47.59q-1.16,0-3.34-.1c-1.45-.07-2.86-.11-4.23-.11q0,1.47.11,3.07c.07,1.07.17,2.1.29,3.1s.26,2,.4,2.86a22.39,22.39,0,0,0,.47,2.36,1.75,1.75,0,0,1-.24,1.5,1.92,1.92,0,0,1-1.13.76,2.09,2.09,0,0,1-2.61-1.68,40.78,40.78,0,0,1-.93-5.46,59.64,59.64,0,0,1-.35-6.51h-3.83a1.7,1.7,0,0,1-1.44-.51,1.87,1.87,0,0,1-.5-1.28,2,2,0,0,1,.47-1.3,2.07,2.07,0,0,1,1.47-.69l1.68,0,2.15,0c0-1.08,0-2.33.13-3.73s.23-2.86.42-4.39.42-3,.68-4.57.55-3,.87-4.33c-.38-.18-.51-.51-.37-1a3.46,3.46,0,0,1,.42-.87c.21-.33.4-.66.58-1s.14-.36.21-.55a4.88,4.88,0,0,1,.21-.5,1.64,1.64,0,0,1,1.15-1,1.89,1.89,0,0,1,1.47.24,2.57,2.57,0,0,1,.94.89,2.22,2.22,0,0,1,.32,1.37,2.08,2.08,0,0,1-.21,1q-.21.39-.47.81c-.32,1.15-.61,2.49-.89,4s-.53,3.05-.76,4.65-.4,3.18-.53,4.75-.18,3-.18,4.25l1.6,0,2.15.08,2.26.13c.75.05,1.39.11,1.92.18a1.64,1.64,0,0,1,1.18.64A2,2,0,0,1,223.65,376.87Z" fill="#1d92be"/><path d="M243.56,372.42a2.09,2.09,0,0,1-.87.74,1.63,1.63,0,0,1-1.29,0,7.27,7.27,0,0,1-1.47-.74,8.13,8.13,0,0,0-1.89.29,22.38,22.38,0,0,0-2.42.76q-1.26.47-2.5,1.08a15.43,15.43,0,0,0-2.13,1.24q-1.37.89-1.41,1.68t1.26,1.37q1.58.84,3.1,1.52a17.11,17.11,0,0,1,3.31,2,5.64,5.64,0,0,1,1.73,2.42,8,8,0,0,1,.53,2.79,9.3,9.3,0,0,1-.47,2.92,10.15,10.15,0,0,1-1.26,2.6,22.28,22.28,0,0,1-3.28,3.94,21.59,21.59,0,0,1-4.6,3.31,5.07,5.07,0,0,1-2.52.68,5.66,5.66,0,0,1-2.47-.58,2.4,2.4,0,0,1-1.34-1.47,2.45,2.45,0,0,1,.08-1.63,2,2,0,0,1,1.18-1.08,2,2,0,0,1,1.81.34,1.43,1.43,0,0,0,.95.29,2,2,0,0,0,.94-.29,20.71,20.71,0,0,0,3.39-2.6,14.63,14.63,0,0,0,2.55-3,7.15,7.15,0,0,0,.84-1.73,5.28,5.28,0,0,0,.26-1.58,2.9,2.9,0,0,0-.89-2.26,11.58,11.58,0,0,0-2.68-1.71q-1.69-.81-3.68-1.71a6.59,6.59,0,0,1-2.68-1.84,3.69,3.69,0,0,1-.89-2.36,4.37,4.37,0,0,1,.94-2.52,10.24,10.24,0,0,1,2.84-2.52,25.72,25.72,0,0,1,2.36-1.42,26.78,26.78,0,0,1,2.89-1.34,25.89,25.89,0,0,1,3.18-1,15.12,15.12,0,0,1,3.23-.47,4.36,4.36,0,0,1,1.89.29,3.19,3.19,0,0,1,1.31.92,2,2,0,0,1,.58,1.37A2.16,2.16,0,0,1,243.56,372.42Z" fill="#1d92be"/><path d="M260,376.87a1.79,1.79,0,0,1-.47,1.2,2,2,0,0,1-1.47.59q-1.16,0-3.34-.1c-1.45-.07-2.86-.11-4.23-.11q0,1.47.11,3.07c.07,1.07.17,2.1.29,3.1s.26,2,.4,2.86a22.39,22.39,0,0,0,.47,2.36,1.75,1.75,0,0,1-.24,1.5,1.92,1.92,0,0,1-1.13.76,2.09,2.09,0,0,1-2.61-1.68,40.78,40.78,0,0,1-.93-5.46,59.64,59.64,0,0,1-.35-6.51h-3.83a1.7,1.7,0,0,1-1.44-.51,1.87,1.87,0,0,1-.5-1.28,2,2,0,0,1,.47-1.3,2.07,2.07,0,0,1,1.47-.69l1.68,0,2.15,0c0-1.08,0-2.33.13-3.73s.23-2.86.42-4.39.42-3,.68-4.57.55-3,.87-4.33c-.38-.18-.51-.51-.37-1a3.46,3.46,0,0,1,.42-.87c.21-.33.4-.66.58-1s.14-.36.21-.55a4.88,4.88,0,0,1,.21-.5,1.64,1.64,0,0,1,1.15-1,1.89,1.89,0,0,1,1.47.24,2.57,2.57,0,0,1,.94.89,2.22,2.22,0,0,1,.32,1.37,2.08,2.08,0,0,1-.21,1q-.21.39-.47.81c-.32,1.15-.61,2.49-.89,4s-.53,3.05-.76,4.65-.4,3.18-.53,4.75-.18,3-.18,4.25l1.6,0,2.15.08,2.26.13c.75.05,1.39.11,1.92.18a1.64,1.64,0,0,1,1.18.64A2,2,0,0,1,260,376.87Z" fill="#1d92be"/><path d="M288.58,386.23a2,2,0,0,1,.39,1.58,2,2,0,0,1-1,1.42,26.77,26.77,0,0,1-4.07,1.81,18.81,18.81,0,0,1-4.23,1,8.26,8.26,0,0,1-3.54-.26,5.18,5.18,0,0,1-2.78-3.26,5.85,5.85,0,0,1-.29-1.68.52.52,0,0,0-.39-.5.92.92,0,0,0-.76.24,15.63,15.63,0,0,0-1.39,1q-.81.66-1.73,1.44c-.62.52-1.24,1.07-1.87,1.63s-1.22,1.07-1.78,1.52a6.84,6.84,0,0,1-3.73,1.6,3.8,3.8,0,0,1-2.83-.92,4.59,4.59,0,0,1-1.37-3.63,10.19,10.19,0,0,1,.37-2.28,12.16,12.16,0,0,1,.84-2.18,19.87,19.87,0,0,1,1.94-3.1,32.48,32.48,0,0,1,2.45-2.86,29.4,29.4,0,0,1,2.6-2.42q1.31-1.07,2.42-1.81.95-.63,2.15-1.34a9.6,9.6,0,0,1,2.6-1.05,7.72,7.72,0,0,1,2.92-.13,6.14,6.14,0,0,1,3,1.47,1.85,1.85,0,0,1,.74,1.26,2.23,2.23,0,0,1-.26,1.26,2.05,2.05,0,0,1-1.34,1,2.17,2.17,0,0,1-1.76-.29,3.29,3.29,0,0,0-2.65-.71,9,9,0,0,0-3.39,1.55,21.62,21.62,0,0,0-2.13,1.65,27.71,27.71,0,0,0-2.29,2.23q-1.1,1.21-2.07,2.49a14.66,14.66,0,0,0-1.55,2.49,4.59,4.59,0,0,0-.42,1.52c-.07.6,0,1,.32,1.21s.94.16,1.68-.47l2-1.68c.79-.66,1.6-1.34,2.44-2s1.67-1.34,2.5-2a26.19,26.19,0,0,1,2.18-1.52,5.51,5.51,0,0,1,1.6-.66,3.13,3.13,0,0,1,1.44,0,1.67,1.67,0,0,1,1,.68,2.45,2.45,0,0,1,.37,1.42,15,15,0,0,0,0,2,6,6,0,0,0,.34,1.6,2.12,2.12,0,0,0,.87,1.21,2.55,2.55,0,0,0,1.44.26,14.89,14.89,0,0,0,1.57-.34c.6-.16,1.19-.34,1.79-.55s1.18-.43,1.76-.66,1.08-.45,1.5-.66a1.83,1.83,0,0,1,2.36.42Z" fill="#1d92be"/><path d="M304.55,373.24a2,2,0,0,1,1.08,1.36,2.1,2.1,0,0,1-.24,1.43,2.25,2.25,0,0,1-1.07,1,1.45,1.45,0,0,1-1.44-.16,1.62,1.62,0,0,0-.68-.26,5.32,5.32,0,0,0-.74-.05,7.1,7.1,0,0,0-2.21.42,18.39,18.39,0,0,0-2.55,1.08,18.91,18.91,0,0,0-2.55,1.58,19.23,19.23,0,0,0-2.26,1.92,13.88,13.88,0,0,0-1.5,2.1,5.64,5.64,0,0,0-.81,2.1,1.06,1.06,0,0,0,.34,1.1q.44.31,1.6-.37l1.63-.94q.9-.53,1.84-1c.63-.33,1.25-.63,1.87-.89a12.64,12.64,0,0,1,1.71-.6,4.37,4.37,0,0,1,2.13,0,2.36,2.36,0,0,1,1.5,1.26,8.83,8.83,0,0,1,.68,2.28,31.3,31.3,0,0,1,.47,3.65,43.21,43.21,0,0,1,.11,4.33,20.48,20.48,0,0,1-.53,4.28,19.26,19.26,0,0,1-2.65,6.23,16.14,16.14,0,0,1-5.28,5,1.92,1.92,0,0,1-1.62.21,2.35,2.35,0,0,1-1.26-.84,1.88,1.88,0,0,1-.32-1.37,2.1,2.1,0,0,1,1-1.37,12.71,12.71,0,0,0,4.18-4,15.38,15.38,0,0,0,2-4.81,16.65,16.65,0,0,0,.47-5.2q-.21-2.26-.53-4.31-.11-.68-.5-.84a1.23,1.23,0,0,0-1,.1,26.32,26.32,0,0,0-2.47,1.24l-2.83,1.55a7.92,7.92,0,0,1-2.84,1.08,4.35,4.35,0,0,1-2.31-.24,3.16,3.16,0,0,1-1.55-1.39,4.78,4.78,0,0,1-.55-2.39,9.18,9.18,0,0,1,1.29-4.65,23.27,23.27,0,0,1,3-4.07,22.86,22.86,0,0,1,2.55-2.27,20.51,20.51,0,0,1,3.07-2,19.09,19.09,0,0,1,3.36-1.36,11.93,11.93,0,0,1,3.36-.51q.84,0,1.63.08A3.51,3.51,0,0,1,304.55,373.24Z" fill="#1d92be"/><path d="M312.11,388a2.63,2.63,0,0,1,.71,1,3.34,3.34,0,0,1,.24,1.23,2.71,2.71,0,0,1-.26,1.18,2.54,2.54,0,0,1-.74.92,2.6,2.6,0,0,1-1.89.6,2.55,2.55,0,0,1-1.78-.92,2.84,2.84,0,0,1-.71-2,2.64,2.64,0,0,1,1-2,2.73,2.73,0,0,1,1.74-.58A2.52,2.52,0,0,1,312.11,388ZM315,359.6a2.4,2.4,0,0,1-.11.81,1.92,1.92,0,0,1-.26.5q-.11,1.79-.24,4c-.09,1.51-.18,3.08-.29,4.73s-.23,3.31-.37,5-.3,3.26-.47,4.73a1.88,1.88,0,0,1-.65,1.37,1.84,1.84,0,0,1-1.29.37,2.16,2.16,0,0,1-1.29-.53,1.46,1.46,0,0,1-.45-1.37q.26-2.68.47-5.78t.42-6q.21-2.94.37-5.46c.11-1.68.21-3,.32-4.1a1.87,1.87,0,0,1,.63-1.42,2,2,0,0,1,1.31-.47,1.65,1.65,0,0,1,1.08.42,2.1,2.1,0,0,1,.66,1.26,5.6,5.6,0,0,1,.13,1C315,359,315,359.35,315,359.6Z" fill="#1d92be"/></g></svg>