<svg id="card-3-2" xmlns="http://www.w3.org/2000/svg" viewBox="0 0 444 666"><title>card-3-2</title><g id="card-3-2-lines"><path d="M87.42,332.52l-30.69-.09h0a.73.73,0,0,0,0,1.46l30.71.09c0-.33,0-.65,0-1C87.41,332.84,87.42,332.68,87.42,332.52Z"/><path d="M62.4,360a.73.73,0,0,0,.12,1.45h.12L88.94,357c-.06-.48-.1-1-.15-1.45Z"/><path d="M78.93,385.74a.73.73,0,0,0,.25,1.41.67.67,0,0,0,.25,0l14.48-5.34c-.13-.47-.28-.93-.4-1.41Z"/><path d="M365.19,386.8a.69.69,0,0,0,.26.05.73.73,0,0,0,.26-1.41l-15.07-5.65c-.12.47-.26.94-.39,1.41Z"/><path d="M381.68,361.12h.13a.73.73,0,0,0,.13-1.45L355.27,355c-.06.48-.1,1-.16,1.45Z"/><path d="M387.27,332.1,356.57,332c0,.33,0,.66,0,1,0,.15,0,.31,0,.47l30.69.09h0a.73.73,0,0,0,0-1.46Z"/><path d="M381.6,306a.73.73,0,0,0,.6-.84.71.71,0,0,0-.84-.6L355.05,309c.06.48.1,1,.16,1.45Z"/><path d="M365.07,280.26a.73.73,0,0,0-.51-1.37l-14.48,5.35c.13.47.28.93.4,1.41Z"/><path d="M78.83,279.2a.72.72,0,0,0-.94.42.73.73,0,0,0,.43.94l15.06,5.65c.13-.47.26-.94.39-1.41Z"/><path d="M62.33,304.88a.71.71,0,0,0-.84.59.72.72,0,0,0,.59.84L88.73,311c.06-.48.09-1,.16-1.45Z"/></g><path d="M138.54,324.2l-.12.43-.21,1q-.25,1.13-.27,1.25l-.78,7.15q-.19,1.8-.41,6.31a38.62,38.62,0,0,1-1.07,8.36,11.77,11.77,0,0,1-2.83,4.84q-4.65,4.9-9.9,4.9a5.66,5.66,0,0,1-4.22-1.72,5.89,5.89,0,0,1-1.68-4.29q0-5.25,6.43-10.36-1.37-1.08-1.37-3.79A14.93,14.93,0,0,1,126,328.05a11.93,11.93,0,0,1,9.18-4.36A8.65,8.65,0,0,1,138.54,324.2Zm-4.22,10.27q-5.27,8.05-9.55,8.05l-.62,0q-4.55,4.56-4.55,8.13a5.42,5.42,0,0,0,1.73,4.09,6,6,0,0,0,4.29,1.65,6.7,6.7,0,0,0,6.06-3.47q1.6-2.67,2.23-12.75Q134.15,336.32,134.32,334.47Zm.87-7.82a6,6,0,0,0-3.54-1q-2.68,0-4.52,3.36a17,17,0,0,0-1.85,8.26q0,2.54,1.5,2.54,1.72,0,4.2-2.66a14.31,14.31,0,0,0,3.95-8.36Z"/><path d="M148.9,336.39q.57.27.56.7,0,1.41-2.1,3.48t-3.53,2.07q-1.62,0-1.62-2.34a24.75,24.75,0,0,1,.18-2.91l.21-1.74,1.51-13.59a18.75,18.75,0,0,1,4.27-10.37q3.56-4.16,8.21-4.16a8,8,0,0,1,1.91.2l-2.77,2.83a6.67,6.67,0,0,0-2.15-.31,5,5,0,0,0-4.38,2.06q-1.45,2.06-2,7l-1.81,16.36q-.22,1.89-.21,2.71,0,1.76.6,1.76t1.69-1.16A7.46,7.46,0,0,0,148.9,336.39Z"/><path d="M165.78,334.46a26.68,26.68,0,0,1-5,5.8q-2.8,2.38-4.56,2.38-1.94,0-1.94-2.58a31.08,31.08,0,0,1,.25-3.14l.7-6.4q0-.13.1-1.13l.12-1.27a10,10,0,0,0,.06-1q0-1.13-.64-1.13-1.48,0-3.2,3.32a.81.81,0,0,1-.37-.62q0-1.21,2.16-3.22t3.43-2q1.62,0,1.62,2.23a11.4,11.4,0,0,1-.08,1.23l-.18,1.5-.17,1.64-.61,5.59a26.69,26.69,0,0,0-.16,2.89q0,1.35,1,1.35,2.2,0,5-3.63a15.56,15.56,0,0,0,3.28-7.19l.68-4.63,3.16-1.07q-.55,2.26-.82,4l-1.18,8.15q-.1.74-.16,1.25l-.14,1.07a13.74,13.74,0,0,0-.12,1.4q0,.84.47.84,1.66,0,3.38-3.65.53.31.53.63,0,.68-1.7,2.75-2.29,2.81-4.24,2.81-1.43,0-1.43-1.91a12.88,12.88,0,0,1,.14-1.62l.22-1.56q.18-1.27.24-1.72ZM160,320.92a4.93,4.93,0,0,0-1.84-2.19l2.32-2.19a5.08,5.08,0,0,1,1.74,2.19Zm6.31,0a4.93,4.93,0,0,0-1.84-2.19l2.32-2.19a5.08,5.08,0,0,1,1.74,2.19Z"/><path d="M187.66,323.95l-2.23,2.68a7.83,7.83,0,0,0-3-.64,4.63,4.63,0,0,0-4,2.17,10.43,10.43,0,0,0-1.47,5.94,7.67,7.67,0,0,0,1.06,4.28,3.21,3.21,0,0,0,2.78,1.62q2.91,0,4.57-3.81a1.36,1.36,0,0,1,.43.88q0,1.62-2.53,3.6a7.78,7.78,0,0,1-4.64,2,4.07,4.07,0,0,1-3.33-1.63,6.58,6.58,0,0,1-1.3-4.23,14.05,14.05,0,0,1,3.44-9.2q3.44-4.14,7.64-4.14A6,6,0,0,1,187.66,323.95Z"/><path d="M194.65,329.85a15.13,15.13,0,0,1,3.68-4.57,6.63,6.63,0,0,1,4.07-1.84q2.5,0,2.5,2.58a6.2,6.2,0,0,1-2.08,4.5,12,12,0,0,1-5.5,2.94q3.71,6.64,5.53,6.64,1.31,0,2.75-2.27.45.33.45.64,0,.92-1.79,2.52a5.35,5.35,0,0,1-2.89,1.64q-2,.1-6.67-8.3l-.47-.88-.87,8-2.92,1.19.06-.55.16-1.45.16-1.37,1.9-17.12a18.11,18.11,0,0,1,4.48-10.36q3.81-4.28,8.54-4.28a8.06,8.06,0,0,1,1.88.21l-2.87,2.81a7.39,7.39,0,0,0-2.11-.33q-5.8,0-6.81,9.07Zm-.35,3a9.18,9.18,0,0,0,5.23-1.41,4.13,4.13,0,0,0,2.1-3.5q0-2.1-1.48-2.1t-3,2A17.8,17.8,0,0,0,194.29,332.87Z"/><path d="M212.18,342.58a55.09,55.09,0,0,0-.64-8.6l-.64-4.13q-.55-3.53-1.87-3.63-1.48-.12-2.07,2.93a.76.76,0,0,1-.62-.78,5.24,5.24,0,0,1,1.4-3.2q1.4-1.72,2.57-1.72,1.72,0,2.71,2.83a48.15,48.15,0,0,1,1.69,9.73l.12,1.19a69.55,69.55,0,0,0,5.14-11.52l2.32-2.23q.23,2.64.45,4.08l.47,3.13.33,2.19.86,5,.47-.76q4.52-7.38,4.53-9.47a2.31,2.31,0,0,0-1.19-1.93l2.36-2.23a2.4,2.4,0,0,1,1.45,2.13q0,1.6-2.23,5.29l-1.19,2-1.46,2.56a28,28,0,0,0-2.31,4.9l-2.34,2.34q-.27-3.52-1-7.4l-.33-1.84-.84-4.57-.91,1.68a65.86,65.86,0,0,0-4.2,9.36Z"/><path d="M247.11,334.46a26.68,26.68,0,0,1-5,5.8q-2.8,2.38-4.56,2.38-1.94,0-1.94-2.58a31.08,31.08,0,0,1,.25-3.14l.7-6.4q0-.13.1-1.13l.12-1.27a10,10,0,0,0,.06-1q0-1.13-.64-1.13-1.48,0-3.2,3.32a.81.81,0,0,1-.37-.62q0-1.21,2.16-3.22t3.43-2q1.62,0,1.62,2.23a11.4,11.4,0,0,1-.08,1.23l-.18,1.5-.17,1.64-.61,5.59a26.69,26.69,0,0,0-.16,2.89q0,1.35,1,1.35,2.2,0,5-3.63a15.56,15.56,0,0,0,3.28-7.19l.68-4.63,3.16-1.07q-.55,2.26-.82,4l-1.18,8.15q-.1.74-.16,1.25l-.14,1.07a13.74,13.74,0,0,0-.12,1.4q0,.84.47.84,1.66,0,3.38-3.65.53.31.53.63,0,.68-1.7,2.75-2.29,2.81-4.24,2.81-1.43,0-1.43-1.91a12.88,12.88,0,0,1,.14-1.62l.22-1.56q.18-1.27.24-1.72Zm-5.81-13.54a4.93,4.93,0,0,0-1.84-2.19l2.32-2.19a5.08,5.08,0,0,1,1.74,2.19Zm6.31,0a4.93,4.93,0,0,0-1.84-2.19l2.32-2.19a5.08,5.08,0,0,1,1.74,2.19Z"/><path d="M260.67,341.45l-2.92,1.19.06-.55.16-1.45.16-1.37,1-9.06.12-1q.12-1.21.12-2,0-1.25-.63-1.25-1.47,0-3.15,3.32-.45-.37-.45-.64,0-1.17,2.14-3.19t3.37-2q1.68,0,1.68,2.15a14.46,14.46,0,0,1-.1,1.46l-.16,1.58-.16,1.33-.16,1.39a25.72,25.72,0,0,1,5-5.67q2.74-2.24,4.68-2.24t1.89,2.63a20.58,20.58,0,0,1-.21,2.4l-1.06,7.28a24.94,24.94,0,0,0-.32,3.45q0,1,.55,1,1.35,0,3.33-3.57c.31.2.47.4.47.61q0,1.27-2.18,3.33t-3.55,2.06q-1.52,0-1.53-2.19a33,33,0,0,1,.41-4.43l.69-4.73a27.2,27.2,0,0,0,.33-3.65q0-1.54-1.07-1.54-2.5,0-5.06,3.39a14.56,14.56,0,0,0-3,7.28Z"/><path d="M276.73,341.58l2.7-2.21a5,5,0,0,0,3.84,1.62q2.82,0,2.82-2.71,0-1.5-2.59-4.2l-1.12-1.15q-2.45-2.56-2.45-4.14a4.68,4.68,0,0,1,2-3.81,7.58,7.58,0,0,1,4.83-1.54,11.42,11.42,0,0,1,3.42.59l-2.34,2.17a5.37,5.37,0,0,0-3.3-1.11q-2.13,0-2.13,1.78,0,1.27,2.36,3.73l1.21,1.29q2.7,2.81,2.7,4.53a5.48,5.48,0,0,1-2.36,4.35,8.49,8.49,0,0,1-5.45,1.88A8.37,8.37,0,0,1,276.73,341.58Z"/><path d="M305.79,323.95l-2.23,2.68a7.83,7.83,0,0,0-3-.64,4.63,4.63,0,0,0-4,2.17,10.43,10.43,0,0,0-1.47,5.94,7.67,7.67,0,0,0,1.06,4.28,3.21,3.21,0,0,0,2.78,1.62q2.91,0,4.57-3.81a1.36,1.36,0,0,1,.43.88q0,1.62-2.53,3.6a7.78,7.78,0,0,1-4.64,2,4.07,4.07,0,0,1-3.33-1.63,6.58,6.58,0,0,1-1.3-4.23,14.05,14.05,0,0,1,3.44-9.2q3.44-4.14,7.64-4.14A6,6,0,0,1,305.79,323.95Z"/><path d="M312.59,331.35a25.34,25.34,0,0,1,5-5.67q2.74-2.24,4.7-2.24t1.89,2.63a19.31,19.31,0,0,1-.23,2.4l-1,7.28a24.94,24.94,0,0,0-.32,3.45q0,1,.55,1,1.35,0,3.31-3.57.49.29.49.61,0,1.27-2.18,3.33t-3.55,2.06q-1.52,0-1.52-2.19a33,33,0,0,1,.41-4.43l.68-4.73a27.67,27.67,0,0,0,.33-3.69q0-1.5-1.07-1.5-2.49,0-5,3.39a14.76,14.76,0,0,0-3,7.28l-.52,4.69-2.92,1.19.06-.55.16-1.45.16-1.37,1.9-17.12a18.26,18.26,0,0,1,4.49-10.35q3.81-4.29,8.51-4.29a8.29,8.29,0,0,1,1.89.21l-2.87,2.81a7.39,7.39,0,0,0-2.11-.33q-5.8,0-6.81,9.07Z"/><g id="card-3-2-banner"><path d="M102.45,236.8l-13.95-25,3.31-1.85,5.73,10.27,13-7.25-5.73-10.27,3.31-1.84,13.95,25-3.31,1.85-6.57-11.79-13,7.25L105.76,235Z"/><path d="M127,223.91l-9.5-27L137,190l1.12,3.19-16,5.61,2.91,8.27L140,201.84l1.11,3.17-14.94,5.26,3.23,9.2L146,213.63l1.12,3.19Z"/><path d="M151.44,215.67l-5.94-28L157.92,185a16.92,16.92,0,0,1,5.85-.45,6.37,6.37,0,0,1,3.68,2,8.13,8.13,0,0,1,2.06,4,7.21,7.21,0,0,1-.87,5.44,10,10,0,0,1-5.41,3.86,9.79,9.79,0,0,1,2.53.92,19.65,19.65,0,0,1,3.87,3.07l6.49,6.59-4.66,1-4.94-5q-2.16-2.18-3.49-3.29a8.6,8.6,0,0,0-2.28-1.47,5.69,5.69,0,0,0-1.85-.39,11.44,11.44,0,0,0-2.09.3l-4.3.91,2.64,12.44Zm.39-16.44,8-1.69a12.2,12.2,0,0,0,3.86-1.37,4.32,4.32,0,0,0,1.82-2.14,4.65,4.65,0,0,0,.21-2.67,4.26,4.26,0,0,0-2.14-3,6.89,6.89,0,0,0-4.83-.31L149.86,190Z"/><path d="M176.78,210.5l-.37-3.5,12.67-19.77q1.35-2.11,2.6-3.69l-15.89,1.67-.35-3.36,20.4-2.14.35,3.36L182.27,204.5l-1.52,2.18,18.18-1.91.35,3.36Z"/><path d="M202.67,208.05l-.73-28.63,3.79-.1.64,25.25,14.1-.36.09,3.38Z"/><path d="M225.35,207.81l.66-28.63,3.79.09-.66,28.63Z"/><path d="M263.63,210.68,269,182.55l3.72.71-2.2,11.55,14.62,2.79,2.2-11.55,3.72.71-5.36,28.13-3.72-.71,2.53-13.26-14.62-2.79-2.53,13.26Z"/><path d="M291.17,216.28l8.54-27.33,19.76,6.18-1,3.23-16.15-5-2.62,8.37,15.12,4.73-1,3.21-15.12-4.73-2.91,9.3,16.78,5.24-1,3.23Z"/><path d="M315.58,224.13l12.22-25.9,3.51,1.66,4,26.75,9.6-20.33,3.28,1.55L336,233.76l-3.51-1.66-4-26.77-9.61,20.35Z"/><path d="M256.66,199.74l3.69,1.28a12.74,12.74,0,0,1-4.89,6.72,11.81,11.81,0,0,1-7.75,1.78,13.59,13.59,0,0,1-7.34-2.53,11.77,11.77,0,0,1-3.92-5.82,19.46,19.46,0,0,1-.84-7.78,16.86,16.86,0,0,1,2.38-7.62,11.71,11.71,0,0,1,5.29-4.62,14.21,14.21,0,0,1,7.07-1.12,11.74,11.74,0,0,1,7,2.81,11.36,11.36,0,0,1,3.53,6.49l-3.79.55a8.85,8.85,0,0,0-2.48-4.79,7.7,7.7,0,0,0-4.62-1.84,9.26,9.26,0,0,0-5.64,1.1,8.36,8.36,0,0,0-3.47,4,17.08,17.08,0,0,0-1.37,5.4,17.46,17.46,0,0,0,.5,6.45A7.93,7.93,0,0,0,243,204.5a9.28,9.28,0,0,0,4.73,1.77,8.15,8.15,0,0,0,5.53-1.36A9.4,9.4,0,0,0,256.66,199.74Z"/><path d="M388,217.6a330.71,330.71,0,0,0-332,0,285.79,285.79,0,0,1,28.75,7.21q-5,13.89-8.43,27.8a290.14,290.14,0,0,1,291.38,0Q364.06,239,359,225.34A287.93,287.93,0,0,1,388,217.6Z" fill="none" stroke="#231f20" stroke-miterlimit="10" stroke-width="0.56"/></g></svg>