<svg id="card-1-0" xmlns="http://www.w3.org/2000/svg" viewBox="0 0 444 666"><title>card-1-0</title><g id="card-1-0-particles"><path d="M314.63,233.43a8.44,8.44,0,0,0,1.74,3.15,6.48,6.48,0,0,0,2.82,1.94,4.51,4.51,0,0,0,1.61.23,4.59,4.59,0,0,0,1.54-.36A5,5,0,0,0,323,238l.35-.23.14-.11.14-.12a3.54,3.54,0,0,0,.85-1.21,5.24,5.24,0,0,0,.24-3.05l0-.19,0-.09,0,.05h0v0l0-.05c0-.09,0-.12-.06-.18l-.07-.18a5.53,5.53,0,0,0-.36-.69,5.76,5.76,0,0,0-.45-.64l-.28-.33-.23-.24a5.17,5.17,0,0,0-2.64-1.27,3.57,3.57,0,0,0-1.36,0,2.4,2.4,0,0,0-1.06.55l.09-.09a1.86,1.86,0,0,0-.28.42l-.05.12v0h0s0-.07,0,0h0l0,.1,0,.05v.07l0,.13a2.87,2.87,0,0,0,0,1.16,3.67,3.67,0,0,0,.49,1.17,3.13,3.13,0,0,0,.81.88L319,234a4.52,4.52,0,0,0,2.3.65,4.93,4.93,0,0,0,2.32-.63,6.09,6.09,0,0,0,1.05-.74l.13-.11.12-.11.23-.23.22-.24.25-.29a8.34,8.34,0,0,0,1.39-2.31,7.58,7.58,0,0,0,.56-2.59,4.34,4.34,0,0,0-.57-2.34l-.16-.24-.09-.12-.13-.16a3.51,3.51,0,0,0-.39-.42,3.12,3.12,0,0,0-1-.6,1.4,1.4,0,0,0-.8-.11.81.81,0,0,0-.51.45l.05-.13a1.54,1.54,0,0,0-.07,1,2.46,2.46,0,0,0,.58,1,3.12,3.12,0,0,0,1,.74,2.32,2.32,0,0,0,1.2.2h.06a4.87,4.87,0,0,0,2.68-1.07,5.52,5.52,0,0,0,1.85-2.42,4,4,0,0,0,.2-.74c0-.12,0-.28.06-.42s0-.26,0-.39a5.4,5.4,0,0,0-.15-1.61,5.59,5.59,0,0,0-.63-1.5,5.52,5.52,0,0,0-1.09-1.27l.09-.13a5.51,5.51,0,0,1,2,2.78,6,6,0,0,1,.27,1.72,7.19,7.19,0,0,1,0,.87,5,5,0,0,1-.17.86,6.24,6.24,0,0,1-1.91,2.87,5.7,5.7,0,0,1-3.12,1.41h0a3.32,3.32,0,0,1-1.71-.18,4,4,0,0,1-1.45-.93,3.54,3.54,0,0,1-.91-1.48,2.75,2.75,0,0,1,0-1.75h0a2.11,2.11,0,0,1,1.2-1.1,2.54,2.54,0,0,1,1.61.07,4.41,4.41,0,0,1,1.38.81,4.59,4.59,0,0,1,.57.58,5.17,5.17,0,0,1,.48.64,5.68,5.68,0,0,1,.86,3.08,8.67,8.67,0,0,1-.62,3.14,9.9,9.9,0,0,1-1.62,2.75,8.52,8.52,0,0,1-2.41,2.08,6.25,6.25,0,0,1-3.07.83,6,6,0,0,1-3.05-.88h0a4.78,4.78,0,0,1-1.21-1.32,5.19,5.19,0,0,1-.67-1.66,4.21,4.21,0,0,1,0-1.8,3.34,3.34,0,0,1,.84-1.59h0a3.8,3.8,0,0,1,1.7-.83,4.89,4.89,0,0,1,1.88,0,6.29,6.29,0,0,1,3.3,1.71,6.75,6.75,0,0,1,1.77,3.29,6.14,6.14,0,0,1-.46,3.71,4.48,4.48,0,0,1-1.16,1.49,6,6,0,0,1-1.64.91,5.1,5.1,0,0,1-3.67-.07,7.09,7.09,0,0,1-2.92-2.28,8.32,8.32,0,0,1-1.56-3.39Z" fill="#b9e5fb"/><path d="M428.29,136.33a8.24,8.24,0,0,0,3.4,1.08,6.41,6.41,0,0,0,3.37-.55,4.54,4.54,0,0,0,1.32-1,4.67,4.67,0,0,0,.87-1.33,5.15,5.15,0,0,0,.26-.76c0-.14.06-.25.09-.41a1.76,1.76,0,0,0,0-.18l0-.18a3.58,3.58,0,0,0-.21-1.47,5.17,5.17,0,0,0-1.9-2.38l-.16-.11-.08-.05,0,0h0l0,0-.16-.08-.17-.08a5.56,5.56,0,0,0-.73-.26,5.82,5.82,0,0,0-.75-.15l-.43,0h-.33a5.16,5.16,0,0,0-2.78.91,3.64,3.64,0,0,0-1,1,2.45,2.45,0,0,0-.4,1.14v-.13a1.91,1.91,0,0,0,.08.5l0,.12v0h0l0,0h0l0,.1,0,0v0l0,0,.06.11a2.8,2.8,0,0,0,.81.82,3.58,3.58,0,0,0,1.15.51,3.05,3.05,0,0,0,1.19.07l-.11,0a4.53,4.53,0,0,0,2.11-1.13,5.05,5.05,0,0,0,1.26-2.07,6.32,6.32,0,0,0,.27-1.27l0-.17v-.16c0-.11,0-.22,0-.33s0-.22,0-.33v-.39a8.4,8.4,0,0,0-.56-2.64,7.52,7.52,0,0,0-1.35-2.27,4.23,4.23,0,0,0-2-1.3l-.28-.06-.14,0-.2,0a3.34,3.34,0,0,0-.56,0,3.09,3.09,0,0,0-1.1.23,1.41,1.41,0,0,0-.65.48.83.83,0,0,0-.07.68l0-.13a1.52,1.52,0,0,0,.62.77,2.4,2.4,0,0,0,1.12.34,3.1,3.1,0,0,0,1.25-.18,2.36,2.36,0,0,0,1-.69l.05-.06h0a5,5,0,0,0,1.23-2.64,5.6,5.6,0,0,0-.3-3,4,4,0,0,0-.36-.68l-.24-.34c-.08-.1-.15-.21-.24-.31a5.28,5.28,0,0,0-1.2-1.06,5.2,5.2,0,0,0-3.13-.83l0-.16a5.39,5.39,0,0,1,3.35.62,5.86,5.86,0,0,1,1.37,1.07,7,7,0,0,1,.56.66,4.91,4.91,0,0,1,.46.75,6.29,6.29,0,0,1,.56,3.41,5.84,5.84,0,0,1-1.31,3.2h0a3.36,3.36,0,0,1-1.37,1.07,4,4,0,0,1-1.69.33,3.45,3.45,0,0,1-1.67-.44,2.7,2.7,0,0,1-1.16-1.3h0a2.15,2.15,0,0,1,.13-1.63,2.58,2.58,0,0,1,1.22-1.07,4.36,4.36,0,0,1,1.56-.37,4.5,4.5,0,0,1,.81,0,5.11,5.11,0,0,1,.79.13,5.56,5.56,0,0,1,2.71,1.64,8.62,8.62,0,0,1,1.69,2.71,10,10,0,0,1,.69,3.13,8.65,8.65,0,0,1-.34,3.19,6.37,6.37,0,0,1-1.66,2.74,6.06,6.06,0,0,1-2.82,1.48h0a4.65,4.65,0,0,1-1.77-.12,5.05,5.05,0,0,1-1.61-.74,4.13,4.13,0,0,1-1.23-1.3,3.35,3.35,0,0,1-.47-1.74h0a3.9,3.9,0,0,1,.67-1.79,5,5,0,0,1,1.36-1.32,6.27,6.27,0,0,1,3.56-1.05,6.58,6.58,0,0,1,3.52,1.16,6.07,6.07,0,0,1,2.18,3,4.54,4.54,0,0,1,.16,1.89A6.17,6.17,0,0,1,438,135a5.18,5.18,0,0,1-2.72,2.5,7,7,0,0,1-3.67.37,8.11,8.11,0,0,1-3.43-1.38Z" fill="#f7aebe"/><path d="M7.93,188.51a8.24,8.24,0,0,0,3.4,1.08A6.43,6.43,0,0,0,14.7,189a4.54,4.54,0,0,0,1.32-1,4.66,4.66,0,0,0,.88-1.33,5.18,5.18,0,0,0,.26-.76c0-.14.06-.25.09-.41a1.56,1.56,0,0,0,0-.18l0-.18a3.59,3.59,0,0,0-.21-1.47,5.17,5.17,0,0,0-1.9-2.38l-.16-.11-.08-.05,0,0h0l0,0-.16-.08-.17-.08a5.58,5.58,0,0,0-.73-.26,5.77,5.77,0,0,0-.75-.15l-.43,0h-.33a5.16,5.16,0,0,0-2.77.91,3.62,3.62,0,0,0-1,1,2.43,2.43,0,0,0-.4,1.14v-.13a1.83,1.83,0,0,0,.08.5l0,.12v0h0s0-.07,0,0h0l0,.1,0,0v0l0,0,.06.11a2.79,2.79,0,0,0,.81.82,3.57,3.57,0,0,0,1.15.51,3.05,3.05,0,0,0,1.19.07l-.11,0a4.53,4.53,0,0,0,2.11-1.13,5,5,0,0,0,1.26-2.07,6.33,6.33,0,0,0,.27-1.27l0-.17v-.16c0-.11,0-.22,0-.33s0-.22,0-.33V180a8.4,8.4,0,0,0-.56-2.64,7.52,7.52,0,0,0-1.35-2.27,4.23,4.23,0,0,0-2-1.3l-.29-.06-.14,0-.2,0a3.34,3.34,0,0,0-.57,0,3.09,3.09,0,0,0-1.1.23,1.42,1.42,0,0,0-.66.48.83.83,0,0,0-.07.68l0-.13a1.52,1.52,0,0,0,.62.77A2.4,2.4,0,0,0,10,176a3.09,3.09,0,0,0,1.25-.18,2.36,2.36,0,0,0,1-.69l.06-.06h0a5,5,0,0,0,1.23-2.64,5.59,5.59,0,0,0-.3-3,3.89,3.89,0,0,0-.36-.68l-.24-.34c-.08-.1-.15-.21-.24-.31a5.29,5.29,0,0,0-1.2-1.06A5.2,5.2,0,0,0,8,166.18L8,166a5.39,5.39,0,0,1,3.35.62,5.85,5.85,0,0,1,1.37,1.07,6.92,6.92,0,0,1,.56.66,5,5,0,0,1,.46.75,6.28,6.28,0,0,1,.55,3.41,5.83,5.83,0,0,1-1.31,3.2h0a3.35,3.35,0,0,1-1.37,1.07,3.94,3.94,0,0,1-1.69.33,3.45,3.45,0,0,1-1.67-.44,2.7,2.7,0,0,1-1.16-1.3h0a2.15,2.15,0,0,1,.13-1.63,2.58,2.58,0,0,1,1.22-1.07A4.37,4.37,0,0,1,10,172.3a4.52,4.52,0,0,1,.81,0,5.13,5.13,0,0,1,.79.13,5.56,5.56,0,0,1,2.71,1.64A8.62,8.62,0,0,1,16,176.81a10,10,0,0,1,.69,3.13,8.66,8.66,0,0,1-.34,3.19,6.37,6.37,0,0,1-1.66,2.74,6.07,6.07,0,0,1-2.82,1.48h0a4.66,4.66,0,0,1-1.77-.12,5.06,5.06,0,0,1-1.61-.74,4.14,4.14,0,0,1-1.23-1.3,3.35,3.35,0,0,1-.47-1.74h0a3.9,3.9,0,0,1,.67-1.79,5,5,0,0,1,1.36-1.32,6.27,6.27,0,0,1,3.56-1.05,6.57,6.57,0,0,1,3.52,1.16,6.06,6.06,0,0,1,2.18,3,4.54,4.54,0,0,1,.16,1.89,6.17,6.17,0,0,1-.57,1.8,5.17,5.17,0,0,1-2.72,2.5,7,7,0,0,1-3.67.37,8.13,8.13,0,0,1-3.43-1.38Z" fill="#f9ed32"/><path d="M183.85,325.07a8.5,8.5,0,0,0,.71,3.54,6.54,6.54,0,0,0,2.1,2.72,4.39,4.39,0,0,0,3,.85,4.82,4.82,0,0,0,.79-.13l.4-.11.17-.06.17-.07a3.48,3.48,0,0,0,1.17-.89,5.22,5.22,0,0,0,1.15-2.83c0-.07,0-.13,0-.2v-.1c0,.13,0,0,0,.06h0v-.09c0-.09,0-.12,0-.19l0-.19a5.81,5.81,0,0,0-.13-.77,5.9,5.9,0,0,0-.23-.74l-.16-.4c0-.08-.1-.2-.15-.3a5.23,5.23,0,0,0-2.13-2,3.62,3.62,0,0,0-1.3-.39,2.4,2.4,0,0,0-1.18.2l.12-.06a1.82,1.82,0,0,0-.39.31l-.08.1,0,0h0l0,0h0l-.07.09,0,0v0l0,0-.07.11a2.87,2.87,0,0,0-.32,1.11,3.69,3.69,0,0,0,.11,1.26,3.13,3.13,0,0,0,.51,1.09l-.08-.09a4.56,4.56,0,0,0,2,1.33,4.94,4.94,0,0,0,2.4.11,6.14,6.14,0,0,0,1.23-.37l.16-.07.14-.07.29-.15.28-.16.33-.2a8.28,8.28,0,0,0,2-1.77,7.55,7.55,0,0,0,1.31-2.29,4.33,4.33,0,0,0,.16-2.4l-.08-.28,0-.14-.08-.19a3.65,3.65,0,0,0-.24-.52A3.17,3.17,0,0,0,197,319a1.4,1.4,0,0,0-.73-.35.8.8,0,0,0-.62.27l.09-.11a1.55,1.55,0,0,0-.37.92,2.49,2.49,0,0,0,.24,1.16,3.18,3.18,0,0,0,.76,1,2.35,2.35,0,0,0,1.08.56l.08,0h0a4.85,4.85,0,0,0,2.88-.19,5.46,5.46,0,0,0,2.49-1.73,3.93,3.93,0,0,0,.41-.65c.06-.11.13-.26.18-.38s.1-.23.15-.36a5.35,5.35,0,0,0,.34-1.58,5.38,5.38,0,0,0-.79-3.18l.13-.09a5.57,5.57,0,0,1,1.08,3.27,6,6,0,0,1-.26,1.73,7,7,0,0,1-.3.81,4.81,4.81,0,0,1-.42.77,6.18,6.18,0,0,1-2.69,2.14,5.67,5.67,0,0,1-3.4.38h0a3.32,3.32,0,0,1-1.58-.7,4,4,0,0,1-1.1-1.34,3.58,3.58,0,0,1-.42-1.7,2.75,2.75,0,0,1,.57-1.66h0a2.09,2.09,0,0,1,1.47-.67,2.56,2.56,0,0,1,1.51.57,4.47,4.47,0,0,1,1.07,1.2,4.66,4.66,0,0,1,.36.73,5.39,5.39,0,0,1,.27.76,5.7,5.7,0,0,1-.11,3.2,8.66,8.66,0,0,1-1.54,2.8,9.77,9.77,0,0,1-2.38,2.12,8.38,8.38,0,0,1-2.92,1.24,6.2,6.2,0,0,1-3.17-.16,6.08,6.08,0,0,1-2.64-1.78h0a4.75,4.75,0,0,1-.75-1.63,5.17,5.17,0,0,1-.13-1.79,4.18,4.18,0,0,1,.53-1.72,3.29,3.29,0,0,1,1.28-1.25h0a3.78,3.78,0,0,1,1.87-.27,5,5,0,0,1,1.79.57,6.36,6.36,0,0,1,2.62,2.65,6.79,6.79,0,0,1,.7,3.68,6.1,6.1,0,0,1-1.56,3.39,4.42,4.42,0,0,1-1.56,1.06,6,6,0,0,1-1.83.36,5.12,5.12,0,0,1-3.47-1.21,7.16,7.16,0,0,1-2.09-3.08,8.35,8.35,0,0,1-.46-3.71Z" fill="#f7aebe"/><path d="M157.32,304.15a29.84,29.84,0,0,0,2.8-2.18,8.75,8.75,0,0,0,2.13-2.66,5.6,5.6,0,0,0,.49-1.58,6.27,6.27,0,0,0,.06-1.64,6.17,6.17,0,0,0-.14-.79c0-.13-.07-.27-.11-.38l-.07-.19-.07-.19a7.14,7.14,0,0,0-.77-1.41l-.26-.35-.24-.31a5.46,5.46,0,0,0-.55-.56,6.33,6.33,0,0,0-1.29-.9,11.73,11.73,0,0,0-3.11-1l-.21,0-.11,0h0l-.4,0a6.85,6.85,0,0,0-.77,0,5.06,5.06,0,0,0-1.44.27,3.22,3.22,0,0,0-1.93,1.75l.06-.15a1.94,1.94,0,0,0,0,1.16.51.51,0,0,0,.18.24h0l-.07,0h0l.11.06.15.07.32.13a2.92,2.92,0,0,0,1.38.09,7,7,0,0,0,1.58-.49l-.16.08a9.79,9.79,0,0,0,2-1.62c.15-.15.28-.31.41-.47l0-.06,0,0h0l0,.07h0v0l.09-.13a2.2,2.2,0,0,0,.13-.23,4,4,0,0,0,.38-1,5.42,5.42,0,0,0-1.12-4.44,4.22,4.22,0,0,0-.82-.76,3.4,3.4,0,0,0-.46-.27,4.08,4.08,0,0,0-.51-.21l-.07,0,.07,0H155l-.16,0-.31-.07c-.21,0-.42-.08-.63-.11l-.15,0-.18,0-.3,0c-.21,0-.4,0-.62,0a5.27,5.27,0,0,0-.56.06l-.3.06h-.08l-.08,0a1,1,0,0,0-.49.38.85.85,0,0,0-.14.54.81.81,0,0,0,.23.5l-.21-.17a1.28,1.28,0,0,0,.53.23A1,1,0,0,0,152,285a5.07,5.07,0,0,0,1.48-1.07l.83-.8c.25-.25.54-.55.77-.79a4.62,4.62,0,0,0,.56-.73,3.22,3.22,0,0,0,.19-.38l.1-.24.06-.18a2.8,2.8,0,0,0,.08-.38c0-.16,0-.3,0-.46s0-.33,0-.46v-.15c0-.05,0-.07,0-.1s0-.13,0-.19a2.93,2.93,0,0,0-.79-1.47,4.61,4.61,0,0,0-1.57-1,6.35,6.35,0,0,0-1-.31,7.43,7.43,0,0,0-1-.17h.1c-.46,0-.89,0-1.31,0a7.94,7.94,0,0,0-1.19.13,2.58,2.58,0,0,0-.9.34.76.76,0,0,0-.36.49v-.15a1.44,1.44,0,0,0,.06.53.74.74,0,0,0,.23.34,1.65,1.65,0,0,0,1.13.25l.18,0h0l.11,0,.35-.1a2.79,2.79,0,0,0,.63-.31,4.82,4.82,0,0,0,1.08-1.11l0,.05a4.31,4.31,0,0,0,.72-2.44,2.71,2.71,0,0,0-.34-1.19,3.23,3.23,0,0,0-.85-1l0,0h0a5.43,5.43,0,0,0-1.25-.82,8.47,8.47,0,0,0-1.43-.54,13.2,13.2,0,0,0-3.1-.48v-.16a13.77,13.77,0,0,1,3.18.29,7.16,7.16,0,0,1,2.92,1.31h0a3.79,3.79,0,0,1,1.05,1.07,3.3,3.3,0,0,1,.49,1.42,5,5,0,0,1-.67,2.9h0a5.41,5.41,0,0,1-1.22,1.36,3.69,3.69,0,0,1-1.7.68,2.56,2.56,0,0,1-1.8-.36,1.71,1.71,0,0,1-.6-.74,2.41,2.41,0,0,1-.17-.93h0a1.84,1.84,0,0,1,.74-1.21,3.52,3.52,0,0,1,1.28-.55,13.14,13.14,0,0,1,2.72-.25h0a8.19,8.19,0,0,1,2.33.5,5.85,5.85,0,0,1,2,1.26,4.26,4.26,0,0,1,1.19,2.1,5.57,5.57,0,0,1,.12,1.21,4.39,4.39,0,0,1-.15,1.21c0,.1-.06.2-.09.29l-.11.28a4.45,4.45,0,0,1-.27.55,5.84,5.84,0,0,1-.71,1c-.53.6-1.1,1.15-1.66,1.71a6.11,6.11,0,0,1-2,1.4,2.46,2.46,0,0,1-1.23.16,2.75,2.75,0,0,1-1.14-.46h0a2.32,2.32,0,0,1-.67-1.41,2.41,2.41,0,0,1,.37-1.52,2.54,2.54,0,0,1,1.21-1l.37-.12.37-.08a6.55,6.55,0,0,1,.76-.09,9.23,9.23,0,0,1,3,.37A5.4,5.4,0,0,1,158,284a6.94,6.94,0,0,1,1.4,5.76,5.44,5.44,0,0,1-.54,1.43,4.41,4.41,0,0,1-.42.65c-.16.2-.33.38-.51.56a11.18,11.18,0,0,1-2.38,1.83h0a8.29,8.29,0,0,1-1.92.55,4.26,4.26,0,0,1-2-.18,3.63,3.63,0,0,1-.92-.46,1.85,1.85,0,0,1-.62-.85,3.19,3.19,0,0,1,0-2h0a4.55,4.55,0,0,1,1.12-1.45,4.71,4.71,0,0,1,1.59-.87,6.27,6.27,0,0,1,1.78-.28,7.82,7.82,0,0,1,.9,0l.44.06.44.1a12.42,12.42,0,0,1,3.35,1.27,7.34,7.34,0,0,1,1.44,1.09,7.92,7.92,0,0,1,1.13,1.42,6.68,6.68,0,0,1,1,5.23,6.1,6.1,0,0,1-.62,1.7,9.14,9.14,0,0,1-2.37,2.7,28.82,28.82,0,0,1-3,2Z" fill="#b9e5fb"/><path d="M13.1,135.07a29.53,29.53,0,0,0,3.53-.15,8.57,8.57,0,0,0,3.26-.94,5.5,5.5,0,0,0,1.3-1,6.22,6.22,0,0,0,1-1.31,6.47,6.47,0,0,0,.34-.73c0-.12.1-.26.13-.37l.06-.2,0-.2a7.22,7.22,0,0,0,.17-1.6v-.44c0-.15,0-.25,0-.39a5.93,5.93,0,0,0-.13-.78,6.51,6.51,0,0,0-.54-1.49,11.9,11.9,0,0,0-1.95-2.67l-.15-.15-.07-.08,0,0h0l0,0h0l0,0-.3-.26a7,7,0,0,0-.62-.46,5.06,5.06,0,0,0-1.33-.62,3.17,3.17,0,0,0-2.57.31l.14-.09a1.91,1.91,0,0,0-.68.94.51.51,0,0,0,0,.3v0h0l0-.07h0l.05.11.08.14a2.7,2.7,0,0,0,.19.29A3,3,0,0,0,16,124a7.07,7.07,0,0,0,1.58.52l-.18,0a9.63,9.63,0,0,0,2.59-.14l.6-.15.07,0h0l-.08,0h0l.15-.06.24-.11a3.91,3.91,0,0,0,.91-.63,5.41,5.41,0,0,0,1.61-4.28,4.31,4.31,0,0,0-.24-1.1,3.45,3.45,0,0,0-.22-.49,4.14,4.14,0,0,0-.3-.47l0-.06,0,.06h0l0,0-.11-.13-.21-.24c-.15-.16-.3-.31-.45-.46l-.11-.1-.14-.12-.23-.19c-.17-.13-.32-.24-.51-.36a5.43,5.43,0,0,0-.49-.28l-.28-.12,0,0h0l-.08,0a1,1,0,0,0-.62,0,.85.85,0,0,0-.42.36.81.81,0,0,0-.1.54l-.07-.26a1.3,1.3,0,0,0,.3.5,1,1,0,0,0,.44.23,5,5,0,0,0,1.82,0l1.13-.17c.35-.06.75-.13,1.08-.2a4.53,4.53,0,0,0,.88-.27,3.12,3.12,0,0,0,.37-.2l.22-.14.15-.11a2.56,2.56,0,0,0,.29-.26c.11-.12.2-.23.29-.35s.18-.27.25-.38l.07-.13,0-.09.08-.18a3,3,0,0,0,.19-1.66,4.68,4.68,0,0,0-.7-1.75,6.54,6.54,0,0,0-.61-.82,7.57,7.57,0,0,0-.73-.73l.08.06c-.38-.27-.73-.52-1.08-.75a8,8,0,0,0-1-.58,2.57,2.57,0,0,0-.93-.25.74.74,0,0,0-.57.19l.1-.12a1.43,1.43,0,0,0-.25.47.75.75,0,0,0,0,.41,1.67,1.67,0,0,0,.78.86l.16.09,0,0h0l0,0h0l.1,0,.34.12a2.71,2.71,0,0,0,.69.11,4.67,4.67,0,0,0,1.52-.28l-.06,0a4.22,4.22,0,0,0,2-1.58,2.71,2.71,0,0,0,.4-1.17,3.26,3.26,0,0,0-.15-1.28v0h0a5.51,5.51,0,0,0-.55-1.4,8.59,8.59,0,0,0-.86-1.28,13.48,13.48,0,0,0-2.26-2.2l.09-.13a14,14,0,0,1,2.44,2.09,7.31,7.31,0,0,1,1.64,2.77h0a3.85,3.85,0,0,1,.25,1.49,3.31,3.31,0,0,1-.41,1.45,4.92,4.92,0,0,1-2.2,2h0a5.3,5.3,0,0,1-1.78.4,3.68,3.68,0,0,1-1.78-.44,2.61,2.61,0,0,1-1.26-1.34,1.74,1.74,0,0,1-.07-1,2.43,2.43,0,0,1,.38-.86h0a1.8,1.8,0,0,1,1.29-.55,3.5,3.5,0,0,1,1.36.3A13.22,13.22,0,0,1,25.22,108h0a8.42,8.42,0,0,1,1.62,1.77,6,6,0,0,1,.94,2.22,4.31,4.31,0,0,1-.22,2.41,5.53,5.53,0,0,1-.59,1.06,4.34,4.34,0,0,1-.82.9l-.24.19-.25.17a4.46,4.46,0,0,1-.53.29,5.77,5.77,0,0,1-1.14.38c-.78.18-1.55.3-2.33.43a6.07,6.07,0,0,1-2.39,0,2.49,2.49,0,0,1-1.09-.59,2.81,2.81,0,0,1-.67-1h0a2.33,2.33,0,0,1,1.42-2.58,2.49,2.49,0,0,1,1.55-.1l.37.12.35.15a6.37,6.37,0,0,1,.67.37,9.45,9.45,0,0,1,2.23,2,5.52,5.52,0,0,1,1,2.86A6.92,6.92,0,0,1,23,124.53a5.36,5.36,0,0,1-1.25.86,4.24,4.24,0,0,1-.71.28c-.24.07-.49.12-.73.17a11.05,11.05,0,0,1-3,.11h0a8.39,8.39,0,0,1-1.88-.67A4.34,4.34,0,0,1,13.87,124a3.83,3.83,0,0,1-.49-.91,1.87,1.87,0,0,1,0-1.05,3.16,3.16,0,0,1,1.2-1.64h0a4.44,4.44,0,0,1,1.74-.53,4.65,4.65,0,0,1,1.8.22,6.33,6.33,0,0,1,1.62.81,8.06,8.06,0,0,1,.71.56l.33.31c.11.11.21.22.31.34a12.6,12.6,0,0,1,2,3,7.46,7.46,0,0,1,.55,1.73,8,8,0,0,1,.11,1.81,6.65,6.65,0,0,1-2.16,4.85,6,6,0,0,1-1.48,1,9,9,0,0,1-3.47.82,28.49,28.49,0,0,1-3.56-.07Z" fill="#a4ce0b"/><path d="M125.69,172.15a30,30,0,0,0,2.8-2.18,8.75,8.75,0,0,0,2.13-2.66,5.61,5.61,0,0,0,.49-1.58,6.28,6.28,0,0,0,.06-1.64,6.21,6.21,0,0,0-.14-.79c0-.13-.07-.27-.11-.38l-.07-.19-.07-.19a7.18,7.18,0,0,0-.77-1.41l-.26-.35-.24-.31a5.66,5.66,0,0,0-.55-.56,6.33,6.33,0,0,0-1.29-.9,11.69,11.69,0,0,0-3.11-1l-.21,0-.11,0h0l-.4,0a6.86,6.86,0,0,0-.77,0,5,5,0,0,0-1.44.27,3.22,3.22,0,0,0-1.93,1.75l.06-.15a1.94,1.94,0,0,0,0,1.16.51.51,0,0,0,.18.24h0l-.07,0h0l.11.06.15.07.32.13a2.93,2.93,0,0,0,1.38.09,7.06,7.06,0,0,0,1.58-.49l-.16.08a9.77,9.77,0,0,0,2-1.63c.15-.15.28-.31.41-.47l0-.06,0,0h0l0,.07h0v0l.09-.14a2.18,2.18,0,0,0,.13-.23,4,4,0,0,0,.38-1,5.42,5.42,0,0,0-1.12-4.44,4.23,4.23,0,0,0-.82-.76,3.39,3.39,0,0,0-.46-.27,4.08,4.08,0,0,0-.51-.21l-.07,0,.07,0h-.08l-.16,0-.31-.07-.63-.11-.15,0-.18,0-.3,0c-.21,0-.4,0-.62,0a5.3,5.3,0,0,0-.56.06l-.3.06h-.08l-.08,0a1,1,0,0,0-.49.38.85.85,0,0,0-.14.54.8.8,0,0,0,.23.5l-.21-.17a1.29,1.29,0,0,0,.53.23,1,1,0,0,0,.49-.07,5,5,0,0,0,1.48-1.07l.83-.8c.25-.25.54-.54.77-.79a4.7,4.7,0,0,0,.56-.73,3.29,3.29,0,0,0,.19-.38l.1-.24.06-.18a2.75,2.75,0,0,0,.08-.38c0-.16,0-.3,0-.46s0-.33,0-.46v-.15c0-.05,0-.07,0-.1s0-.13,0-.19a2.93,2.93,0,0,0-.79-1.47,4.6,4.6,0,0,0-1.57-1,6.48,6.48,0,0,0-1-.31,7.44,7.44,0,0,0-1-.17h.1c-.46,0-.89,0-1.31,0a7.94,7.94,0,0,0-1.19.14,2.56,2.56,0,0,0-.9.34.76.76,0,0,0-.36.49v-.15a1.44,1.44,0,0,0,.06.53.74.74,0,0,0,.23.34,1.64,1.64,0,0,0,1.13.25l.18,0h0l.11,0,.35-.1a2.75,2.75,0,0,0,.63-.31,4.78,4.78,0,0,0,1.08-1.11l0,.05a4.31,4.31,0,0,0,.72-2.44,2.72,2.72,0,0,0-.34-1.19,3.22,3.22,0,0,0-.85-1l0,0h0a5.43,5.43,0,0,0-1.25-.82,8.45,8.45,0,0,0-1.43-.54,13.24,13.24,0,0,0-3.1-.48v-.16a13.78,13.78,0,0,1,3.18.29,7.17,7.17,0,0,1,2.92,1.31h0a3.77,3.77,0,0,1,1.05,1.07,3.29,3.29,0,0,1,.49,1.42,5,5,0,0,1-.67,2.9h0a5.39,5.39,0,0,1-1.22,1.37,3.69,3.69,0,0,1-1.7.68,2.56,2.56,0,0,1-1.8-.36,1.72,1.72,0,0,1-.6-.74,2.42,2.42,0,0,1-.17-.93h0a1.83,1.83,0,0,1,.74-1.21,3.5,3.5,0,0,1,1.28-.55,13.14,13.14,0,0,1,2.72-.25h0a8.23,8.23,0,0,1,2.33.5,5.85,5.85,0,0,1,2,1.26,4.26,4.26,0,0,1,1.19,2.1,5.56,5.56,0,0,1,.12,1.21,4.4,4.4,0,0,1-.15,1.21c0,.1-.06.2-.09.29l-.11.28a4.56,4.56,0,0,1-.27.55,5.86,5.86,0,0,1-.71,1c-.53.6-1.1,1.15-1.66,1.71a6.13,6.13,0,0,1-2,1.4,2.47,2.47,0,0,1-1.23.16,2.75,2.75,0,0,1-1.14-.46h0a2.33,2.33,0,0,1-.67-1.41,2.41,2.41,0,0,1,.37-1.52,2.53,2.53,0,0,1,1.21-1l.37-.12.37-.08a6.35,6.35,0,0,1,.76-.09,9.29,9.29,0,0,1,3,.37,5.41,5.41,0,0,1,2.47,1.74,6.94,6.94,0,0,1,1.4,5.76,5.43,5.43,0,0,1-.54,1.43,4.41,4.41,0,0,1-.42.65c-.16.2-.33.38-.51.56a11.21,11.21,0,0,1-2.38,1.83h0a8.34,8.34,0,0,1-1.92.55,4.27,4.27,0,0,1-2-.18,3.7,3.7,0,0,1-.92-.46,1.85,1.85,0,0,1-.62-.85,3.19,3.19,0,0,1,0-2h0a4.55,4.55,0,0,1,1.12-1.45,4.68,4.68,0,0,1,1.59-.87,6.27,6.27,0,0,1,1.78-.28,8,8,0,0,1,.9,0l.45.06.44.1a12.35,12.35,0,0,1,3.35,1.27,7.26,7.26,0,0,1,1.44,1.09,7.91,7.91,0,0,1,1.13,1.42,6.68,6.68,0,0,1,1,5.23,6.1,6.1,0,0,1-.62,1.71,9.14,9.14,0,0,1-2.37,2.7,28.83,28.83,0,0,1-3,2Z" fill="#fdb913"/><path d="M282.84,353.54a5.16,5.16,0,0,0,2.46-1,5.09,5.09,0,0,0,.92-.86c.13-.16.26-.33.37-.5l0,0h0l0,0v0l0-.08.08-.13.14-.27a4.75,4.75,0,0,0,.37-1.13,4.78,4.78,0,0,0-.49-3.3,3.86,3.86,0,0,0-1.46-1.49,4.29,4.29,0,0,0-1-.43l-.51-.12h-.43a2.63,2.63,0,0,0-1.64.59,1.16,1.16,0,0,0-.34.5,1.23,1.23,0,0,0,0,.65l-.07-.18a.94.94,0,0,0,.44.51,2,2,0,0,0,1,.22,4.15,4.15,0,0,0,1.2-.15,3.49,3.49,0,0,0,1.1-.52,6.25,6.25,0,0,0,1.83-2,7.22,7.22,0,0,0,.62-1.33,6.84,6.84,0,0,0,.37-1.46v0a3.7,3.7,0,0,0-.13-1l.14-.07a3.62,3.62,0,0,1,.34,1.06h0a7.56,7.56,0,0,1-.61,3.12,7,7,0,0,1-1.85,2.59,5,5,0,0,1-2.94,1.15,3.45,3.45,0,0,1-1.59-.27,2.41,2.41,0,0,1-1.18-1.13h0a2.71,2.71,0,0,1-.09-1.48,2.56,2.56,0,0,1,.75-1.27,3.92,3.92,0,0,1,2.67-1,4.3,4.3,0,0,1,1.42.25,5.78,5.78,0,0,1,1.3.62,5.27,5.27,0,0,1,1.89,2.15,5.84,5.84,0,0,1-.29,5.55,5.33,5.33,0,0,1-4.85,2.49Z" fill="#f15a22"/><path d="M400.28,212.64a5.16,5.16,0,0,0,2.46-1,5.08,5.08,0,0,0,.92-.86c.13-.16.26-.33.37-.5l0,0h0l0,0v0l0-.08.08-.13.14-.27a4.75,4.75,0,0,0,.37-1.13,4.78,4.78,0,0,0-.49-3.3,3.86,3.86,0,0,0-1.46-1.49,4.29,4.29,0,0,0-1-.43l-.51-.12h-.43a2.63,2.63,0,0,0-1.64.59,1.16,1.16,0,0,0-.34.5,1.23,1.23,0,0,0,0,.65l-.07-.18a.94.94,0,0,0,.44.51,2,2,0,0,0,1,.22,4.15,4.15,0,0,0,1.2-.15,3.49,3.49,0,0,0,1.1-.52,6.25,6.25,0,0,0,1.83-2,7.22,7.22,0,0,0,.62-1.33,6.84,6.84,0,0,0,.37-1.46v0a3.7,3.7,0,0,0-.13-1l.14-.07a3.62,3.62,0,0,1,.34,1.06h0a7.56,7.56,0,0,1-.61,3.12,7,7,0,0,1-1.85,2.59,5,5,0,0,1-2.94,1.15,3.45,3.45,0,0,1-1.59-.27,2.41,2.41,0,0,1-1.18-1.13h0a2.71,2.71,0,0,1-.09-1.48,2.56,2.56,0,0,1,.75-1.27,3.92,3.92,0,0,1,2.67-1,4.3,4.3,0,0,1,1.42.25,5.78,5.78,0,0,1,1.3.62,5.27,5.27,0,0,1,1.89,2.15,5.84,5.84,0,0,1-.29,5.55,5.33,5.33,0,0,1-4.85,2.49Z" fill="#f15a22"/><path d="M279.8,233.11a5.16,5.16,0,0,0,2.46-1,5.08,5.08,0,0,0,.92-.86c.13-.16.26-.33.37-.5l0,0h0l0,0v0l0-.08.08-.13.14-.27a4.74,4.74,0,0,0,.37-1.13,4.78,4.78,0,0,0-.49-3.3,3.86,3.86,0,0,0-1.46-1.49,4.29,4.29,0,0,0-1-.43l-.51-.12h-.43a2.63,2.63,0,0,0-1.64.59,1.16,1.16,0,0,0-.34.5,1.23,1.23,0,0,0,0,.65l-.07-.18a.94.94,0,0,0,.44.51,2,2,0,0,0,1,.22,4.15,4.15,0,0,0,1.2-.15,3.49,3.49,0,0,0,1.1-.52,6.25,6.25,0,0,0,1.83-2,7.22,7.22,0,0,0,.62-1.33,6.85,6.85,0,0,0,.37-1.46v0a3.71,3.71,0,0,0-.13-1l.14-.07a3.61,3.61,0,0,1,.34,1.06h0a7.56,7.56,0,0,1-.61,3.12,7,7,0,0,1-1.85,2.59,5,5,0,0,1-2.94,1.15,3.45,3.45,0,0,1-1.59-.27A2.41,2.41,0,0,1,277,226h0a2.71,2.71,0,0,1-.09-1.48,2.56,2.56,0,0,1,.75-1.27,3.92,3.92,0,0,1,2.67-1,4.3,4.3,0,0,1,1.42.25,5.78,5.78,0,0,1,1.3.62,5.27,5.27,0,0,1,1.89,2.15,5.84,5.84,0,0,1-.29,5.55,5.33,5.33,0,0,1-4.85,2.49Z" fill="#f15a22"/><path d="M209.34,251.17a5.21,5.21,0,0,0,3.38-1.83c.13-.16.25-.33.37-.5l0,0h0l0,0v0l0-.08.08-.13.13-.27a4.77,4.77,0,0,0,.37-1.13,4.78,4.78,0,0,0-.49-3.3,3.88,3.88,0,0,0-1.46-1.5,4.29,4.29,0,0,0-1-.43l-.51-.12h-.43a2.63,2.63,0,0,0-1.64.59,1.15,1.15,0,0,0-.34.5,1.23,1.23,0,0,0,0,.65l-.07-.17a.94.94,0,0,0,.45.51,2,2,0,0,0,1,.21,4.09,4.09,0,0,0,1.2-.15,3.45,3.45,0,0,0,1.1-.52,6.26,6.26,0,0,0,1.83-2,7.22,7.22,0,0,0,.62-1.33,6.87,6.87,0,0,0,.37-1.46v0a3.71,3.71,0,0,0-.13-1l.14-.07a3.65,3.65,0,0,1,.34,1.06h0a7.55,7.55,0,0,1-.61,3.12,7,7,0,0,1-1.85,2.59,5,5,0,0,1-2.94,1.15,3.43,3.43,0,0,1-1.59-.27,2.4,2.4,0,0,1-1.18-1.13h0a2.72,2.72,0,0,1-.09-1.48,2.56,2.56,0,0,1,.75-1.27,3.93,3.93,0,0,1,2.67-1,4.39,4.39,0,0,1,1.42.25,5.68,5.68,0,0,1,1.3.62,5.25,5.25,0,0,1,1.89,2.15,5.84,5.84,0,0,1-.29,5.55,5.32,5.32,0,0,1-4.85,2.49Z" fill="#f9ed32"/><path d="M91,177.91a5.21,5.21,0,0,0,3.38-1.83c.13-.16.25-.33.37-.5l0,0h0l0,0v0l0-.08.08-.13.13-.27a4.76,4.76,0,0,0,.37-1.13,4.78,4.78,0,0,0-.49-3.3,3.87,3.87,0,0,0-1.46-1.49,4.29,4.29,0,0,0-1-.43l-.51-.12h-.43a2.63,2.63,0,0,0-1.64.59,1.15,1.15,0,0,0-.34.5,1.23,1.23,0,0,0,0,.65l-.07-.18a.94.94,0,0,0,.45.51,2,2,0,0,0,1,.22,4.12,4.12,0,0,0,1.2-.15,3.47,3.47,0,0,0,1.1-.52,6.26,6.26,0,0,0,1.83-2,7.22,7.22,0,0,0,.62-1.33,6.86,6.86,0,0,0,.37-1.46v0a3.71,3.71,0,0,0-.13-1l.14-.07a3.63,3.63,0,0,1,.34,1.06h0a7.56,7.56,0,0,1-.61,3.12A7,7,0,0,1,93.9,171,5,5,0,0,1,91,172.19a3.45,3.45,0,0,1-1.59-.27,2.41,2.41,0,0,1-1.18-1.13h0a2.72,2.72,0,0,1-.09-1.48,2.56,2.56,0,0,1,.75-1.27,3.93,3.93,0,0,1,2.67-1,4.35,4.35,0,0,1,1.42.25,5.72,5.72,0,0,1,1.3.62A5.25,5.25,0,0,1,96.12,170a5.84,5.84,0,0,1-.29,5.55A5.32,5.32,0,0,1,91,178.07Z" fill="#ec008c"/><path d="M215.56,35.56a5.15,5.15,0,0,0,2.46-1,5.09,5.09,0,0,0,.92-.86c.13-.16.26-.33.37-.5l0,0h0l0,0v0l0-.08.08-.13.14-.27a4.76,4.76,0,0,0,.37-1.13,4.78,4.78,0,0,0-.49-3.3A3.87,3.87,0,0,0,218,26.79a4.29,4.29,0,0,0-1-.43l-.51-.12h-.43a2.63,2.63,0,0,0-1.64.59,1.15,1.15,0,0,0-.34.5,1.23,1.23,0,0,0,0,.65l-.07-.18a.94.94,0,0,0,.44.51,2,2,0,0,0,1,.22,4.12,4.12,0,0,0,1.2-.15,3.47,3.47,0,0,0,1.1-.52,6.25,6.25,0,0,0,1.83-2,7.22,7.22,0,0,0,.62-1.33,6.85,6.85,0,0,0,.37-1.46v0a3.7,3.7,0,0,0-.13-1l.14-.07a3.63,3.63,0,0,1,.34,1.06h0a7.56,7.56,0,0,1-.61,3.12,7,7,0,0,1-1.85,2.59,5,5,0,0,1-2.94,1.15,3.44,3.44,0,0,1-1.59-.27,2.41,2.41,0,0,1-1.18-1.13h0a2.71,2.71,0,0,1-.09-1.48,2.56,2.56,0,0,1,.75-1.27,3.93,3.93,0,0,1,2.67-1,4.35,4.35,0,0,1,1.42.25,5.74,5.74,0,0,1,1.3.62,5.26,5.26,0,0,1,1.89,2.15,5.84,5.84,0,0,1-.29,5.55,5.32,5.32,0,0,1-4.85,2.49Z" fill="#f7aebe"/><path d="M425.84,16.78a5.15,5.15,0,0,0,2.46-1,5.09,5.09,0,0,0,.92-.86c.13-.16.26-.33.37-.5l0,0h0l0,0v0l0-.08.08-.13.14-.27a4.76,4.76,0,0,0,.37-1.13,4.78,4.78,0,0,0-.49-3.3A3.87,3.87,0,0,0,428.29,8a4.29,4.29,0,0,0-1-.43l-.51-.12h-.43a2.63,2.63,0,0,0-1.64.59,1.15,1.15,0,0,0-.34.5,1.23,1.23,0,0,0,0,.65L424.35,9a.94.94,0,0,0,.44.51,2,2,0,0,0,1,.22,4.12,4.12,0,0,0,1.2-.15A3.47,3.47,0,0,0,428,9a6.25,6.25,0,0,0,1.83-2,7.22,7.22,0,0,0,.62-1.33,6.85,6.85,0,0,0,.37-1.46v0a3.71,3.71,0,0,0-.13-1l.14-.07a3.63,3.63,0,0,1,.34,1.06h0a7.56,7.56,0,0,1-.61,3.12,7,7,0,0,1-1.85,2.59,5,5,0,0,1-2.94,1.15,3.44,3.44,0,0,1-1.59-.27A2.41,2.41,0,0,1,423,9.65h0a2.71,2.71,0,0,1-.09-1.48,2.56,2.56,0,0,1,.75-1.27,3.93,3.93,0,0,1,2.67-1,4.35,4.35,0,0,1,1.42.25,5.74,5.74,0,0,1,1.3.62A5.26,5.26,0,0,1,431,8.89a5.84,5.84,0,0,1-.29,5.55,5.32,5.32,0,0,1-4.85,2.49Z" fill="#8dc63f"/><path d="M241.81,129.85a18.91,18.91,0,0,0,2,1.76,8.39,8.39,0,0,0,2.25,1.23,4.1,4.1,0,0,0,2.32.15,5.14,5.14,0,0,0,.54-.17h0l-.06,0h0l.08,0,.14-.07.22-.14.22-.16.22-.18a5,5,0,0,0,.4-.41l-.05.06a3.19,3.19,0,0,0,.57-1.88,3.54,3.54,0,0,0-.53-1.88l0,.07a4.77,4.77,0,0,0-.36-.43,5.19,5.19,0,0,0-.41-.4l-.22-.2-.23-.18a5.31,5.31,0,0,0-.47-.33l0,0-.15-.14a2.09,2.09,0,0,0-.33-.24l-.2-.1-.19-.08a2.11,2.11,0,0,0-.86-.1,1.13,1.13,0,0,0-.61.22.85.85,0,0,0-.27.46l.06-.29a.87.87,0,0,0,.21.59,2,2,0,0,0,.73.55,3.33,3.33,0,0,0,1.09.28l.29,0H249l.31,0a4.1,4.1,0,0,0,2.17-.85,3.28,3.28,0,0,0,.4-.38l.18-.22.08-.11,0-.06,0,0h0l-.05.09h0l.09-.17.05-.11c0-.08.07-.17.1-.26a3.31,3.31,0,0,0,.13-.53,3.89,3.89,0,0,0-.42-2.28l-.15-.29,0-.07v0h0l.05.08h0l0,0-.09-.13c-.12-.17-.26-.34-.41-.51a8.22,8.22,0,0,0-1-1,6.68,6.68,0,0,0-2.28-1.29,1.76,1.76,0,0,0-.89-.06.66.66,0,0,0-.24.12,1,1,0,0,0-.23.29l0-.09a1,1,0,0,0-.1.47.58.58,0,0,0,.19.36,3.06,3.06,0,0,0,1.46.67,6.73,6.73,0,0,0,1.92.17,5.13,5.13,0,0,0,1.82-.39l-.07,0a3.17,3.17,0,0,0,1.22-1.36,6.73,6.73,0,0,0,.57-2c0-.18.05-.36.07-.54s0-.38.05-.55a8,8,0,0,0,0-1.09,7.85,7.85,0,0,0-.39-2.17l.14-.06a8.11,8.11,0,0,1,.61,2.18,11.54,11.54,0,0,1,.05,2.27,7.32,7.32,0,0,1-.47,2.22,4,4,0,0,1-1.39,1.79h0a5.92,5.92,0,0,1-2.12.6,8,8,0,0,1-2.2-.06,4.22,4.22,0,0,1-2-.87,1.85,1.85,0,0,1-.59-1,2.17,2.17,0,0,1,.1-1.15h0a2,2,0,0,1,1.18-1.13,2.91,2.91,0,0,1,1.62,0,7.91,7.91,0,0,1,2.84,1.47,10.36,10.36,0,0,1,1.19,1.08c.18.2.36.4.52.62l.12.17,0,0,0,.05.05.09.19.36a5.41,5.41,0,0,1,.59,3.18,4.73,4.73,0,0,1-.51,1.56,4.78,4.78,0,0,1-1.07,1.25,5.58,5.58,0,0,1-3,1.16c-.26,0-.54,0-.8,0a6.07,6.07,0,0,1-.8,0,4.79,4.79,0,0,1-1.56-.43,3.38,3.38,0,0,1-1.28-1,2.34,2.34,0,0,1-.46-1.59h0a2.23,2.23,0,0,1,.82-1.18,2.52,2.52,0,0,1,1.35-.45,3.38,3.38,0,0,1,2.58,1l0,0a7.47,7.47,0,0,1,2,1.94h0a4.71,4.71,0,0,1,.58,2.54,4.18,4.18,0,0,1-.92,2.43h0a4.94,4.94,0,0,1-1.09.85,3.81,3.81,0,0,1-.63.29,4.53,4.53,0,0,1-.67.16,4.86,4.86,0,0,1-2.69-.37,8.74,8.74,0,0,1-2.27-1.5,17.67,17.67,0,0,1-1.88-2Z" fill="#ed1c24"/><path d="M14.53,20.13a18.55,18.55,0,0,0,2.65-.38,8.34,8.34,0,0,0,2.4-.9,4.19,4.19,0,0,0,1.65-1.67,5.32,5.32,0,0,0,.23-.53v0h0l0,.06v0l0-.08c0-.05,0-.12,0-.15s0-.16,0-.26,0-.19,0-.27,0-.19,0-.29a4.78,4.78,0,0,0,0-.57v.08a3.17,3.17,0,0,0-1-1.68,3.44,3.44,0,0,0-1.75-.84h.08a4.73,4.73,0,0,0-.56,0,5,5,0,0,0-.57,0l-.29,0-.28.06a5.26,5.26,0,0,0-.55.15h0l-.2,0A2.08,2.08,0,0,0,16,13l-.21.08-.18.1a2.14,2.14,0,0,0-.64.58,1.16,1.16,0,0,0-.24.61.85.85,0,0,0,.16.52l-.18-.23a.85.85,0,0,0,.58.23,2,2,0,0,0,.89-.19,3.38,3.38,0,0,0,.93-.64l.2-.21.1-.11.13-.16.13-.15.1-.12.18-.25a4.21,4.21,0,0,0,.8-2.22,3.33,3.33,0,0,0,0-.55c0-.09,0-.18,0-.28l0-.14,0-.07V9.74h0l0,.1h0l-.07-.18,0-.11-.13-.25a3.23,3.23,0,0,0-.31-.45,3.78,3.78,0,0,0-2-1.19l-.31-.08h-.23l-.65,0a8.08,8.08,0,0,0-1.36.12,6.65,6.65,0,0,0-2.46.89,1.81,1.81,0,0,0-.63.64.67.67,0,0,0-.07.26,1,1,0,0,0,.07.37l0-.09a1,1,0,0,0,.28.38.57.57,0,0,0,.39.1,3.05,3.05,0,0,0,1.46-.67A6.84,6.84,0,0,0,14,8.18a5.28,5.28,0,0,0,.91-1.64v.08a3.22,3.22,0,0,0-.2-1.82A6.67,6.67,0,0,0,13.56,3l-.36-.41-.38-.4A7.85,7.85,0,0,0,12,1.5,7.68,7.68,0,0,0,10.16.37l0-.15a7.88,7.88,0,0,1,2,1A11.27,11.27,0,0,1,14,2.65a7.22,7.22,0,0,1,1.34,1.83,4,4,0,0,1,.41,2.24h0a6.1,6.1,0,0,1-1,2,8.21,8.21,0,0,1-1.5,1.64,4.22,4.22,0,0,1-2,1,1.8,1.8,0,0,1-1.12-.2,2.14,2.14,0,0,1-.79-.84h0a2.06,2.06,0,0,1-.06-1.64,3,3,0,0,1,1.06-1.25,7.89,7.89,0,0,1,3-1.19A10.21,10.21,0,0,1,14.9,6c.27,0,.53,0,.8,0l.2,0H16l.1,0,.39.09a5.28,5.28,0,0,1,2.75,1.65,4.71,4.71,0,0,1,.82,1.41,4.87,4.87,0,0,1,.22,1.64,5.73,5.73,0,0,1-1.11,3c-.16.22-.33.44-.5.63a6.2,6.2,0,0,1-.55.59,4.82,4.82,0,0,1-1.35.9,3.35,3.35,0,0,1-1.6.3,2.28,2.28,0,0,1-1.48-.7h0a2.25,2.25,0,0,1-.33-1.4,2.58,2.58,0,0,1,.55-1.32,3.39,3.39,0,0,1,2.44-1.31h0A7.33,7.33,0,0,1,19,11.4h0a4.58,4.58,0,0,1,2.27,1.23,4.17,4.17,0,0,1,1.2,2.3h0a5,5,0,0,1-.09,1.39,3.84,3.84,0,0,1-.2.67,4.56,4.56,0,0,1-.32.61,4.93,4.93,0,0,1-2.05,1.8,8.66,8.66,0,0,1-2.61.74,17.29,17.29,0,0,1-2.7.13Z" fill="#b9e5fb"/><path d="M307.58,316.84a18.69,18.69,0,0,0,2.65-.38,8.37,8.37,0,0,0,2.4-.9,4.18,4.18,0,0,0,1.65-1.67,5.42,5.42,0,0,0,.23-.53v0h0l0,.06v0l0-.09c0-.05,0-.12,0-.15s0-.16,0-.26,0-.19,0-.27,0-.19,0-.29a5,5,0,0,0,0-.57v.08a3.17,3.17,0,0,0-1-1.68,3.44,3.44,0,0,0-1.75-.84h.08a5.16,5.16,0,0,0-.56,0,5.23,5.23,0,0,0-.56,0l-.29,0-.28.06a5.49,5.49,0,0,0-.55.15h0l-.2,0a2.21,2.21,0,0,0-.4.09l-.21.08-.18.1a2.12,2.12,0,0,0-.64.58,1.16,1.16,0,0,0-.24.61.85.85,0,0,0,.16.51l-.18-.23a.85.85,0,0,0,.58.23,2,2,0,0,0,.89-.19,3.36,3.36,0,0,0,.93-.64l.2-.21.1-.11.13-.16.13-.15.1-.11.18-.25a4.21,4.21,0,0,0,.8-2.22,3.34,3.34,0,0,0,0-.55c0-.09,0-.18,0-.28l0-.14,0-.07v-.05h0l0,.1h0l-.07-.18,0-.11-.13-.25a3.23,3.23,0,0,0-.31-.45,3.78,3.78,0,0,0-2-1.19l-.31-.08h-.23l-.65,0a8.07,8.07,0,0,0-1.36.12,6.65,6.65,0,0,0-2.46.89,1.81,1.81,0,0,0-.63.64.67.67,0,0,0-.07.27,1,1,0,0,0,.07.37l0-.09a1,1,0,0,0,.28.38.57.57,0,0,0,.39.1,3.06,3.06,0,0,0,1.46-.67,6.79,6.79,0,0,0,1.39-1.35,5.27,5.27,0,0,0,.91-1.64v.08a3.22,3.22,0,0,0-.2-1.82,6.66,6.66,0,0,0-1.1-1.75l-.36-.41-.38-.4a7.76,7.76,0,0,0-.8-.72,7.67,7.67,0,0,0-1.87-1.14l0-.15a7.88,7.88,0,0,1,2,1,11.27,11.27,0,0,1,1.72,1.46,7.25,7.25,0,0,1,1.34,1.82,4,4,0,0,1,.41,2.24h0a6.09,6.09,0,0,1-1,2,8.21,8.21,0,0,1-1.5,1.64,4.24,4.24,0,0,1-2,1,1.8,1.8,0,0,1-1.12-.2,2.13,2.13,0,0,1-.79-.84h0a2.06,2.06,0,0,1-.06-1.64,3,3,0,0,1,1.06-1.25,7.91,7.91,0,0,1,3-1.19,10.12,10.12,0,0,1,1.59-.19c.27,0,.53,0,.8,0l.2,0h.11l.1,0,.39.09a5.26,5.26,0,0,1,2.75,1.65,4.71,4.71,0,0,1,.82,1.41,4.88,4.88,0,0,1,.22,1.64,5.73,5.73,0,0,1-1.11,3c-.16.22-.33.44-.5.63a6.3,6.3,0,0,1-.55.59,4.83,4.83,0,0,1-1.35.9,3.34,3.34,0,0,1-1.6.3,2.28,2.28,0,0,1-1.48-.7h0a2.25,2.25,0,0,1-.33-1.4,2.57,2.57,0,0,1,.55-1.32,3.39,3.39,0,0,1,2.44-1.31h0a7.35,7.35,0,0,1,2.73-.21h0a4.59,4.59,0,0,1,2.27,1.23,4.17,4.17,0,0,1,1.2,2.3h0a5,5,0,0,1-.09,1.39,3.92,3.92,0,0,1-.2.67,4.74,4.74,0,0,1-.33.61,4.94,4.94,0,0,1-2.05,1.8,8.67,8.67,0,0,1-2.61.74,17.51,17.51,0,0,1-2.7.13Z" fill="#8dc63f"/><polygon points="166.23 326.32 160.94 325.13 156.97 328.86 156.46 323.39 151.72 320.72 156.7 318.54 157.75 313.16 161.33 317.28 166.71 316.62 163.95 321.34 166.23 326.32" fill="#f9ed32"/><polygon points="77.25 131.18 71.96 129.98 67.99 133.71 67.48 128.25 62.74 125.57 67.72 123.4 68.77 118.01 72.35 122.13 77.73 121.47 74.97 126.2 77.25 131.18" fill="#b9e5fb"/><polygon points="439.22 271.12 433.93 269.92 429.96 273.65 429.45 268.19 424.72 265.51 429.69 263.34 430.74 257.95 434.32 262.07 439.71 261.41 436.95 266.13 439.22 271.12" fill="#b9e5fb"/><polygon points="188.28 166.44 182.6 165.15 178.34 169.16 177.79 163.29 172.71 160.42 178.05 158.08 179.18 152.3 183.02 156.72 188.8 156.02 185.84 161.09 188.28 166.44" fill="#f99d1c"/><polygon points="189.18 228.83 186.11 228.13 183.8 230.3 183.5 227.13 180.75 225.58 183.65 224.31 184.25 221.18 186.34 223.57 189.46 223.2 187.86 225.94 189.18 228.83" fill="#f99d1c"/><polygon points="35.14 75.85 32.06 75.15 29.76 77.32 29.46 74.14 26.71 72.59 29.6 71.33 30.21 68.2 32.29 70.59 35.42 70.21 33.81 72.95 35.14 75.85" fill="#f99d1c"/><polygon points="413.07 26.28 409.99 25.58 407.69 27.75 407.39 24.57 404.64 23.02 407.53 21.76 408.14 18.63 410.22 21.02 413.35 20.64 411.74 23.38 413.07 26.28" fill="#f99d1c"/><polygon points="305.15 391.72 300.1 390.57 296.3 394.14 295.82 388.92 291.3 386.37 296.05 384.29 297.05 379.15 300.47 383.08 305.61 382.45 302.97 386.96 305.15 391.72" fill="#ffc20e"/><polygon points="328.99 118.75 323.7 117.55 319.73 121.28 319.22 115.82 314.48 113.14 319.46 110.97 320.5 105.58 324.09 109.7 329.47 109.05 326.71 113.77 328.99 118.75" fill="#f9ed32"/><polygon points="164.9 43.38 159.61 42.18 155.64 45.92 155.13 40.45 150.4 37.78 155.37 35.6 156.42 30.22 160 34.33 165.38 33.68 162.62 38.4 164.9 43.38" fill="#f9ed32"/><polygon points="297.18 253.12 291.89 251.92 287.92 255.65 287.41 250.19 282.68 247.51 287.65 245.34 288.7 239.95 292.28 244.07 297.67 243.41 294.9 248.14 297.18 253.12" fill="#eae857"/><polygon points="22.36 325.77 17.07 324.57 13.1 328.3 12.59 322.84 7.86 320.16 12.83 317.99 13.88 312.6 17.46 316.72 22.84 316.06 20.08 320.79 22.36 325.77" fill="#f9ed32"/><ellipse cx="63.84" cy="169.97" rx="2.46" ry="2.49" fill="#ee2a7b"/><ellipse cx="194.04" cy="282.95" rx="2.46" ry="2.49" fill="#ee2a7b"/><ellipse cx="363.29" cy="134.07" rx="2.46" ry="2.49" fill="#ee2a7b"/><ellipse cx="234.21" cy="152.07" rx="2.46" ry="2.49" fill="#ee2a7b"/><ellipse cx="140.89" cy="223.1" rx="2.46" ry="2.49" fill="#b9e5fb"/><ellipse cx="295.99" cy="114.89" rx="2.46" ry="2.5" fill="#b9e5fb"/><ellipse cx="351.86" cy="158.23" rx="2.46" ry="2.5" fill="#b9e5fb"/><ellipse cx="410.29" cy="47.9" rx="2.46" ry="2.49" fill="#b9e5fb"/><ellipse cx="343.75" cy="35.44" rx="2.46" ry="2.5" fill="#b9e5fb"/><ellipse cx="33.1" cy="96.21" rx="2.46" ry="2.49" fill="#b9e5fb"/><ellipse cx="9.57" cy="216.01" rx="2.46" ry="2.5" fill="#b9e5fb"/><ellipse cx="85.17" cy="321.39" rx="2.46" ry="2.5" fill="#b9e5fb"/><ellipse cx="111.64" cy="30.04" rx="2.46" ry="2.5" fill="#eae857"/><ellipse cx="281.82" cy="62.01" rx="2.46" ry="2.5" fill="#ee2a7b"/><ellipse cx="438.87" cy="317.3" rx="2.46" ry="2.49" fill="#ee2a7b"/><ellipse cx="100.31" cy="303.93" rx="6.22" ry="6.3" fill="#f7aebe"/><ellipse cx="54.05" cy="145" rx="4.1" ry="4.15" fill="#f7aebe"/><ellipse cx="244.52" cy="235.98" rx="6.97" ry="7.05" fill="#f7aebe"/><ellipse cx="291.14" cy="137.93" rx="4.1" ry="4.15" fill="#f7aebe"/><ellipse cx="330.75" cy="255.08" rx="4.1" ry="4.15" fill="#f7aebe"/><ellipse cx="166.79" cy="129.25" rx="4.1" ry="4.15" fill="#d7df23"/><ellipse cx="79.49" cy="228.54" rx="4.1" ry="4.15" fill="#d7df23"/><ellipse cx="261.61" cy="333.7" rx="4.1" ry="4.15" fill="#d7df23"/><ellipse cx="378.13" cy="32.95" rx="4.1" ry="4.15" fill="#8dc63f"/><ellipse cx="435.54" cy="44.99" rx="8.46" ry="8.57" fill="#fac1c0"/><ellipse cx="14.98" cy="83.78" rx="5.42" ry="5.49" fill="#f7aebe"/><ellipse cx="60.41" cy="83.56" rx="0.67" ry="0.66" transform="translate(-23.69 143.22) rotate(-89.49)" fill="#fffcdd"/></g><g id="card-1-0-box"><ellipse cx="210.27" cy="610.96" rx="110.69" ry="15.03" fill="#d1d3d4"/><polygon points="290.86 610.13 190.36 620.97 190.36 521.93 290.86 511.09 290.86 610.13" fill="#f1f2f2"/><polygon points="190.36 620.97 134.88 601.26 134.88 507.15 190.36 521.93 190.36 620.97" fill="#e6e7e8"/><polygon points="134.88 507.15 190.36 521.93 228.32 517.87 228.32 500.37 134.88 507.15" fill="#bcbec0"/><polygon points="228.93 500.32 228.32 500.37 228.32 517.87 290.86 511.09 228.93 500.32" fill="#a7a9ac"/><polygon points="88.78 509.12 190.81 464.11 184.94 449.01 82.91 494.02 88.78 509.12" fill="#f1f2f2"/><polygon points="190.81 464.11 224.67 459.34 218.8 444.24 184.94 449.01 190.81 464.11" fill="#e6e7e8"/><polygon points="190.81 464.11 224.67 459.34 120.96 503.3 118.18 496.15 190.81 464.11" fill="#bcbec0"/><polygon points="118.18 496.15 120.96 503.3 88.78 509.12 118.18 496.15" fill="#a7a9ac"/></g><g id="card-1-0-balloons"><g id="card-1-0-balloon-3"><path d="M230.77,375.71c-8.13-26.85-32.81-43.17-55.13-36.46S141.82,373.16,150,400c7.91,26.11,31.47,42.26,53.28,37L202,450l16.11-4.84-9.61-9.89C228.55,426.88,238.47,401.14,230.77,375.71Z" fill="#fbb040"/><path d="M221.72,370.77a2.3,2.3,0,0,1-2.69-1.16C210,352,187.57,345.45,187.34,345.38a2.33,2.33,0,0,1-1.6-2.84,2.26,2.26,0,0,1,2.8-1.6c1,.28,24.53,7.11,34.54,26.57a2.29,2.29,0,0,1-1.36,3.26Z" fill="#fcc066"/><path d="M207.41,550.21c-3.65-8.64.37-29.49,3.92-47.88,2.45-12.71,4.76-24.72,3.88-29.63a154.15,154.15,0,0,0-7-24.5l1.66-.65A156.21,156.21,0,0,1,217,472.39c.95,5.25-1.29,16.86-3.88,30.3-3.5,18.14-7.46,38.7-4,46.83Z" fill="#cec1ba"/></g><g id="card-1-0-balloon-2"><path d="M381.38,642.23l-1.75.38a150.08,150.08,0,0,1,3.6-80.95c1.94-5.9,4.29-11.74,6.55-17.4,2.65-6.61,5.39-13.45,7.49-20.37,4.58-15.08,5.08-28.28,1.48-39.23l1.71-.54c3.72,11.3,3.22,24.86-1.46,40.3-2.12,7-4.87,13.86-7.54,20.51-2.26,5.63-4.59,11.45-6.52,17.3A148.3,148.3,0,0,0,381.38,642.23Z" fill="#cec1ba"/><path d="M428.41,417.78c-5.55-27.31-28.73-45.89-51.78-41.5S339.41,406.36,345,433.67c5.4,26.56,27.47,44.86,49.87,41.81l-2.48,12.7L409,485l-8.68-10.72C421.21,468.06,433.67,443.65,428.41,417.78Z" fill="#dfd84f"/><path d="M419.82,412a2.33,2.33,0,0,1-2.59-1.42c-7.39-18.32-29.22-27-29.44-27.09a2.31,2.31,0,0,1-1.33-3,2.28,2.28,0,0,1,3-1.3c1,.38,23.93,9.47,32.08,29.68a2.26,2.26,0,0,1-1.28,3A2.34,2.34,0,0,1,419.82,412Z" fill="#e5e072"/></g><g id="card-1-0-balloon-1"><path d="M266.38,491.59l-1.72-.49,19.79-72.61c4.37-16,8.89-32.63,9.2-49.57.34-18.8-5-35.45-15-46.89l1.34-1.17c10.3,11.77,15.78,28.86,15.44,48.12-.31,17.17-4.86,33.87-9.26,50Z" fill="#cec1ba"/><path d="M281.67,248.92c-14.33-24.11-42.22-34-62.28-22.19s-24.71,41-10.37,65.13c13.94,23.45,40.69,33.49,60.61,23.12l1.93,12.91L286,319.32,274.33,312C291.78,299.12,295.24,271.77,281.67,248.92Z" fill="#f4667c"/><path d="M271.7,246.3a2.3,2.3,0,0,1-2.89-.48c-13-15-36.35-15.93-36.58-15.93a2.33,2.33,0,0,1-2.24-2.37,2.26,2.26,0,0,1,2.34-2.22c1,0,25.53,1,39.92,17.52a2.28,2.28,0,0,1-.54,3.49Z" fill="#f68092"/></g><g id="card-1-0-balloon-0"><path d="M26.81,623.26l-1.32-1.2c20.72-23.36,21.69-58.17,21-89S45,467.22,63.64,441.49l1.43,1.07c-18.32,25.23-17.52,59.9-16.82,90.49C49,564.19,48,599.4,26.81,623.26Z" fill="#cec1ba"/><path d="M128.7,401.41c11-25.77,2.5-54.22-18.9-63.55s-47.64,4-58.6,29.76c-10.66,25.06-2.95,52.65,17.17,62.74l-9.26,9.13,15.45,6.74-1-13.78C94.23,439,118.31,425.82,128.7,401.41Z" fill="#b1d5f1"/><path d="M124.93,391.79a2.32,2.32,0,0,1-1.32-2.63c4.35-19.35-8.63-38.83-8.77-39a2.33,2.33,0,0,1,.59-3.21,2.26,2.26,0,0,1,3.17.6c.58.86,14.25,21.32,9.45,42.67a2.27,2.27,0,0,1-3.13,1.61Z" fill="#c4e0f4"/></g></g></svg>