<svg id="card-1-1" xmlns="http://www.w3.org/2000/svg" viewBox="0 0 444 666"><title>card-1-1</title><g id="card-1-1-particles"><path d="M404.29,328.52a4.5,4.5,0,0,0,1.86.59,3.5,3.5,0,0,0,1.84-.3,2.49,2.49,0,0,0,.72-.53,2.57,2.57,0,0,0,.48-.73,2.84,2.84,0,0,0,.14-.42c0-.08,0-.14.05-.23a1,1,0,0,0,0-.1v-.1a2,2,0,0,0-.11-.81,2.84,2.84,0,0,0-1-1.31l-.09-.06,0,0,0,0h-.05l-.09,0-.1,0a3,3,0,0,0-.4-.14l-.41-.08-.23,0h-.18a2.82,2.82,0,0,0-1.52.5,2,2,0,0,0-.53.53,1.35,1.35,0,0,0-.22.63v-.07a1.05,1.05,0,0,0,0,.27l0,.07h0v0h0l0,.06v0h0v0l0,.06a1.53,1.53,0,0,0,.44.45,2,2,0,0,0,.63.28,1.66,1.66,0,0,0,.65,0h-.06a2.48,2.48,0,0,0,1.15-.62,2.78,2.78,0,0,0,.69-1.14,3.49,3.49,0,0,0,.15-.7v-.18c0-.06,0-.12,0-.18s0-.12,0-.18v-.21a4.64,4.64,0,0,0-.3-1.45,4.14,4.14,0,0,0-.74-1.25,2.32,2.32,0,0,0-1.1-.71l-.16,0h-.19l-.31,0a1.68,1.68,0,0,0-.6.12.77.77,0,0,0-.36.26.46.46,0,0,0,0,.37l0-.07a.84.84,0,0,0,.34.42,1.31,1.31,0,0,0,.61.19,1.69,1.69,0,0,0,.69-.1,1.29,1.29,0,0,0,.55-.38l0,0h0a2.75,2.75,0,0,0,.67-1.45,3.09,3.09,0,0,0-.16-1.68,2.18,2.18,0,0,0-.2-.37l-.13-.19-.13-.17a2.9,2.9,0,0,0-.66-.58,3,3,0,0,0-.81-.36,3,3,0,0,0-.9-.09v-.09a2.94,2.94,0,0,1,1.83.34,3.21,3.21,0,0,1,.75.59,3.86,3.86,0,0,1,.31.36,2.7,2.7,0,0,1,.25.41,3.47,3.47,0,0,1,.3,1.88,3.22,3.22,0,0,1-.72,1.76h0a1.84,1.84,0,0,1-.75.59,2.15,2.15,0,0,1-.93.18,1.88,1.88,0,0,1-.91-.24,1.48,1.48,0,0,1-.64-.71h0a1.19,1.19,0,0,1,.07-.9,1.41,1.41,0,0,1,.67-.59,2.38,2.38,0,0,1,.85-.2,2.46,2.46,0,0,1,.44,0,2.79,2.79,0,0,1,.43.07,3,3,0,0,1,1.49.9,4.74,4.74,0,0,1,.92,1.49,5.5,5.5,0,0,1,.38,1.72,4.77,4.77,0,0,1-.18,1.75,3.5,3.5,0,0,1-.91,1.5,3.31,3.31,0,0,1-1.54.81h0a2.54,2.54,0,0,1-1-.06,2.76,2.76,0,0,1-.88-.41,2.27,2.27,0,0,1-.67-.71,1.85,1.85,0,0,1-.26-1h0a2.15,2.15,0,0,1,.37-1,2.75,2.75,0,0,1,.74-.72,3.42,3.42,0,0,1,1.95-.58,3.59,3.59,0,0,1,1.93.64,3.34,3.34,0,0,1,1.19,1.66,2.51,2.51,0,0,1,.09,1,3.4,3.4,0,0,1-.31,1,2.84,2.84,0,0,1-1.49,1.37,3.81,3.81,0,0,1-2,.2,4.43,4.43,0,0,1-1.88-.76Z" fill="#f7aebe"/><path d="M31.13,441.82a4.5,4.5,0,0,0,1.86.59,3.51,3.51,0,0,0,1.84-.3,2.49,2.49,0,0,0,.72-.53,2.56,2.56,0,0,0,.48-.73,2.85,2.85,0,0,0,.14-.42c0-.08,0-.14.05-.23a.86.86,0,0,0,0-.1V440a2,2,0,0,0-.11-.81,2.84,2.84,0,0,0-1-1.31l-.09-.06,0,0,0,0H35l-.09,0-.1,0a3,3,0,0,0-.4-.14l-.41-.08-.23,0h-.18A2.82,2.82,0,0,0,32,438a2,2,0,0,0-.53.53,1.34,1.34,0,0,0-.22.63V439a1,1,0,0,0,0,.27l0,.07h0v0h0l0,.06v0h0v0l0,.06a1.53,1.53,0,0,0,.44.45,2,2,0,0,0,.63.28,1.66,1.66,0,0,0,.65,0H33.1a2.47,2.47,0,0,0,1.15-.62,2.77,2.77,0,0,0,.69-1.14,3.49,3.49,0,0,0,.15-.7v-.18c0-.06,0-.12,0-.18s0-.12,0-.18v-.21a4.64,4.64,0,0,0-.3-1.45,4.14,4.14,0,0,0-.74-1.25,2.32,2.32,0,0,0-1.1-.71l-.16,0h-.19l-.31,0a1.68,1.68,0,0,0-.6.12.78.78,0,0,0-.36.26.46.46,0,0,0,0,.37l0-.07a.83.83,0,0,0,.34.42,1.31,1.31,0,0,0,.61.19,1.69,1.69,0,0,0,.69-.1,1.29,1.29,0,0,0,.55-.38l0,0h0a2.75,2.75,0,0,0,.67-1.45,3.08,3.08,0,0,0-.16-1.68,2.14,2.14,0,0,0-.2-.37l-.13-.19-.13-.17a2.9,2.9,0,0,0-.66-.58,3,3,0,0,0-.81-.36,2.94,2.94,0,0,0-.9-.09v-.09a2.94,2.94,0,0,1,1.83.34,3.2,3.2,0,0,1,.75.59,3.8,3.8,0,0,1,.31.36,2.74,2.74,0,0,1,.25.41,3.47,3.47,0,0,1,.3,1.88,3.21,3.21,0,0,1-.72,1.76h0a1.84,1.84,0,0,1-.75.59,2.15,2.15,0,0,1-.93.18,1.88,1.88,0,0,1-.91-.24,1.48,1.48,0,0,1-.64-.71h0a1.19,1.19,0,0,1,.07-.9,1.41,1.41,0,0,1,.67-.59,2.38,2.38,0,0,1,.85-.2,2.46,2.46,0,0,1,.44,0,2.8,2.8,0,0,1,.43.07,3,3,0,0,1,1.49.9,4.74,4.74,0,0,1,.92,1.49,5.5,5.5,0,0,1,.38,1.72,4.78,4.78,0,0,1-.18,1.75,3.5,3.5,0,0,1-.91,1.5,3.32,3.32,0,0,1-1.54.81h0a2.54,2.54,0,0,1-1-.06,2.76,2.76,0,0,1-.88-.41,2.27,2.27,0,0,1-.67-.71,1.85,1.85,0,0,1-.26-1h0a2.15,2.15,0,0,1,.37-1,2.75,2.75,0,0,1,.74-.72,3.42,3.42,0,0,1,1.95-.58,3.59,3.59,0,0,1,1.93.64A3.33,3.33,0,0,1,36.68,439a2.51,2.51,0,0,1,.09,1,3.4,3.4,0,0,1-.31,1A2.83,2.83,0,0,1,35,442.44a3.82,3.82,0,0,1-2,.2,4.44,4.44,0,0,1-1.88-.76Z" fill="#f9ed32"/><path d="M109.21,557.76a4.69,4.69,0,0,0,.39,1.95,3.59,3.59,0,0,0,1.15,1.5,2.4,2.4,0,0,0,1.66.47,2.63,2.63,0,0,0,.43-.07l.22-.06.09,0,.09,0a1.91,1.91,0,0,0,.64-.49,2.87,2.87,0,0,0,.63-1.56s0-.07,0-.11v-.05c0,.07,0,0,0,0h0v0s0-.07,0-.1V559a3.2,3.2,0,0,0-.07-.42,3.25,3.25,0,0,0-.13-.41l-.09-.22-.08-.16a2.87,2.87,0,0,0-1.16-1.11,2,2,0,0,0-.71-.21,1.31,1.31,0,0,0-.65.11l.06,0a1,1,0,0,0-.21.17l0,.05h0l0,0,0,0h0v0l0,.06a1.58,1.58,0,0,0-.18.61,2,2,0,0,0,.06.7,1.73,1.73,0,0,0,.28.6l0,0a2.5,2.5,0,0,0,1.09.73,2.69,2.69,0,0,0,1.31.06,3.35,3.35,0,0,0,.67-.21l.09,0,.08,0,.16-.08.16-.09.18-.11a4.54,4.54,0,0,0,1.1-1,4.16,4.16,0,0,0,.72-1.26,2.39,2.39,0,0,0,.09-1.32l0-.15,0-.08,0-.1a2,2,0,0,0-.13-.28,1.74,1.74,0,0,0-.4-.48.77.77,0,0,0-.4-.19.44.44,0,0,0-.34.15l.05-.06a.85.85,0,0,0-.2.51,1.38,1.38,0,0,0,.13.64,1.75,1.75,0,0,0,.42.56,1.28,1.28,0,0,0,.59.31h0a2.64,2.64,0,0,0,1.58-.1,3,3,0,0,0,1.37-1,2.16,2.16,0,0,0,.23-.35l.1-.21c0-.06.06-.13.08-.2a3,3,0,0,0,.19-.87,3,3,0,0,0-.43-1.75l.07-.05a3.07,3.07,0,0,1,.59,1.8,3.31,3.31,0,0,1-.14.95,3.85,3.85,0,0,1-.17.45,2.65,2.65,0,0,1-.23.42,3.39,3.39,0,0,1-1.47,1.18,3.09,3.09,0,0,1-1.86.21h0a1.81,1.81,0,0,1-.86-.38,2.2,2.2,0,0,1-.6-.74,2,2,0,0,1-.23-.93,1.52,1.52,0,0,1,.31-.91h0a1.14,1.14,0,0,1,.81-.37,1.4,1.4,0,0,1,.83.31,2.45,2.45,0,0,1,.59.66,2.57,2.57,0,0,1,.2.4,3,3,0,0,1,.15.42,3.15,3.15,0,0,1-.06,1.76,4.77,4.77,0,0,1-.84,1.54,5.36,5.36,0,0,1-1.3,1.16,4.57,4.57,0,0,1-1.6.68,3.38,3.38,0,0,1-1.74-.09,3.33,3.33,0,0,1-1.44-1h0a2.62,2.62,0,0,1-.41-.89,2.86,2.86,0,0,1-.07-1,2.31,2.31,0,0,1,.29-.94,1.81,1.81,0,0,1,.7-.69h0a2.06,2.06,0,0,1,1-.15,2.7,2.7,0,0,1,1,.31,3.49,3.49,0,0,1,1.44,1.46,3.74,3.74,0,0,1,.38,2,3.36,3.36,0,0,1-.85,1.86,2.42,2.42,0,0,1-.85.58,3.27,3.27,0,0,1-1,.2,2.79,2.79,0,0,1-1.9-.66,3.94,3.94,0,0,1-1.14-1.69,4.61,4.61,0,0,1-.25-2Z" fill="#f7aebe"/><path d="M188.07,537.79a16.34,16.34,0,0,0,1.53-1.2,4.81,4.81,0,0,0,1.17-1.46,3.09,3.09,0,0,0,.27-.87,3.46,3.46,0,0,0,0-.9,3.4,3.4,0,0,0-.07-.44c0-.07,0-.15-.06-.21l0-.11,0-.1a3.93,3.93,0,0,0-.42-.78l-.14-.19-.13-.17a3,3,0,0,0-.3-.31,3.47,3.47,0,0,0-.71-.5,6.4,6.4,0,0,0-1.7-.58l-.11,0h-.08l-.22,0h-.42a2.76,2.76,0,0,0-.79.15,1.77,1.77,0,0,0-1.06,1l0-.08a1.07,1.07,0,0,0,0,.64.28.28,0,0,0,.1.13h0l0,0h0l.06,0,.08,0,.17.07a1.59,1.59,0,0,0,.75,0,3.83,3.83,0,0,0,.87-.27l-.09,0a5.36,5.36,0,0,0,1.12-.89l.23-.26,0,0v0h0l0,0h0l0-.07.07-.12a2.19,2.19,0,0,0,.21-.58,3,3,0,0,0-.61-2.44,2.31,2.31,0,0,0-.45-.42l-.25-.15-.28-.12h0l-.09,0-.17,0-.34-.06h-.68l-.31,0-.16,0h-.09a.56.56,0,0,0-.27.21.47.47,0,0,0-.08.3.44.44,0,0,0,.13.27l-.11-.09a.7.7,0,0,0,.29.12.53.53,0,0,0,.27,0,2.77,2.77,0,0,0,.81-.59l.46-.44.42-.44a2.54,2.54,0,0,0,.31-.4,1.77,1.77,0,0,0,.11-.21l.05-.13,0-.1a1.55,1.55,0,0,0,0-.21c0-.09,0-.16,0-.25s0-.18,0-.25v-.08s0,0,0-.05,0-.07,0-.11a1.61,1.61,0,0,0-.43-.81,2.52,2.52,0,0,0-.86-.56,3.47,3.47,0,0,0-.53-.17,4.05,4.05,0,0,0-.55-.09h-.66a4.33,4.33,0,0,0-.65.07,1.41,1.41,0,0,0-.49.19.42.42,0,0,0-.2.27v-.08a.79.79,0,0,0,0,.29.41.41,0,0,0,.13.18.9.9,0,0,0,.62.13H184l.19-.05a1.53,1.53,0,0,0,.35-.17,2.64,2.64,0,0,0,.59-.61l0,0a2.38,2.38,0,0,0,.39-1.34,1.5,1.5,0,0,0-.19-.65,1.77,1.77,0,0,0-.47-.53h0a3,3,0,0,0-.68-.45,4.62,4.62,0,0,0-.78-.3,7.2,7.2,0,0,0-1.7-.26V519a7.51,7.51,0,0,1,1.74.16,3.91,3.91,0,0,1,1.6.72h0a2.08,2.08,0,0,1,.58.59,1.82,1.82,0,0,1,.27.78,2.76,2.76,0,0,1-.37,1.59h0a3,3,0,0,1-.67.75,2,2,0,0,1-.93.37,1.4,1.4,0,0,1-1-.2.94.94,0,0,1-.33-.41,1.33,1.33,0,0,1-.1-.51h0a1,1,0,0,1,.41-.66,1.92,1.92,0,0,1,.7-.3,7.16,7.16,0,0,1,1.49-.14h0a4.47,4.47,0,0,1,1.27.28,3.2,3.2,0,0,1,1.11.7,2.35,2.35,0,0,1,.65,1.16,3.07,3.07,0,0,1,.07.67,2.42,2.42,0,0,1-.08.67l-.05.16-.06.15a2.45,2.45,0,0,1-.15.3,3.21,3.21,0,0,1-.39.54c-.29.33-.6.63-.91.94a3.35,3.35,0,0,1-1.07.77,1.34,1.34,0,0,1-.67.09,1.5,1.5,0,0,1-.63-.25h0a1.28,1.28,0,0,1-.37-.78,1.33,1.33,0,0,1,.2-.84,1.39,1.39,0,0,1,.66-.54l.2-.07.2,0,.41,0a5,5,0,0,1,1.63.2,3,3,0,0,1,1.35,1,3.83,3.83,0,0,1,.77,3.17,3,3,0,0,1-.29.79,2.43,2.43,0,0,1-.23.35l-.28.31a6.12,6.12,0,0,1-1.3,1h0a4.53,4.53,0,0,1-1.05.3,2.32,2.32,0,0,1-1.1-.1,2,2,0,0,1-.5-.25,1,1,0,0,1-.34-.47,1.76,1.76,0,0,1,0-1.12h0a2.5,2.5,0,0,1,.61-.8,2.57,2.57,0,0,1,.87-.48,3.42,3.42,0,0,1,1-.15,4.26,4.26,0,0,1,.49,0l.24,0,.24.05a6.78,6.78,0,0,1,1.83.7,4,4,0,0,1,.79.6,4.35,4.35,0,0,1,.62.78,3.69,3.69,0,0,1,.54,2.87,3.36,3.36,0,0,1-.34.94,5,5,0,0,1-1.3,1.48,15.77,15.77,0,0,1-1.62,1.11Z" fill="#b9e5fb"/><path d="M22.33,311.74a16.34,16.34,0,0,0,1.53-1.2A4.81,4.81,0,0,0,25,309.08a3.09,3.09,0,0,0,.27-.87,3.46,3.46,0,0,0,0-.9,3.4,3.4,0,0,0-.07-.44c0-.07,0-.15-.06-.21l0-.11,0-.1a3.93,3.93,0,0,0-.42-.78l-.14-.19-.13-.17a3,3,0,0,0-.3-.31,3.47,3.47,0,0,0-.71-.5,6.4,6.4,0,0,0-1.7-.58l-.11,0h-.08l-.22,0h-.42a2.76,2.76,0,0,0-.79.15A1.77,1.77,0,0,0,19,305l0-.08a1.07,1.07,0,0,0,0,.64.28.28,0,0,0,.1.13h0l0,0h0l.06,0,.08,0,.17.07a1.59,1.59,0,0,0,.75,0,3.83,3.83,0,0,0,.87-.27l-.09,0a5.36,5.36,0,0,0,1.12-.89l.23-.26,0,0v0h0l0,0h0l0-.07.07-.12a2.19,2.19,0,0,0,.21-.58,3,3,0,0,0-.61-2.44,2.31,2.31,0,0,0-.45-.42l-.25-.15-.28-.12h0l-.09,0-.17,0-.34-.06h-.68l-.31,0-.16,0h-.09a.56.56,0,0,0-.27.21.47.47,0,0,0-.08.3.44.44,0,0,0,.13.27l-.11-.09a.7.7,0,0,0,.29.12.53.53,0,0,0,.27,0,2.77,2.77,0,0,0,.81-.59l.46-.44.42-.44a2.54,2.54,0,0,0,.31-.4,1.77,1.77,0,0,0,.11-.21l.05-.13,0-.1a1.55,1.55,0,0,0,0-.21c0-.09,0-.16,0-.25s0-.18,0-.25v-.08s0,0,0-.05,0-.07,0-.11a1.61,1.61,0,0,0-.43-.81,2.52,2.52,0,0,0-.86-.56,3.47,3.47,0,0,0-.53-.17,4.05,4.05,0,0,0-.55-.09h-.66a4.33,4.33,0,0,0-.65.07,1.41,1.41,0,0,0-.49.19.42.42,0,0,0-.2.27v-.08a.79.79,0,0,0,0,.29.41.41,0,0,0,.13.18.9.9,0,0,0,.62.13h.18l.19-.05a1.53,1.53,0,0,0,.35-.17,2.64,2.64,0,0,0,.59-.61l0,0a2.38,2.38,0,0,0,.39-1.34,1.5,1.5,0,0,0-.19-.65,1.77,1.77,0,0,0-.47-.53h0a3,3,0,0,0-.68-.45,4.62,4.62,0,0,0-.78-.3,7.2,7.2,0,0,0-1.7-.26v-.09a7.51,7.51,0,0,1,1.74.16,3.91,3.91,0,0,1,1.6.72h0a2.08,2.08,0,0,1,.58.59,1.82,1.82,0,0,1,.27.78,2.76,2.76,0,0,1-.37,1.59h0a3,3,0,0,1-.67.75,2,2,0,0,1-.93.37,1.4,1.4,0,0,1-1-.2.94.94,0,0,1-.33-.41,1.33,1.33,0,0,1-.1-.51h0a1,1,0,0,1,.41-.66,1.92,1.92,0,0,1,.7-.3,7.16,7.16,0,0,1,1.49-.14h0a4.47,4.47,0,0,1,1.27.28,3.2,3.2,0,0,1,1.11.7,2.35,2.35,0,0,1,.65,1.16,3.07,3.07,0,0,1,.07.67,2.42,2.42,0,0,1-.08.67l-.05.16-.06.15a2.45,2.45,0,0,1-.15.3,3.21,3.21,0,0,1-.39.54c-.29.33-.6.63-.91.94a3.35,3.35,0,0,1-1.07.77,1.34,1.34,0,0,1-.67.09,1.5,1.5,0,0,1-.63-.25h0a1.28,1.28,0,0,1-.37-.78,1.33,1.33,0,0,1,.2-.84,1.39,1.39,0,0,1,.66-.54l.2-.07.2,0,.41,0a5,5,0,0,1,1.63.2,3,3,0,0,1,1.35,1,3.83,3.83,0,0,1,.77,3.17,3,3,0,0,1-.29.79A2.43,2.43,0,0,1,23,305l-.28.31a6.12,6.12,0,0,1-1.3,1h0a4.53,4.53,0,0,1-1.05.3,2.32,2.32,0,0,1-1.1-.1,2,2,0,0,1-.5-.25,1,1,0,0,1-.34-.47,1.76,1.76,0,0,1,0-1.12h0a2.5,2.5,0,0,1,.61-.8,2.57,2.57,0,0,1,.87-.48,3.42,3.42,0,0,1,1-.15,4.26,4.26,0,0,1,.49,0l.24,0,.24.05a6.78,6.78,0,0,1,1.83.7,4,4,0,0,1,.79.6,4.35,4.35,0,0,1,.62.78,3.69,3.69,0,0,1,.54,2.87,3.36,3.36,0,0,1-.34.94,5,5,0,0,1-1.3,1.48,15.77,15.77,0,0,1-1.62,1.11Z" fill="#b9e5fb"/><path d="M42.38,367a16.1,16.1,0,0,0,1.93-.08,4.68,4.68,0,0,0,1.78-.51,3,3,0,0,0,.71-.55,3.42,3.42,0,0,0,.54-.72,3.56,3.56,0,0,0,.19-.4c0-.07.05-.14.07-.2l0-.11,0-.11a4,4,0,0,0,.09-.88v-.24c0-.09,0-.14,0-.22a3.27,3.27,0,0,0-.07-.43,3.59,3.59,0,0,0-.3-.82,6.54,6.54,0,0,0-1.06-1.47l-.08-.09,0,0,0,0h0l0,0h0L46,360a3.83,3.83,0,0,0-.34-.25,2.76,2.76,0,0,0-.73-.34,1.73,1.73,0,0,0-1.41.17l.08,0a1.05,1.05,0,0,0-.37.51.28.28,0,0,0,0,.17h0l0,0h0l0,.06,0,.08.1.16a1.63,1.63,0,0,0,.59.48,3.86,3.86,0,0,0,.86.28l-.1,0a5.25,5.25,0,0,0,1.42-.08l.33-.08h.06l0,0h0l.08,0,.13-.06a2.14,2.14,0,0,0,.5-.35,3,3,0,0,0,.88-2.36,2.38,2.38,0,0,0-.13-.61,1.9,1.9,0,0,0-.12-.27,2.28,2.28,0,0,0-.16-.26l0,0,0,0h0l0,0-.06-.07-.12-.13-.25-.25-.06-.05-.08-.07-.13-.1-.28-.2-.27-.15-.15-.07h-.09a.55.55,0,0,0-.34,0,.46.46,0,0,0-.23.2.45.45,0,0,0-.05.3l0-.14a.72.72,0,0,0,.17.27.54.54,0,0,0,.24.13,2.72,2.72,0,0,0,1,0l.62-.09.59-.11a2.47,2.47,0,0,0,.48-.15l.2-.11.12-.08.08-.06.16-.14.16-.19.14-.21,0-.07,0,0,0-.1a1.63,1.63,0,0,0,.1-.91,2.58,2.58,0,0,0-.38-1A3.59,3.59,0,0,0,49,353a4.15,4.15,0,0,0-.4-.4l0,0-.59-.41a4.4,4.4,0,0,0-.57-.32,1.4,1.4,0,0,0-.51-.14.41.41,0,0,0-.31.11l.05-.06a.79.79,0,0,0-.14.26.41.41,0,0,0,0,.23.92.92,0,0,0,.43.47l.08,0h0l.06,0,.19.07a1.48,1.48,0,0,0,.38.06,2.55,2.55,0,0,0,.83-.15h0a2.31,2.31,0,0,0,1.08-.87,1.49,1.49,0,0,0,.22-.64,1.8,1.8,0,0,0-.08-.71v0h0a3,3,0,0,0-.3-.77,4.72,4.72,0,0,0-.47-.7,7.39,7.39,0,0,0-1.24-1.21l0-.07A7.68,7.68,0,0,1,49.12,349a4,4,0,0,1,.9,1.53h0a2.13,2.13,0,0,1,.14.82,1.82,1.82,0,0,1-.22.8,2.7,2.7,0,0,1-1.2,1.09h0a2.89,2.89,0,0,1-1,.22,2,2,0,0,1-1-.24,1.43,1.43,0,0,1-.69-.74,1,1,0,0,1,0-.52,1.34,1.34,0,0,1,.21-.47h0a1,1,0,0,1,.71-.3,1.91,1.91,0,0,1,.75.16,7.23,7.23,0,0,1,1.3.76h0a4.62,4.62,0,0,1,.89,1,3.29,3.29,0,0,1,.52,1.22,2.38,2.38,0,0,1-.12,1.33,3,3,0,0,1-.32.58,2.38,2.38,0,0,1-.45.5l-.13.1-.14.09-.29.16a3.15,3.15,0,0,1-.62.21c-.43.1-.85.16-1.28.23a3.31,3.31,0,0,1-1.31,0,1.36,1.36,0,0,1-.6-.32,1.55,1.55,0,0,1-.37-.57h0a1.28,1.28,0,0,1,.78-1.42,1.36,1.36,0,0,1,.85-.05l.2.07.19.08a3.48,3.48,0,0,1,.36.2,5.18,5.18,0,0,1,1.22,1.12,3,3,0,0,1,.56,1.57,3.82,3.82,0,0,1-1.17,3,2.93,2.93,0,0,1-.69.47,2.31,2.31,0,0,1-.39.16l-.4.09a6,6,0,0,1-1.64.06h0a4.58,4.58,0,0,1-1-.37,2.38,2.38,0,0,1-.84-.72,2.11,2.11,0,0,1-.27-.5,1,1,0,0,1,0-.58,1.73,1.73,0,0,1,.65-.9h0a2.43,2.43,0,0,1,1-.29,2.53,2.53,0,0,1,1,.12,3.46,3.46,0,0,1,.88.45,4.41,4.41,0,0,1,.39.31l.18.17.17.19a6.93,6.93,0,0,1,1.1,1.64,4.12,4.12,0,0,1,.3,1,4.41,4.41,0,0,1,.06,1A3.66,3.66,0,0,1,47,366.11a3.29,3.29,0,0,1-.81.57,4.9,4.9,0,0,1-1.9.45,15.53,15.53,0,0,1-1.95,0Z" fill="#a4ce0b"/><path d="M183.17,416a16.45,16.45,0,0,0,1.53-1.2,4.81,4.81,0,0,0,1.17-1.46,3.1,3.1,0,0,0,.27-.87,3.47,3.47,0,0,0,0-.9,3.43,3.43,0,0,0-.07-.44c0-.07,0-.15-.06-.21l0-.11,0-.1a4,4,0,0,0-.42-.78l-.14-.19-.13-.17a3.1,3.1,0,0,0-.3-.31,3.47,3.47,0,0,0-.71-.5,6.38,6.38,0,0,0-1.7-.58l-.11,0h-.08l-.22,0h-.42a2.74,2.74,0,0,0-.79.15,1.77,1.77,0,0,0-1.06,1l0-.08a1.07,1.07,0,0,0,0,.64.28.28,0,0,0,.1.13h0l0,0h0l.06,0,.08,0,.17.07a1.6,1.6,0,0,0,.75,0,3.85,3.85,0,0,0,.87-.27l-.09,0a5.35,5.35,0,0,0,1.12-.89l.23-.26,0,0v0h0l0,0h0l0-.07.07-.12a2.21,2.21,0,0,0,.21-.58,3,3,0,0,0-.61-2.44,2.32,2.32,0,0,0-.45-.42l-.25-.15-.28-.12h0l-.09,0-.17,0-.34-.06h-.68l-.31,0-.16,0h-.09a.56.56,0,0,0-.27.21.47.47,0,0,0-.08.3.44.44,0,0,0,.13.27l-.11-.09a.7.7,0,0,0,.29.13.53.53,0,0,0,.27,0,2.76,2.76,0,0,0,.81-.59l.46-.44L182,404a2.58,2.58,0,0,0,.31-.4,1.81,1.81,0,0,0,.11-.21l.05-.13,0-.1a1.52,1.52,0,0,0,0-.21c0-.09,0-.16,0-.25s0-.18,0-.25v-.08s0,0,0-.05,0-.07,0-.11a1.61,1.61,0,0,0-.43-.81,2.52,2.52,0,0,0-.86-.56,3.54,3.54,0,0,0-.53-.17,4.06,4.06,0,0,0-.55-.09h-.66a4.33,4.33,0,0,0-.65.07,1.4,1.4,0,0,0-.49.19.42.42,0,0,0-.2.27V401a.8.8,0,0,0,0,.29.41.41,0,0,0,.13.18.9.9,0,0,0,.62.13h.18l.19-.06a1.5,1.5,0,0,0,.35-.17,2.62,2.62,0,0,0,.59-.61l0,0a2.38,2.38,0,0,0,.39-1.34,1.5,1.5,0,0,0-.19-.65,1.77,1.77,0,0,0-.47-.53h0a3,3,0,0,0-.68-.45,4.62,4.62,0,0,0-.78-.3,7.22,7.22,0,0,0-1.7-.26v-.09a7.51,7.51,0,0,1,1.74.16,3.92,3.92,0,0,1,1.6.72h0a2.07,2.07,0,0,1,.58.59,1.81,1.81,0,0,1,.27.78,2.76,2.76,0,0,1-.37,1.59h0a3,3,0,0,1-.67.75,2,2,0,0,1-.93.37,1.4,1.4,0,0,1-1-.2.94.94,0,0,1-.33-.41,1.33,1.33,0,0,1-.1-.51h0a1,1,0,0,1,.41-.66,1.91,1.91,0,0,1,.7-.3,7.17,7.17,0,0,1,1.49-.14h0a4.49,4.49,0,0,1,1.27.28,3.2,3.2,0,0,1,1.11.7,2.35,2.35,0,0,1,.65,1.16,3.07,3.07,0,0,1,.07.67,2.43,2.43,0,0,1-.08.67l-.05.16-.06.16a2.51,2.51,0,0,1-.15.3,3.22,3.22,0,0,1-.39.54c-.29.33-.6.63-.91.94a3.36,3.36,0,0,1-1.07.77,1.35,1.35,0,0,1-.67.09,1.5,1.5,0,0,1-.63-.25h0a1.28,1.28,0,0,1-.37-.78,1.33,1.33,0,0,1,.2-.84,1.39,1.39,0,0,1,.66-.54l.2-.07.2,0,.41,0a5.06,5.06,0,0,1,1.63.2,3,3,0,0,1,1.35,1,3.83,3.83,0,0,1,.77,3.17,3,3,0,0,1-.29.79,2.43,2.43,0,0,1-.23.36l-.28.31a6.14,6.14,0,0,1-1.3,1h0a4.55,4.55,0,0,1-1.05.3,2.33,2.33,0,0,1-1.1-.1,2,2,0,0,1-.5-.25,1,1,0,0,1-.34-.47,1.76,1.76,0,0,1,0-1.12h0a2.5,2.5,0,0,1,.61-.8,2.56,2.56,0,0,1,.87-.48,3.42,3.42,0,0,1,1-.15l.49,0,.24,0,.24.05a6.75,6.75,0,0,1,1.83.7,4,4,0,0,1,.79.6,4.34,4.34,0,0,1,.62.78,3.69,3.69,0,0,1,.54,2.87,3.36,3.36,0,0,1-.34.94,5,5,0,0,1-1.3,1.48,15.78,15.78,0,0,1-1.62,1.11Z" fill="#fdb913"/><path d="M157.58,320.5a16.37,16.37,0,0,0,1.94-.16,4.78,4.78,0,0,0,1.77-.59,3.08,3.08,0,0,0,.69-.58,3.3,3.3,0,0,0,.69-1.15c0-.07,0-.15.06-.21l0-.11,0-.11a4,4,0,0,0,.07-.88v-.24c0-.08,0-.14,0-.22a3.12,3.12,0,0,0-.08-.42,3.49,3.49,0,0,0-.32-.8,6.42,6.42,0,0,0-1.11-1.41l-.08-.08,0,0,0,0h0l0,0h0l-.17-.14-.35-.24a2.74,2.74,0,0,0-.74-.31,1.76,1.76,0,0,0-1.41.23l.07-.05a1.07,1.07,0,0,0-.36.53.28.28,0,0,0,0,.16h0l0,0h0l0,.06,0,.08.11.15a1.6,1.6,0,0,0,.61.45,3.85,3.85,0,0,0,.87.25h-.1a5.33,5.33,0,0,0,1.42-.14l.33-.09h.06l0,0h0l.08,0,.13-.06a2.19,2.19,0,0,0,.49-.37,3,3,0,0,0,.81-2.38,2.33,2.33,0,0,0-.15-.6,1.87,1.87,0,0,0-.13-.26,2.25,2.25,0,0,0-.17-.25l0,0,0,0h0l0,0-.06-.07-.12-.12-.26-.24-.06-.05-.08-.06-.13-.1-.28-.19-.27-.14-.15-.06h-.09a.55.55,0,0,0-.34,0,.47.47,0,0,0-.23.21.44.44,0,0,0,0,.3l0-.14a.71.71,0,0,0,.17.26.54.54,0,0,0,.25.12,2.75,2.75,0,0,0,1,0l.62-.12.59-.13a2.57,2.57,0,0,0,.48-.17l.2-.12.12-.08.08-.06.15-.15.15-.2.13-.21,0-.07,0,0,0-.1a1.61,1.61,0,0,0,.08-.91,2.54,2.54,0,0,0-.41-.94,3.56,3.56,0,0,0-.35-.43,4.08,4.08,0,0,0-.41-.38l0,0-.61-.38a4.34,4.34,0,0,0-.59-.29,1.4,1.4,0,0,0-.51-.11.41.41,0,0,0-.31.12l.05-.07a.8.8,0,0,0-.13.26.41.41,0,0,0,0,.22.9.9,0,0,0,.45.45l.09,0h0l.06,0,.19.06a1.5,1.5,0,0,0,.38,0,2.61,2.61,0,0,0,.83-.19h0a2.36,2.36,0,0,0,1.06-.91,1.5,1.5,0,0,0,.2-.65,1.78,1.78,0,0,0-.1-.7v0h0a3,3,0,0,0-.33-.75,4.65,4.65,0,0,0-.5-.68,7.26,7.26,0,0,0-1.28-1.15l0-.07a7.55,7.55,0,0,1,1.37,1.09,3.94,3.94,0,0,1,.95,1.48h0a2.08,2.08,0,0,1,.16.81,1.82,1.82,0,0,1-.2.8,2.75,2.75,0,0,1-1.17,1.13h0a2.94,2.94,0,0,1-1,.26,2,2,0,0,1-1-.2,1.4,1.4,0,0,1-.72-.7,1,1,0,0,1-.05-.52,1.33,1.33,0,0,1,.2-.48h0a1,1,0,0,1,.7-.33,1.91,1.91,0,0,1,.75.13,7.18,7.18,0,0,1,1.33.7h0a4.51,4.51,0,0,1,.92.93,3.22,3.22,0,0,1,.56,1.19,2.35,2.35,0,0,1-.08,1.32,3.06,3.06,0,0,1-.31.6,2.41,2.41,0,0,1-.43.51l-.13.11-.13.1-.29.17a3.2,3.2,0,0,1-.62.24c-.42.12-.85.2-1.27.29a3.34,3.34,0,0,1-1.31.06,1.35,1.35,0,0,1-.61-.3,1.51,1.51,0,0,1-.39-.55h0a1.29,1.29,0,0,1,.12-.85,1.32,1.32,0,0,1,.62-.59,1.38,1.38,0,0,1,.85-.09l.21.06.19.08a3.47,3.47,0,0,1,.37.19,5.09,5.09,0,0,1,1.26,1.06,3,3,0,0,1,.61,1.54,3.82,3.82,0,0,1-1.08,3.07,3,3,0,0,1-.67.5,2.41,2.41,0,0,1-.39.17l-.4.11a6.11,6.11,0,0,1-1.64.13h0a4.55,4.55,0,0,1-1-.32,2.34,2.34,0,0,1-.86-.68,2,2,0,0,1-.28-.49,1,1,0,0,1,0-.57,1.76,1.76,0,0,1,.63-.93h0a2.48,2.48,0,0,1,.95-.33,2.55,2.55,0,0,1,1,.08,3.43,3.43,0,0,1,.9.41,4.4,4.4,0,0,1,.4.29l.19.16.17.18a6.79,6.79,0,0,1,1.16,1.59,4,4,0,0,1,.33.93,4.36,4.36,0,0,1,.09,1,3.68,3.68,0,0,1-1.1,2.71,3.34,3.34,0,0,1-.79.6,5,5,0,0,1-1.89.53,15.72,15.72,0,0,1-2,0Z" fill="#d2222d"/><path d="M106.09,290.14A16.37,16.37,0,0,0,108,290a4.78,4.78,0,0,0,1.77-.59,3.08,3.08,0,0,0,.69-.58,3.3,3.3,0,0,0,.69-1.15c0-.07,0-.15.06-.21l0-.11,0-.11a4,4,0,0,0,.07-.88v-.24c0-.08,0-.14,0-.22a3.12,3.12,0,0,0-.08-.42,3.49,3.49,0,0,0-.32-.8,6.42,6.42,0,0,0-1.11-1.41l-.08-.08,0,0,0,0h0l0,0h0l-.17-.14-.35-.24a2.74,2.74,0,0,0-.74-.31,1.76,1.76,0,0,0-1.41.23l.07-.05a1.07,1.07,0,0,0-.36.53.28.28,0,0,0,0,.16h0l0,0h0l0,.06,0,.08.11.15a1.6,1.6,0,0,0,.61.45,3.85,3.85,0,0,0,.87.25h-.1a5.33,5.33,0,0,0,1.42-.14L110,284h.06l0,0h0l.08,0,.13-.06a2.19,2.19,0,0,0,.49-.37,3,3,0,0,0,.81-2.38,2.33,2.33,0,0,0-.15-.6,1.87,1.87,0,0,0-.13-.26,2.25,2.25,0,0,0-.17-.25l0,0,0,0h0l0,0-.06-.07-.12-.12-.26-.24-.06-.05-.08-.06-.13-.1-.28-.19-.27-.14-.15-.06h-.09a.55.55,0,0,0-.34,0,.47.47,0,0,0-.23.21.44.44,0,0,0,0,.3l0-.14a.71.71,0,0,0,.17.26.54.54,0,0,0,.25.12,2.75,2.75,0,0,0,1,0l.62-.12.59-.13a2.57,2.57,0,0,0,.48-.17l.2-.12.12-.08.08-.06.15-.15.15-.2.13-.21,0-.07,0,0,0-.1a1.61,1.61,0,0,0,.08-.91,2.54,2.54,0,0,0-.41-.94,3.56,3.56,0,0,0-.35-.43,4.08,4.08,0,0,0-.41-.38l0,0-.61-.38a4.34,4.34,0,0,0-.59-.29,1.4,1.4,0,0,0-.51-.11.41.41,0,0,0-.31.12l.05-.07a.8.8,0,0,0-.13.26.41.41,0,0,0,0,.22.9.9,0,0,0,.45.45l.09,0h0l.06,0,.19.06a1.5,1.5,0,0,0,.38,0,2.61,2.61,0,0,0,.83-.19h0a2.36,2.36,0,0,0,1.06-.91,1.5,1.5,0,0,0,.2-.65,1.78,1.78,0,0,0-.1-.7v0h0a3,3,0,0,0-.33-.75,4.65,4.65,0,0,0-.5-.68,7.26,7.26,0,0,0-1.28-1.15l0-.07a7.55,7.55,0,0,1,1.37,1.09,3.94,3.94,0,0,1,.95,1.48h0a2.08,2.08,0,0,1,.16.81,1.82,1.82,0,0,1-.2.8,2.75,2.75,0,0,1-1.17,1.13h0a2.94,2.94,0,0,1-1,.26,2,2,0,0,1-1-.2,1.4,1.4,0,0,1-.72-.7,1,1,0,0,1-.05-.52,1.33,1.33,0,0,1,.2-.48h0a1,1,0,0,1,.7-.33,1.91,1.91,0,0,1,.75.13,7.18,7.18,0,0,1,1.33.7h0a4.51,4.51,0,0,1,.92.93,3.22,3.22,0,0,1,.56,1.19,2.35,2.35,0,0,1-.08,1.32,3.06,3.06,0,0,1-.31.6,2.41,2.41,0,0,1-.43.51l-.13.11-.13.1-.29.17a3.2,3.2,0,0,1-.62.24c-.42.12-.85.2-1.27.29a3.34,3.34,0,0,1-1.31.06,1.35,1.35,0,0,1-.61-.3,1.51,1.51,0,0,1-.39-.55h0a1.29,1.29,0,0,1,.12-.85,1.32,1.32,0,0,1,.62-.59,1.38,1.38,0,0,1,.85-.09l.21.06.19.08a3.47,3.47,0,0,1,.37.19,5.09,5.09,0,0,1,1.26,1.06,3,3,0,0,1,.61,1.54,3.82,3.82,0,0,1-1.08,3.07,3,3,0,0,1-.67.5,2.41,2.41,0,0,1-.39.17l-.4.11a6.11,6.11,0,0,1-1.64.13h0a4.55,4.55,0,0,1-1-.32,2.34,2.34,0,0,1-.86-.68,2,2,0,0,1-.28-.49,1,1,0,0,1,0-.57,1.76,1.76,0,0,1,.63-.93h0a2.48,2.48,0,0,1,.95-.33,2.55,2.55,0,0,1,1,.08,3.43,3.43,0,0,1,.9.41,4.4,4.4,0,0,1,.4.29l.19.16.17.18a6.79,6.79,0,0,1,1.16,1.59,4,4,0,0,1,.33.93,4.36,4.36,0,0,1,.09,1,3.68,3.68,0,0,1-1.1,2.71,3.34,3.34,0,0,1-.79.6,5,5,0,0,1-1.89.53,15.72,15.72,0,0,1-2,0Z" fill="#bd709c"/><path d="M226.65,589.3a2.85,2.85,0,0,0,1.85-1l.2-.27v0h0l0,0,0-.07.07-.15a2.62,2.62,0,0,0,.2-.62,2.64,2.64,0,0,0-.27-1.82,2.12,2.12,0,0,0-.8-.82,2.34,2.34,0,0,0-.53-.23l-.28-.07h-.24a1.44,1.44,0,0,0-.9.32.64.64,0,0,0-.18.28.68.68,0,0,0,0,.36l0-.1a.52.52,0,0,0,.24.28,1.1,1.1,0,0,0,.52.12,2.26,2.26,0,0,0,.66-.08,1.91,1.91,0,0,0,.6-.29,3.43,3.43,0,0,0,1-1.13,4,4,0,0,0,.34-.73,3.77,3.77,0,0,0,.2-.8v0a2,2,0,0,0-.07-.57l.08,0a2,2,0,0,1,.19.58h0a4.17,4.17,0,0,1-.33,1.72,3.83,3.83,0,0,1-1,1.42,2.71,2.71,0,0,1-1.61.63,1.88,1.88,0,0,1-.87-.15,1.32,1.32,0,0,1-.65-.62h0a1.49,1.49,0,0,1,0-.81,1.41,1.41,0,0,1,.41-.7,2.14,2.14,0,0,1,1.46-.55,2.35,2.35,0,0,1,.78.14,3.16,3.16,0,0,1,.71.34,2.89,2.89,0,0,1,1,1.18,3.22,3.22,0,0,1-.16,3.05,2.91,2.91,0,0,1-2.65,1.37Z" fill="#f15a22"/><path d="M366.87,422.09a2.82,2.82,0,0,0,1.35-.53,2.79,2.79,0,0,0,.5-.47l.2-.27v0h0l0,0,0-.07.07-.15a2.62,2.62,0,0,0,.2-.62,2.64,2.64,0,0,0-.27-1.82,2.12,2.12,0,0,0-.8-.82,2.34,2.34,0,0,0-.53-.23l-.28-.07h-.24a1.44,1.44,0,0,0-.9.32.64.64,0,0,0-.18.28.68.68,0,0,0,0,.36l0-.1a.52.52,0,0,0,.24.28,1.1,1.1,0,0,0,.52.12,2.26,2.26,0,0,0,.66-.08,1.91,1.91,0,0,0,.6-.29,3.43,3.43,0,0,0,1-1.13,4,4,0,0,0,.34-.73,3.77,3.77,0,0,0,.2-.8v0a2,2,0,0,0-.07-.57l.08,0a2,2,0,0,1,.19.58h0a4.17,4.17,0,0,1-.33,1.72,3.83,3.83,0,0,1-1,1.42,2.71,2.71,0,0,1-1.61.63,1.88,1.88,0,0,1-.87-.15,1.32,1.32,0,0,1-.65-.62h0a1.49,1.49,0,0,1,0-.81,1.41,1.41,0,0,1,.41-.7,2.14,2.14,0,0,1,1.46-.55,2.35,2.35,0,0,1,.78.14,3.16,3.16,0,0,1,.71.34,2.89,2.89,0,0,1,1,1.18,3.22,3.22,0,0,1-.16,3.05,2.91,2.91,0,0,1-2.65,1.37Z" fill="#f15a22"/><path d="M142.61,424.36a2.85,2.85,0,0,0,1.85-1l.2-.27v0h0l0,0,0-.07.07-.15a2.62,2.62,0,0,0,.2-.62,2.64,2.64,0,0,0-.27-1.82,2.12,2.12,0,0,0-.8-.82,2.34,2.34,0,0,0-.53-.23l-.28-.07h-.24a1.44,1.44,0,0,0-.9.32.63.63,0,0,0-.18.28.68.68,0,0,0,0,.36l0-.1a.52.52,0,0,0,.24.28,1.1,1.1,0,0,0,.52.12,2.25,2.25,0,0,0,.66-.08,1.9,1.9,0,0,0,.6-.29,3.44,3.44,0,0,0,1-1.13,4,4,0,0,0,.34-.73,3.78,3.78,0,0,0,.2-.8v0a2,2,0,0,0-.07-.57l.08,0a2,2,0,0,1,.19.58h0a4.17,4.17,0,0,1-.33,1.72,3.84,3.84,0,0,1-1,1.42,2.71,2.71,0,0,1-1.61.63,1.88,1.88,0,0,1-.87-.15,1.32,1.32,0,0,1-.65-.62h0a1.5,1.5,0,0,1,0-.81,1.41,1.41,0,0,1,.41-.7,2.15,2.15,0,0,1,1.46-.55,2.37,2.37,0,0,1,.78.14,3.13,3.13,0,0,1,.71.34,2.88,2.88,0,0,1,1,1.18,3.22,3.22,0,0,1-.16,3.05,2.91,2.91,0,0,1-2.65,1.37Z" fill="#ec008c"/><path d="M259.09,540.76a10.19,10.19,0,0,0,1.45-.21,4.57,4.57,0,0,0,1.31-.49,2.29,2.29,0,0,0,.9-.92,3,3,0,0,0,.13-.29v0h0v0h0v0l0-.08s0-.09,0-.14,0-.11,0-.15,0-.1,0-.16a2.74,2.74,0,0,0,0-.32v0a1.74,1.74,0,0,0-.56-.92,1.88,1.88,0,0,0-1-.46h-.26l-.31,0-.16,0-.15,0-.3.08h-.13l-.22.05-.11,0-.1.05a1.16,1.16,0,0,0-.35.32.64.64,0,0,0-.13.34.47.47,0,0,0,.09.28l-.1-.13a.46.46,0,0,0,.32.12,1.08,1.08,0,0,0,.49-.11,1.84,1.84,0,0,0,.51-.35l.11-.12.05-.06.07-.09.07-.08.05-.06.1-.14a2.32,2.32,0,0,0,.44-1.22,1.84,1.84,0,0,0,0-.3c0-.05,0-.1,0-.15l0-.08v-.06h0l0,.05h0l0-.1,0-.06-.07-.14a1.77,1.77,0,0,0-.17-.25,2.07,2.07,0,0,0-1.08-.65l-.17,0h-.48a4.4,4.4,0,0,0-.74.07,3.63,3.63,0,0,0-1.35.49,1,1,0,0,0-.34.35.37.37,0,0,0,0,.15.55.55,0,0,0,0,.2l0,0a.55.55,0,0,0,.16.21.31.31,0,0,0,.22.05,1.67,1.67,0,0,0,.8-.37,3.72,3.72,0,0,0,.76-.74,2.9,2.9,0,0,0,.5-.9v0a1.78,1.78,0,0,0-.11-1,3.66,3.66,0,0,0-.6-1l-.19-.23-.21-.22a4.25,4.25,0,0,0-.44-.4,4.19,4.19,0,0,0-1-.63l0-.08a4.31,4.31,0,0,1,1.11.54,6.17,6.17,0,0,1,.94.8,4,4,0,0,1,.73,1,2.22,2.22,0,0,1,.23,1.23h0a3.35,3.35,0,0,1-.52,1.11,4.51,4.51,0,0,1-.82.9,2.32,2.32,0,0,1-1.09.54,1,1,0,0,1-.62-.11,1.17,1.17,0,0,1-.43-.46h0a1.14,1.14,0,0,1,0-.9,1.63,1.63,0,0,1,.58-.69,4.32,4.32,0,0,1,1.62-.65,5.52,5.52,0,0,1,.87-.1H260l.21,0a2.88,2.88,0,0,1,1.5.91,2.59,2.59,0,0,1,.45.78,2.69,2.69,0,0,1,.12.9,3.16,3.16,0,0,1-.61,1.67c-.09.12-.18.24-.28.35a3.46,3.46,0,0,1-.3.33,2.64,2.64,0,0,1-.74.5,1.82,1.82,0,0,1-.88.16,1.25,1.25,0,0,1-.81-.38h0a1.24,1.24,0,0,1-.18-.77,1.42,1.42,0,0,1,.3-.73,1.85,1.85,0,0,1,1.33-.72h0a4,4,0,0,1,1.49-.11h0a2.51,2.51,0,0,1,1.24.68,2.3,2.3,0,0,1,.65,1.26h0a2.79,2.79,0,0,1,0,.76,2.16,2.16,0,0,1-.11.37,2.61,2.61,0,0,1-.18.34,2.71,2.71,0,0,1-1.12,1,4.73,4.73,0,0,1-1.43.41,9.55,9.55,0,0,1-1.48.07Z" fill="#8dc63f"/><path d="M272,454a10.24,10.24,0,0,0,1.17.88,4.57,4.57,0,0,0,1.28.58,2.28,2.28,0,0,0,1.28,0l.29-.11h0l0,0,.07,0,.12-.08.12-.09.12-.11a2.73,2.73,0,0,0,.21-.24l0,0a1.75,1.75,0,0,0,.26-1,1.9,1.9,0,0,0-.35-1l0,0-.21-.22-.24-.2-.13-.1-.13-.09-.27-.16h0l-.09-.07-.19-.12-.11,0-.11,0a1.15,1.15,0,0,0-.47,0,.63.63,0,0,0-.33.15.47.47,0,0,0-.14.26l0-.16a.47.47,0,0,0,.14.31,1.08,1.08,0,0,0,.42.27,1.83,1.83,0,0,0,.61.11h.54l.17,0a2.3,2.3,0,0,0,1.17-.55,1.83,1.83,0,0,0,.21-.22l.09-.13,0-.07,0,0v0h0l0,.05h0l0-.1,0-.06,0-.14a1.78,1.78,0,0,0,.05-.3,2.09,2.09,0,0,0-.3-1.23l-.09-.15,0,0h0l0,0h0l0,0-.06-.07-.24-.26a4.42,4.42,0,0,0-.57-.48,3.64,3.64,0,0,0-1.3-.61,1,1,0,0,0-.49,0,.37.37,0,0,0-.13.07.55.55,0,0,0-.12.17l0-.05a.55.55,0,0,0,0,.26.31.31,0,0,0,.11.19,1.67,1.67,0,0,0,.82.31,3.7,3.7,0,0,0,1.06,0,2.88,2.88,0,0,0,1-.28l0,0a1.77,1.77,0,0,0,.63-.79,3.67,3.67,0,0,0,.25-1.11c0-.1,0-.2,0-.3s0-.21,0-.3a4.28,4.28,0,0,0,0-.59,4.23,4.23,0,0,0-.28-1.17l.08,0a4.34,4.34,0,0,1,.41,1.17,6.22,6.22,0,0,1,.1,1.23,4,4,0,0,1-.19,1.23,2.21,2.21,0,0,1-.71,1h0a3.32,3.32,0,0,1-1.15.41,4.48,4.48,0,0,1-1.21.05,2.31,2.31,0,0,1-1.15-.39,1,1,0,0,1-.36-.51,1.17,1.17,0,0,1,0-.63h0a1.13,1.13,0,0,1,.61-.66,1.62,1.62,0,0,1,.89-.07,4.32,4.32,0,0,1,1.61.69,5.54,5.54,0,0,1,.69.54c.11.1.21.21.31.32l.07.09,0,0,0,0,0,0,.12.19a2.9,2.9,0,0,1,.43,1.71,2.6,2.6,0,0,1-.23.87,2.68,2.68,0,0,1-.55.72,3.13,3.13,0,0,1-1.6.75l-.44.05a3.43,3.43,0,0,1-.44,0,2.64,2.64,0,0,1-.87-.17,1.83,1.83,0,0,1-.74-.51,1.26,1.26,0,0,1-.3-.85h0a1.24,1.24,0,0,1,.41-.67,1.41,1.41,0,0,1,.73-.3,1.85,1.85,0,0,1,1.45.44h0a4,4,0,0,1,1.14,1h0a2.53,2.53,0,0,1,.4,1.36,2.3,2.3,0,0,1-.43,1.36h0a2.77,2.77,0,0,1-.57.51,2.14,2.14,0,0,1-.34.18,2.59,2.59,0,0,1-.36.11,2.69,2.69,0,0,1-1.49-.1A4.74,4.74,0,0,1,273,455a9.6,9.6,0,0,1-1.1-1Z" fill="#8dc63f"/><polygon points="141.25 281.7 138.14 280.99 135.81 283.19 135.51 279.97 132.73 278.39 135.65 277.1 136.27 273.92 138.37 276.35 141.54 275.97 139.91 278.76 141.25 281.7" fill="#e7dc33"/><polygon points="265.85 304.63 262.74 303.92 260.41 306.13 260.11 302.9 257.32 301.32 260.25 300.04 260.87 296.86 262.97 299.29 266.14 298.9 264.51 301.69 265.85 304.63" fill="#e7dc33"/><polygon points="55.22 600.49 52.11 599.78 49.77 601.98 49.47 598.75 46.69 597.18 49.62 595.89 50.23 592.71 52.34 595.14 55.5 594.76 53.88 597.54 55.22 600.49" fill="#e7dc33"/><polygon points="176.35 567.05 173.24 566.34 170.91 568.54 170.61 565.32 167.82 563.74 170.75 562.46 171.37 559.28 173.47 561.71 176.63 561.32 175.01 564.11 176.35 567.05" fill="#e7dc33"/><polygon points="109.32 650.55 106.22 649.84 103.88 652.05 103.58 648.82 100.8 647.24 103.72 645.96 104.34 642.78 106.44 645.21 109.61 644.82 107.98 647.61 109.32 650.55" fill="#e4942a"/><polygon points="88.32 300.88 85.21 300.17 82.88 302.37 82.58 299.15 79.8 297.57 82.72 296.28 83.33 293.11 85.44 295.54 88.61 295.15 86.98 297.94 88.32 300.88" fill="#f99d1c"/><polygon points="61.75 300.88 58.64 300.17 56.31 302.37 56.01 299.15 53.23 297.57 56.15 296.28 56.77 293.11 58.87 295.54 62.03 295.15 60.41 297.94 61.75 300.88" fill="#f99d1c"/><polygon points="226.12 252.37 223.01 251.66 220.68 253.86 220.38 250.64 217.59 249.06 220.52 247.78 221.13 244.6 223.24 247.03 226.41 246.64 224.78 249.43 226.12 252.37" fill="#f99d1c"/><polygon points="410.64 497.62 407.74 496.96 405.57 499.02 405.29 496.01 402.7 494.54 405.42 493.35 406 490.38 407.96 492.65 410.9 492.29 409.39 494.88 410.64 497.62" fill="#abd1e6"/><polygon points="227.96 484.44 225.06 483.78 222.88 485.83 222.6 482.83 220.01 481.36 222.74 480.16 223.31 477.2 225.27 479.46 228.22 479.1 226.71 481.7 227.96 484.44" fill="#d7d44f"/><polygon points="251.01 639.82 248.12 639.16 245.94 641.21 245.66 638.21 243.07 636.74 245.8 635.54 246.37 632.58 248.33 634.84 251.28 634.48 249.77 637.08 251.01 639.82" fill="#edb326"/><polygon points="117.85 370.07 114.95 369.41 112.78 371.46 112.5 368.45 109.91 366.99 112.63 365.79 113.21 362.83 115.17 365.09 118.11 364.73 116.6 367.33 117.85 370.07" fill="#abd1e6"/><ellipse cx="415.17" cy="559.68" rx="2.97" ry="3.02" fill="#d8236e"/><ellipse cx="220.01" cy="439.08" rx="2.97" ry="3.02" fill="#bfc734"/><ellipse cx="276.33" cy="491.68" rx="2.97" ry="3.02" fill="#e9a3b4"/><ellipse cx="161.99" cy="457.78" rx="2.97" ry="3.02" fill="#dd9bab"/><ellipse cx="98.82" cy="514.85" rx="2.97" ry="3.02" fill="#db1d70"/><ellipse cx="109.1" cy="592.71" rx="2.97" ry="3.02" fill="#eea4b8"/><ellipse cx="152.76" cy="603.38" rx="2.97" ry="3.02" fill="#b6dff2"/><ellipse cx="126.93" cy="496.14" rx="2.97" ry="3.02" fill="#cad12d"/><ellipse cx="339.39" cy="460.79" rx="5.93" ry="6.03" fill="#db1d70"/><ellipse cx="30.86" cy="487.1" rx="5.93" ry="6.03" fill="#b7ddf4"/><ellipse cx="62.04" cy="450.64" rx="5.93" ry="6.03" fill="#db1d70"/><ellipse cx="333.46" cy="551.85" rx="5.93" ry="6.03" fill="#db1d70"/><ellipse cx="92.89" cy="339.84" rx="5.93" ry="6.03" fill="#b4e0f4"/><ellipse cx="36.79" cy="320.24" rx="5.93" ry="6.03" fill="#f1aabc"/><ellipse cx="157.48" cy="362.83" rx="5.93" ry="6.03" fill="#c6cb34"/><ellipse cx="197.39" cy="271.65" rx="5.93" ry="6.03" fill="#e6e59a"/><ellipse cx="33.65" cy="403.67" rx="5.93" ry="6.03" fill="#db1d70"/><ellipse cx="315.61" cy="320.24" rx="5.93" ry="6.03" fill="#b6d9ea"/><ellipse cx="218.18" cy="351.48" rx="5.93" ry="6.03" fill="#82c042"/><ellipse cx="303.75" cy="291.35" rx="5.93" ry="6.03" fill="#b0dcf2"/><ellipse cx="396.77" cy="277.68" rx="5.93" ry="6.03" fill="#e9b4b2"/><ellipse cx="261.73" cy="394" rx="5.93" ry="6.03" fill="#b2daee"/><ellipse cx="362.83" cy="371.46" rx="5.93" ry="6.03" fill="#e69fb0"/><ellipse cx="309.68" cy="511.83" rx="5.93" ry="6.03" fill="#afd5e6"/></g><g id="card-1-1-flags-1"><circle cx="40.44" cy="148.26" r="2.57"/><line x1="37.88" y1="148.26" x2="406.13" y2="148.26" fill="none" stroke="#231f20" stroke-miterlimit="10"/><circle cx="403.56" cy="148.26" r="2.57"/><polygon points="78.93 147.69 63.93 175.69 48.93 147.69 78.93 147.69" fill="#e7869e"/><polygon points="114.21 147.69 99.21 175.69 84.21 147.69 114.21 147.69" fill="#6f4b26"/><polygon points="149.49 147.69 134.49 175.69 119.48 147.69 149.49 147.69" fill="#d43b42"/><polygon points="184.76 147.69 169.76 175.69 154.76 147.69 184.76 147.69" fill="#c4cd30"/><polygon points="220.04 147.69 205.04 175.69 190.04 147.69 220.04 147.69" fill="#ddd426"/><polygon points="255.32 147.69 240.32 175.69 225.32 147.69 255.32 147.69" fill="#6f4a29"/><polygon points="290.6 147.69 275.6 175.69 260.6 147.69 290.6 147.69" fill="#d62529"/><polygon points="325.87 147.69 310.87 175.69 295.87 147.69 325.87 147.69" fill="#c3cb30"/><polygon points="361.15 147.69 346.15 175.69 331.15 147.69 361.15 147.69" fill="#9caaae"/><polygon points="396.43 147.69 381.43 175.69 366.43 147.69 396.43 147.69" fill="#f4c5d0"/></g><g id="card-1-1-flags-0"><line x1="4" y1="223.28" x2="439.58" y2="223.28" fill="none" stroke="#231f20" stroke-miterlimit="10"/><ellipse cx="6.61" cy="223.28" rx="2.61" ry="2.5"/><ellipse cx="436.96" cy="223.28" rx="2.61" ry="2.5"/><polygon points="46.27 268.5 30.28 256.5 14.3 268.5 14.3 222.5 46.27 222.5 46.27 268.5" fill="#e22129"/><polygon points="84.64 268.5 68.66 256.5 52.67 268.5 52.67 222.5 84.64 222.5 84.64 268.5" fill="#d0d82b"/><polygon points="123.01 268.5 107.03 256.5 91.04 268.5 91.04 222.5 123.01 222.5 123.01 268.5" fill="#6f4e2c"/><polygon points="161.39 268.5 145.4 256.5 129.42 268.5 129.42 222.5 161.39 222.5 161.39 268.5" fill="#d71f29"/><polygon points="199.76 268.5 183.78 256.5 167.79 268.5 167.79 222.5 199.76 222.5 199.76 268.5" fill="#aadbec"/><polygon points="238.13 268.5 222.15 256.5 206.16 268.5 206.16 222.5 238.13 222.5 238.13 268.5" fill="#9d3988"/><polygon points="276.51 268.5 260.52 256.5 244.54 268.5 244.54 222.5 276.51 222.5 276.51 268.5" fill="#e6ca24"/><polygon points="314.88 268.5 298.89 256.5 282.91 268.5 282.91 222.5 314.88 222.5 314.88 268.5" fill="#e37f98"/><polygon points="353.25 268.5 337.27 256.5 321.28 268.5 321.28 222.5 353.25 222.5 353.25 268.5" fill="#03b4b8"/><polygon points="391.63 268.5 375.64 256.5 359.66 268.5 359.66 222.5 391.63 222.5 391.63 268.5" fill="#dd2328"/><polygon points="430 268.5 414.02 256.5 398.03 268.5 398.03 222.5 430 222.5 430 268.5" fill="#e3d823"/></g><g id="card-1-1-balloons"><g id="card-1-1-balloon-2"><path d="M309.16,433.69c-5.8-19.65-23.74-31.69-40.07-26.91S244.23,431.38,250,451c5.64,19.11,22.76,31,38.72,27.26l-1,9.48,11.79-3.46-7-7.27C307.29,471,314.66,452.3,309.16,433.69Z" fill="#fbb040"/><path d="M302.59,430a1.68,1.68,0,0,1-2-.86c-6.54-12.93-22.85-17.81-23-17.85a1.7,1.7,0,0,1-1.16-2.08,1.65,1.65,0,0,1,2.05-1.15c.73.21,17.88,5.31,25.09,19.58a1.68,1.68,0,0,1-.72,2.26Z" fill="#fcc066"/><path d="M291.22,561c-2.62-6.32.42-21.53,3.1-34.94,1.85-9.27,3.6-18,3-21.62a112.57,112.57,0,0,0-5-17.92l1.21-.47a114.07,114.07,0,0,1,5.09,18.17c.67,3.84-1,12.3-3,22.1-2.65,13.23-5.64,28.22-3.18,34.18Z" fill="#cec1ba"/></g><g id="card-1-1-balloon-1"><path d="M272.48,419.09c-3.72-21.33-21.31-36.27-39.31-33.36s-29.57,22.55-25.85,43.89c3.61,20.74,20.36,35.44,37.83,33.56L242.94,473l13-2.1-6.51-8.52C265.8,458,276,439.29,272.48,419.09Z" fill="#dfd84f"/><path d="M265.93,414.41a1.81,1.81,0,0,1-2-1.16c-5.34-14.39-22.11-21.61-22.28-21.68a1.79,1.79,0,0,1-1-2.33,1.77,1.77,0,0,1,2.33-.94c.75.31,18.38,7.87,24.27,23.75a1.76,1.76,0,0,1-1.06,2.27A1.82,1.82,0,0,1,265.93,414.41Z" fill="#e5e072"/><path d="M231.07,592.38l-1.37.26a116.6,116.6,0,0,1,4.56-62.79c1.64-4.54,3.59-9,5.47-13.37,2.2-5.08,4.48-10.33,6.26-15.65,3.88-11.62,4.56-21.86,2-30.44l1.34-.38c2.64,8.86,2,19.38-2,31.27-1.8,5.38-4.09,10.66-6.3,15.76-1.88,4.32-3.81,8.8-5.44,13.29A115.23,115.23,0,0,0,231.07,592.38Z" fill="#cec1ba"/></g><g id="card-1-1-balloon-0"><path d="M224,642.88l-1.19-.88c15.06-21,12.87-49.79,9.63-75.1s-6.92-54.14,6.26-76.95l1.27.76c-12.92,22.36-9.28,50.86-6.07,76C237.16,592.3,239.36,621.4,224,642.88Z" fill="#cec1ba"/><path d="M272.14,442.73c.06-23.24-15.53-42.16-34.84-42.26s-35,18.65-35.07,41.89c-.06,22.6,14.69,41.11,33.26,42.21l-4.11,10,13.93.08-5.22-10.17C258,482.72,272.08,464.74,272.14,442.73Z" fill="#f4667c"/><path d="M266.17,436.63a1.9,1.9,0,0,1-1.85-1.57c-2.91-16.18-19.07-26.78-19.23-26.88a1.93,1.93,0,0,1-.58-2.64,1.87,1.87,0,0,1,2.61-.58c.72.46,17.71,11.58,20.93,29.43a1.89,1.89,0,0,1-1.87,2.25Z" fill="#f68092"/></g></g></svg>