<svg id="card-3-1" xmlns="http://www.w3.org/2000/svg" viewBox="0 0 444 666"><title>card-3-1</title><g id="card-3-1-stuff"><path id="card-3-1-dish" d="M330.91,455.9c-18.91-10.08-163.85,1.89-181.49,5-16.39,3.78-6.3,22.68,2.52,20.79,3.94-.85,38-2.69,75-4.49,6.77,4.77,7.23,10.7,7.63,14a35.89,35.89,0,0,1-.5,13.8c-1,5.28-3,10.79-7.37,14.89-5.54,5.26-14.12,7.15-22.17,8-3.65.39-7.36.5-11,.92s-12.55,1.54-12.43,5.91c.1,3.65,6.54,5.08,9.89,5.92,14.79,3.73,92.66,9.73,94.88-1,1.25-6.08-7.06-8.18-12.08-9.06s-11.48-1.81-15.87-4.22a14.1,14.1,0,0,1-7.26-8,65,65,0,0,1-4.22-16.07,55.5,55.5,0,0,1-.2-16.08A22.59,22.59,0,0,1,248,480c.31-.67,1.69-3.57,2.86-3.88,37.87-1.76,72.66-3.21,75-3.21C335.94,472.92,336.57,458.43,330.91,455.9Z" fill="#231f20"/><g id="card-3-1-star-8"><polygon points="278.24 401.6 275.49 399.64 339.59 305.2 342.33 307.17 278.24 401.6" fill="#231f20"/><polygon points="358 310.36 346.05 309.11 341.17 320.09 338.67 308.34 326.73 307.09 337.13 301.08 334.63 289.34 343.55 297.37 353.95 291.36 349.07 302.33 358 310.36" fill="#fddc8b"/></g><g id="card-3-1-star-7"><polygon points="301.57 368.65 298.32 367.75 326.05 257.03 329.3 257.94 301.57 368.65" fill="#231f20"/><polygon points="331.99 280.5 323.62 265.77 307.02 269.19 318.44 256.67 310.06 241.94 325.5 248.94 336.91 236.42 335.04 253.26 350.47 260.25 333.87 263.66 331.99 280.5" fill="#fddc8b"/></g><g id="card-3-1-star-6"><polygon points="262.45 384.62 259.9 383.88 287.51 282.08 290.06 282.83 262.45 384.62" fill="#231f20"/><polygon points="294.23 289.32 288.94 283.56 281.82 286.81 285.67 280 280.37 274.24 288.04 275.79 291.88 268.97 292.78 276.75 300.45 278.3 293.33 281.55 294.23 289.32" fill="#fddc8b"/></g><g id="card-3-1-star-5"><polygon points="298.67 352.16 296.2 353.11 256.08 255.56 258.56 254.61 298.67 352.16" fill="#231f20"/><polygon points="271.2 266.79 258.37 259.31 247.28 269.2 250.44 254.68 237.61 247.19 252.39 245.71 255.55 231.19 261.53 244.79 276.31 243.3 265.22 253.19 271.2 266.79" fill="#fddc8b"/></g><g id="card-3-1-star-4"><polygon points="247.08 406.87 243.72 407.26 227.81 294.24 231.16 293.85 247.08 406.87" fill="#231f20"/><polygon points="224.83 306.86 224.57 294.47 212.7 290.89 224.41 286.81 224.14 274.42 231.64 284.29 243.34 280.21 236.27 290.39 243.77 300.26 231.9 296.68 224.83 306.86" fill="#fddc8b"/></g><g id="card-3-1-star-3"><polygon points="207.12 352.49 203.74 352.4 203.95 238.27 207.33 238.36 207.12 352.49" fill="#231f20"/><polygon points="215.96 248.04 205.6 243 197.6 251.28 199.2 239.88 188.85 234.83 200.19 232.83 201.79 221.42 207.2 231.59 218.54 229.58 210.55 237.87 215.96 248.04" fill="#fddc8b"/></g><g id="card-3-1-star-2"><polygon points="167.52 378.9 164.15 378.87 156.41 255.02 159.79 255.05 167.52 378.9" fill="#231f20"/><polygon points="173.82 267.08 160.03 261.62 150.58 273.05 151.51 258.25 137.72 252.8 152.08 249.1 153 234.3 160.96 246.82 175.32 243.13 165.87 254.56 173.82 267.08" fill="#fddc8b"/></g><g id="card-3-1-star-1"><polygon points="193.76 394.23 191 396.17 122.96 304.54 125.72 302.59 193.76 394.23" fill="#231f20"/><polygon points="140.65 309.42 127.08 306.88 120.48 319 118.7 305.31 105.14 302.77 117.6 296.86 115.83 283.18 125.31 293.2 137.77 287.28 131.16 299.4 140.65 309.42" fill="#fddc8b"/></g><g id="card-3-1-star-0"><polygon points="221.66 415.86 218.47 416.97 178.18 310.19 181.37 309.08 221.66 415.86" fill="#231f20"/><polygon points="190.05 315.22 181.96 312.83 177.18 319.79 176.96 311.36 168.86 308.97 176.81 306.14 176.59 297.71 181.73 304.4 189.68 301.57 184.91 308.53 190.05 315.22" fill="#fddc8b"/></g><g id="card-3-1-cake"><path d="M149,463.14c-1-3-25.59-105.44-25.59-105.44s145.84-40.22,231.81-7.59L322,456.45S199.53,469.07,149,463.14Z" fill="#97d2b2"/><path d="M343,389.1c-30.79-3.23-62.13-1.14-92.92.69-38.82,2.3-77.38,7.51-115.87,13l4.2,17.38c37.1-5.26,74.25-10.22,111.67-12.44,28.86-1.71,58.5-4,87.5-1.26Z" fill="#fff"/><path d="M126.77,371.84l1.61,6.71c72.2-17.43,147.08-21.65,220.15-7.14l2.06-6.61C276.35,350,200.15,354.14,126.77,371.84Z" fill="#fff"/><path d="M118.81,416.33c7.93,10.17,27.64-1.66,34-8.65,4.39-4.81,7.53-16.12,5.45-22.64-1.6-5-5.77.69-7.27,3a24.86,24.86,0,0,0-3.93,14.43c.17,4.62,1.74,9.58,5.85,12.16,5.78,3.64,12.89.71,18-2.78,9-6.19,22-19.36,17.4-31.55l0,0c-15.92,3.58-11.38,29.2,3.78,30.25,13.09.91,21.92-11.13,27.85-21.06,1.35-2.27,8-13.55,2.79-15.57-7.08-2.74-8.3,14.57-8.07,18.44.62,10.45,11.26,12.15,19.81,9.77,9.94-2.77,19.67-10.38,26.16-18.22,2.66-3.21,5-7,5.13-11.27,0-2.25-.25-5.71-3.25-5.15-3.9.73-8.36,7.4-10,10.74a17.3,17.3,0,0,0-1.88,9.52c1.45,11.75,19.44,12.39,28,10.11,12.05-3.21,20.75-12.69,27.28-22.82,1.86-2.88,7.9-13.4,1.35-15.54-6.83-2.24-14.53,11.87-17,16.27-3.15,5.51-5.94,11-5,17.42,2.55,18.43,27.05,15.23,39.27,9.91,7.57-3.29,15.2-8.63,18.73-16.36,1.46-3.19,4.55-14.91-2.19-14.11-4.29.51-8.56,4.9-11.36,7.85-3.7,3.9-7.2,8.45-8.46,13.78-1.82,7.72,1.78,14.28,9.29,17.11A31.44,31.44,0,0,0,353.6,411c.27-.12-.06-1.47,0-1.5C344.13,413.39,321,413,321,398.32c0-6.63,4.82-12.66,9.23-17.16,2.66-2.72,6.45-6.46,10.38-7.13,6.3-1.09,4.06,7.93,2.33,11.48A28.46,28.46,0,0,1,335,395a50,50,0,0,1-22.55,10c-7,1.22-15.35,1.24-21.36-3.09a14,14,0,0,1-5.71-9.12c-.73-5.23,1.7-9.78,4.12-14.24a64.13,64.13,0,0,1,8.66-12.64c1.89-2.08,4.92-5.35,8.06-5.11,9.83.74-4.49,18.71-7,21.78-8.83,10.79-22.71,17.27-36.63,14-7.24-1.68-13-5.63-11.3-14,1-4.69,5.59-10.67,9.73-13,2.55-1.46,3.84-.83,4.2,2.37.39,3.41-1.57,6.48-3.55,9.12-3.54,4.71-8.22,8.62-12.94,12.11-7.21,5.33-17.35,11-26.62,8-8.52-2.7-8.44-12.29-6-19.6.64-1.94,1.57-4.32,3.3-5.54,2.28-1.62,4-1.13,4.21,1.72.27,4.43-2.72,8.63-5,12.28-3.7,5.87-7.68,11.67-13.64,15.47-8.42,5.36-20,5.39-24.81-4.58-2.48-5.17-2.3-12,1.82-16.31,1.06-1.1,2.93-2.64,4.52-2.85,4.87-.63,1.48,9,0,11.84-4.55,8.55-13.87,18.54-23.67,20.93-15.41,3.75-18.55-14.82-11.75-25.31,1.22-1.88,4.9-7.51,7-3.75,1.46,2.66.08,8.11-.65,11.09a31.54,31.54,0,0,1-2.33,6.7c-4,7.94-15.51,13.55-23.77,15.39-4.48,1-9.32,1-12.44-2.83,0,0-.1.39,0,.5Z" fill="#231f20"/><circle cx="155.14" cy="431.33" r="3.02" fill="#fff"/><circle cx="179.67" cy="423.05" r="3.02" fill="#fff"/><path d="M176.43,440.11a3,3,0,1,1-3-3A3,3,0,0,1,176.43,440.11Z" fill="#fff"/><circle cx="198.71" cy="449.21" r="3.02" fill="#fff"/><circle cx="203.26" cy="430.73" r="3.02" fill="#fff"/><circle cx="220.32" cy="416.23" r="3.02" fill="#fff"/><circle cx="236.52" cy="428.17" r="3.02" fill="#fff"/><circle cx="225.43" cy="443.81" r="3.02" fill="#fff"/><circle cx="251.87" cy="446.65" r="3.02" fill="#fff"/><circle cx="262.11" cy="434.42" r="3.02" fill="#fff"/><circle cx="255" cy="415.95" r="3.02" fill="#fff"/><circle cx="279.45" cy="421.06" r="3.02" fill="#fff"/><circle cx="305.32" cy="417.37" r="3.02" fill="#fff"/><path d="M302.37,432.44a3,3,0,1,1-3-3A3,3,0,0,1,302.37,432.44Z" fill="#fff"/><path d="M287,444.66a3,3,0,1,1-3-3A3,3,0,0,1,287,444.66Z" fill="#fff"/><path d="M316.58,445.79a3,3,0,1,1-3-3A3,3,0,0,1,316.58,445.79Z" fill="#fff"/><circle cx="322.09" cy="428.17" r="3.02" fill="#fff"/><circle cx="162.32" cy="452.05" r="3.02" fill="#fff"/></g></g></svg>