<svg id="card-0-1" xmlns="http://www.w3.org/2000/svg" viewBox="0 0 444 666"><title>card-0-1</title><g id="card-0-1-particles"><path d="M314.63,260.59a9.78,9.78,0,0,0,1.74,3.52,6.51,6.51,0,0,0,2.82,2.17,4.08,4.08,0,0,0,1.61.25,4.19,4.19,0,0,0,1.54-.4,4.87,4.87,0,0,0,.71-.41l.35-.26.14-.12.14-.13a4,4,0,0,0,.85-1.35,6.49,6.49,0,0,0,.24-3.41l0-.21,0-.11,0,.06h0v0l0-.06c0-.1,0-.13-.06-.2l-.07-.2a6.65,6.65,0,0,0-.8-1.48l-.28-.37-.23-.27a5,5,0,0,0-2.64-1.41,3.2,3.2,0,0,0-1.36,0,2.32,2.32,0,0,0-1.06.62l.09-.1a2.11,2.11,0,0,0-.28.46l-.05.13v0h0s0-.07,0,0h0l0,.12,0,.06v.07l0,.14a3.57,3.57,0,0,0,0,1.29,4.37,4.37,0,0,0,.49,1.31,3.37,3.37,0,0,0,.81,1l-.1-.07a4.17,4.17,0,0,0,2.3.72,4.54,4.54,0,0,0,2.32-.71,6.13,6.13,0,0,0,1.05-.82l.13-.13.12-.12.23-.26.22-.27.25-.33a9.58,9.58,0,0,0,1.39-2.57,9.31,9.31,0,0,0,.56-2.89,5.3,5.3,0,0,0-.57-2.61l-.16-.27-.09-.13-.13-.18a3.79,3.79,0,0,0-.39-.47,3.09,3.09,0,0,0-1-.67,1.27,1.27,0,0,0-.8-.12c-.17,0-.34.17-.51.5l.05-.14a1.91,1.91,0,0,0-.07,1.11,2.84,2.84,0,0,0,.58,1.15,3.16,3.16,0,0,0,1,.83,2.11,2.11,0,0,0,1.2.22h.06a4.6,4.6,0,0,0,2.68-1.19,6.13,6.13,0,0,0,1.85-2.7,4.9,4.9,0,0,0,.2-.83c0-.14,0-.32.06-.46s0-.29,0-.44a6.54,6.54,0,0,0-.78-3.47,6,6,0,0,0-1.09-1.42l.09-.14a6.16,6.16,0,0,1,2,3.1,7.42,7.42,0,0,1,.27,1.92,9,9,0,0,1,0,1,6.14,6.14,0,0,1-.17,1,7.06,7.06,0,0,1-1.91,3.2,5.44,5.44,0,0,1-3.12,1.57h0a3,3,0,0,1-1.71-.2,4,4,0,0,1-1.45-1,4.05,4.05,0,0,1-.91-1.66,3.41,3.41,0,0,1,0-2h0a2.21,2.21,0,0,1,1.2-1.22,2.29,2.29,0,0,1,1.61.08,4.33,4.33,0,0,1,1.38.91,4.92,4.92,0,0,1,.57.65,5.75,5.75,0,0,1,.48.71,6.91,6.91,0,0,1,.86,3.44,10.68,10.68,0,0,1-.62,3.51,11.4,11.4,0,0,1-1.62,3.07,8.87,8.87,0,0,1-2.41,2.33,5.76,5.76,0,0,1-3.07.93,5.58,5.58,0,0,1-3.05-1h0a5.17,5.17,0,0,1-1.21-1.47,6.19,6.19,0,0,1-.67-1.86,5.24,5.24,0,0,1,0-2,3.89,3.89,0,0,1,.84-1.78h0a3.66,3.66,0,0,1,1.7-.93,4.39,4.39,0,0,1,1.88,0,6.1,6.1,0,0,1,3.3,1.91,7.84,7.84,0,0,1,1.77,3.68,7.59,7.59,0,0,1-.46,4.14,5,5,0,0,1-1.16,1.66,5.89,5.89,0,0,1-1.64,1A4.6,4.6,0,0,1,319,267a7.27,7.27,0,0,1-2.92-2.55,9.82,9.82,0,0,1-1.56-3.78Z" fill="#b9e5fb"/><path d="M428.29,152.19a7.65,7.65,0,0,0,3.4,1.21,5.83,5.83,0,0,0,3.37-.61,4.6,4.6,0,0,0,1.32-1.07,5.31,5.31,0,0,0,.87-1.48,6.21,6.21,0,0,0,.26-.85c0-.16.06-.28.09-.46s0-.13,0-.2l0-.2a4.43,4.43,0,0,0-.21-1.64,5.71,5.71,0,0,0-1.9-2.66l-.16-.12-.08-.06,0,0h0l0,0,0,0-.16-.09-.17-.09a5.19,5.19,0,0,0-.73-.29,5.29,5.29,0,0,0-.75-.17l-.43-.05h-.33a4.81,4.81,0,0,0-2.78,1,3.89,3.89,0,0,0-1,1.09,3,3,0,0,0-.4,1.28v-.15a2.36,2.36,0,0,0,.08.55l0,.14v0h0s0-.07,0,0h0l0,.11,0,.05v0l0,0,.06.12a3,3,0,0,0,.81.92,3.4,3.4,0,0,0,1.15.57,2.74,2.74,0,0,0,1.19.08l-.11,0A4.4,4.4,0,0,0,434,148a5.79,5.79,0,0,0,1.26-2.32,7.78,7.78,0,0,0,.27-1.42l0-.19v-.18c0-.12,0-.24,0-.37s0-.24,0-.37v-.44a10.33,10.33,0,0,0-.56-2.95,8.65,8.65,0,0,0-1.35-2.53,4.22,4.22,0,0,0-2-1.45l-.28-.07-.14,0-.2,0a3,3,0,0,0-.56,0,2.81,2.81,0,0,0-1.1.25,1.44,1.44,0,0,0-.65.53,1,1,0,0,0-.07.76l0-.15a1.68,1.68,0,0,0,.62.86,2.23,2.23,0,0,0,1.12.38,2.8,2.8,0,0,0,1.25-.2,2.38,2.38,0,0,0,1-.77l.05-.07v0a5.87,5.87,0,0,0,1.23-3,6.93,6.93,0,0,0-.3-3.4,4.62,4.62,0,0,0-.36-.76l-.24-.38c-.08-.11-.15-.23-.24-.34a5.53,5.53,0,0,0-1.2-1.19,5.19,5.19,0,0,0-1.48-.73,4.86,4.86,0,0,0-1.65-.19l0-.17a4.91,4.91,0,0,1,3.35.69,6,6,0,0,1,1.37,1.19,7.69,7.69,0,0,1,.56.74,5.62,5.62,0,0,1,.46.83,7.75,7.75,0,0,1,.56,3.81,7,7,0,0,1-1.31,3.57h0a3.45,3.45,0,0,1-1.37,1.19,3.6,3.6,0,0,1-1.69.37,3.18,3.18,0,0,1-1.67-.49,2.93,2.93,0,0,1-1.16-1.45h0a2.65,2.65,0,0,1,.13-1.82,2.68,2.68,0,0,1,1.22-1.19,4,4,0,0,1,1.56-.41,4,4,0,0,1,.81,0,4.62,4.62,0,0,1,.79.14,5.49,5.49,0,0,1,2.71,1.83,9.86,9.86,0,0,1,1.69,3,12.23,12.23,0,0,1,.69,3.49,10.72,10.72,0,0,1-.34,3.56,7.29,7.29,0,0,1-1.66,3.06,5.88,5.88,0,0,1-2.82,1.65h0a4.19,4.19,0,0,1-1.77-.13,4.83,4.83,0,0,1-1.61-.83,4.44,4.44,0,0,1-1.23-1.45,4.08,4.08,0,0,1-.47-1.94h0a4.67,4.67,0,0,1,.67-2,5.32,5.32,0,0,1,1.36-1.47,5.81,5.81,0,0,1,3.56-1.17,6.13,6.13,0,0,1,3.52,1.29,6.79,6.79,0,0,1,2.18,3.37,5.63,5.63,0,0,1,.16,2.11,7.47,7.47,0,0,1-.57,2,5.45,5.45,0,0,1-2.72,2.79,6.32,6.32,0,0,1-3.67.41,7.66,7.66,0,0,1-3.43-1.54Z" fill="#f7aebe"/><path d="M1.15,210.2a7.65,7.65,0,0,0,3.4,1.21,5.84,5.84,0,0,0,3.37-.61,4.6,4.6,0,0,0,1.32-1.07,5.29,5.29,0,0,0,.88-1.48,6.24,6.24,0,0,0,.26-.85c0-.16.06-.28.09-.46a1.93,1.93,0,0,0,0-.2l0-.2a4.44,4.44,0,0,0-.21-1.64,5.71,5.71,0,0,0-1.9-2.66l-.16-.12-.08-.06,0,0h0l0,0,0,0L8,201.94l-.17-.09a5.24,5.24,0,0,0-1.49-.46l-.43-.05H5.55a4.81,4.81,0,0,0-2.77,1,3.87,3.87,0,0,0-1,1.09,2.93,2.93,0,0,0-.4,1.28v-.15a2.27,2.27,0,0,0,.08.55l0,.14v0h0s0-.07,0,0h0l0,.11,0,.05v0l0,0,.06.12a3,3,0,0,0,.81.92,3.4,3.4,0,0,0,1.15.57,2.74,2.74,0,0,0,1.19.08l-.11,0A4.4,4.4,0,0,0,6.86,206a5.77,5.77,0,0,0,1.26-2.32,7.78,7.78,0,0,0,.27-1.42l0-.19v-.18c0-.12,0-.24,0-.37s0-.24,0-.37v-.44a10.33,10.33,0,0,0-.56-2.95,8.64,8.64,0,0,0-1.35-2.53,4.22,4.22,0,0,0-2-1.45l-.29-.07-.14,0-.2,0a3,3,0,0,0-.57,0,2.81,2.81,0,0,0-1.1.25,1.45,1.45,0,0,0-.66.53,1,1,0,0,0-.07.76l0-.15a1.67,1.67,0,0,0,.62.86,2.23,2.23,0,0,0,1.12.38,2.8,2.8,0,0,0,1.25-.2,2.37,2.37,0,0,0,1-.77l.06-.07v0a5.87,5.87,0,0,0,1.23-3,6.92,6.92,0,0,0-.3-3.4,4.54,4.54,0,0,0-.36-.76l-.24-.38c-.08-.11-.15-.23-.24-.34a5.53,5.53,0,0,0-1.2-1.19,5.18,5.18,0,0,0-1.48-.73,4.86,4.86,0,0,0-1.65-.19l0-.17a4.91,4.91,0,0,1,3.35.69A6,6,0,0,1,6,187a7.58,7.58,0,0,1,.56.74,5.71,5.71,0,0,1,.46.83,7.74,7.74,0,0,1,.55,3.81,6.94,6.94,0,0,1-1.31,3.57h0a3.43,3.43,0,0,1-1.37,1.19,3.59,3.59,0,0,1-1.69.37A3.18,3.18,0,0,1,1.49,197a2.93,2.93,0,0,1-1.16-1.45h0a2.65,2.65,0,0,1,.13-1.82,2.69,2.69,0,0,1,1.22-1.19,4,4,0,0,1,1.56-.41,4.05,4.05,0,0,1,.81,0,4.64,4.64,0,0,1,.79.14,5.49,5.49,0,0,1,2.71,1.83,9.86,9.86,0,0,1,1.68,3,12.23,12.23,0,0,1,.69,3.49,10.74,10.74,0,0,1-.34,3.56,7.29,7.29,0,0,1-1.66,3.06A5.89,5.89,0,0,1,5.1,208.9h0a4.19,4.19,0,0,1-1.77-.13,4.83,4.83,0,0,1-1.61-.83,4.45,4.45,0,0,1-1.23-1.45A4.07,4.07,0,0,1,0,204.55H0a4.67,4.67,0,0,1,.67-2A5.31,5.31,0,0,1,2,201.07a5.81,5.81,0,0,1,3.56-1.17,6.12,6.12,0,0,1,3.52,1.29,6.79,6.79,0,0,1,2.18,3.37,5.63,5.63,0,0,1,.16,2.11,7.48,7.48,0,0,1-.57,2,5.44,5.44,0,0,1-2.72,2.79,6.32,6.32,0,0,1-3.67.41,7.68,7.68,0,0,1-3.43-1.54Z" fill="#f9ed32"/><path d="M183.85,362.9a10.45,10.45,0,0,0,.71,4,7.25,7.25,0,0,0,2.1,3,4.38,4.38,0,0,0,1.46.8,4.14,4.14,0,0,0,1.57.15,4.37,4.37,0,0,0,.79-.15l.4-.13.17-.07.17-.08a3.55,3.55,0,0,0,1.17-1,6.21,6.21,0,0,0,1.15-3.16c0-.07,0-.15,0-.22v-.11c0,.14,0,0,0,.06h0v-.1c0-.1,0-.14,0-.21l0-.21a7.16,7.16,0,0,0-.36-1.69l-.16-.45c0-.09-.1-.23-.15-.33a5.53,5.53,0,0,0-2.13-2.26,3.34,3.34,0,0,0-1.3-.43,2.18,2.18,0,0,0-1.18.22l.12-.06a1.87,1.87,0,0,0-.39.35l-.08.11,0,0v0h0l0,0h0l-.07.1,0,0v0l0,0-.07.12a3.49,3.49,0,0,0-.32,1.24,4.58,4.58,0,0,0,.11,1.41,3.69,3.69,0,0,0,.51,1.21l-.08-.1a4.56,4.56,0,0,0,2,1.48,4.44,4.44,0,0,0,2.4.13,5.68,5.68,0,0,0,1.23-.42l.16-.08.14-.07.29-.16.28-.18.33-.22A8.88,8.88,0,0,0,198,361a5.37,5.37,0,0,0,.16-2.68c0-.1-.05-.21-.08-.31l0-.16-.08-.21a4.31,4.31,0,0,0-.24-.58,3.47,3.47,0,0,0-.72-1,1.34,1.34,0,0,0-.73-.39.76.76,0,0,0-.62.3l.09-.12a1.84,1.84,0,0,0-.37,1,3.06,3.06,0,0,0,.24,1.3,3.55,3.55,0,0,0,.76,1.14,2.27,2.27,0,0,0,1.08.63l.08,0h0a4.37,4.37,0,0,0,2.88-.21,5.5,5.5,0,0,0,2.49-1.93,4.48,4.48,0,0,0,.41-.72c.06-.12.13-.29.18-.42s.1-.26.15-.4a6.57,6.57,0,0,0,.34-1.76,6.9,6.9,0,0,0-.14-1.82,6.64,6.64,0,0,0-.65-1.73l.13-.1a6.71,6.71,0,0,1,1.08,3.65,7.41,7.41,0,0,1-.26,1.93,8.4,8.4,0,0,1-.3.91,5.58,5.58,0,0,1-.42.86,6.35,6.35,0,0,1-2.69,2.39,5.13,5.13,0,0,1-3.4.42h0a3.16,3.16,0,0,1-1.58-.78,4.6,4.6,0,0,1-1.52-3.39,3.31,3.31,0,0,1,.57-1.85h0a2,2,0,0,1,1.47-.75,2.41,2.41,0,0,1,1.51.64,4.86,4.86,0,0,1,1.07,1.34,5.47,5.47,0,0,1,.36.81,6.49,6.49,0,0,1,.27.85,7.08,7.08,0,0,1-.11,3.57,10.05,10.05,0,0,1-1.54,3.13A10.22,10.22,0,0,1,195.5,367a7.94,7.94,0,0,1-2.92,1.38,5.59,5.59,0,0,1-3.17-.17,6.09,6.09,0,0,1-2.64-2h0a5.6,5.6,0,0,1-.75-1.82,6.43,6.43,0,0,1-.13-2,5.07,5.07,0,0,1,.53-1.91,3.5,3.5,0,0,1,1.28-1.4h0a3.42,3.42,0,0,1,1.87-.3,4.59,4.59,0,0,1,1.79.64,6.79,6.79,0,0,1,2.62,3,8.34,8.34,0,0,1,.7,4.11,7.19,7.19,0,0,1-1.56,3.78,4.43,4.43,0,0,1-1.56,1.18,5.45,5.45,0,0,1-1.83.4,4.79,4.79,0,0,1-3.47-1.35,8.09,8.09,0,0,1-2.09-3.44,10.34,10.34,0,0,1-.46-4.14Z" fill="#f7aebe"/><path d="M157.32,339.54a30.53,30.53,0,0,0,2.8-2.43,9.66,9.66,0,0,0,2.13-3,6.79,6.79,0,0,0,.49-1.76,7.8,7.8,0,0,0,.06-1.83,7.62,7.62,0,0,0-.14-.89c0-.14-.07-.3-.11-.42l-.07-.22-.07-.21a8.29,8.29,0,0,0-.77-1.57l-.26-.39c-.09-.14-.15-.22-.24-.34a5.85,5.85,0,0,0-.55-.63,6.37,6.37,0,0,0-1.29-1,10.92,10.92,0,0,0-3.11-1.17l-.21,0-.11,0h0l-.4,0a6.13,6.13,0,0,0-.77,0,4.59,4.59,0,0,0-1.44.3,3.38,3.38,0,0,0-1.93,2l.06-.17a2.41,2.41,0,0,0,0,1.3.57.57,0,0,0,.18.27h0l-.07,0h0l.11.06.15.08a2.32,2.32,0,0,0,.32.14,2.63,2.63,0,0,0,1.38.1A6.5,6.5,0,0,0,155,327l-.16.09a10.05,10.05,0,0,0,2-1.81c.15-.17.28-.35.41-.53l0-.07,0,0h0l0,.08h0v0l.09-.15a2.54,2.54,0,0,0,.13-.25,4.78,4.78,0,0,0,.38-1.17,6.58,6.58,0,0,0-1.12-5,4.44,4.44,0,0,0-.82-.85,3.34,3.34,0,0,0-.46-.3,3.86,3.86,0,0,0-.51-.24l-.07,0,.07,0H155l-.16,0-.31-.08c-.21-.05-.42-.09-.63-.12l-.15,0-.18,0-.3,0c-.21,0-.4,0-.62,0a4.74,4.74,0,0,0-.56.06l-.3.07h-.08l-.08,0a1,1,0,0,0-.63,1,1,1,0,0,0,.23.55L151,318a1.22,1.22,0,0,0,.53.25.88.88,0,0,0,.49-.08,5.12,5.12,0,0,0,1.48-1.19l.83-.89c.25-.28.54-.61.77-.89a5.13,5.13,0,0,0,.56-.82,3.77,3.77,0,0,0,.19-.42l.1-.27.06-.2a3.45,3.45,0,0,0,.08-.43c0-.18,0-.33,0-.51s0-.36,0-.51v-.17c0-.06,0-.07,0-.11s0-.14,0-.22a3.4,3.4,0,0,0-.79-1.64,4.6,4.6,0,0,0-1.57-1.15,5.89,5.89,0,0,0-1-.35,6.73,6.73,0,0,0-1-.19h.1c-.46,0-.89,0-1.31,0a7.15,7.15,0,0,0-1.19.15,2.43,2.43,0,0,0-.9.38.85.85,0,0,0-.36.55v-.17a1.78,1.78,0,0,0,.06.59.84.84,0,0,0,.23.38,1.51,1.51,0,0,0,1.13.27l.18,0h0l.11,0,.35-.11a2.68,2.68,0,0,0,.63-.35,5.15,5.15,0,0,0,1.08-1.24l0,.06a5.23,5.23,0,0,0,.72-2.73,3.3,3.3,0,0,0-.34-1.32,3.51,3.51,0,0,0-.85-1.08l0,0h0a5.42,5.42,0,0,0-1.25-.92,8,8,0,0,0-1.43-.61,11.93,11.93,0,0,0-3.1-.53v-.18a12.38,12.38,0,0,1,3.18.32,6.83,6.83,0,0,1,2.92,1.47h0a4,4,0,0,1,1.05,1.2,4,4,0,0,1,.49,1.59,6.12,6.12,0,0,1-.67,3.24h0a5.87,5.87,0,0,1-1.22,1.52,3.48,3.48,0,0,1-1.7.75,2.34,2.34,0,0,1-1.8-.4,1.89,1.89,0,0,1-.6-.83,3,3,0,0,1-.17-1h0a2.1,2.1,0,0,1,.74-1.35,3.34,3.34,0,0,1,1.28-.62,11.81,11.81,0,0,1,2.72-.28h0a7.47,7.47,0,0,1,2.33.56,5.79,5.79,0,0,1,2,1.41,4.93,4.93,0,0,1,1.19,2.35,6.91,6.91,0,0,1,.12,1.35,5.44,5.44,0,0,1-.15,1.35c0,.11-.06.22-.09.33l-.11.31a5.23,5.23,0,0,1-.27.61,6.53,6.53,0,0,1-.71,1.09c-.53.67-1.1,1.28-1.66,1.9a6.18,6.18,0,0,1-2,1.56,2.23,2.23,0,0,1-1.23.17,2.6,2.6,0,0,1-1.14-.51h0a2.73,2.73,0,0,1-.67-1.58,2.94,2.94,0,0,1,.37-1.7,2.62,2.62,0,0,1,1.21-1.1l.37-.13.37-.09a5.9,5.9,0,0,1,.76-.1,8.33,8.33,0,0,1,3,.41,5.44,5.44,0,0,1,2.47,1.94,8.43,8.43,0,0,1,1.4,6.43,6.53,6.53,0,0,1-.54,1.6,5,5,0,0,1-.42.72c-.16.22-.33.43-.51.63a11.42,11.42,0,0,1-2.38,2h0a7.64,7.64,0,0,1-1.92.61,3.84,3.84,0,0,1-2-.2,3.5,3.5,0,0,1-.92-.51,2.07,2.07,0,0,1-.62-.95,4,4,0,0,1,0-2.28h0a5,5,0,0,1,1.12-1.62,4.58,4.58,0,0,1,1.59-1,5.67,5.67,0,0,1,1.78-.31,7,7,0,0,1,.9,0l.44.06.44.11a11.65,11.65,0,0,1,3.35,1.42,7.48,7.48,0,0,1,1.44,1.22,8.75,8.75,0,0,1,1.13,1.58,8.16,8.16,0,0,1,1.15,3.81,8.46,8.46,0,0,1-.15,2,7.34,7.34,0,0,1-.62,1.9,10,10,0,0,1-2.37,3,28.9,28.9,0,0,1-3,2.25Z" fill="#b9e5fb"/><path d="M6.32,150.54a26.47,26.47,0,0,0,3.53-.17,7.91,7.91,0,0,0,3.26-1,5.63,5.63,0,0,0,1.3-1.12,6.94,6.94,0,0,0,1-1.46,7.64,7.64,0,0,0,.34-.81c0-.14.1-.29.13-.41l.06-.22,0-.22a9,9,0,0,0,.17-1.79v-.49c0-.17,0-.28,0-.44a7.33,7.33,0,0,0-.13-.87,7.83,7.83,0,0,0-.54-1.66,13.33,13.33,0,0,0-1.95-3l-.15-.17-.07-.09,0,0h0l0,0h0l0,0-.3-.3a7.1,7.1,0,0,0-.62-.51A4.84,4.84,0,0,0,11,135a2.89,2.89,0,0,0-2.57.34l.14-.1a2.15,2.15,0,0,0-.68,1,.63.63,0,0,0,0,.34v0h0l0-.08h0v0l.05.12.08.16a3,3,0,0,0,1.27,1.3,6.57,6.57,0,0,0,1.58.58l-.18,0a8.65,8.65,0,0,0,2.59-.15c.21,0,.41-.1.6-.16l.07,0h0l-.08,0h0l.15-.07.24-.12a3.94,3.94,0,0,0,.91-.71,6.44,6.44,0,0,0,1.61-4.78,5.3,5.3,0,0,0-.24-1.23,4.08,4.08,0,0,0-.22-.54,4.73,4.73,0,0,0-.3-.53l0-.06,0,.06h0v0l0,0-.11-.14L15.7,130c-.15-.18-.3-.35-.45-.51l-.11-.11-.14-.14-.23-.21c-.17-.14-.32-.27-.51-.41a5.3,5.3,0,0,0-.49-.31l-.28-.14,0,0h0l-.08,0a.91.91,0,0,0-.62,0,.88.88,0,0,0-.42.4,1,1,0,0,0-.1.6l-.07-.29a1.49,1.49,0,0,0,.3.55,1,1,0,0,0,.44.26,4.48,4.48,0,0,0,1.82,0l1.13-.19c.35-.06.75-.14,1.08-.22a4.19,4.19,0,0,0,.88-.3,3,3,0,0,0,.37-.22l.22-.16.15-.12a2.69,2.69,0,0,0,.29-.29c.11-.13.2-.25.29-.4s.18-.3.25-.42l.07-.14,0-.1.08-.2a3.64,3.64,0,0,0,.19-1.85,5.59,5.59,0,0,0-.7-2,7.3,7.3,0,0,0-.61-.92,8.08,8.08,0,0,0-.73-.81l.08.07c-.38-.3-.73-.58-1.08-.83a7.84,7.84,0,0,0-1-.65,2.36,2.36,0,0,0-.93-.28.7.7,0,0,0-.57.21l.1-.13a1.67,1.67,0,0,0-.25.52.93.93,0,0,0,0,.46,1.81,1.81,0,0,0,.78,1l.16.1,0,0h0l0,0h0l.1,0,.34.13a2.46,2.46,0,0,0,.69.13,4.24,4.24,0,0,0,1.52-.31l-.06,0a4.35,4.35,0,0,0,2-1.76,3.26,3.26,0,0,0,.4-1.3,4,4,0,0,0-.15-1.43v0h0a6.59,6.59,0,0,0-.55-1.56,9.72,9.72,0,0,0-.86-1.43,14.3,14.3,0,0,0-2.26-2.46l.09-.15A14.57,14.57,0,0,1,18.64,114a8.41,8.41,0,0,1,1.64,3.1h0a4.76,4.76,0,0,1,.25,1.66,4,4,0,0,1-.41,1.62,5.16,5.16,0,0,1-2.2,2.21h0a4.84,4.84,0,0,1-1.78.45,3.38,3.38,0,0,1-1.78-.49,2.8,2.8,0,0,1-1.26-1.5A2.16,2.16,0,0,1,13,120a2.88,2.88,0,0,1,.38-1h0a1.71,1.71,0,0,1,1.29-.62,3.19,3.19,0,0,1,1.36.33,13,13,0,0,1,2.37,1.54h0a9.11,9.11,0,0,1,1.62,2,7.1,7.1,0,0,1,.94,2.48,5.33,5.33,0,0,1-.22,2.69,6.42,6.42,0,0,1-.59,1.19,4.7,4.7,0,0,1-.82,1l-.24.21-.25.19a4.35,4.35,0,0,1-.53.33,5.37,5.37,0,0,1-1.14.43c-.78.2-1.55.33-2.33.47a5.45,5.45,0,0,1-2.39,0,2.42,2.42,0,0,1-1.09-.66,3.2,3.2,0,0,1-.67-1.16v0a2.88,2.88,0,0,1,.26-1.72,2.47,2.47,0,0,1,1.17-1.15,2.25,2.25,0,0,1,1.55-.11l.37.13.35.17a6.21,6.21,0,0,1,.67.41,9.92,9.92,0,0,1,2.23,2.28,6.62,6.62,0,0,1,1,3.19,8.24,8.24,0,0,1-2.13,6.17,5.38,5.38,0,0,1-1.25,1,4,4,0,0,1-.71.31c-.24.07-.49.13-.73.19a9.92,9.92,0,0,1-3,.12h0a7.83,7.83,0,0,1-1.88-.74,4.51,4.51,0,0,1-1.53-1.47,4.45,4.45,0,0,1-.49-1,2.32,2.32,0,0,1,0-1.17,3.53,3.53,0,0,1,1.2-1.83h0a4.12,4.12,0,0,1,1.74-.59,4.2,4.2,0,0,1,1.8.24,6.1,6.1,0,0,1,1.62.91,8.26,8.26,0,0,1,.71.62l.33.34c.11.13.21.25.31.38a14.26,14.26,0,0,1,2,3.34,9,9,0,0,1,.55,1.93,10,10,0,0,1,.11,2,8.23,8.23,0,0,1-1,3.86,7.42,7.42,0,0,1-1.15,1.55,6,6,0,0,1-1.48,1.15,8.22,8.22,0,0,1-3.47.92,25.53,25.53,0,0,1-3.56-.08Z" fill="#a4ce0b"/><path d="M125.69,192.18a30.73,30.73,0,0,0,2.8-2.43,9.66,9.66,0,0,0,2.13-3,6.81,6.81,0,0,0,.49-1.76,7.81,7.81,0,0,0,.06-1.83,7.67,7.67,0,0,0-.14-.89c0-.14-.07-.3-.11-.42l-.07-.22-.07-.21a8.34,8.34,0,0,0-.77-1.57l-.26-.39-.24-.34a6.06,6.06,0,0,0-.55-.63,6.38,6.38,0,0,0-1.29-1,10.88,10.88,0,0,0-3.11-1.17l-.21,0-.11,0h0l-.4,0a6.15,6.15,0,0,0-.77,0,4.56,4.56,0,0,0-1.44.3,3.38,3.38,0,0,0-1.93,2l.06-.17a2.41,2.41,0,0,0,0,1.3.56.56,0,0,0,.18.27h0l-.07,0h0l.11.07.15.08a2.46,2.46,0,0,0,.32.14,2.64,2.64,0,0,0,1.38.1,6.54,6.54,0,0,0,1.58-.55l-.16.09a10,10,0,0,0,2-1.81c.15-.17.28-.35.41-.53l0-.07,0,0h0l0,.08h0v0l.09-.15a2.52,2.52,0,0,0,.13-.25,4.82,4.82,0,0,0,.38-1.17,6.58,6.58,0,0,0-1.12-5,4.45,4.45,0,0,0-.82-.85,3.33,3.33,0,0,0-.46-.3,3.86,3.86,0,0,0-.51-.24l-.07,0,.07,0h-.08l-.16,0-.31-.08c-.21-.05-.42-.09-.63-.12l-.15,0-.18,0-.3,0c-.21,0-.4,0-.62,0a4.76,4.76,0,0,0-.56.07l-.3.07h-.08l-.08,0a1,1,0,0,0-.63,1,1,1,0,0,0,.23.55l-.21-.19a1.22,1.22,0,0,0,.53.25.89.89,0,0,0,.49-.08,5.09,5.09,0,0,0,1.48-1.19l.83-.89c.25-.28.54-.61.77-.89a5.22,5.22,0,0,0,.56-.82,3.86,3.86,0,0,0,.19-.42l.1-.27.06-.2a3.38,3.38,0,0,0,.08-.43c0-.18,0-.33,0-.51s0-.36,0-.51v-.17c0-.06,0-.07,0-.11s0-.14,0-.22a3.4,3.4,0,0,0-.79-1.64,4.59,4.59,0,0,0-1.57-1.15,6,6,0,0,0-1-.35,6.74,6.74,0,0,0-1-.19h.1c-.46,0-.89,0-1.31,0a7.15,7.15,0,0,0-1.19.15,2.41,2.41,0,0,0-.9.38.85.85,0,0,0-.36.55v-.17a1.79,1.79,0,0,0,.06.59.84.84,0,0,0,.23.37,1.51,1.51,0,0,0,1.13.27l.18,0h0l.11,0,.35-.11a2.64,2.64,0,0,0,.63-.35,5.11,5.11,0,0,0,1.08-1.24l0,.06a5.23,5.23,0,0,0,.72-2.73,3.3,3.3,0,0,0-.34-1.32,3.51,3.51,0,0,0-.85-1.07l0,0h0a5.42,5.42,0,0,0-1.25-.92,7.93,7.93,0,0,0-1.43-.61,12,12,0,0,0-3.1-.53V154a12.39,12.39,0,0,1,3.18.32,6.84,6.84,0,0,1,2.92,1.47h0a4,4,0,0,1,1.05,1.2,4,4,0,0,1,.49,1.59,6.12,6.12,0,0,1-.67,3.24h0a5.85,5.85,0,0,1-1.22,1.52,3.48,3.48,0,0,1-1.7.75,2.34,2.34,0,0,1-1.8-.4,1.89,1.89,0,0,1-.6-.82,3,3,0,0,1-.17-1h0a2.09,2.09,0,0,1,.74-1.35,3.32,3.32,0,0,1,1.28-.62,11.82,11.82,0,0,1,2.72-.28h0a7.5,7.5,0,0,1,2.33.56,5.79,5.79,0,0,1,2,1.41,4.92,4.92,0,0,1,1.19,2.35,6.9,6.9,0,0,1,.12,1.35,5.45,5.45,0,0,1-.15,1.35c0,.11-.06.22-.09.33l-.11.32a5.36,5.36,0,0,1-.27.61,6.56,6.56,0,0,1-.71,1.09c-.53.67-1.1,1.28-1.66,1.9a6.2,6.2,0,0,1-2,1.56,2.24,2.24,0,0,1-1.23.17,2.6,2.6,0,0,1-1.14-.51h0a2.74,2.74,0,0,1-.67-1.58,2.93,2.93,0,0,1,.37-1.7,2.61,2.61,0,0,1,1.21-1.1l.37-.13.37-.09a5.72,5.72,0,0,1,.76-.1,8.38,8.38,0,0,1,3,.41,5.46,5.46,0,0,1,2.47,1.94,8.43,8.43,0,0,1,1.4,6.43,6.51,6.51,0,0,1-.54,1.6,5,5,0,0,1-.42.72c-.16.22-.33.43-.51.63a11.45,11.45,0,0,1-2.38,2h0a7.69,7.69,0,0,1-1.92.62,3.85,3.85,0,0,1-2-.2,3.56,3.56,0,0,1-.92-.51,2.07,2.07,0,0,1-.62-.95,4,4,0,0,1,0-2.28h0a5,5,0,0,1,1.12-1.62,4.56,4.56,0,0,1,1.59-1,5.67,5.67,0,0,1,1.78-.31,7.2,7.2,0,0,1,.9,0l.45.06.44.11a11.59,11.59,0,0,1,3.35,1.42,7.4,7.4,0,0,1,1.44,1.22,8.74,8.74,0,0,1,1.13,1.58,8.17,8.17,0,0,1,1.15,3.81,8.46,8.46,0,0,1-.15,2,7.33,7.33,0,0,1-.62,1.9,9.94,9.94,0,0,1-2.37,3,28.92,28.92,0,0,1-3,2.25Z" fill="#fdb913"/><path d="M282.84,394.67a4.87,4.87,0,0,0,2.46-1.08,5.37,5.37,0,0,0,.92-1c.13-.18.26-.37.37-.56l0,0h0l0,0v0l0-.09.08-.15.14-.3a5.75,5.75,0,0,0,.37-1.27,6,6,0,0,0,.1-1.29,6,6,0,0,0-.59-2.4,4.13,4.13,0,0,0-1.46-1.67,4.08,4.08,0,0,0-1-.48,4.56,4.56,0,0,0-.51-.14h-.08l-.15,0h-.21a2.48,2.48,0,0,0-1.64.65,1.31,1.31,0,0,0-.34.56,1.53,1.53,0,0,0,0,.73l-.07-.2a1,1,0,0,0,.44.57,1.85,1.85,0,0,0,1,.24,3.74,3.74,0,0,0,1.2-.17,3.34,3.34,0,0,0,1.1-.58,6.78,6.78,0,0,0,1.83-2.29,8.52,8.52,0,0,0,.62-1.48,8.37,8.37,0,0,0,.37-1.63v0a4.59,4.59,0,0,0-.13-1.17l.14-.08a4.38,4.38,0,0,1,.34,1.18h0a9.3,9.3,0,0,1-.61,3.49,7.82,7.82,0,0,1-1.85,2.89,4.68,4.68,0,0,1-2.94,1.28,3.13,3.13,0,0,1-1.59-.3,2.56,2.56,0,0,1-1.18-1.27h0A3.36,3.36,0,0,1,280,385a2.94,2.94,0,0,1,.75-1.42,3.7,3.7,0,0,1,2.67-1.13,3.9,3.9,0,0,1,1.42.28,5.53,5.53,0,0,1,1.3.69,5.73,5.73,0,0,1,1.89,2.4,7.18,7.18,0,0,1-.29,6.2,5.19,5.19,0,0,1-4.85,2.78Z" fill="#f15a22"/><path d="M400.28,237.38a4.87,4.87,0,0,0,2.46-1.08,5.36,5.36,0,0,0,.92-1c.13-.18.26-.37.37-.56l0,0h0l0,0v0l0-.09.08-.15.14-.3a5.75,5.75,0,0,0,.37-1.27,6,6,0,0,0,.1-1.29,6,6,0,0,0-.59-2.4,4.13,4.13,0,0,0-1.46-1.67,4.08,4.08,0,0,0-1-.48,4.56,4.56,0,0,0-.51-.14h-.08l-.15,0h-.21a2.47,2.47,0,0,0-1.64.65,1.31,1.31,0,0,0-.34.56,1.53,1.53,0,0,0,0,.73l-.07-.2a1,1,0,0,0,.44.57,1.85,1.85,0,0,0,1,.24,3.75,3.75,0,0,0,1.2-.17,3.34,3.34,0,0,0,1.1-.58,6.78,6.78,0,0,0,1.83-2.29,8.53,8.53,0,0,0,.62-1.48,8.37,8.37,0,0,0,.37-1.63v0a4.59,4.59,0,0,0-.13-1.17l.14-.08a4.38,4.38,0,0,1,.34,1.18h0a9.3,9.3,0,0,1-.61,3.49,7.82,7.82,0,0,1-1.85,2.89,4.68,4.68,0,0,1-2.94,1.28,3.13,3.13,0,0,1-1.59-.3,2.56,2.56,0,0,1-1.18-1.27h0a3.36,3.36,0,0,1-.09-1.65,3,3,0,0,1,.75-1.42,3.7,3.7,0,0,1,2.67-1.13,3.9,3.9,0,0,1,1.42.28,5.54,5.54,0,0,1,1.3.69,5.73,5.73,0,0,1,1.89,2.4,7.18,7.18,0,0,1-.29,6.2,5.19,5.19,0,0,1-4.85,2.78Z" fill="#f15a22"/><path d="M279.8,260.24a4.87,4.87,0,0,0,2.46-1.08,5.36,5.36,0,0,0,.92-1c.13-.18.26-.37.37-.56l0,0h0l0,0v0l0-.09.08-.15.14-.3a5.74,5.74,0,0,0,.37-1.27,6,6,0,0,0,.1-1.29,6,6,0,0,0-.59-2.4,4.13,4.13,0,0,0-1.46-1.67,4.08,4.08,0,0,0-1-.48,4.58,4.58,0,0,0-.51-.14h-.08l-.15,0h-.21a2.47,2.47,0,0,0-1.64.65,1.31,1.31,0,0,0-.34.56,1.53,1.53,0,0,0,0,.73l-.07-.2a1,1,0,0,0,.44.57,1.85,1.85,0,0,0,1,.24,3.75,3.75,0,0,0,1.2-.17,3.35,3.35,0,0,0,1.1-.58,6.78,6.78,0,0,0,1.83-2.29,8.52,8.52,0,0,0,.62-1.48,8.38,8.38,0,0,0,.37-1.63v0a4.59,4.59,0,0,0-.13-1.17l.14-.07a4.37,4.37,0,0,1,.34,1.18h0a9.3,9.3,0,0,1-.61,3.49,7.82,7.82,0,0,1-1.85,2.89,4.68,4.68,0,0,1-2.94,1.28,3.13,3.13,0,0,1-1.59-.3,2.55,2.55,0,0,1-1.18-1.27h0a3.36,3.36,0,0,1-.09-1.65,3,3,0,0,1,.75-1.42,3.7,3.7,0,0,1,2.67-1.13,3.9,3.9,0,0,1,1.42.28,5.53,5.53,0,0,1,1.3.69,5.73,5.73,0,0,1,1.89,2.4,7.18,7.18,0,0,1-.29,6.2,5.19,5.19,0,0,1-4.85,2.78Z" fill="#f15a22"/><path d="M209.34,280.39a4.86,4.86,0,0,0,2.46-1.08,5.4,5.4,0,0,0,.92-1c.13-.18.25-.37.37-.56l0,0h0l0,0v0l0-.09.08-.15.13-.3a5.78,5.78,0,0,0,.37-1.27,6,6,0,0,0,.1-1.29,6,6,0,0,0-.59-2.4,4.14,4.14,0,0,0-1.46-1.67,4.07,4.07,0,0,0-1-.47,5,5,0,0,0-.51-.14h-.08l-.15,0h-.21a2.47,2.47,0,0,0-1.64.65,1.31,1.31,0,0,0-.34.56,1.53,1.53,0,0,0,0,.73l-.07-.19a1,1,0,0,0,.45.57,1.84,1.84,0,0,0,1,.24,3.69,3.69,0,0,0,1.2-.17,3.3,3.3,0,0,0,1.1-.58,6.79,6.79,0,0,0,1.83-2.29A8.53,8.53,0,0,0,214,268a8.41,8.41,0,0,0,.37-1.63v0a4.59,4.59,0,0,0-.13-1.17l.14-.07a4.42,4.42,0,0,1,.34,1.18h0a9.29,9.29,0,0,1-.61,3.49,7.84,7.84,0,0,1-1.85,2.89,4.68,4.68,0,0,1-2.94,1.28,3.12,3.12,0,0,1-1.59-.3,2.55,2.55,0,0,1-1.18-1.27h0a3.37,3.37,0,0,1-.09-1.65,2.94,2.94,0,0,1,.75-1.42,3.71,3.71,0,0,1,2.67-1.13,4,4,0,0,1,1.42.28,5.45,5.45,0,0,1,1.3.69,5.71,5.71,0,0,1,1.89,2.4,7.19,7.19,0,0,1-.29,6.2,5.18,5.18,0,0,1-4.85,2.78Z" fill="#f9ed32"/><path d="M91,198.62a4.86,4.86,0,0,0,2.46-1.08,5.39,5.39,0,0,0,.92-1c.13-.18.25-.37.37-.56l0,0h0l0,0v0l0-.09.08-.15.13-.3a5.76,5.76,0,0,0,.37-1.27,6,6,0,0,0,.1-1.29,6,6,0,0,0-.59-2.4,4.13,4.13,0,0,0-1.46-1.67,4.07,4.07,0,0,0-1-.48,4.74,4.74,0,0,0-.51-.14h-.08l-.15,0h-.21a2.47,2.47,0,0,0-1.64.65,1.31,1.31,0,0,0-.34.56,1.53,1.53,0,0,0,0,.73l-.07-.2a1,1,0,0,0,.45.57,1.84,1.84,0,0,0,1,.24,3.72,3.72,0,0,0,1.2-.17,3.32,3.32,0,0,0,1.1-.58A6.79,6.79,0,0,0,95,187.69a8.53,8.53,0,0,0,.62-1.48,8.39,8.39,0,0,0,.37-1.63v0a4.59,4.59,0,0,0-.13-1.17l.14-.07a4.39,4.39,0,0,1,.34,1.18h0a9.3,9.3,0,0,1-.61,3.49,7.84,7.84,0,0,1-1.85,2.89A4.68,4.68,0,0,1,91,192.22a3.13,3.13,0,0,1-1.59-.3,2.55,2.55,0,0,1-1.18-1.27h0a3.37,3.37,0,0,1-.09-1.65,2.94,2.94,0,0,1,.75-1.42,3.7,3.7,0,0,1,2.67-1.13,3.94,3.94,0,0,1,1.42.28,5.48,5.48,0,0,1,1.3.69,5.72,5.72,0,0,1,1.89,2.4,7.19,7.19,0,0,1-.29,6.2A5.18,5.18,0,0,1,91,198.79Z" fill="#ec008c"/><path d="M215.56,39.7A4.86,4.86,0,0,0,218,38.62a5.37,5.37,0,0,0,.92-1c.13-.18.26-.37.37-.56l0,0h0l0,0v0l0-.09.08-.15.14-.3a5.76,5.76,0,0,0,.37-1.27,6,6,0,0,0,.1-1.29,6,6,0,0,0-.59-2.4A4.14,4.14,0,0,0,218,29.91a4.08,4.08,0,0,0-1-.48,4.81,4.81,0,0,0-.51-.14h-.08l-.15,0h-.21a2.47,2.47,0,0,0-1.64.65,1.31,1.31,0,0,0-.34.56,1.53,1.53,0,0,0,0,.73l-.07-.2a1,1,0,0,0,.44.57,1.85,1.85,0,0,0,1,.24,3.72,3.72,0,0,0,1.2-.17,3.32,3.32,0,0,0,1.1-.58,6.78,6.78,0,0,0,1.83-2.29,8.52,8.52,0,0,0,.62-1.48,8.39,8.39,0,0,0,.37-1.63v0a4.58,4.58,0,0,0-.13-1.17l.14-.08a4.39,4.39,0,0,1,.34,1.18h0a9.3,9.3,0,0,1-.61,3.49A7.83,7.83,0,0,1,218.47,32a4.68,4.68,0,0,1-2.94,1.28,3.12,3.12,0,0,1-1.59-.3,2.55,2.55,0,0,1-1.18-1.27h0a3.36,3.36,0,0,1-.09-1.65,2.94,2.94,0,0,1,.75-1.42,3.7,3.7,0,0,1,2.67-1.13,4,4,0,0,1,1.42.28,5.5,5.5,0,0,1,1.3.69,5.72,5.72,0,0,1,1.89,2.4,7.18,7.18,0,0,1-.29,6.2,5.18,5.18,0,0,1-4.85,2.78Z" fill="#f7aebe"/><path d="M425.84,18.73a4.86,4.86,0,0,0,2.46-1.08,5.36,5.36,0,0,0,.92-1c.13-.18.26-.37.37-.56l0,0h0l0,0v0l0-.09.08-.15.14-.3a5.76,5.76,0,0,0,.37-1.27,6,6,0,0,0,.1-1.29,6,6,0,0,0-.59-2.4,4.13,4.13,0,0,0-1.46-1.67,4.08,4.08,0,0,0-1-.48,4.8,4.8,0,0,0-.51-.14h-.08l-.15,0h-.21a2.47,2.47,0,0,0-1.64.65,1.31,1.31,0,0,0-.34.56,1.53,1.53,0,0,0,0,.73l-.07-.2a1,1,0,0,0,.44.57,1.85,1.85,0,0,0,1,.24,3.72,3.72,0,0,0,1.2-.17,3.32,3.32,0,0,0,1.1-.58,6.78,6.78,0,0,0,1.83-2.29,8.53,8.53,0,0,0,.62-1.48,8.39,8.39,0,0,0,.37-1.63v0a4.59,4.59,0,0,0-.13-1.17l.14-.07a4.4,4.4,0,0,1,.34,1.18h0a9.3,9.3,0,0,1-.61,3.49,7.83,7.83,0,0,1-1.85,2.89,4.68,4.68,0,0,1-2.94,1.28,3.13,3.13,0,0,1-1.59-.3A2.55,2.55,0,0,1,423,10.78h0a3.36,3.36,0,0,1-.09-1.65,2.94,2.94,0,0,1,.75-1.42,3.7,3.7,0,0,1,2.67-1.13,4,4,0,0,1,1.42.28,5.5,5.5,0,0,1,1.3.69A5.72,5.72,0,0,1,431,9.93a7.18,7.18,0,0,1-.29,6.2,5.18,5.18,0,0,1-4.85,2.78Z" fill="#8dc63f"/><path d="M241.81,145a19.7,19.7,0,0,0,2,2,8.16,8.16,0,0,0,2.25,1.37,3.7,3.7,0,0,0,2.32.17,4.76,4.76,0,0,0,.54-.19l0,0h0l-.06,0h0l.08,0,.14-.08.22-.15.22-.17.22-.21a5.32,5.32,0,0,0,.4-.45l-.05.07a3.86,3.86,0,0,0,.57-2.1,4.3,4.3,0,0,0-.53-2.1l0,.07a5.23,5.23,0,0,0-.36-.48,5.52,5.52,0,0,0-.41-.45l-.22-.22-.23-.2a5.33,5.33,0,0,0-.47-.36l0,0-.15-.15a2.12,2.12,0,0,0-.33-.27l-.2-.12-.19-.08a1.9,1.9,0,0,0-.86-.12,1.07,1.07,0,0,0-.61.25,1,1,0,0,0-.27.52l.06-.32a1,1,0,0,0,.21.66,2.05,2.05,0,0,0,.73.62,3.06,3.06,0,0,0,1.09.31l.29,0H249l.31,0a3.87,3.87,0,0,0,2.17-1,3.47,3.47,0,0,0,.4-.42l.18-.24.08-.13,0-.07,0,0v0h0l-.05.1h0l.09-.19.05-.12c0-.09.07-.19.1-.29a4.05,4.05,0,0,0,.13-.6,4.78,4.78,0,0,0-.42-2.55l-.15-.32,0-.08v0h0l.05.09h0l0,0-.09-.14c-.12-.19-.26-.38-.41-.57a8.72,8.72,0,0,0-1-1.07,6.53,6.53,0,0,0-2.28-1.44,1.59,1.59,0,0,0-.89-.06.64.64,0,0,0-.24.13,1.09,1.09,0,0,0-.23.33l0-.1a1.25,1.25,0,0,0-.1.52.68.68,0,0,0,.19.41,2.93,2.93,0,0,0,1.46.75,6.05,6.05,0,0,0,1.92.19,4.68,4.68,0,0,0,1.82-.44l-.07,0a3.43,3.43,0,0,0,1.22-1.51,8.19,8.19,0,0,0,.57-2.22c0-.2.05-.4.07-.6s0-.43.05-.62a9.93,9.93,0,0,0,0-1.21,9.68,9.68,0,0,0-.39-2.42l.14-.07a9.88,9.88,0,0,1,.61,2.44,14.38,14.38,0,0,1,.05,2.53,9,9,0,0,1-.47,2.48,4.39,4.39,0,0,1-1.39,2h0a5.46,5.46,0,0,1-2.12.67,7.21,7.21,0,0,1-2.2-.07,4,4,0,0,1-2-1,2.11,2.11,0,0,1-.59-1.1,2.69,2.69,0,0,1,.1-1.28h0a2.14,2.14,0,0,1,1.18-1.26,2.62,2.62,0,0,1,1.62,0,7.65,7.65,0,0,1,2.84,1.64,10.88,10.88,0,0,1,1.19,1.21c.18.22.36.45.52.69l.12.19,0,0,0,.06.05.1.19.4a6.65,6.65,0,0,1,.59,3.55,5.72,5.72,0,0,1-.51,1.74,5,5,0,0,1-4.06,2.68,7.21,7.21,0,0,1-.8,0,5.44,5.44,0,0,1-.8,0,4.41,4.41,0,0,1-1.56-.48,3.48,3.48,0,0,1-1.28-1.14,2.83,2.83,0,0,1-.46-1.78v0a2.51,2.51,0,0,1,.82-1.31,2.35,2.35,0,0,1,1.35-.5,3.19,3.19,0,0,1,2.58,1.11l0,0a8,8,0,0,1,2,2.17h0a5.76,5.76,0,0,1,.58,2.84,5,5,0,0,1-.92,2.71h0a5.05,5.05,0,0,1-1.09.95,3.64,3.64,0,0,1-.63.33,4.14,4.14,0,0,1-.67.17,4.41,4.41,0,0,1-2.69-.42,8.72,8.72,0,0,1-2.27-1.67,19,19,0,0,1-1.88-2.2Z" fill="#ed1c24"/><path d="M7.76,22.23a16.75,16.75,0,0,0,2.65-.43,7.82,7.82,0,0,0,2.4-1,4.47,4.47,0,0,0,1.65-1.86,6.31,6.31,0,0,0,.23-.59v0h0l0,.06v0l0-.09c0-.06,0-.13,0-.17s0-.18,0-.29,0-.22,0-.3,0-.21,0-.33a6,6,0,0,0,0-.64v.09a3.63,3.63,0,0,0-1-1.87A3.31,3.31,0,0,0,12,13.8h.08a4.23,4.23,0,0,0-.56,0,4.52,4.52,0,0,0-.57,0l-.29,0-.28.06a4.82,4.82,0,0,0-.55.16h0l-.2,0a1.9,1.9,0,0,0-.4.1L9,14.36l-.18.11a2.25,2.25,0,0,0-.64.65A1.39,1.39,0,0,0,8,15.8a1,1,0,0,0,.16.58l-.18-.26a.8.8,0,0,0,.58.25,1.81,1.81,0,0,0,.89-.22,3.39,3.39,0,0,0,.93-.72l.2-.24.1-.12.13-.17.13-.17.1-.13.18-.28a5.06,5.06,0,0,0,.8-2.47,4.15,4.15,0,0,0,0-.62c0-.1,0-.21,0-.31l0-.16,0-.08v-.06h0l0,.11h0l-.07-.2,0-.12c0-.09-.08-.18-.13-.28a3.65,3.65,0,0,0-.31-.5,3.73,3.73,0,0,0-2-1.33L9,8.21,9,8.19H9l-.16,0c-.21,0-.43,0-.65,0a7.27,7.27,0,0,0-1.36.14,6.23,6.23,0,0,0-2.46,1,1.94,1.94,0,0,0-.63.71.82.82,0,0,0-.07.3,1.24,1.24,0,0,0,.07.41l0-.1A1.13,1.13,0,0,0,4,11a.53.53,0,0,0,.39.11,2.91,2.91,0,0,0,1.46-.75,7.25,7.25,0,0,0,1.39-1.5A6.12,6.12,0,0,0,8.11,7v.09a4,4,0,0,0-.2-2,7.62,7.62,0,0,0-1.1-2l-.36-.46-.38-.45a8.23,8.23,0,0,0-.8-.81A7.58,7.58,0,0,0,3.39.17l0-.17a7.56,7.56,0,0,1,2,1.09A11.69,11.69,0,0,1,7.18,2.71a8.07,8.07,0,0,1,1.34,2,4.93,4.93,0,0,1,.41,2.5h0A7.19,7.19,0,0,1,8,9.51a8.88,8.88,0,0,1-1.5,1.83,4.07,4.07,0,0,1-2,1.1,1.64,1.64,0,0,1-1.12-.22,2.3,2.3,0,0,1-.79-.94h0a2.54,2.54,0,0,1-.06-1.84A3.25,3.25,0,0,1,3.57,8a7.44,7.44,0,0,1,3-1.33A9.2,9.2,0,0,1,8.12,6.5c.27,0,.53,0,.8,0l.2,0h.11l.1,0,.39.1a5.21,5.21,0,0,1,2.75,1.84,5.43,5.43,0,0,1,.82,1.58,6,6,0,0,1,.22,1.83,6.87,6.87,0,0,1-1.11,3.39c-.16.24-.33.49-.5.71a6.69,6.69,0,0,1-.55.66,4.82,4.82,0,0,1-1.35,1A3,3,0,0,1,8.4,18a2.19,2.19,0,0,1-1.48-.78h0a2.75,2.75,0,0,1-.33-1.57,3.07,3.07,0,0,1,.55-1.48,3.31,3.31,0,0,1,2.44-1.46h0a6.6,6.6,0,0,1,2.73-.23h0a4.47,4.47,0,0,1,2.27,1.37,4.86,4.86,0,0,1,1.2,2.57h0A6.23,6.23,0,0,1,15.65,18a4.67,4.67,0,0,1-.2.75,5.31,5.31,0,0,1-.32.68,5.15,5.15,0,0,1-2.05,2,8,8,0,0,1-2.61.83,15.51,15.51,0,0,1-2.7.14Z" fill="#b9e5fb"/><path d="M307.58,353.71a16.88,16.88,0,0,0,2.65-.43,7.85,7.85,0,0,0,2.4-1,4.47,4.47,0,0,0,1.65-1.86c.09-.19.16-.39.23-.59v0h0l0,.06v0l0-.1c0-.06,0-.13,0-.17s0-.18,0-.29,0-.22,0-.3,0-.21,0-.33a6.18,6.18,0,0,0,0-.64v.09a3.63,3.63,0,0,0-1-1.87,3.3,3.3,0,0,0-1.75-.94h.08a4.62,4.62,0,0,0-.56,0,4.7,4.7,0,0,0-.56.05l-.29,0-.28.06a5,5,0,0,0-.55.16h0l-.2,0a2,2,0,0,0-.4.1l-.21.09-.18.11a2.22,2.22,0,0,0-.64.65,1.39,1.39,0,0,0-.24.69,1,1,0,0,0,.16.57l-.18-.26a.81.81,0,0,0,.58.25,1.81,1.81,0,0,0,.89-.21,3.38,3.38,0,0,0,.93-.72l.2-.24.1-.13.13-.17.13-.17.1-.13.18-.28a5.05,5.05,0,0,0,.8-2.47,4.16,4.16,0,0,0,0-.62c0-.1,0-.2,0-.31l0-.16,0-.08v-.06h0l0,.11h0l-.07-.2,0-.12-.13-.28a3.64,3.64,0,0,0-.31-.5,3.74,3.74,0,0,0-2-1.33l-.31-.09-.08,0h0l-.16,0c-.21,0-.43,0-.65,0a7.25,7.25,0,0,0-1.36.14,6.23,6.23,0,0,0-2.46,1,1.94,1.94,0,0,0-.63.71.82.82,0,0,0-.07.3,1.23,1.23,0,0,0,.07.41l0-.1a1.12,1.12,0,0,0,.28.43.53.53,0,0,0,.39.11,2.92,2.92,0,0,0,1.46-.75,7.2,7.2,0,0,0,1.39-1.5,6.11,6.11,0,0,0,.91-1.84v.09a4,4,0,0,0-.2-2,7.6,7.6,0,0,0-1.1-2l-.36-.46-.38-.45a8.13,8.13,0,0,0-.8-.81,7.57,7.57,0,0,0-1.87-1.27l0-.17a7.56,7.56,0,0,1,2,1.09,11.69,11.69,0,0,1,1.72,1.62,8.11,8.11,0,0,1,1.34,2,4.94,4.94,0,0,1,.41,2.5h0a7.17,7.17,0,0,1-1,2.25,8.88,8.88,0,0,1-1.5,1.83,4.08,4.08,0,0,1-2,1.1,1.64,1.64,0,0,1-1.12-.22,2.29,2.29,0,0,1-.79-.94h0a2.54,2.54,0,0,1-.06-1.84,3.25,3.25,0,0,1,1.06-1.39,7.46,7.46,0,0,1,3-1.33,9.11,9.11,0,0,1,1.59-.21,7.59,7.59,0,0,1,.8,0l.2,0h.11l.1,0,.39.1A5.19,5.19,0,0,1,312.3,340a5.43,5.43,0,0,1,.82,1.58,6,6,0,0,1,.22,1.83,6.87,6.87,0,0,1-1.11,3.39c-.16.24-.33.49-.5.71a6.8,6.8,0,0,1-.55.66,4.83,4.83,0,0,1-1.35,1,3,3,0,0,1-1.6.33,2.19,2.19,0,0,1-1.48-.78h0a2.75,2.75,0,0,1-.33-1.57,3.06,3.06,0,0,1,.55-1.48,3.31,3.31,0,0,1,2.44-1.46h0a6.61,6.61,0,0,1,2.73-.23h0a4.47,4.47,0,0,1,2.27,1.37,4.86,4.86,0,0,1,1.2,2.57h0a6.28,6.28,0,0,1-.09,1.55,4.77,4.77,0,0,1-.2.75,5.52,5.52,0,0,1-.33.68,5.15,5.15,0,0,1-2.05,2,8,8,0,0,1-2.61.83,15.7,15.7,0,0,1-2.7.14Z" fill="#8dc63f"/><polygon points="166.23 364.3 160.94 362.96 156.97 367.12 156.46 361.02 151.72 358.04 156.7 355.61 157.75 349.6 161.33 354.19 166.71 353.46 163.95 358.74 166.23 364.3" fill="#f9ed32"/><polygon points="77.25 146.44 71.96 145.1 67.99 149.27 67.48 143.17 62.74 140.19 67.72 137.75 68.77 131.74 72.35 136.34 77.73 135.61 74.97 140.88 77.25 146.44" fill="#b9e5fb"/><polygon points="439.22 302.67 433.93 301.32 429.96 305.49 429.45 299.39 424.72 296.41 429.69 293.98 430.74 287.97 434.32 292.56 439.71 291.83 436.95 297.1 439.22 302.67" fill="#b9e5fb"/><polygon points="188.28 185.8 182.6 184.36 178.34 188.84 177.79 182.29 172.71 179.09 178.05 176.47 179.18 170.02 183.02 174.96 188.8 174.17 185.84 179.83 188.28 185.8" fill="#f99d1c"/><polygon points="189.18 255.46 186.11 254.68 183.8 257.1 183.5 253.56 180.75 251.82 183.65 250.41 184.25 246.92 186.34 249.59 189.46 249.17 187.86 252.23 189.18 255.46" fill="#f99d1c"/><polygon points="28.36 84.43 25.29 83.65 22.98 86.07 22.69 82.53 19.94 80.8 22.83 79.38 23.44 75.89 25.52 78.56 28.64 78.14 27.04 81.2 28.36 84.43" fill="#f99d1c"/><polygon points="413.07 29.34 409.99 28.56 407.69 30.98 407.39 27.43 404.64 25.7 407.53 24.29 408.14 20.8 410.22 23.46 413.35 23.04 411.74 26.1 413.07 29.34" fill="#f99d1c"/><polygon points="305.15 437.3 300.1 436.02 296.3 440 295.82 434.18 291.3 431.33 296.05 429.01 297.05 423.27 300.47 427.66 305.61 426.96 302.97 431.99 305.15 437.3" fill="#ffc20e"/><polygon points="328.99 132.57 323.7 131.23 319.73 135.39 319.22 129.29 314.48 126.31 319.46 123.88 320.5 117.87 324.09 122.46 329.47 121.73 326.71 127 328.99 132.57" fill="#f9ed32"/><polygon points="164.9 48.43 159.61 47.09 155.64 51.26 155.13 45.16 150.4 42.17 155.37 39.74 156.42 33.73 160 38.33 165.38 37.6 162.62 42.87 164.9 48.43" fill="#f9ed32"/><polygon points="297.18 282.57 291.89 281.23 287.92 285.4 287.41 279.3 282.68 276.32 287.65 273.88 288.7 267.87 292.28 272.47 297.67 271.74 294.9 277.01 297.18 282.57" fill="#eae857"/><polygon points="15.59 363.43 10.3 362.09 6.32 366.26 5.82 360.16 1.08 357.18 6.06 354.75 7.11 348.73 10.69 353.33 16.07 352.6 13.31 357.87 15.59 363.43" fill="#f9ed32"/><ellipse cx="63.84" cy="189.75" rx="2.46" ry="2.78" fill="#ee2a7b"/><ellipse cx="194.04" cy="315.87" rx="2.46" ry="2.78" fill="#ee2a7b"/><ellipse cx="363.29" cy="149.67" rx="2.46" ry="2.78" fill="#ee2a7b"/><ellipse cx="234.21" cy="169.77" rx="2.46" ry="2.79" fill="#ee2a7b"/><ellipse cx="140.89" cy="249.06" rx="2.46" ry="2.78" fill="#b9e5fb"/><ellipse cx="295.99" cy="128.26" rx="2.46" ry="2.79" fill="#b9e5fb"/><ellipse cx="351.86" cy="176.64" rx="2.46" ry="2.79" fill="#b9e5fb"/><ellipse cx="410.29" cy="53.48" rx="2.46" ry="2.79" fill="#b9e5fb"/><ellipse cx="343.75" cy="39.56" rx="2.46" ry="2.79" fill="#b9e5fb"/><ellipse cx="33.1" cy="107.4" rx="2.46" ry="2.79" fill="#b9e5fb"/><ellipse cx="2.79" cy="240.91" rx="2.46" ry="2.79" fill="#b9e5fb"/><ellipse cx="85.17" cy="358.79" rx="2.46" ry="2.79" fill="#b9e5fb"/><ellipse cx="111.64" cy="33.54" rx="2.46" ry="2.79" fill="#eae857"/><ellipse cx="281.82" cy="69.22" rx="2.46" ry="2.79" fill="#ee2a7b"/><ellipse cx="438.87" cy="354.23" rx="2.46" ry="2.78" fill="#ee2a7b"/><ellipse cx="100.31" cy="339.3" rx="6.22" ry="7.03" fill="#f7aebe"/><ellipse cx="54.05" cy="161.87" rx="4.1" ry="4.63" fill="#f7aebe"/><ellipse cx="244.52" cy="263.44" rx="6.97" ry="7.87" fill="#f7aebe"/><ellipse cx="291.14" cy="153.98" rx="4.1" ry="4.63" fill="#f7aebe"/><ellipse cx="330.75" cy="284.77" rx="4.1" ry="4.63" fill="#f7aebe"/><ellipse cx="166.79" cy="144.29" rx="4.1" ry="4.63" fill="#d7df23"/><ellipse cx="79.49" cy="255.14" rx="4.1" ry="4.63" fill="#d7df23"/><ellipse cx="261.61" cy="372.53" rx="4.1" ry="4.63" fill="#d7df23"/><ellipse cx="378.13" cy="36.78" rx="4.1" ry="4.63" fill="#8dc63f"/><ellipse cx="435.54" cy="50.22" rx="8.46" ry="9.56" fill="#fac1c0"/><ellipse cx="8.21" cy="93.28" rx="5.42" ry="6.12" fill="#f7aebe"/><ellipse cx="60.41" cy="93.28" rx="0.75" ry="0.66" transform="translate(-33.47 152.76) rotate(-89.43)" fill="#fffcdd"/></g><g id="card-0-1-hats"><g id="card-0-1-hat-4"><path d="M278.77,183l-18.58-51.55L241.43,79.38l-18.77,52.08L204.08,183a.92.92,0,0,0-.19.53c0,2.88,16.81,10.44,37.54,10.44S279,186.42,279,183.54A1,1,0,0,0,278.77,183Z" fill="#282023"/><ellipse cx="214.4" cy="180.57" rx="3.51" ry="3.53" fill="#fff"/><path d="M234.54,138a1.94,1.94,0,1,1-1.94-2A1.94,1.94,0,0,1,234.54,138Z" fill="#fff"/><ellipse cx="250.13" cy="124.82" rx="2.84" ry="2.86" fill="#fff"/><ellipse cx="230.44" cy="172.19" rx="2.84" ry="2.86" fill="#8dc63f"/><ellipse cx="225.66" cy="186.02" rx="1.94" ry="1.95" fill="#ee2a7b"/><path d="M258.35,186.84a1.93,1.93,0,1,1-1.93-1.95A1.94,1.94,0,0,1,258.35,186.84Z" fill="#fff"/><path d="M261.63,150.17a1.93,1.93,0,1,1-1.93-1.95A1.94,1.94,0,0,1,261.63,150.17Z" fill="#ee2a7b"/><ellipse cx="248.69" cy="141.42" rx="5.56" ry="5.59" fill="#00aeef"/><ellipse cx="242.43" cy="158.42" rx="3.51" ry="3.53" fill="#fdb913"/><ellipse cx="242.43" cy="182.97" rx="6.26" ry="6.3" fill="#ee2a7b"/><ellipse cx="242.43" cy="100.98" rx="2.67" ry="2.69" fill="#8dc63f"/><ellipse cx="228.19" cy="150.17" rx="6.26" ry="6.3" fill="#ee2a7b"/><ellipse cx="268.23" cy="180.46" rx="3.99" ry="4.01" fill="#00aeef"/><ellipse cx="239.76" cy="114.62" rx="3.55" ry="3.57" fill="#00aeef"/><ellipse cx="218.96" cy="164.3" rx="4.57" ry="4.59" fill="#d293c1"/><ellipse cx="232.18" cy="126.77" rx="3.99" ry="4.01" fill="#ee2a7b"/><ellipse cx="257.76" cy="167.1" rx="7.84" ry="7.89" fill="#d293c1"/><path d="M247.72,62.28a13.16,13.16,0,0,0-1.31-1.42,8.77,8.77,0,0,0-.75-.66,6.41,6.41,0,0,0-.93-.66l-3.24,6.82c0-.06.18,0,.3,0a3.66,3.66,0,0,1,.45.16,6.29,6.29,0,0,1,.86.44,5.14,5.14,0,0,1,2.64,5.07,13.82,13.82,0,0,1-1.45,5.06,29.48,29.48,0,0,1-2.45,4.13,28.69,28.69,0,0,0,.52-3.34,17,17,0,0,0-.52-6.28,10.21,10.21,0,0,0-4.39-5.83,11.31,11.31,0,0,0-3.63-1.44,12.87,12.87,0,0,0-1.9-.28,6.24,6.24,0,0,0-1,0,4.74,4.74,0,0,0-1.14.07l1.78,7.35c-.07,0,.14-.11.25-.16l.44-.16a8.72,8.72,0,0,1,1-.22,5.82,5.82,0,0,1,1.87,0,5.28,5.28,0,0,1,3.36,2.27,14.11,14.11,0,0,1,2,4.82,30.92,30.92,0,0,1,.57,3.33,32.08,32.08,0,0,0-3.59-4.3,16,16,0,0,0-5.16-3.61,10,10,0,0,0-7.27-.27,11.54,11.54,0,0,0-3.4,1.89,12,12,0,0,0-1.43,1.32,7.12,7.12,0,0,0-.64.74,7,7,0,0,0-.67.93l6.78,3.29c-.06,0,0-.18.05-.3a3.61,3.61,0,0,1,.15-.45,8.1,8.1,0,0,1,.43-.86,5.6,5.6,0,0,1,1.2-1.45,5.22,5.22,0,0,1,3.87-1.17,13.47,13.47,0,0,1,5,1.48,32.21,32.21,0,0,1,4.7,2.88c.07.74.15,1.48.19,2.23.19-.67.34-1.33.5-2a31.3,31.3,0,0,0,4.08-3.49A16.54,16.54,0,0,0,249.4,73a10.29,10.29,0,0,0,.23-7.32A11.89,11.89,0,0,0,247.72,62.28Z" fill="#ce2e72"/></g><g id="card-0-1-hat-2"><path d="M245.71,220a13.16,13.16,0,0,0-1.31-1.42,8.77,8.77,0,0,0-.75-.66,6.41,6.41,0,0,0-.93-.66l-3.24,6.82c0-.06.18,0,.3,0a3.66,3.66,0,0,1,.45.16,6.29,6.29,0,0,1,.86.44,5.14,5.14,0,0,1,2.64,5.07,13.82,13.82,0,0,1-1.45,5.06,29.48,29.48,0,0,1-2.45,4.13,28.69,28.69,0,0,0,.52-3.34,17,17,0,0,0-.52-6.28,10.21,10.21,0,0,0-4.39-5.83,11.31,11.31,0,0,0-3.63-1.44,12.87,12.87,0,0,0-1.9-.28,6.24,6.24,0,0,0-1,0,4.74,4.74,0,0,0-1.14.07l1.78,7.35c-.07,0,.14-.11.25-.16l.44-.16a8.72,8.72,0,0,1,1-.22,5.82,5.82,0,0,1,1.87,0,5.28,5.28,0,0,1,3.36,2.27,14.11,14.11,0,0,1,2,4.82,30.92,30.92,0,0,1,.57,3.33,32.08,32.08,0,0,0-3.59-4.3,16,16,0,0,0-5.16-3.61,10,10,0,0,0-7.27-.27,11.54,11.54,0,0,0-3.4,1.89,12,12,0,0,0-1.43,1.32,7.12,7.12,0,0,0-.64.74,7,7,0,0,0-.67.93l6.78,3.29c-.06,0,0-.18.05-.3a3.61,3.61,0,0,1,.15-.45,8.1,8.1,0,0,1,.43-.86,5.6,5.6,0,0,1,1.2-1.45,5.22,5.22,0,0,1,3.87-1.17,13.47,13.47,0,0,1,5,1.48,32.21,32.21,0,0,1,4.7,2.88c.07.74.15,1.48.19,2.23.19-.67.34-1.33.5-2a31.3,31.3,0,0,0,4.08-3.49,16.54,16.54,0,0,0,3.56-5.21,10.29,10.29,0,0,0,.23-7.32A11.89,11.89,0,0,0,245.71,220Z" fill="#231f20"/><path d="M274.49,331.31l-17.54-46.85-17.71-47.34-16.55,47.76L206.3,332.15a.79.79,0,0,0-.17.48c0,2.62,15.45,9.34,34.38,9.1s34.18-7.32,34.15-9.95A.93.93,0,0,0,274.49,331.31Z" fill="#ed1c24"/><polygon points="236.5 315.85 229.97 314.46 225.12 319.08 224.42 312.4 218.54 309.21 224.64 306.47 225.85 299.86 230.33 304.85 236.95 303.97 233.62 309.78 236.5 315.85" fill="#fff"/><polygon points="257.98 332.63 249.64 330.86 243.46 336.77 242.56 328.24 235.07 324.15 242.85 320.66 244.4 312.22 250.11 318.59 258.56 317.47 254.3 324.9 257.98 332.63" fill="#f9ed32"/><polygon points="241.94 275.71 238.54 274.99 236.02 277.4 235.66 273.93 232.61 272.27 235.78 270.85 236.4 267.41 238.73 270 242.17 269.54 240.44 272.56 241.94 275.71" fill="#fff"/><polygon points="241.77 258.31 239.62 257.86 238.03 259.38 237.79 257.19 235.87 256.13 237.87 255.23 238.27 253.06 239.74 254.7 241.92 254.41 240.82 256.33 241.77 258.31" fill="#f9ed32"/><polygon points="251.68 289.71 246.57 291.86 245.44 297.31 241.83 293.09 236.32 293.69 239.2 288.93 236.93 283.85 242.32 285.14 246.43 281.4 246.87 286.94 251.68 289.71" fill="#f9ed32"/><polygon points="267.8 330.63 266.03 329.27 263.9 329.96 264.65 327.84 263.34 326.02 265.58 326.08 266.89 324.27 267.52 326.43 269.65 327.12 267.8 328.39 267.8 330.63" fill="#fff"/><polygon points="229.03 292.21 227.26 290.84 225.13 291.53 225.88 289.42 224.57 287.6 226.81 287.66 228.12 285.85 228.75 288 230.87 288.7 229.03 289.97 229.03 292.21" fill="#f9ed32"/><polygon points="258.14 307.31 254.91 306.63 252.52 308.91 252.17 305.61 249.27 304.03 252.28 302.67 252.89 299.41 255.09 301.87 258.36 301.44 256.72 304.31 258.14 307.31" fill="#f9ed32"/><polygon points="227.85 332.53 223.37 331.58 220.05 334.76 219.56 330.17 215.53 327.98 219.72 326.1 220.55 321.56 223.62 324.99 228.16 324.38 225.88 328.38 227.85 332.53" fill="#f9ed32"/></g><g id="card-0-1-hat-1"><path d="M132,327.18a160.22,160.22,0,0,1-16.25.82c-2.84,0-5.43-.08-7.72-.18l-1.24,3.45a.85.85,0,0,0-.18.5c0,2.76,16,10,35.86,10s35.86-7.22,35.86-10a.85.85,0,0,0-.18-.5l-5.43-15.05q-4.3,2.08-8.93,3.8A129.22,129.22,0,0,1,132,327.18Z" fill="#f7aebe"/><path d="M159.64,279.94l-3.18-8.84q-4.08,1.34-8.34,2.48a161.23,161.23,0,0,1-22.07,4.2L124.53,282l-2.36,6.54a146.23,146.23,0,0,0,19.48-3.05A122.41,122.41,0,0,0,159.64,279.94Z" fill="#f7aebe"/><path d="M151.55,257.5l-9.1-25.24L131.6,262.38c4-.68,8.48-1.61,13.2-2.87C146.95,258.94,149.21,258.27,151.55,257.5Z" fill="#f7aebe"/><path d="M116.82,303.41l-3.64,10.1a145.27,145.27,0,0,0,17.72-.75c10.63-1.12,24.17-3.86,36.87-10.25l-3.22-9a138,138,0,0,1-20.11,6.13A160,160,0,0,1,116.82,303.41Z" fill="#f7aebe"/><path d="M113.18,313.51,108,327.82c2.29.11,4.88.18,7.72.18a160.22,160.22,0,0,0,16.25-.82A129.22,129.22,0,0,0,163.78,320q4.63-1.72,8.93-3.8l-4.93-13.7c-12.7,6.39-26.24,9.13-36.87,10.25A145.27,145.27,0,0,1,113.18,313.51Z" fill="#d375af"/><path d="M159.64,279.94a122.41,122.41,0,0,1-18,5.56,146.23,146.23,0,0,1-19.48,3.05l-5.35,14.85a160,160,0,0,0,27.62-3.72,138,138,0,0,0,20.11-6.13L160.38,282Z" fill="#d375af"/><path d="M156.45,271.11l-4.9-13.6c-2.34.76-4.6,1.43-6.75,2-4.71,1.26-9.18,2.18-13.2,2.87L126,277.79a161.23,161.23,0,0,0,22.07-4.2Q152.37,272.46,156.45,271.11Z" fill="#d375af"/><polygon points="142.45 215.12 143.71 220.16 147.3 216.42 145.88 221.42 150.85 220 147.14 223.61 152.15 224.87 147.14 226.13 150.85 229.75 145.88 228.32 147.3 233.32 143.71 229.59 142.45 234.63 141.2 229.59 137.6 233.32 139.03 228.32 134.05 229.75 137.77 226.13 132.75 224.87 137.77 223.61 134.05 220 139.03 221.42 137.6 216.42 141.2 220.16 142.45 215.12" fill="#ed1c24"/></g><g id="card-0-1-hat-0"><path d="M375.68,330.77,357.1,279.22l-18.76-52.08-18.77,52.08L301,330.77a.92.92,0,0,0-.19.53c0,2.88,16.81,10.44,37.54,10.44s37.53-7.56,37.53-10.44A1,1,0,0,0,375.68,330.77Z" fill="#ffde17"/><ellipse cx="311.31" cy="328.34" rx="3.51" ry="3.53" fill="#fff"/><path d="M331.45,285.76a1.94,1.94,0,1,1-1.94-2A1.94,1.94,0,0,1,331.45,285.76Z" fill="#fff"/><ellipse cx="347.04" cy="272.58" rx="2.84" ry="2.86" fill="#fff"/><ellipse cx="327.35" cy="319.95" rx="2.84" ry="2.86" fill="#8dc63f"/><ellipse cx="322.57" cy="333.79" rx="1.94" ry="1.95" fill="#ee2a7b"/><path d="M355.26,334.6a1.93,1.93,0,1,1-1.93-1.95A1.94,1.94,0,0,1,355.26,334.6Z" fill="#fff"/><path d="M358.54,297.93a1.93,1.93,0,1,1-1.93-1.95A1.94,1.94,0,0,1,358.54,297.93Z" fill="#ee2a7b"/><ellipse cx="345.6" cy="289.18" rx="5.56" ry="5.59" fill="#00aeef"/><ellipse cx="339.34" cy="306.18" rx="3.51" ry="3.53" fill="#fdb913"/><ellipse cx="339.34" cy="330.73" rx="6.26" ry="6.3" fill="#ee2a7b"/><ellipse cx="339.34" cy="248.75" rx="2.67" ry="2.69" fill="#8dc63f"/><ellipse cx="325.1" cy="297.93" rx="6.26" ry="6.3" fill="#ee2a7b"/><ellipse cx="365.14" cy="328.23" rx="3.99" ry="4.01" fill="#00aeef"/><ellipse cx="336.67" cy="262.38" rx="3.55" ry="3.57" fill="#00aeef"/><ellipse cx="315.87" cy="312.06" rx="4.57" ry="4.59" fill="#d293c1"/><ellipse cx="329.09" cy="274.53" rx="3.99" ry="4.01" fill="#ee2a7b"/><ellipse cx="354.67" cy="314.86" rx="7.84" ry="7.89" fill="#d293c1"/></g></g></svg>