<svg id="card-3-0" xmlns="http://www.w3.org/2000/svg" xmlns:xlink="http://www.w3.org/1999/xlink" viewBox="0 0 444 666"><defs><linearGradient id="linear-gradient" x1="272.84" y1="294.02" x2="318.68" y2="294.02" gradientUnits="userSpaceOnUse"><stop offset="0" stop-color="#fff"/><stop offset="0.05" stop-color="#eef7f6"/><stop offset="0.15" stop-color="#d3ebe7"/><stop offset="0.25" stop-color="#c0e3dd"/><stop offset="0.36" stop-color="#b5ded7"/><stop offset="0.47" stop-color="#b1dcd5"/><stop offset="1" stop-color="#00e0f1"/></linearGradient><linearGradient id="linear-gradient-2" x1="368.85" y1="298.17" x2="413.19" y2="298.17" xlink:href="#linear-gradient"/><linearGradient id="linear-gradient-3" x1="370.22" y1="303.95" x2="411.65" y2="303.95" xlink:href="#linear-gradient"/><linearGradient id="linear-gradient-4" x1="291.57" y1="300.35" x2="332.75" y2="300.35" xlink:href="#linear-gradient"/><linearGradient id="linear-gradient-5" x1="273.66" y1="314.51" x2="319.37" y2="314.51" xlink:href="#linear-gradient"/><linearGradient id="linear-gradient-6" x1="387.06" y1="315.9" x2="420.65" y2="315.9" xlink:href="#linear-gradient"/><linearGradient id="linear-gradient-7" x1="276.49" y1="325.97" x2="319.37" y2="325.97" xlink:href="#linear-gradient"/><linearGradient id="linear-gradient-8" x1="413.52" y1="313.41" x2="429.04" y2="313.41" xlink:href="#linear-gradient"/><linearGradient id="linear-gradient-9" x1="377.12" y1="326.61" x2="412.23" y2="326.61" xlink:href="#linear-gradient"/><linearGradient id="linear-gradient-10" x1="412.14" y1="357.45" x2="417.16" y2="357.45" xlink:href="#linear-gradient"/><linearGradient id="linear-gradient-11" x1="370.22" y1="344.24" x2="396.57" y2="344.24" xlink:href="#linear-gradient"/><linearGradient id="linear-gradient-12" x1="393.41" y1="378.26" x2="395.31" y2="378.26" xlink:href="#linear-gradient"/><linearGradient id="linear-gradient-13" x1="274.42" y1="309.58" x2="290.44" y2="309.58" xlink:href="#linear-gradient"/><linearGradient id="linear-gradient-14" x1="286.17" y1="324.87" x2="325.13" y2="324.87" xlink:href="#linear-gradient"/><linearGradient id="linear-gradient-15" x1="282.53" y1="353.43" x2="288.35" y2="353.43" xlink:href="#linear-gradient"/><linearGradient id="linear-gradient-16" x1="302.97" y1="341.99" x2="330.52" y2="341.99" xlink:href="#linear-gradient"/><linearGradient id="linear-gradient-17" x1="303.16" y1="375.42" x2="305.2" y2="375.42" xlink:href="#linear-gradient"/><linearGradient id="linear-gradient-18" x1="324.18" y1="353.21" x2="336.55" y2="353.21" xlink:href="#linear-gradient"/><linearGradient id="linear-gradient-19" x1="346.42" y1="348.1" x2="349.59" y2="348.1" xlink:href="#linear-gradient"/><linearGradient id="linear-gradient-20" x1="357.51" y1="351.99" x2="371.13" y2="351.99" xlink:href="#linear-gradient"/><linearGradient id="linear-gradient-21" x1="318.62" y1="388.48" x2="323.45" y2="388.48" xlink:href="#linear-gradient"/><linearGradient id="linear-gradient-22" x1="346.48" y1="392.74" x2="349.9" y2="392.74" xlink:href="#linear-gradient"/><linearGradient id="linear-gradient-23" x1="372.24" y1="383.98" x2="377.98" y2="383.98" xlink:href="#linear-gradient"/><linearGradient id="linear-gradient-24" x1="364.38" y1="314.72" x2="410.83" y2="314.72" xlink:href="#linear-gradient"/><linearGradient id="linear-gradient-25" x1="367.81" y1="332.15" x2="394.38" y2="332.15" xlink:href="#linear-gradient"/><linearGradient id="linear-gradient-26" x1="352.01" y1="350.26" x2="359.64" y2="350.26" xlink:href="#linear-gradient"/><linearGradient id="linear-gradient-27" x1="334.67" y1="356.79" x2="342.74" y2="356.79" xlink:href="#linear-gradient"/><linearGradient id="linear-gradient-28" x1="320.72" y1="334.03" x2="336.58" y2="334.03" xlink:href="#linear-gradient"/><linearGradient id="linear-gradient-29" x1="297.94" y1="308.98" x2="334.49" y2="308.98" xlink:href="#linear-gradient"/><linearGradient id="linear-gradient-30" x1="352.01" y1="319.67" x2="377.73" y2="319.67" xlink:href="#linear-gradient"/><linearGradient id="linear-gradient-31" x1="350.29" y1="330.29" x2="370.23" y2="330.29" xlink:href="#linear-gradient"/><linearGradient id="linear-gradient-32" x1="338.05" y1="333.04" x2="345.83" y2="333.04" xlink:href="#linear-gradient"/><linearGradient id="linear-gradient-33" x1="314.5" y1="318.87" x2="346.86" y2="318.87" xlink:href="#linear-gradient"/><linearGradient id="linear-gradient-34" x1="292.02" y1="348.24" x2="314.9" y2="348.24" xlink:href="#linear-gradient"/><linearGradient id="linear-gradient-35" x1="374.35" y1="357.62" x2="383.47" y2="357.62" xlink:href="#linear-gradient"/><linearGradient id="linear-gradient-36" x1="333.23" y1="424.09" x2="339.63" y2="424.09" xlink:href="#linear-gradient"/><linearGradient id="linear-gradient-37" x1="364.07" y1="431.37" x2="369.53" y2="431.37" xlink:href="#linear-gradient"/><linearGradient id="linear-gradient-38" x1="288.89" y1="338.6" x2="318.68" y2="338.6" xlink:href="#linear-gradient"/><linearGradient id="linear-gradient-39" x1="361.63" y1="337.79" x2="381.47" y2="337.79" xlink:href="#linear-gradient"/><linearGradient id="linear-gradient-40" x1="310.85" y1="314.38" x2="341.7" y2="314.38" xlink:href="#linear-gradient"/><linearGradient id="linear-gradient-41" x1="348.23" y1="334.55" x2="358.88" y2="334.55" xlink:href="#linear-gradient"/><linearGradient id="linear-gradient-42" x1="351.32" y1="307.62" x2="385.02" y2="307.62" xlink:href="#linear-gradient"/><linearGradient id="linear-gradient-43" x1="326.42" y1="269.75" x2="345.14" y2="269.75" xlink:href="#linear-gradient"/><linearGradient id="linear-gradient-44" x1="306.28" y1="271.57" x2="333.11" y2="271.57" xlink:href="#linear-gradient"/><linearGradient id="linear-gradient-45" x1="279.77" y1="286.35" x2="317.31" y2="286.35" xlink:href="#linear-gradient"/><linearGradient id="linear-gradient-46" x1="334.14" y1="242.5" x2="339.3" y2="242.5" xlink:href="#linear-gradient"/><linearGradient id="linear-gradient-47" x1="347.52" y1="236.2" x2="350.51" y2="236.2" xlink:href="#linear-gradient"/><linearGradient id="linear-gradient-48" x1="361.63" y1="242.53" x2="367.63" y2="242.53" xlink:href="#linear-gradient"/><linearGradient id="linear-gradient-49" x1="368.85" y1="248.75" x2="386.14" y2="248.75" xlink:href="#linear-gradient"/><linearGradient id="linear-gradient-50" x1="352.01" y1="269.56" x2="366.87" y2="269.56" xlink:href="#linear-gradient"/><linearGradient id="linear-gradient-51" x1="345.98" y1="272.48" x2="347.98" y2="272.48" xlink:href="#linear-gradient"/><linearGradient id="linear-gradient-52" x1="339.3" y1="278.63" x2="342.05" y2="278.63" xlink:href="#linear-gradient"/><linearGradient id="linear-gradient-53" x1="314.48" y1="250.78" x2="325.55" y2="250.78" xlink:href="#linear-gradient"/><linearGradient id="linear-gradient-54" x1="325.82" y1="279.47" x2="337.92" y2="279.47" xlink:href="#linear-gradient"/><linearGradient id="linear-gradient-55" x1="313.13" y1="282.7" x2="336.21" y2="282.7" xlink:href="#linear-gradient"/><linearGradient id="linear-gradient-56" x1="305.68" y1="254.39" x2="322.46" y2="254.39" xlink:href="#linear-gradient"/><linearGradient id="linear-gradient-57" x1="292.36" y1="255.47" x2="303.22" y2="255.47" xlink:href="#linear-gradient"/><linearGradient id="linear-gradient-58" x1="286.02" y1="266.19" x2="302.19" y2="266.19" xlink:href="#linear-gradient"/><linearGradient id="linear-gradient-59" x1="305.78" y1="284.36" x2="326.58" y2="284.36" xlink:href="#linear-gradient"/><linearGradient id="linear-gradient-60" x1="353.39" y1="276.71" x2="376.17" y2="276.71" xlink:href="#linear-gradient"/><linearGradient id="linear-gradient-61" x1="384.18" y1="252.24" x2="404.09" y2="252.24" xlink:href="#linear-gradient"/><linearGradient id="linear-gradient-62" x1="357.85" y1="282.26" x2="389.33" y2="282.26" xlink:href="#linear-gradient"/><linearGradient id="linear-gradient-63" x1="384.31" y1="262.23" x2="407.7" y2="262.23" xlink:href="#linear-gradient"/><linearGradient id="linear-gradient-64" x1="359.23" y1="291.25" x2="401.91" y2="291.25" xlink:href="#linear-gradient"/><linearGradient id="linear-gradient-65" x1="407.67" y1="284.81" x2="428.01" y2="284.81" xlink:href="#linear-gradient"/><linearGradient id="linear-gradient-66" x1="332.7" y1="280.45" x2="345.14" y2="280.45" xlink:href="#linear-gradient"/><linearGradient id="linear-gradient-67" x1="349.26" y1="280.53" x2="369.25" y2="280.53" xlink:href="#linear-gradient"/><linearGradient id="linear-gradient-68" x1="353.39" y1="287.11" x2="379.86" y2="287.11" xlink:href="#linear-gradient"/><linearGradient id="linear-gradient-69" x1="308.03" y1="290.46" x2="341.02" y2="290.46" xlink:href="#linear-gradient"/><linearGradient id="linear-gradient-70" x1="359.57" y1="295.75" x2="402.72" y2="295.75" xlink:href="#linear-gradient"/><linearGradient id="linear-gradient-71" x1="332.93" y1="293.14" x2="346.51" y2="293.14" xlink:href="#linear-gradient"/><linearGradient id="linear-gradient-72" x1="349.95" y1="294.73" x2="376.93" y2="294.73" xlink:href="#linear-gradient"/><linearGradient id="linear-gradient-73" x1="350.64" y1="260.49" x2="357.56" y2="260.49" xlink:href="#linear-gradient"/><linearGradient id="linear-gradient-74" x1="377.09" y1="276.77" x2="409.39" y2="276.77" xlink:href="#linear-gradient"/><linearGradient id="linear-gradient-75" x1="353.69" y1="298.52" x2="373.6" y2="298.52" xlink:href="#linear-gradient"/><linearGradient id="linear-gradient-76" x1="347.54" y1="287.13" x2="359.1" y2="287.13" xlink:href="#linear-gradient"/><linearGradient id="linear-gradient-77" x1="335.01" y1="279.92" x2="345.83" y2="279.92" xlink:href="#linear-gradient"/><linearGradient id="linear-gradient-78" x1="310.74" y1="301.15" x2="342.74" y2="301.15" xlink:href="#linear-gradient"/><linearGradient id="linear-gradient-79" x1="383.11" y1="365.95" x2="389.64" y2="365.95" xlink:href="#linear-gradient"/><linearGradient id="linear-gradient-80" x1="314.68" y1="372.35" x2="321.26" y2="372.35" xlink:href="#linear-gradient"/><linearGradient id="linear-gradient-81" x1="349.61" y1="300.47" x2="361.04" y2="300.47" xlink:href="#linear-gradient"/><linearGradient id="linear-gradient-82" x1="325.38" y1="309.9" x2="344.79" y2="309.9" xlink:href="#linear-gradient"/><linearGradient id="linear-gradient-83" x1="14.96" y1="141.82" x2="52.13" y2="141.82" xlink:href="#linear-gradient"/><linearGradient id="linear-gradient-84" x1="92.8" y1="145.19" x2="128.76" y2="145.19" xlink:href="#linear-gradient"/><linearGradient id="linear-gradient-85" x1="93.92" y1="149.88" x2="127.51" y2="149.88" xlink:href="#linear-gradient"/><linearGradient id="linear-gradient-86" x1="30.15" y1="146.96" x2="63.53" y2="146.96" xlink:href="#linear-gradient"/><linearGradient id="linear-gradient-87" x1="15.62" y1="158.44" x2="52.68" y2="158.44" xlink:href="#linear-gradient"/><linearGradient id="linear-gradient-88" x1="107.57" y1="159.57" x2="134.81" y2="159.57" xlink:href="#linear-gradient"/><linearGradient id="linear-gradient-89" x1="17.92" y1="167.73" x2="52.68" y2="167.73" xlink:href="#linear-gradient"/><linearGradient id="linear-gradient-90" x1="129.02" y1="157.54" x2="141.61" y2="157.54" xlink:href="#linear-gradient"/><linearGradient id="linear-gradient-91" x1="99.51" y1="168.25" x2="127.98" y2="168.25" xlink:href="#linear-gradient"/><linearGradient id="linear-gradient-92" x1="127.91" y1="193.26" x2="131.98" y2="193.26" xlink:href="#linear-gradient"/><linearGradient id="linear-gradient-93" x1="93.92" y1="182.55" x2="115.28" y2="182.55" xlink:href="#linear-gradient"/><linearGradient id="linear-gradient-94" x1="112.72" y1="210.13" x2="114.26" y2="210.13" xlink:href="#linear-gradient"/><linearGradient id="linear-gradient-95" x1="16.24" y1="154.45" x2="29.23" y2="154.45" xlink:href="#linear-gradient"/><linearGradient id="linear-gradient-96" x1="25.77" y1="166.84" x2="57.35" y2="166.84" xlink:href="#linear-gradient"/><linearGradient id="linear-gradient-97" x1="22.81" y1="190" x2="27.54" y2="190" xlink:href="#linear-gradient"/><linearGradient id="linear-gradient-98" x1="39.39" y1="180.72" x2="61.73" y2="180.72" xlink:href="#linear-gradient"/><linearGradient id="linear-gradient-99" x1="39.54" y1="207.83" x2="41.2" y2="207.83" xlink:href="#linear-gradient"/><linearGradient id="linear-gradient-100" x1="56.58" y1="189.82" x2="66.62" y2="189.82" xlink:href="#linear-gradient"/><linearGradient id="linear-gradient-101" x1="74.62" y1="185.68" x2="77.19" y2="185.68" xlink:href="#linear-gradient"/><linearGradient id="linear-gradient-102" x1="83.61" y1="188.83" x2="94.65" y2="188.83" xlink:href="#linear-gradient"/><linearGradient id="linear-gradient-103" x1="52.08" y1="218.42" x2="55.99" y2="218.42" xlink:href="#linear-gradient"/><linearGradient id="linear-gradient-104" x1="74.66" y1="221.87" x2="77.44" y2="221.87" xlink:href="#linear-gradient"/><linearGradient id="linear-gradient-105" x1="95.56" y1="214.77" x2="100.21" y2="214.77" xlink:href="#linear-gradient"/><linearGradient id="linear-gradient-106" x1="89.18" y1="158.61" x2="126.84" y2="158.61" xlink:href="#linear-gradient"/><linearGradient id="linear-gradient-107" x1="91.97" y1="172.74" x2="113.51" y2="172.74" xlink:href="#linear-gradient"/><linearGradient id="linear-gradient-108" x1="79.15" y1="187.43" x2="85.34" y2="187.43" xlink:href="#linear-gradient"/><linearGradient id="linear-gradient-109" x1="65.09" y1="192.72" x2="71.63" y2="192.72" xlink:href="#linear-gradient"/><linearGradient id="linear-gradient-110" x1="53.78" y1="174.27" x2="66.64" y2="174.27" xlink:href="#linear-gradient"/><linearGradient id="linear-gradient-111" x1="35.31" y1="153.95" x2="64.94" y2="153.95" xlink:href="#linear-gradient"/><linearGradient id="linear-gradient-112" x1="79.15" y1="162.63" x2="100" y2="162.63" xlink:href="#linear-gradient"/><linearGradient id="linear-gradient-113" x1="77.76" y1="171.23" x2="93.92" y2="171.23" xlink:href="#linear-gradient"/><linearGradient id="linear-gradient-114" x1="67.83" y1="173.47" x2="74.14" y2="173.47" xlink:href="#linear-gradient"/><linearGradient id="linear-gradient-115" x1="48.74" y1="161.97" x2="74.97" y2="161.97" xlink:href="#linear-gradient"/><linearGradient id="linear-gradient-116" x1="30.51" y1="185.79" x2="49.06" y2="185.79" xlink:href="#linear-gradient"/><linearGradient id="linear-gradient-117" x1="97.26" y1="193.4" x2="104.66" y2="193.4" xlink:href="#linear-gradient"/><linearGradient id="linear-gradient-118" x1="63.92" y1="247.29" x2="69.12" y2="247.29" xlink:href="#linear-gradient"/><linearGradient id="linear-gradient-119" x1="88.93" y1="253.2" x2="93.36" y2="253.2" xlink:href="#linear-gradient"/><linearGradient id="linear-gradient-120" x1="27.97" y1="177.97" x2="52.13" y2="177.97" xlink:href="#linear-gradient"/><linearGradient id="linear-gradient-121" x1="86.95" y1="177.32" x2="103.04" y2="177.32" xlink:href="#linear-gradient"/><linearGradient id="linear-gradient-122" x1="45.77" y1="158.33" x2="70.79" y2="158.33" xlink:href="#linear-gradient"/><linearGradient id="linear-gradient-123" x1="76.09" y1="174.69" x2="84.72" y2="174.69" xlink:href="#linear-gradient"/><linearGradient id="linear-gradient-124" x1="78.6" y1="152.85" x2="105.92" y2="152.85" xlink:href="#linear-gradient"/><linearGradient id="linear-gradient-125" x1="58.4" y1="122.15" x2="73.58" y2="122.15" xlink:href="#linear-gradient"/><linearGradient id="linear-gradient-126" x1="42.07" y1="123.62" x2="63.83" y2="123.62" xlink:href="#linear-gradient"/><linearGradient id="linear-gradient-127" x1="20.57" y1="135.61" x2="51.01" y2="135.61" xlink:href="#linear-gradient"/><linearGradient id="linear-gradient-128" x1="64.67" y1="100.05" x2="68.85" y2="100.05" xlink:href="#linear-gradient"/><linearGradient id="linear-gradient-129" x1="75.51" y1="94.94" x2="77.94" y2="94.94" xlink:href="#linear-gradient"/><linearGradient id="linear-gradient-130" x1="86.95" y1="100.07" x2="91.81" y2="100.07" xlink:href="#linear-gradient"/><linearGradient id="linear-gradient-131" x1="92.8" y1="105.12" x2="106.83" y2="105.12" xlink:href="#linear-gradient"/><linearGradient id="linear-gradient-132" x1="79.15" y1="121.99" x2="91.2" y2="121.99" xlink:href="#linear-gradient"/><linearGradient id="linear-gradient-133" x1="74.26" y1="124.36" x2="75.89" y2="124.36" xlink:href="#linear-gradient"/><linearGradient id="linear-gradient-134" x1="68.84" y1="129.34" x2="71.07" y2="129.34" xlink:href="#linear-gradient"/><linearGradient id="linear-gradient-135" x1="48.72" y1="106.76" x2="57.7" y2="106.76" xlink:href="#linear-gradient"/><linearGradient id="linear-gradient-136" x1="57.92" y1="130.03" x2="67.73" y2="130.03" xlink:href="#linear-gradient"/><linearGradient id="linear-gradient-137" x1="47.62" y1="132.65" x2="66.34" y2="132.65" xlink:href="#linear-gradient"/><linearGradient id="linear-gradient-138" x1="41.58" y1="109.69" x2="55.19" y2="109.69" xlink:href="#linear-gradient"/><linearGradient id="linear-gradient-139" x1="30.78" y1="110.57" x2="39.59" y2="110.57" xlink:href="#linear-gradient"/><linearGradient id="linear-gradient-140" x1="25.64" y1="119.26" x2="38.75" y2="119.26" xlink:href="#linear-gradient"/><linearGradient id="linear-gradient-141" x1="41.67" y1="133.99" x2="58.54" y2="133.99" xlink:href="#linear-gradient"/><linearGradient id="linear-gradient-142" x1="80.27" y1="127.79" x2="98.74" y2="127.79" xlink:href="#linear-gradient"/><linearGradient id="linear-gradient-143" x1="105.23" y1="107.95" x2="121.38" y2="107.95" xlink:href="#linear-gradient"/><linearGradient id="linear-gradient-144" x1="83.89" y1="132.29" x2="109.41" y2="132.29" xlink:href="#linear-gradient"/><linearGradient id="linear-gradient-145" x1="105.34" y1="116.05" x2="124.31" y2="116.05" xlink:href="#linear-gradient"/><linearGradient id="linear-gradient-146" x1="85" y1="139.58" x2="119.62" y2="139.58" xlink:href="#linear-gradient"/><linearGradient id="linear-gradient-147" x1="124.29" y1="134.36" x2="140.78" y2="134.36" xlink:href="#linear-gradient"/><linearGradient id="linear-gradient-148" x1="63.49" y1="130.82" x2="73.58" y2="130.82" xlink:href="#linear-gradient"/><linearGradient id="linear-gradient-149" x1="76.92" y1="130.89" x2="93.13" y2="130.89" xlink:href="#linear-gradient"/><linearGradient id="linear-gradient-150" x1="80.27" y1="136.23" x2="101.73" y2="136.23" xlink:href="#linear-gradient"/><linearGradient id="linear-gradient-151" x1="43.49" y1="138.94" x2="70.24" y2="138.94" xlink:href="#linear-gradient"/><linearGradient id="linear-gradient-152" x1="85.28" y1="143.23" x2="120.27" y2="143.23" xlink:href="#linear-gradient"/><linearGradient id="linear-gradient-153" x1="63.68" y1="141.11" x2="74.69" y2="141.11" xlink:href="#linear-gradient"/><linearGradient id="linear-gradient-154" x1="77.48" y1="142.4" x2="99.36" y2="142.4" xlink:href="#linear-gradient"/><linearGradient id="linear-gradient-155" x1="78.04" y1="114.64" x2="83.65" y2="114.64" xlink:href="#linear-gradient"/><linearGradient id="linear-gradient-156" x1="99.49" y1="127.84" x2="125.68" y2="127.84" xlink:href="#linear-gradient"/><linearGradient id="linear-gradient-157" x1="80.51" y1="145.48" x2="96.65" y2="145.48" xlink:href="#linear-gradient"/><linearGradient id="linear-gradient-158" x1="75.53" y1="136.24" x2="84.9" y2="136.24" xlink:href="#linear-gradient"/><linearGradient id="linear-gradient-159" x1="65.37" y1="130.4" x2="74.14" y2="130.4" xlink:href="#linear-gradient"/><linearGradient id="linear-gradient-160" x1="45.69" y1="147.61" x2="71.63" y2="147.61" xlink:href="#linear-gradient"/><linearGradient id="linear-gradient-161" x1="104.37" y1="200.15" x2="109.66" y2="200.15" xlink:href="#linear-gradient"/><linearGradient id="linear-gradient-162" x1="48.88" y1="205.34" x2="54.22" y2="205.34" xlink:href="#linear-gradient"/><linearGradient id="linear-gradient-163" x1="77.2" y1="147.05" x2="86.47" y2="147.05" xlink:href="#linear-gradient"/><linearGradient id="linear-gradient-164" x1="57.56" y1="154.7" x2="73.3" y2="154.7" xlink:href="#linear-gradient"/><linearGradient id="linear-gradient-165" x1="22.69" y1="380.51" x2="98.45" y2="380.51" xlink:href="#linear-gradient"/><linearGradient id="linear-gradient-166" x1="181.38" y1="387.25" x2="254.67" y2="387.25" xlink:href="#linear-gradient"/><linearGradient id="linear-gradient-167" x1="183.65" y1="396.61" x2="252.12" y2="396.61" xlink:href="#linear-gradient"/><linearGradient id="linear-gradient-168" x1="53.65" y1="390.79" x2="121.7" y2="390.79" xlink:href="#linear-gradient"/><linearGradient id="linear-gradient-169" x1="24.04" y1="413.74" x2="99.59" y2="413.74" xlink:href="#linear-gradient"/><linearGradient id="linear-gradient-170" x1="211.47" y1="415.99" x2="267" y2="415.99" xlink:href="#linear-gradient"/><linearGradient id="linear-gradient-171" x1="28.72" y1="432.32" x2="99.59" y2="432.32" xlink:href="#linear-gradient"/><linearGradient id="linear-gradient-172" x1="255.21" y1="411.95" x2="280.87" y2="411.95" xlink:href="#linear-gradient"/><linearGradient id="linear-gradient-173" x1="195.05" y1="433.36" x2="253.08" y2="433.36" xlink:href="#linear-gradient"/><linearGradient id="linear-gradient-174" x1="252.93" y1="483.36" x2="261.24" y2="483.36" xlink:href="#linear-gradient"/><linearGradient id="linear-gradient-175" x1="183.65" y1="461.95" x2="227.2" y2="461.95" xlink:href="#linear-gradient"/><linearGradient id="linear-gradient-176" x1="221.97" y1="517.1" x2="225.11" y2="517.1" xlink:href="#linear-gradient"/><linearGradient id="linear-gradient-177" x1="25.29" y1="405.75" x2="51.77" y2="405.75" xlink:href="#linear-gradient"/><linearGradient id="linear-gradient-178" x1="44.72" y1="430.53" x2="109.11" y2="430.53" xlink:href="#linear-gradient"/><linearGradient id="linear-gradient-179" x1="38.7" y1="476.84" x2="48.32" y2="476.84" xlink:href="#linear-gradient"/><linearGradient id="linear-gradient-180" x1="72.49" y1="458.29" x2="118.02" y2="458.29" xlink:href="#linear-gradient"/><linearGradient id="linear-gradient-181" x1="72.79" y1="512.49" x2="76.17" y2="512.49" xlink:href="#linear-gradient"/><linearGradient id="linear-gradient-182" x1="107.54" y1="476.48" x2="127.99" y2="476.48" xlink:href="#linear-gradient"/><linearGradient id="linear-gradient-183" x1="144.31" y1="468.2" x2="149.55" y2="468.2" xlink:href="#linear-gradient"/><linearGradient id="linear-gradient-184" x1="162.63" y1="474.51" x2="185.14" y2="474.51" xlink:href="#linear-gradient"/><linearGradient id="linear-gradient-185" x1="98.35" y1="533.67" x2="106.33" y2="533.67" xlink:href="#linear-gradient"/><linearGradient id="linear-gradient-186" x1="144.4" y1="540.57" x2="150.06" y2="540.57" xlink:href="#linear-gradient"/><linearGradient id="linear-gradient-187" x1="186.99" y1="526.38" x2="196.46" y2="526.38" xlink:href="#linear-gradient"/><linearGradient id="linear-gradient-188" x1="173.99" y1="414.07" x2="250.76" y2="414.07" xlink:href="#linear-gradient"/><linearGradient id="linear-gradient-189" x1="179.67" y1="442.33" x2="223.58" y2="442.33" xlink:href="#linear-gradient"/><linearGradient id="linear-gradient-190" x1="153.55" y1="471.71" x2="166.15" y2="471.71" xlink:href="#linear-gradient"/><linearGradient id="linear-gradient-191" x1="124.88" y1="482.29" x2="138.21" y2="482.29" xlink:href="#linear-gradient"/><linearGradient id="linear-gradient-192" x1="101.83" y1="445.39" x2="128.03" y2="445.39" xlink:href="#linear-gradient"/><linearGradient id="linear-gradient-193" x1="64.16" y1="404.77" x2="124.58" y2="404.77" xlink:href="#linear-gradient"/><linearGradient id="linear-gradient-194" x1="153.55" y1="422.11" x2="196.05" y2="422.11" xlink:href="#linear-gradient"/><linearGradient id="linear-gradient-195" x1="150.71" y1="439.32" x2="183.66" y2="439.32" xlink:href="#linear-gradient"/><linearGradient id="linear-gradient-196" x1="130.47" y1="443.78" x2="143.32" y2="443.78" xlink:href="#linear-gradient"/><linearGradient id="linear-gradient-197" x1="91.55" y1="420.8" x2="145.02" y2="420.8" xlink:href="#linear-gradient"/><linearGradient id="linear-gradient-198" x1="54.39" y1="468.43" x2="92.21" y2="468.43" xlink:href="#linear-gradient"/><linearGradient id="linear-gradient-199" x1="190.46" y1="483.64" x2="205.54" y2="483.64" xlink:href="#linear-gradient"/><linearGradient id="linear-gradient-200" x1="122.5" y1="591.41" x2="133.09" y2="591.41" xlink:href="#linear-gradient"/><linearGradient id="linear-gradient-201" x1="173.49" y1="603.21" x2="182.51" y2="603.21" xlink:href="#linear-gradient"/><linearGradient id="linear-gradient-202" x1="49.22" y1="452.79" x2="98.45" y2="452.79" xlink:href="#linear-gradient"/><linearGradient id="linear-gradient-203" x1="169.45" y1="451.48" x2="202.24" y2="451.48" xlink:href="#linear-gradient"/><linearGradient id="linear-gradient-204" x1="85.5" y1="413.52" x2="136.51" y2="413.52" xlink:href="#linear-gradient"/><linearGradient id="linear-gradient-205" x1="147.3" y1="446.23" x2="164.9" y2="446.23" xlink:href="#linear-gradient"/><linearGradient id="linear-gradient-206" x1="152.41" y1="402.57" x2="208.11" y2="402.57" xlink:href="#linear-gradient"/><linearGradient id="linear-gradient-207" x1="111.25" y1="341.17" x2="142.19" y2="341.17" xlink:href="#linear-gradient"/><linearGradient id="linear-gradient-208" x1="77.96" y1="344.11" x2="122.31" y2="344.11" xlink:href="#linear-gradient"/><linearGradient id="linear-gradient-209" x1="34.13" y1="368.08" x2="96.18" y2="368.08" xlink:href="#linear-gradient"/><linearGradient id="linear-gradient-210" x1="124.01" y1="296.98" x2="132.54" y2="296.98" xlink:href="#linear-gradient"/><linearGradient id="linear-gradient-211" x1="146.13" y1="286.77" x2="151.07" y2="286.77" xlink:href="#linear-gradient"/><linearGradient id="linear-gradient-212" x1="169.45" y1="297.03" x2="179.35" y2="297.03" xlink:href="#linear-gradient"/><linearGradient id="linear-gradient-213" x1="181.38" y1="307.11" x2="209.96" y2="307.11" xlink:href="#linear-gradient"/><linearGradient id="linear-gradient-214" x1="153.55" y1="340.86" x2="178.1" y2="340.86" xlink:href="#linear-gradient"/><linearGradient id="linear-gradient-215" x1="143.58" y1="345.59" x2="146.89" y2="345.59" xlink:href="#linear-gradient"/><linearGradient id="linear-gradient-216" x1="132.53" y1="355.56" x2="137.08" y2="355.56" xlink:href="#linear-gradient"/><linearGradient id="linear-gradient-217" x1="91.5" y1="310.4" x2="109.81" y2="310.4" xlink:href="#linear-gradient"/><linearGradient id="linear-gradient-218" x1="110.25" y1="356.93" x2="130.26" y2="356.93" xlink:href="#linear-gradient"/><linearGradient id="linear-gradient-219" x1="89.28" y1="362.16" x2="127.42" y2="362.16" xlink:href="#linear-gradient"/><linearGradient id="linear-gradient-220" x1="76.96" y1="316.26" x2="104.7" y2="316.26" xlink:href="#linear-gradient"/><linearGradient id="linear-gradient-221" x1="54.95" y1="318.02" x2="72.9" y2="318.02" xlink:href="#linear-gradient"/><linearGradient id="linear-gradient-222" x1="44.47" y1="335.39" x2="71.19" y2="335.39" xlink:href="#linear-gradient"/><linearGradient id="linear-gradient-223" x1="77.13" y1="364.85" x2="111.52" y2="364.85" xlink:href="#linear-gradient"/><linearGradient id="linear-gradient-224" x1="155.82" y1="352.45" x2="193.48" y2="352.45" xlink:href="#linear-gradient"/><linearGradient id="linear-gradient-225" x1="206.71" y1="312.78" x2="239.63" y2="312.78" xlink:href="#linear-gradient"/><linearGradient id="linear-gradient-226" x1="163.2" y1="361.44" x2="215.22" y2="361.44" xlink:href="#linear-gradient"/><linearGradient id="linear-gradient-227" x1="206.93" y1="328.97" x2="245.6" y2="328.97" xlink:href="#linear-gradient"/><linearGradient id="linear-gradient-228" x1="165.48" y1="376.03" x2="236.03" y2="376.03" xlink:href="#linear-gradient"/><linearGradient id="linear-gradient-229" x1="245.55" y1="365.59" x2="279.17" y2="365.59" xlink:href="#linear-gradient"/><linearGradient id="linear-gradient-230" x1="121.62" y1="358.52" x2="142.19" y2="358.52" xlink:href="#linear-gradient"/><linearGradient id="linear-gradient-231" x1="149" y1="358.64" x2="182.04" y2="358.64" xlink:href="#linear-gradient"/><linearGradient id="linear-gradient-232" x1="155.82" y1="369.32" x2="199.58" y2="369.32" xlink:href="#linear-gradient"/><linearGradient id="linear-gradient-233" x1="80.85" y1="374.74" x2="135.37" y2="374.74" xlink:href="#linear-gradient"/><linearGradient id="linear-gradient-234" x1="166.04" y1="383.31" x2="237.37" y2="383.31" xlink:href="#linear-gradient"/><linearGradient id="linear-gradient-235" x1="122" y1="379.09" x2="144.46" y2="379.09" xlink:href="#linear-gradient"/><linearGradient id="linear-gradient-236" x1="150.14" y1="381.67" x2="194.73" y2="381.67" xlink:href="#linear-gradient"/><linearGradient id="linear-gradient-237" x1="151.28" y1="326.16" x2="162.72" y2="326.16" xlink:href="#linear-gradient"/><linearGradient id="linear-gradient-238" x1="195" y1="352.55" x2="248.39" y2="352.55" xlink:href="#linear-gradient"/><linearGradient id="linear-gradient-239" x1="156.32" y1="387.82" x2="189.22" y2="387.82" xlink:href="#linear-gradient"/><linearGradient id="linear-gradient-240" x1="146.16" y1="369.35" x2="165.26" y2="369.35" xlink:href="#linear-gradient"/><linearGradient id="linear-gradient-241" x1="125.45" y1="357.66" x2="143.32" y2="357.66" xlink:href="#linear-gradient"/><linearGradient id="linear-gradient-242" x1="85.32" y1="392.08" x2="138.21" y2="392.08" xlink:href="#linear-gradient"/><linearGradient id="linear-gradient-243" x1="204.95" y1="497.14" x2="215.74" y2="497.14" xlink:href="#linear-gradient"/><linearGradient id="linear-gradient-244" x1="91.84" y1="507.51" x2="102.72" y2="507.51" xlink:href="#linear-gradient"/><linearGradient id="linear-gradient-245" x1="149.57" y1="390.97" x2="168.47" y2="390.97" xlink:href="#linear-gradient"/><linearGradient id="linear-gradient-246" x1="109.52" y1="406.26" x2="141.62" y2="406.26" xlink:href="#linear-gradient"/></defs><title>card-3-0</title><g id="card-3-0-lines"><circle cx="217.76" cy="54.65" r="10" fill="#f8a3b0"/><circle cx="73.19" cy="81.67" r="10" fill="#f8a3b0"/><circle cx="11.69" cy="15.55" r="10" fill="#f8a3b0"/><circle cx="30.15" cy="261.21" r="10" fill="#f8a3b0"/><circle cx="72.69" cy="261.21" r="10" fill="#fbb040"/><circle cx="350.94" cy="10.42" r="10" fill="#b1d5f1"/><circle cx="378.65" cy="162.55" r="10" fill="#b1d5f1"/><circle cx="228.19" cy="135.21" r="10" fill="#b1d5f1"/><circle cx="425.48" cy="177.88" r="10" fill="#fbb040"/><circle cx="337.64" cy="210.73" r="10" fill="#fbb040"/><circle cx="322.98" cy="156.88" r="10" fill="#fbb040"/><circle cx="180.52" cy="118.88" r="10" fill="#fbb040"/><circle cx="50.15" cy="45.55" r="10" fill="#fbb040"/><circle cx="252.73" cy="234.55" r="10" fill="#f8a3b0"/><circle cx="274.4" cy="149.88" r="10" fill="#f8a3b0"/><circle cx="296.4" cy="223.21" r="10" fill="#b1d5f1"/><circle cx="160.52" cy="252.21" r="10" fill="#b1d5f1"/><circle cx="263.4" cy="41.88" r="10" fill="#fbb040"/><circle cx="25.98" cy="81.21" r="10" fill="#aec63f"/><circle cx="381.65" cy="195.55" r="10" fill="#aec63f"/><circle cx="116.77" cy="258.55" r="10" fill="#aec63f"/><circle cx="136.77" cy="100.21" r="10" fill="#aec63f"/><circle cx="169.52" cy="66.88" r="10" fill="#aec63f"/><circle cx="311.19" cy="23.21" r="10" fill="#aec63f"/><circle cx="206.9" cy="244.55" r="10" fill="#fbb040"/><circle cx="119.44" cy="76.21" r="10" fill="#fbb040"/><path d="M0,59.16S103.27,79.68,317.62,0" fill="none" stroke="#d1d3d4" stroke-miterlimit="10" stroke-width="5"/><path d="M0,243.66s206,22.27,444-91.23" fill="none" stroke="#d1d3d4" stroke-miterlimit="10" stroke-width="5"/><path d="M444,140.92S232.15,183.08,22.8,0" fill="none" stroke="#d1d3d4" stroke-miterlimit="10" stroke-width="5"/><circle cx="225.69" cy="611.77" r="10" fill="#f8a3b0"/><circle cx="370.26" cy="584.74" r="10" fill="#f8a3b0"/><circle cx="431.76" cy="650.87" r="10" fill="#f8a3b0"/><circle cx="92.51" cy="656" r="10" fill="#b1d5f1"/><circle cx="64.8" cy="503.87" r="10" fill="#b1d5f1"/><circle cx="215.26" cy="531.2" r="10" fill="#b1d5f1"/><circle cx="19.97" cy="503.54" r="10" fill="#fbb040"/><circle cx="120.47" cy="509.54" r="10" fill="#fbb040"/><circle cx="262.92" cy="547.54" r="10" fill="#fbb040"/><circle cx="393.3" cy="620.87" r="10" fill="#fbb040"/><circle cx="169.05" cy="516.54" r="10" fill="#f8a3b0"/><circle cx="180.05" cy="624.54" r="10" fill="#fbb040"/><circle cx="417.47" cy="585.2" r="10" fill="#aec63f"/><circle cx="306.67" cy="566.2" r="10" fill="#aec63f"/><circle cx="273.92" cy="599.54" r="10" fill="#aec63f"/><circle cx="132.26" cy="643.2" r="10" fill="#aec63f"/><circle cx="324.01" cy="590.2" r="10" fill="#fbb040"/><path d="M444,606.84S340.73,586.32,126.38,666" fill="none" stroke="#d1d3d4" stroke-miterlimit="10" stroke-width="5"/><path d="M0,525.08S211.85,482.92,421.2,666" fill="none" stroke="#d1d3d4" stroke-miterlimit="10" stroke-width="5"/></g><g id="card-3-0-fireworks"><g id="card-3-0-firework-2"><g opacity="0.8"><path d="M318.68,298c-9.62-2.9-26.11-8-32.3-8s-15.81,4.35-13.06,5.07,9.62-3.62,17.87-2.17S318.68,298,318.68,298Z" opacity="0.5" fill="url(#linear-gradient)"/><path d="M368.85,301.26c3.09-2.17,22-6.52,29.89-6.16s14.09,3.63,14.43,4.71-3.78.72-8.59-.72-16.86-.33-25.08.36C370.91,300.18,368.85,301.26,368.85,301.26Z" fill="url(#linear-gradient-2)"/><path d="M370.22,302c2.06-.73,27.15-1.81,33,0s10,3.62,7.9,4.71-5.15-2.54-15.8-3.26S370.22,302,370.22,302Z" fill="url(#linear-gradient-3)"/><path d="M332.75,300.81c-2-.86-27-3.52-32.92-2.08-3.51.85-10.44,3.38-7.57,3.67,2,.2,6.84-1.67,15.37-2.63C318.24,298.57,332.75,300.81,332.75,300.81Z" fill="url(#linear-gradient-4)"/><path d="M319.37,304.05c-4.12-2.18-50.16,20.29-45.36,21s9.62-5.8,19.24-8.7S319.37,304.05,319.37,304.05Z" opacity="0.5" fill="url(#linear-gradient-5)"/><path d="M387.06,305.5c5.5,0,28.52,8,31.27,13s3.44,10.15,0,6.52-6.19-10.15-14.43-12.32S387.06,305.5,387.06,305.5Z" opacity="0.5" fill="url(#linear-gradient-6)"/><path d="M319.37,310.57c-3.44-.36-23,11.6-29.55,17S274,341.38,277.1,341.38s15.12-14.5,24.74-20.66S319.37,310.57,319.37,310.57Z" opacity="0.1" fill="url(#linear-gradient-7)"/><path d="M413.52,307.67a50.21,50.21,0,0,1,9.62,6.53c2.41,2.17,3.09,6.52,5.15,4.35s-.35-5.44-4.47-7.61A42.48,42.48,0,0,0,413.52,307.67Z" fill="url(#linear-gradient-8)"/><path d="M403.9,325.79c3.78,3.38,4.81,6.53,6.87,9.79s1.72,4.35.35,3.26-1.38-4-8.59-10.15S380.88,316,377.44,314.2,399.8,322.14,403.9,325.79Z" opacity="0.5" fill="url(#linear-gradient-9)"/><path d="M412.14,346.45c.35,3.62,1.72,9.78,1.72,14.13s.34,9.06,1.72,7.61,2.4-10.15.69-14.13A55,55,0,0,0,412.14,346.45Z" opacity="0.3" fill="url(#linear-gradient-10)"/><path d="M370.22,324c2.06,2.54,14.77,14.86,21,24.64,5.27,8.34,5.84,13.41,5.15,15.58s-5.84-8-6.18-11.23-7.57-14.51-11.35-18.5S370.22,324,370.22,324Z" fill="url(#linear-gradient-11)"/><path d="M394.27,370c-.69,4.35-1.37,12.68-.34,15.58s1.38-1.45,1.38-5.8A63.11,63.11,0,0,0,394.27,370Z" fill="url(#linear-gradient-12)"/><path d="M290.44,304.29a49.76,49.76,0,0,0-10,5.9c-2.52,2-3.46,6.32-5.39,4s.65-5.4,4.89-7.31A42.15,42.15,0,0,1,290.44,304.29Z" opacity="0.1" fill="url(#linear-gradient-13)"/><path d="M295.92,324.5c-3.68,4.12-5.86,6.16-8.1,9.29s-2,4.23-.53,3.23,4.12-5.91,11.68-11.6,22.33-11.3,25.86-12.88S299.59,320.38,295.92,324.5Z" fill="url(#linear-gradient-14)"/><path d="M288.35,342.54c-.55,3.6-2.27,9.66-2.52,14s-.86,9-2.15,7.49-1.83-10.28.12-14.15A55.12,55.12,0,0,1,288.35,342.54Z" opacity="0.1" fill="url(#linear-gradient-15)"/><path d="M330.52,322.39c-2.2,2.4-14.64,14.26-21.37,23.64-5.74,8-6.59,13-6,15.23s6.29-7.59,6.81-10.83,8.37-14,12.38-17.75S330.52,322.39,330.52,322.39Z" fill="url(#linear-gradient-16)"/><path d="M304.85,367.18c.44,4.38.65,12.74-.54,15.57s-1.29-1.54-1-5.88A63.15,63.15,0,0,1,304.85,367.18Z" fill="url(#linear-gradient-17)"/><path d="M336.55,329.42c-1.72,4.35-10,23.55-11.34,30.44s-1.38,15.58,0,17,1-11.6,3.78-20.66S336.55,329.42,336.55,329.42Z" opacity="0.5" fill="url(#linear-gradient-18)"/><path d="M347.54,328a57.77,57.77,0,0,0-1,14.86c.34,6.89-.69,28.63,1.72,25s1-17.39.35-28.26S347.54,328,347.54,328Z" fill="url(#linear-gradient-19)"/><path d="M357.51,327.61c1,1.81,7.9,21,9.28,30.07s1.37,16.31,3.09,18.48,1.72-13-.34-19.93-2.75-10.15-4.47-14.13S357.51,327.61,357.51,327.61Z" opacity="0.5" fill="url(#linear-gradient-20)"/><path d="M323.45,376.35c-.68,2.54-5.15,10.15-4.81,15.22s1.72,10.51,2.4,8.7,0-5.08.35-9.42S323.45,376.35,323.45,376.35Z" fill="url(#linear-gradient-21)"/><path d="M347.85,378.16a115.67,115.67,0,0,1-1,16.31c-1.05,6.44.6,14.06,1.72,12.68,1.24-1.52,1.37-10.87,1.37-13S347.85,378.16,347.85,378.16Z" fill="url(#linear-gradient-22)"/><path d="M372.24,373.09c.34,2.54,1.72,6.16,2.06,10.87s-1,11.6,2.06,10.87,1-9.79-.34-13S372.24,373.09,372.24,373.09Z" fill="url(#linear-gradient-23)"/><path d="M364.38,306.95c5.49-1.09,32.64,4.35,37.11,8s10,5.07,9.28,7.25-4.81-4-19.24-7.61S364.38,306.95,364.38,306.95Z" fill="url(#linear-gradient-24)"/><path d="M367.81,316.37c2.41,1.09,11,6.52,15.12,11.24s10.31,12.68,11,15.58.69,5.8-.69,4.35-8.59-13.41-13.06-18.48S367.81,316.37,367.81,316.37Z" opacity="0.7" fill="url(#linear-gradient-25)"/><path d="M352,324c2.06,5.44,7.22,36.24,7.56,42.4s-.69,10.51-2.06,10.15-4.12-32.25-4.81-37.69S352,324,352,324Z" opacity="0.5" fill="url(#linear-gradient-26)"/><path d="M342.74,333.77c-2.06,3.62-5.16,31.17-5.16,37s-.34,10.51-2.4,8.7,2.75-25.73,3.78-35.51S342.74,333.77,342.74,333.77Z" fill="url(#linear-gradient-27)"/><path d="M324.18,344.64c-.34,2.17-3.78,10.87-3.43,4s12.93-29.38,14.77-31.16c3.26-3.15-1.72,6.16-5.5,14.49S324.18,344.64,324.18,344.64Z" opacity="0.8" fill="url(#linear-gradient-28)"/><path d="M334.49,303.33c-1.72-1.45-23.71,2.54-29.21,4.35s-8.59,6.89-6.87,7.25,7.9-5.07,17.18-6.89S334.49,303.33,334.49,303.33Z" opacity="0.8" fill="url(#linear-gradient-29)"/><path d="M352,308c4.12.37,16.15,2.9,19.59,9.06s7.22,13,5.84,14.13-5.84-9.06-8.59-12.68S352,308,352,308Z" opacity="0.8" fill="url(#linear-gradient-30)"/><path d="M350.29,311.3c3.43,1.45,17.87,23.19,19.24,29.72s.34,10.15,0,7.25-10.65-19.21-13.06-23.92S350.29,311.3,350.29,311.3Z" fill="url(#linear-gradient-31)"/><path d="M345.83,310.57c-1.72,4.71-5.15,33.34-5.15,38.41s-1,8.34-1.37,5.44S336.9,339.2,339,333,345.83,310.57,345.83,310.57Z" fill="url(#linear-gradient-32)"/><path d="M346.86,308c-1.61,0-20.71,10.21-24.39,16.31-2.4,4-6.87,6.16-7.9,5.07s12.46-12.5,15.8-14.86C334.32,311.77,346.86,308,346.86,308Z" opacity="0.8" fill="url(#linear-gradient-33)"/><path d="M295,362.75c-2.4,1.82-3.78,2.18-2.4-.72s10.37-16.65,14.43-21.74a50.37,50.37,0,0,1,7.9-8s-11,12.68-13.4,17.39S295,362.75,295,362.75Z" fill="url(#linear-gradient-34)"/><path d="M374.35,338.48c2.06,4,6.18,21.38,6.87,27.9s-.34,12.32,1.72,9.79-2.41-19.21-4.12-24.28S374.35,338.48,374.35,338.48Z" fill="url(#linear-gradient-35)"/><g opacity="0.3"><path d="M333.8,407.44c-1.37,5.8,0,14.49,1.37,19.57s.69,16.67,3.44,13-.69-13-2.75-19.57A48.92,48.92,0,0,1,333.8,407.44Z" fill="url(#linear-gradient-36)"/></g><path d="M368.16,415.41c.69,4.35.69,13.77-.69,17.39s-5.5,13.77-2.06,14.49,4.13-13.77,4.13-19.57A70,70,0,0,0,368.16,415.41Z" opacity="0.3" fill="url(#linear-gradient-37)"/><path d="M318.68,319.38c-2.4,1.45-8.93,8-13.05,11.23S295,342.21,292.57,347.29s-5.15,10.87-2.75,10.51,5.84-9.78,8.24-14.86S318.68,319.38,318.68,319.38Z" opacity="0.5" fill="url(#linear-gradient-38)"/><path d="M361.63,321.19c1.72,1.45,11.34,13,15.12,20.66s3.09,13.77,4.47,12.32-3.09-15.58-8.59-22.83S361.63,321.19,361.63,321.19Z" fill="url(#linear-gradient-39)"/><path d="M341.7,305.61c-2.4,0-17.52.5-22.34,5s-11.34,15-7.22,12.07,6.53-9.42,11-11.59S341.7,305.61,341.7,305.61Z" opacity="0.7" fill="url(#linear-gradient-40)"/><path d="M348.23,310c1,2.18,10.65,30.81,10.65,39.14s-1.72,12-2.4,9.06-3.09-22.83-5.15-31.89S348.23,310,348.23,310Z" opacity="0.7" fill="url(#linear-gradient-41)"/><path d="M351.32,304.89c4.75-2.23,23-3.47,27.49,0,3.78,2.9,7.9,8,5.49,7.61s-6.53-6.16-13.74-6.88S351.32,304.89,351.32,304.89Z" opacity="0.8" fill="url(#linear-gradient-42)"/><path d="M345.14,285.8c-1.37-4.68-11-22.71-14.43-26.05s-5.84-6.35-3.09-6,9.28,10,11.68,16S345.14,285.8,345.14,285.8Z" opacity="0.5" fill="url(#linear-gradient-43)"/><path d="M333.11,286.46c-2.06-2.68-15.12-20.71-20.61-24s-8.25-4.68-4.47-5.68,14.09,9.69,16.84,15S333.11,286.46,333.11,286.46Z" opacity="0.5" fill="url(#linear-gradient-44)"/><path d="M317.31,292.47c-3.43-1.34-18.56-10-24.39-11s-14.09-2-13.06-.33,9.28.67,16.15,3S317.31,292.47,317.31,292.47Z" fill="url(#linear-gradient-45)"/><path d="M339.3,252.4c-1-7.35-3.78-14-4.47-16.36s-1.38-4.68.69-2.67,1.84,4.27,2.87,8.28S339.3,252.4,339.3,252.4Z" fill="url(#linear-gradient-46)"/><path d="M347.54,244c0-2.34-.34-15.7,1.72-15.7s1,5.68.69,7.35S347.54,244,347.54,244Z" opacity="0.1" fill="url(#linear-gradient-47)"/><path d="M361.63,248.72c.69-2.67,4.12-13,5.5-12.36s-.35,5.34-2.41,8.35A29.56,29.56,0,0,1,361.63,248.72Z" opacity="0.3" fill="url(#linear-gradient-48)"/><path d="M368.85,256.07c1.92-2.8,9.65-12.9,12-13.36,3.43-.67,5.84-2.34,5.15-.33s-3.43,2-6.87,4.67S368.85,256.07,368.85,256.07Z" fill="url(#linear-gradient-49)"/><path d="M352,286.8c1.38-3,2.75-13,7.22-22.71s8.24-13,7.56-11.35-5.5,10.35-7.56,15.69S352,286.8,352,286.8Z" fill="url(#linear-gradient-50)"/><path d="M346.51,291.81c0-5.68.34-22.71-.34-29.06s.68-11.35,1-9,1,19,.69,26A87.21,87.21,0,0,1,346.51,291.81Z" opacity="0.8" fill="url(#linear-gradient-51)"/><path d="M339.3,260.08c0-2,.69-4.34,1.37-2S342,284.79,342,289.13s-.34,11-.34,11S340,278.45,340,272.77,339.3,260.08,339.3,260.08Z" fill="url(#linear-gradient-52)"/><path d="M325.55,259.41c-.69-4-2.4-11.36-5.15-13.69s-6.53-4.68-5.84-3,4.12,4.34,6.19,7.68S325.55,259.41,325.55,259.41Z" opacity="0.3" fill="url(#linear-gradient-53)"/><path d="M330.36,270.76c-1-2.67-5.15-7.68-4.47-9.35s5.15,4.34,6.53,10.35,2.06,3.34,3.43,13,2.06,13,2.06,13-3.78-15.36-4.81-18.7S330.36,270.76,330.36,270.76Z" fill="url(#linear-gradient-54)"/><path d="M336.21,300.49c-2.06-4.67-3.78-9.69-9.28-18s-12.72-19-13.74-17.37,12,19,14.77,23.38S336.21,300.49,336.21,300.49Z" fill="url(#linear-gradient-55)"/><path d="M314.9,254.93a56.53,56.53,0,0,0,7.56,6.68c-2.75-5.34-10.31-14-13.4-14.36s-4.47.67-2.4,1.67Z" opacity="0.3" fill="url(#linear-gradient-56)"/><path d="M303.22,257.48a30.1,30.1,0,0,0-7.9-1.34c-2.75,0-4.12-2.67-1.72-2.67a24,24,0,0,1,6.53,1.34C301.16,255.14,303.22,257.48,303.22,257.48Z" fill="url(#linear-gradient-57)"/><path d="M302.19,270.76c-2.06-4.34-7.56-9.35-11-9s-6.18-1-4.81,1,4.13,1.67,7.56,3S302.19,270.76,302.19,270.76Z" opacity="0.5" fill="url(#linear-gradient-58)"/><g opacity="0.8"><path d="M306.31,274.77c-.69-2-1-3.34,1-2s12,12.69,15.12,17a43.55,43.55,0,0,1,4.12,6.68s-9.62-11.36-12.37-14Z" fill="url(#linear-gradient-59)"/></g><path d="M353.39,294.14c3.09-4.34,13.06-26.72,15.8-28.72s5.84-7,6.87-6-5.5,8.35-8.59,11.69-10.31,18.72-11,19.39S353.39,294.14,353.39,294.14Z" opacity="0.8" fill="url(#linear-gradient-60)"/><path d="M384.18,258.25c2.38-1.89,11.76-7,14.22-8.57s8.16-2.81,4.5-3.38-10.35,4-13.48,5.68S384.18,258.25,384.18,258.25Z" opacity="0.1" fill="url(#linear-gradient-61)"/><path d="M357.85,297.82c5.15-6,20.74-22.49,23.36-25,4.12-4,6.53-7.68,7.9-5.34s-4.47,4.34-7.56,8.35a66.4,66.4,0,0,1-9.62,9.35C367.81,288.47,357.85,297.82,357.85,297.82Z" opacity="0.8" fill="url(#linear-gradient-62)"/><path d="M384.31,266.76c1.38-2.34,13.06-7.35,16.84-8.35s6.87-1,6.53.33-1,1-10,3.34A70,70,0,0,0,384.31,266.76Z" opacity="0.5" fill="url(#linear-gradient-63)"/><path d="M359.23,301.16c2.75-3,21.3-15.36,27.49-17s14.09-3.67,15.12-2.34-7.9,3-15.8,5.34S359.23,301.16,359.23,301.16Z" opacity="0.5" fill="url(#linear-gradient-64)"/><path d="M407.67,281.79c3.09,0,8.25,1.67,12.37,3.68s6.87,4.67,7.9,2.67-10.31-7.35-14.08-7.35A17.49,17.49,0,0,0,407.67,281.79Z" opacity="0.3" fill="url(#linear-gradient-65)"/><path d="M345.14,298.15c-.35-5-4.47-17.37-6.19-21.38s-7.9-14-5.84-14,9.28,17,10.31,22S345.14,298.15,345.14,298.15Z" fill="url(#linear-gradient-66)"/><path d="M349.26,296.82c.69-4.34,8.68-23.44,12.37-28.05,2.4-3,5.5-6.35,7.56-3.34.85,1.24-8.25,6-10,9.69C357.37,279.07,349.26,296.82,349.26,296.82Z" fill="url(#linear-gradient-67)"/><path d="M353.39,300.82c2.06-3.34,12.33-19.63,17.18-23.71,5.16-4.34,9.62-4.34,9.28-2.67s-5.5,3.34-7.56,5.34c-1.31,1.27-6.87,6-10,10S353.39,300.82,353.39,300.82Z" opacity="0.7" fill="url(#linear-gradient-68)"/><path d="M341,301.83s-15.12-18.7-22.34-20.37S308,278.11,308,279.78s6.53,2.34,10.65,4.35a57.63,57.63,0,0,1,13.4,10A88.92,88.92,0,0,0,341,301.83Z" opacity="0.8" fill="url(#linear-gradient-69)"/><path d="M359.57,301.49c7.22-7.68,26.8-12.36,31.27-11.36s10,.34,11.68,2.67-7.9.33-11.34.33-15.12,1-19.24,2.34S359.57,301.49,359.57,301.49Z" opacity="0.8" fill="url(#linear-gradient-70)"/><path d="M346.51,304.5c0-2.34-12.37-16-13.06-19.71s-1-3.34,1-2.34,10,13,10.65,15.36S346.51,304.5,346.51,304.5Z" opacity="0.8" fill="url(#linear-gradient-71)"/><path d="M350,302.49c0-2.34,13.4-13.36,19.59-14.7s8.93-1,6.53.67-9.62,2.34-13.4,4.34S350,302.49,350,302.49Z" fill="url(#linear-gradient-72)"/><path d="M350.64,281.79c0-6.68,3.09-32.4,4.47-36.74s2.75-8,2.4-4.34-4.47,22.38-4.81,26.05-1.72,14-1.72,14Z" opacity="0.8" fill="url(#linear-gradient-73)"/><path d="M377.09,285.8c3.09-3,17.87-14.36,23-16.37s13.06-2.34,7.22-.33a81.62,81.62,0,0,0-13.06,5.68C390.49,276.78,377.09,285.8,377.09,285.8Z" opacity="0.8" fill="url(#linear-gradient-74)"/><path d="M353.69,302.67c2.47-2.41,9.07-6.41,13.19-5.21s5.77,6.81,6.6,4-2.89-8.42-8.66-6.81S353.69,302.67,353.69,302.67Z" fill="url(#linear-gradient-75)"/><path d="M347.54,295.82c0-3,4.12-17.37,8.59-17.37s3.09,1,1,2-4.47,4-6.53,8A50.57,50.57,0,0,0,347.54,295.82Z" fill="url(#linear-gradient-76)"/><path d="M345.83,284.79c-.69-3.67-3.09-9.35-6.53-9.68s-5.84,1-3.09,1.33S345.83,284.79,345.83,284.79Z" opacity="0.7" fill="url(#linear-gradient-77)"/><path d="M342.74,305.5s-8.53-9-16.84-8.68c-7.9.33-17.18,4-14.77,4.67s16.15-2.34,19.93-1.34S342.74,305.5,342.74,305.5Z" opacity="0.7" fill="url(#linear-gradient-78)"/><path d="M383.11,346.2c2.06,5.8,5.5,15.22,4.47,22.47s-.34,17,1.37,17-.35-5.8,0-15.22,0-13-1.72-16.67S383.11,346.2,383.11,346.2Z" opacity="0.1" fill="url(#linear-gradient-79)"/><path d="M321.26,355.26c-2.06,3.63-4.12,19.57-4.12,25.37s-1.72,10.87-1.72,8-2.06-8.34.69-20.29S321.26,355.26,321.26,355.26Z" opacity="0.3" fill="url(#linear-gradient-80)"/><path d="M349.61,306c.35-1.81,5.84-7.25,8.94-8.34s3.43-3.26.34-2.54-5.84,3.26-7.56,6.16A10.38,10.38,0,0,0,349.61,306Z" fill="url(#linear-gradient-81)"/><path d="M344.79,305.25c-2.06-.72-12,1.45-14.43,4s-6.87,5.07-4.12,5.43,6.18-4,8.93-5.8S344.79,305.25,344.79,305.25Z" fill="url(#linear-gradient-82)"/></g></g><g id="card-3-0-firework-1"><g opacity="0.8"><path d="M52.13,145.06c-7.8-2.35-21.17-6.47-26.19-6.47s-12.82,3.52-10.59,4.11,7.8-2.94,14.49-1.76S52.13,145.06,52.13,145.06Z" opacity="0.5" fill="url(#linear-gradient-83)"/><path d="M92.8,147.7c2.51-1.76,17.83-5.29,24.24-5s11.42,2.94,11.7,3.82-3.07.59-7-.59-13.67-.27-20.34.3C94.48,146.82,92.8,147.7,92.8,147.7Z" fill="url(#linear-gradient-84)"/><path d="M93.92,148.29c1.67-.59,22-1.47,26.75,0s8.08,2.94,6.41,3.82-4.18-2.06-12.82-2.64S93.92,148.29,93.92,148.29Z" fill="url(#linear-gradient-85)"/><path d="M63.53,147.33c-1.63-.69-21.89-2.86-26.7-1.69-2.85.69-8.47,2.74-6.14,3,1.61.16,5.55-1.36,12.46-2.13C51.77,145.52,63.53,147.33,63.53,147.33Z" fill="url(#linear-gradient-86)"/><path d="M52.68,150C49.34,148.2,12,166.41,15.91,167s7.8-4.7,15.6-7.05S52.68,150,52.68,150Z" opacity="0.5" fill="url(#linear-gradient-87)"/><path d="M107.57,151.13c4.46,0,23.13,6.46,25.35,10.58s2.79,8.23,0,5.29-5-8.23-11.7-10A63.58,63.58,0,0,1,107.57,151.13Z" opacity="0.5" fill="url(#linear-gradient-88)"/><path d="M52.68,155.25c-2.79-.29-18.67,9.4-24,13.81s-12.82,11.16-10.31,11.16,12.26-11.75,20.06-16.75S52.68,155.25,52.68,155.25Z" opacity="0.1" fill="url(#linear-gradient-89)"/><path d="M129,152.9a40.72,40.72,0,0,1,7.8,5.29c2,1.76,2.51,5.29,4.18,3.52s-.28-4.41-3.62-6.17A34.45,34.45,0,0,0,129,152.9Z" fill="url(#linear-gradient-90)"/><path d="M121.22,167.59c3.06,2.74,3.9,5.29,5.57,7.94s1.39,3.53.28,2.64-1.12-3.23-7-8.23-17.55-10.28-20.34-11.75S117.9,164.63,121.22,167.59Z" opacity="0.5" fill="url(#linear-gradient-91)"/><path d="M127.91,184.34c.28,2.94,1.4,7.93,1.4,11.46s.28,7.35,1.39,6.17,1.95-8.23.56-11.46A44.62,44.62,0,0,0,127.91,184.34Z" opacity="0.3" fill="url(#linear-gradient-92)"/><path d="M93.92,166.12c1.67,2.06,12,12,17,20,4.27,6.76,4.74,10.87,4.18,12.63s-4.74-6.46-5-9.11-6.13-11.77-9.2-15S93.92,166.12,93.92,166.12Z" fill="url(#linear-gradient-93)"/><path d="M113.42,203.43c-.56,3.53-1.11,10.29-.28,12.64s1.12-1.18,1.12-4.7A51.17,51.17,0,0,0,113.42,203.43Z" fill="url(#linear-gradient-94)"/><path d="M29.23,150.16a40.35,40.35,0,0,0-8.09,4.79c-2,1.64-2.8,5.12-4.37,3.26s.53-4.38,4-5.93A34.18,34.18,0,0,1,29.23,150.16Z" opacity="0.1" fill="url(#linear-gradient-95)"/><path d="M33.67,166.54a95.64,95.64,0,0,0-6.57,7.53c-1.82,2.53-1.59,3.43-.43,2.62s3.34-4.79,9.47-9.41,18.1-9.16,21-10.45S36.65,163.2,33.67,166.54Z" fill="url(#linear-gradient-96)"/><path d="M27.54,181.17c-.44,2.92-1.84,7.83-2,11.35s-.69,7.31-1.74,6.07-1.48-8.34.09-11.48A44.69,44.69,0,0,1,27.54,181.17Z" opacity="0.1" fill="url(#linear-gradient-97)"/><path d="M61.73,164.83C59.94,166.78,49.86,176.4,44.4,184c-4.65,6.48-5.35,10.55-4.89,12.35s5.1-6.15,5.52-8.78,6.79-11.36,10-14.4A53.55,53.55,0,0,0,61.73,164.83Z" fill="url(#linear-gradient-98)"/><path d="M40.91,201.15c.36,3.55.53,10.33-.44,12.63s-1-1.24-.85-4.76A51.21,51.21,0,0,1,40.91,201.15Z" fill="url(#linear-gradient-99)"/><path d="M66.62,170.53c-1.39,3.53-8.08,19.1-9.19,24.68s-1.12,12.63,0,13.81.84-9.41,3.07-16.75S66.62,170.53,66.62,170.53Z" opacity="0.5" fill="url(#linear-gradient-100)"/><path d="M75.53,169.35a46.84,46.84,0,0,0-.84,12c.28,5.59-.56,23.21,1.39,20.28s.84-14.1.28-22.92S75.53,169.35,75.53,169.35Z" fill="url(#linear-gradient-101)"/><path d="M83.61,169.06c.84,1.47,6.41,17,7.52,24.39s1.11,13.22,2.51,15,1.4-10.58-.28-16.16-2.23-8.23-3.62-11.46S83.61,169.06,83.61,169.06Z" opacity="0.5" fill="url(#linear-gradient-102)"/><path d="M56,208.58c-.55,2.06-4.18,8.23-3.9,12.34S53.48,229.44,54,228s0-4.12.28-7.64S56,208.58,56,208.58Z" fill="url(#linear-gradient-103)"/><path d="M75.78,210.05a93.79,93.79,0,0,1-.84,13.22c-.85,5.22.48,11.4,1.4,10.28s1.11-8.82,1.11-10.58S75.78,210.05,75.78,210.05Z" fill="url(#linear-gradient-104)"/><path d="M95.56,205.94c.28,2.06,1.39,5,1.67,8.82s-.84,9.4,1.67,8.82.84-7.94-.28-10.58S95.56,205.94,95.56,205.94Z" fill="url(#linear-gradient-105)"/><path d="M89.18,152.31c4.45-.88,26.47,3.53,30.09,6.47s8.08,4.11,7.52,5.88-3.9-3.23-15.6-6.17S89.18,152.31,89.18,152.31Z" fill="url(#linear-gradient-106)"/><path d="M92,159.95c2,.88,8.92,5.29,12.26,9.11s8.36,10.28,8.91,12.63.56,4.7-.56,3.53-7-10.87-10.59-15S92,159.95,92,159.95Z" opacity="0.7" fill="url(#linear-gradient-107)"/><path d="M79.15,166.12c1.67,4.41,5.85,29.38,6.13,34.38s-.56,8.52-1.67,8.23-3.34-26.15-3.9-30.56S79.15,166.12,79.15,166.12Z" opacity="0.5" fill="url(#linear-gradient-108)"/><path d="M71.63,174.05C70,177,67.45,199.32,67.45,204s-.28,8.52-1.95,7.05,2.23-20.86,3.07-28.8S71.63,174.05,71.63,174.05Z" fill="url(#linear-gradient-109)"/><path d="M56.58,182.87c-.28,1.76-3.06,8.81-2.78,3.23s10.48-23.82,12-25.27c2.65-2.55-1.39,5-4.46,11.75S56.58,182.87,56.58,182.87Z" opacity="0.8" fill="url(#linear-gradient-110)"/><path d="M64.94,149.37c-1.39-1.17-19.22,2.06-23.68,3.52s-7,5.59-5.57,5.88,6.41-4.11,13.93-5.59S64.94,149.37,64.94,149.37Z" opacity="0.8" fill="url(#linear-gradient-111)"/><path d="M79.15,153.19c3.34.3,13.09,2.35,15.88,7.35s5.85,10.58,4.74,11.46-4.74-7.35-7-10.28S79.15,153.19,79.15,153.19Z" opacity="0.8" fill="url(#linear-gradient-112)"/><path d="M77.76,155.84c2.79,1.17,14.49,18.8,15.6,24.09s.28,8.23,0,5.88-8.64-15.57-10.59-19.39S77.76,155.84,77.76,155.84Z" fill="url(#linear-gradient-113)"/><path d="M74.14,155.25c-1.39,3.82-4.18,27-4.18,31.15s-.84,6.76-1.11,4.41-1.95-12.34-.28-17.34S74.14,155.25,74.14,155.25Z" fill="url(#linear-gradient-114)"/><path d="M75,153.19c-1.31,0-16.8,8.28-19.78,13.22-1.95,3.23-5.57,5-6.41,4.11s10.11-10.14,12.82-12C64.8,156.22,75,153.19,75,153.19Z" opacity="0.8" fill="url(#linear-gradient-115)"/><path d="M32.9,197.56C31,199,29.84,199.32,31,197a178.57,178.57,0,0,1,11.7-17.63,40.84,40.84,0,0,1,6.41-6.46S40.15,183.16,38.2,187,32.9,197.56,32.9,197.56Z" fill="url(#linear-gradient-116)"/><path d="M97.26,177.87c1.67,3.23,5,17.34,5.57,22.62s-.28,10,1.39,7.94-2-15.57-3.34-19.69S97.26,177.87,97.26,177.87Z" fill="url(#linear-gradient-117)"/><g opacity="0.3"><path d="M64.38,233.79c-1.11,4.7,0,11.75,1.11,15.87s.56,13.52,2.79,10.58-.56-10.58-2.23-15.87A39.67,39.67,0,0,1,64.38,233.79Z" fill="url(#linear-gradient-118)"/></g><path d="M92.25,240.26c.56,3.53.56,11.16-.56,14.1S87.23,265.53,90,266.11s3.35-11.17,3.35-15.87A56.78,56.78,0,0,0,92.25,240.26Z" opacity="0.3" fill="url(#linear-gradient-119)"/><path d="M52.13,162.39c-1.95,1.18-7.24,6.46-10.59,9.11S32.9,180.9,31,185s-4.18,8.81-2.23,8.52,4.73-7.93,6.68-12S52.13,162.39,52.13,162.39Z" opacity="0.5" fill="url(#linear-gradient-120)"/><path d="M87,163.86c1.39,1.17,9.19,10.58,12.26,16.75s2.51,11.17,3.62,10-2.51-12.64-7-18.51A30.57,30.57,0,0,0,87,163.86Z" fill="url(#linear-gradient-121)"/><path d="M70.79,151.23c-1.95,0-14.21.41-18.11,4s-9.19,12.14-5.85,9.79,5.29-7.64,8.92-9.4S70.79,151.23,70.79,151.23Z" opacity="0.7" fill="url(#linear-gradient-122)"/><path d="M76.09,154.75c.84,1.77,8.64,25,8.64,31.73s-1.39,9.7-1.95,7.35S80.27,175.32,78.6,168,76.09,154.75,76.09,154.75Z" opacity="0.7" fill="url(#linear-gradient-123)"/><path d="M78.6,150.64c3.85-1.8,18.63-2.81,22.29,0,3.06,2.35,6.41,6.46,4.45,6.17s-5.29-5-11.14-5.58S78.6,150.64,78.6,150.64Z" opacity="0.8" fill="url(#linear-gradient-124)"/><path d="M73.58,135.16c-1.11-3.79-8.91-18.42-11.7-21.12s-4.74-5.15-2.51-4.88,7.52,8.13,9.47,13S73.58,135.16,73.58,135.16Z" opacity="0.5" fill="url(#linear-gradient-125)"/><path d="M63.83,135.7c-1.67-2.17-12.26-16.79-16.71-19.5s-6.69-3.79-3.62-4.61,11.42,7.86,13.65,12.19S63.83,135.7,63.83,135.7Z" opacity="0.5" fill="url(#linear-gradient-126)"/><path d="M51,140.57c-2.78-1.08-15-8.12-19.78-8.94s-11.42-1.62-10.59-.27,7.52.54,13.09,2.44S51,140.57,51,140.57Z" fill="url(#linear-gradient-127)"/><path d="M68.84,108.07c-.84-6-3.07-11.37-3.62-13.27s-1.12-3.79.56-2.17,1.49,3.46,2.33,6.71A42.34,42.34,0,0,1,68.84,108.07Z" fill="url(#linear-gradient-128)"/><path d="M75.53,101.31c0-1.9-.28-12.73,1.39-12.73s.84,4.6.56,6S75.53,101.31,75.53,101.31Z" opacity="0.1" fill="url(#linear-gradient-129)"/><path d="M87,105.1c.56-2.17,3.34-10.56,4.46-10s-.28,4.33-2,6.77A24,24,0,0,1,87,105.1Z" opacity="0.3" fill="url(#linear-gradient-130)"/><path d="M92.8,111.05c1.56-2.27,7.82-10.46,9.75-10.83,2.78-.54,4.74-1.89,4.18-.27s-2.79,1.62-5.57,3.79S92.8,111.05,92.8,111.05Z" fill="url(#linear-gradient-131)"/><path d="M79.15,136c1.12-2.44,2.23-10.56,5.85-18.42s6.68-10.56,6.13-9.2-4.46,8.39-6.13,12.73S79.15,136,79.15,136Z" fill="url(#linear-gradient-132)"/><path d="M74.69,140c0-4.6.28-18.42-.28-23.56s.55-9.21.83-7.31.84,15.44.56,21.12A70.72,70.72,0,0,1,74.69,140Z" opacity="0.8" fill="url(#linear-gradient-133)"/><path d="M68.84,114.3c0-1.63.56-3.52,1.11-1.63s1.11,21.66,1.11,25.18-.28,8.94-.28,8.94-1.39-17.6-1.39-22.2S68.84,114.3,68.84,114.3Z" fill="url(#linear-gradient-134)"/><path d="M57.7,113.76c-.56-3.25-1.95-9.21-4.18-11.1s-5.29-3.79-4.74-2.44,3.34,3.52,5,6.23S57.7,113.76,57.7,113.76Z" opacity="0.3" fill="url(#linear-gradient-135)"/><path d="M61.6,123c-.83-2.17-4.18-6.23-3.62-7.58s4.18,3.52,5.3,8.4,1.67,2.71,2.79,10.56,1.67,10.56,1.67,10.56-3.06-12.46-3.9-15.17S61.6,123,61.6,123Z" fill="url(#linear-gradient-136)"/><path d="M66.34,147.07a78.59,78.59,0,0,0-7.52-14.62c-4.46-6.77-10.31-15.43-11.14-14.08s9.75,15.44,12,19S66.34,147.07,66.34,147.07Z" fill="url(#linear-gradient-137)"/><path d="M49.06,110.13a45.84,45.84,0,0,0,6.13,5.41c-2.23-4.33-8.36-11.37-10.86-11.64s-3.62.54-1.95,1.35Z" opacity="0.3" fill="url(#linear-gradient-138)"/><path d="M39.59,112.19a24.41,24.41,0,0,0-6.41-1.08c-2.23,0-3.34-2.17-1.39-2.17A19.46,19.46,0,0,1,37.08,110,10.35,10.35,0,0,1,39.59,112.19Z" fill="url(#linear-gradient-139)"/><path d="M38.75,123c-1.67-3.52-6.13-7.58-8.92-7.31s-5-.81-3.9.81,3.35,1.36,6.13,2.44A36.08,36.08,0,0,1,38.75,123Z" opacity="0.5" fill="url(#linear-gradient-140)"/><g opacity="0.8"><path d="M42.1,126.22c-.56-1.62-.84-2.71.83-1.62s9.75,10.29,12.26,13.81a35.31,35.31,0,0,1,3.34,5.42s-7.8-9.21-10-11.37Z" fill="url(#linear-gradient-141)"/></g><path d="M80.27,141.93c2.51-3.52,10.59-21.66,12.82-23.29s4.74-5.69,5.57-4.87-4.46,6.77-7,9.48S83.33,138.42,82.77,139,80.27,141.93,80.27,141.93Z" opacity="0.8" fill="url(#linear-gradient-142)"/><path d="M105.23,112.82c1.93-1.53,9.54-5.69,11.53-7s6.61-2.28,3.65-2.74-8.4,3.22-10.93,4.6S105.23,112.82,105.23,112.82Z" opacity="0.1" fill="url(#linear-gradient-143)"/><path d="M83.89,144.91c4.18-4.87,16.81-18.24,18.94-20.31,3.34-3.25,5.29-6.23,6.41-4.33s-3.62,3.52-6.13,6.77a53.84,53.84,0,0,1-7.8,7.58C92,137.32,83.89,144.91,83.89,144.91Z" opacity="0.8" fill="url(#linear-gradient-144)"/><path d="M105.34,119.72c1.12-1.9,10.59-6,13.65-6.77s5.57-.81,5.29.27-.83.81-8.08,2.71A56.75,56.75,0,0,0,105.34,119.72Z" opacity="0.5" fill="url(#linear-gradient-145)"/><path d="M85,147.61c2.23-2.43,17.27-12.45,22.29-13.81s11.42-3,12.26-1.9-6.41,2.44-12.82,4.33S85,147.61,85,147.61Z" opacity="0.5" fill="url(#linear-gradient-146)"/><path d="M124.29,131.91c2.51,0,6.69,1.36,10,3s5.57,3.79,6.41,2.16-8.36-6-11.42-6A14.18,14.18,0,0,0,124.29,131.91Z" opacity="0.3" fill="url(#linear-gradient-147)"/><path d="M73.58,145.18c-.28-4.06-3.62-14.08-5-17.33s-6.41-11.37-4.74-11.37,7.52,13.81,8.36,17.87S73.58,145.18,73.58,145.18Z" fill="url(#linear-gradient-148)"/><path d="M76.92,144.09c.56-3.52,7-19,10-22.75,1.95-2.44,4.46-5.15,6.13-2.71.69,1-6.69,4.88-8.08,7.85C83.5,129.71,76.92,144.09,76.92,144.09Z" fill="url(#linear-gradient-149)"/><path d="M80.27,147.34c1.67-2.71,10-15.91,13.93-19.23,4.18-3.52,7.8-3.52,7.52-2.17s-4.46,2.71-6.13,4.33c-1.06,1-5.57,4.88-8.08,8.13S80.27,147.34,80.27,147.34Z" opacity="0.7" fill="url(#linear-gradient-150)"/><path d="M70.24,148.15S58,133,52.13,131.64s-8.64-2.71-8.64-1.36,5.29,1.9,8.64,3.52A46.73,46.73,0,0,1,63,141.93,72.1,72.1,0,0,0,70.24,148.15Z" opacity="0.8" fill="url(#linear-gradient-151)"/><path d="M85.28,147.88c5.85-6.23,21.73-10,25.35-9.21s8.08.27,9.47,2.17-6.41.27-9.19.27-12.26.81-15.6,1.9S85.28,147.88,85.28,147.88Z" opacity="0.8" fill="url(#linear-gradient-152)"/><path d="M74.69,150.32c0-1.9-10-13-10.59-16s-.83-2.71.84-1.89S73,143,73.58,144.91,74.69,150.32,74.69,150.32Z" opacity="0.8" fill="url(#linear-gradient-153)"/><path d="M77.48,148.7c0-1.9,10.86-10.83,15.88-11.92s7.24-.81,5.29.54-7.8,1.9-10.86,3.52S77.48,148.7,77.48,148.7Z" fill="url(#linear-gradient-154)"/><path d="M78,131.91c0-5.41,2.51-26.27,3.62-29.79s2.23-6.5,1.95-3.52-3.62,18.14-3.9,21.12-1.39,11.37-1.39,11.37Z" opacity="0.8" fill="url(#linear-gradient-155)"/><path d="M99.49,135.16c2.51-2.44,14.49-11.65,18.67-13.27s10.59-1.9,5.85-.27a66.18,66.18,0,0,0-10.59,4.61C110.36,127.85,99.49,135.16,99.49,135.16Z" opacity="0.8" fill="url(#linear-gradient-156)"/><path d="M80.51,148.84c2-2,7.36-5.2,10.7-4.23s4.68,5.53,5.35,3.25-2.34-6.83-7-5.53S80.51,148.84,80.51,148.84Z" fill="url(#linear-gradient-157)"/><path d="M75.53,143.28c0-2.44,3.34-14.08,7-14.08s2.51.81.84,1.63-3.62,3.25-5.29,6.5A41,41,0,0,0,75.53,143.28Z" fill="url(#linear-gradient-158)"/><path d="M74.14,134.34c-.56-3-2.51-7.58-5.29-7.85s-4.74.81-2.51,1.08S74.14,134.34,74.14,134.34Z" opacity="0.7" fill="url(#linear-gradient-159)"/><path d="M71.63,151.13s-6.92-7.32-13.65-7c-6.41.27-13.93,3.25-12,3.79s13.09-1.9,16.16-1.08S71.63,151.13,71.63,151.13Z" opacity="0.7" fill="url(#linear-gradient-160)"/><path d="M104.37,184.13c1.67,4.7,4.46,12.34,3.62,18.22s-.28,13.81,1.11,13.81-.28-4.7,0-12.34,0-10.58-1.39-13.52S104.37,184.13,104.37,184.13Z" opacity="0.1" fill="url(#linear-gradient-161)"/><path d="M54.22,191.48c-1.67,2.94-3.34,15.87-3.34,20.57s-1.39,8.82-1.39,6.47-1.67-6.76.56-16.46S54.22,191.48,54.22,191.48Z" opacity="0.3" fill="url(#linear-gradient-162)"/><path d="M77.2,151.52c.28-1.47,4.74-5.88,7.24-6.76s2.79-2.64.28-2.06a10.46,10.46,0,0,0-6.13,5A8.42,8.42,0,0,0,77.2,151.52Z" fill="url(#linear-gradient-163)"/><path d="M73.3,150.93c-1.67-.59-9.75,1.18-11.7,3.23s-5.57,4.11-3.34,4.41,5-3.23,7.24-4.7S73.3,150.93,73.3,150.93Z" fill="url(#linear-gradient-164)"/></g></g><g id="card-3-0-firework-0"><g opacity="0.8"><path d="M98.45,387C82.56,382.27,55.3,374,45.07,374s-26.13,7-21.58,8.22S39.39,376.4,53,378.74,98.45,387,98.45,387Z" opacity="0.5" fill="url(#linear-gradient-165)"/><path d="M181.38,392.26c5.11-3.52,36.35-10.57,49.41-10s23.28,5.88,23.85,7.64-6.25,1.17-14.2-1.17-27.86-.54-41.46.59C184.78,390.5,181.38,392.26,181.38,392.26Z" fill="url(#linear-gradient-166)"/><path d="M183.65,393.44c3.41-1.18,44.87-2.94,54.52,0s16.47,5.87,13.06,7.63-8.52-4.11-26.12-5.29S183.65,393.44,183.65,393.44Z" fill="url(#linear-gradient-167)"/><path d="M121.7,391.52c-3.33-1.39-44.62-5.71-54.42-3.38-5.8,1.38-17.26,5.48-12.51,6,3.29.32,11.31-2.71,25.41-4.26C97.73,387.89,121.7,391.52,121.7,391.52Z" fill="url(#linear-gradient-168)"/><path d="M99.59,396.78c-6.82-3.53-82.91,32.9-75,34.08s15.91-9.4,31.81-14.1S99.59,396.78,99.59,396.78Z" opacity="0.5" fill="url(#linear-gradient-169)"/><path d="M211.47,399.13c9.09,0,47.14,12.92,51.69,21.15s5.68,16.45,0,10.58-10.23-16.45-23.85-20S211.47,399.13,211.47,399.13Z" opacity="0.5" fill="url(#linear-gradient-170)"/><path d="M99.59,407.35c-5.68-.59-38.05,18.8-48.84,27.62s-26.13,22.32-21,22.32,25-23.5,40.9-33.49S99.59,407.35,99.59,407.35Z" opacity="0.1" fill="url(#linear-gradient-171)"/><path d="M255.21,402.65a83.11,83.11,0,0,1,15.9,10.58c4,3.52,5.11,10.57,8.52,7s-.57-8.81-7.39-12.34S255.21,402.65,255.21,402.65Z" fill="url(#linear-gradient-172)"/><path d="M239.31,432c6.25,5.47,8,10.58,11.36,15.87s2.84,7.05.57,5.29S249,446.72,237,436.73s-35.78-20.56-41.46-23.5S232.53,426.1,239.31,432Z" opacity="0.5" fill="url(#linear-gradient-173)"/><path d="M252.93,465.52c.57,5.87,2.84,15.86,2.84,22.91s.56,14.69,2.84,12.34,4-16.45,1.13-22.91A88.74,88.74,0,0,0,252.93,465.52Z" opacity="0.3" fill="url(#linear-gradient-174)"/><path d="M183.65,429.09c3.41,4.12,24.42,24.09,34.64,40,8.71,13.52,9.66,21.74,8.52,25.26s-9.65-12.93-10.22-18.21-12.5-23.53-18.76-30S183.65,429.09,183.65,429.09Z" fill="url(#linear-gradient-175)"/><path d="M223.4,503.71c-1.14,7.05-2.27,20.57-.57,25.27s2.27-2.35,2.27-9.4A100.46,100.46,0,0,0,223.4,503.71Z" fill="url(#linear-gradient-176)"/><path d="M51.77,397.17c-4.07,1.51-12.31,6.3-16.49,9.57s-5.71,10.24-8.91,6.51,1.08-8.76,8.08-11.85S51.77,397.17,51.77,397.17Z" opacity="0.1" fill="url(#linear-gradient-177)"/><path d="M60.83,429.94c-6.08,6.68-9.68,10-13.39,15.06s-3.24,6.86-.87,5.24,6.81-9.58,19.3-18.81,36.9-18.31,42.74-20.89S66.9,423.25,60.83,429.94Z" fill="url(#linear-gradient-178)"/><path d="M48.32,459.18c-.9,5.83-3.75,15.66-4.16,22.7S42.75,496.5,40.62,494s-3-16.67.19-22.95A89.14,89.14,0,0,1,48.32,459.18Z" opacity="0.1" fill="url(#linear-gradient-179)"/><path d="M118,426.52c-3.64,3.9-24.19,23.12-35.32,38.32-9.48,13-10.9,21.1-10,24.7S83.12,477.23,84,472s13.84-22.72,20.45-28.79S118,426.52,118,426.52Z" fill="url(#linear-gradient-180)"/><path d="M75.59,499.14c.73,7.1,1.08,20.66-.89,25.25s-2.13-2.49-1.73-9.53A100.62,100.62,0,0,1,75.59,499.14Z" fill="url(#linear-gradient-181)"/><path d="M128,437.91c-2.84,7-16.47,38.19-18.74,49.36s-2.27,25.26,0,27.61,1.7-18.81,6.25-33.49S128,437.91,128,437.91Z" opacity="0.5" fill="url(#linear-gradient-182)"/><path d="M146.16,435.56a91.93,91.93,0,0,0-1.7,24.09c.57,11.17-1.13,46.42,2.84,40.54s1.7-28.2.57-45.83S146.16,435.56,146.16,435.56Z" fill="url(#linear-gradient-183)"/><path d="M162.63,435c1.71,2.93,13.06,34.07,15.34,48.76s2.27,26.44,5.11,30,2.85-21.15-.56-32.32-4.54-16.45-7.38-22.91S162.63,435,162.63,435Z" opacity="0.5" fill="url(#linear-gradient-184)"/><path d="M106.33,514c-1.13,4.11-8.51,16.45-7.95,24.68s2.84,17,4,14.1,0-8.23.57-15.27S106.33,514,106.33,514Z" fill="url(#linear-gradient-185)"/><path d="M146.66,516.94c0,5.29-.21,17.51-1.71,26.44-1.74,10.44,1,22.79,2.85,20.56,2.05-2.47,2.27-17.63,2.27-21.15S146.66,516.94,146.66,516.94Z" fill="url(#linear-gradient-186)"/><path d="M187,508.71c.56,4.11,2.84,10,3.4,17.63s-1.71,18.8,3.41,17.63,1.71-15.87-.56-21.15S187,508.71,187,508.71Z" fill="url(#linear-gradient-187)"/><path d="M174,401.48c9.08-1.76,54,7.05,61.33,12.93s16.47,8.23,15.34,11.75-7.95-6.46-31.8-12.34S174,401.48,174,401.48Z" fill="url(#linear-gradient-188)"/><path d="M179.67,416.76c4,1.77,18.18,10.58,25,18.22s17,20.56,18.17,25.26,1.14,9.4-1.14,7.05-14.2-21.74-21.58-30S179.67,416.76,179.67,416.76Z" opacity="0.7" fill="url(#linear-gradient-189)"/><path d="M153.55,429.09c3.4,8.82,11.93,58.75,12.49,68.74s-1.14,17-3.41,16.45-6.81-52.29-7.95-61.1S153.55,429.09,153.55,429.09Z" opacity="0.5" fill="url(#linear-gradient-190)"/><path d="M138.21,445c-3.41,5.88-8.52,50.53-8.52,59.93s-.56,17-4,14.1,4.54-41.72,6.25-57.58S138.21,445,138.21,445Z" fill="url(#linear-gradient-191)"/><path d="M107.54,462.58c-.57,3.52-6.24,17.62-5.68,6.46s21.37-47.64,24.42-50.53c5.4-5.11-2.84,10-9.09,23.5S107.54,462.58,107.54,462.58Z" opacity="0.8" fill="url(#linear-gradient-192)"/><path d="M124.58,395.6c-2.84-2.35-39.19,4.11-48.28,7s-14.19,11.17-11.36,11.76,13.06-8.22,28.4-11.17S124.58,395.6,124.58,395.6Z" opacity="0.8" fill="url(#linear-gradient-193)"/><path d="M153.55,403.24c6.81.59,26.69,4.7,32.37,14.69s11.93,21.15,9.65,22.92-9.65-14.69-14.2-20.57S153.55,403.24,153.55,403.24Z" opacity="0.8" fill="url(#linear-gradient-194)"/><path d="M150.71,408.53c5.68,2.35,29.53,37.6,31.81,48.18s.56,16.45,0,11.75-17.61-31.14-21.58-38.78C156.84,421.84,150.71,408.53,150.71,408.53Z" fill="url(#linear-gradient-195)"/><path d="M143.32,407.35c-2.84,7.64-8.52,54.06-8.52,62.28s-1.71,13.52-2.27,8.81-4-24.68-.57-34.67S143.32,407.35,143.32,407.35Z" fill="url(#linear-gradient-196)"/><path d="M145,403.24c-2.66,0-34.24,16.56-40.32,26.44-4,6.46-11.36,10-13.06,8.23s20.6-20.27,26.12-24.09C124.3,409.3,145,403.24,145,403.24Z" opacity="0.8" fill="url(#linear-gradient-197)"/><path d="M59.27,492c-4,2.94-6.25,3.53-4-1.17s17.14-27,23.85-35.25a82.53,82.53,0,0,1,13.06-12.92S74,463.18,70.06,470.81,59.27,492,59.27,492Z" fill="url(#linear-gradient-198)"/><path d="M190.46,452.59c3.41,6.47,10.22,34.67,11.36,45.24s-.57,20,2.84,15.87-4-31.14-6.81-39.37S190.46,452.59,190.46,452.59Z" fill="url(#linear-gradient-199)"/><g opacity="0.3"><path d="M123.44,564.41c-2.27,9.4,0,23.5,2.27,31.73s1.14,27,5.68,21.15-1.14-21.15-4.54-31.73A77.91,77.91,0,0,1,123.44,564.41Z" fill="url(#linear-gradient-200)"/></g><path d="M180.24,577.34c1.14,7,1.14,22.32-1.14,28.2S170,627.86,175.69,629s6.82-22.33,6.82-31.73A111.48,111.48,0,0,0,180.24,577.34Z" opacity="0.3" fill="url(#linear-gradient-201)"/><path d="M98.45,421.64c-4,2.35-14.76,12.92-21.58,18.21s-17.6,18.8-21.58,27-8.52,17.63-4.54,17,9.65-15.86,13.63-24.09S98.45,421.64,98.45,421.64Z" opacity="0.5" fill="url(#linear-gradient-202)"/><path d="M169.45,424.57c2.84,2.35,18.74,21.15,25,33.49s5.11,22.33,7.39,20-5.11-25.27-14.2-37S169.45,424.57,169.45,424.57Z" fill="url(#linear-gradient-203)"/><path d="M136.51,399.31c-4,0-29,.81-36.92,8s-18.74,24.27-11.93,19.57,10.79-15.27,18.18-18.8S136.51,399.31,136.51,399.31Z" opacity="0.7" fill="url(#linear-gradient-204)"/><path d="M147.3,406.36c1.7,3.53,17.61,49.95,17.61,63.46s-2.84,19.39-4,14.69-5.11-37-8.52-51.71S147.3,406.36,147.3,406.36Z" opacity="0.7" fill="url(#linear-gradient-205)"/><path d="M152.41,398.13c7.85-3.61,38-5.62,45.44,0,6.24,4.7,13.06,12.93,9.08,12.33s-10.79-10-22.72-11.16S152.41,398.13,152.41,398.13Z" opacity="0.8" fill="url(#linear-gradient-206)"/><path d="M142.19,367.18c-2.27-7.58-18.17-36.82-23.85-42.24s-9.65-10.29-5.11-9.75,15.33,16.25,19.31,26S142.19,367.18,142.19,367.18Z" opacity="0.5" fill="url(#linear-gradient-207)"/><path d="M122.31,368.26c-3.41-4.34-25-33.57-34.07-39s-13.63-7.58-7.39-9.21,23.29,15.71,27.83,24.37S122.31,368.26,122.31,368.26Z" opacity="0.5" fill="url(#linear-gradient-208)"/><path d="M96.18,378c-5.67-2.17-30.67-16.24-40.32-17.87s-23.28-3.25-21.58-.54,15.33,1.08,26.69,4.87S96.18,378,96.18,378Z" fill="url(#linear-gradient-209)"/><path d="M132.53,313c-1.71-11.91-6.25-22.74-7.38-26.53s-2.28-7.58,1.13-4.33,3,6.92,4.74,13.42S132.53,313,132.53,313Z" fill="url(#linear-gradient-210)"/><path d="M146.16,299.49c0-3.79-.57-25.45,2.84-25.45s1.7,9.21,1.14,11.91S146.16,299.49,146.16,299.49Z" opacity="0.1" fill="url(#linear-gradient-211)"/><path d="M169.45,307.07c1.14-4.33,6.81-21.12,9.09-20s-.57,8.66-4,13.54A48.1,48.1,0,0,1,169.45,307.07Z" opacity="0.3" fill="url(#linear-gradient-212)"/><path d="M181.38,319c3.18-4.54,15.94-20.91,19.88-21.66,5.67-1.08,9.65-3.79,8.51-.54s-5.68,3.25-11.36,7.58S181.38,319,181.38,319Z" fill="url(#linear-gradient-213)"/><path d="M153.55,368.81c2.27-4.88,4.54-21.12,11.93-36.83S179.1,310.86,178,313.57s-9.09,16.78-12.49,25.45S153.55,368.81,153.55,368.81Z" fill="url(#linear-gradient-214)"/><path d="M144.46,376.93c0-9.21.57-36.82-.56-47.11s1.13-18.41,1.7-14.62,1.7,30.87,1.14,42.23A138.84,138.84,0,0,1,144.46,376.93Z" opacity="0.8" fill="url(#linear-gradient-215)"/><path d="M132.53,325.48c0-3.25,1.13-7,2.27-3.25s2.27,43.32,2.27,50.36-.57,17.87-.57,17.87-2.84-35.2-2.84-44.4S132.53,325.48,132.53,325.48Z" fill="url(#linear-gradient-216)"/><path d="M109.81,324.4c-1.13-6.49-4-18.41-8.52-22.2s-10.79-7.58-9.66-4.87,6.81,7,10.23,12.45S109.81,324.4,109.81,324.4Z" opacity="0.3" fill="url(#linear-gradient-217)"/><path d="M117.76,342.81c-1.7-4.33-8.51-12.45-7.38-15.16s8.52,7,10.79,16.79,3.41,5.42,5.68,21.12,3.41,21.12,3.41,21.12-6.25-24.91-8-30.33S117.76,342.81,117.76,342.81Z" fill="url(#linear-gradient-218)"/><path d="M127.42,391c-3.41-7.58-6.25-15.7-15.33-29.24s-21-30.86-22.72-28.16,19.88,30.87,24.42,37.9S127.42,391,127.42,391Z" fill="url(#linear-gradient-219)"/><path d="M92.21,317.13A93,93,0,0,0,104.7,328c-4.54-8.66-17-22.74-22.15-23.28s-7.38,1.08-4,2.71Z" opacity="0.3" fill="url(#linear-gradient-220)"/><path d="M72.9,321.26a50.64,50.64,0,0,0-13.06-2.17c-4.54,0-6.82-4.33-2.84-4.33s9.09,1.62,10.79,2.17S72.9,321.26,72.9,321.26Z" fill="url(#linear-gradient-221)"/><path d="M71.19,342.81c-3.41-7-12.49-15.16-18.17-14.62s-10.22-1.62-8,1.63,6.82,2.71,12.5,4.87S71.19,342.81,71.19,342.81Z" opacity="0.5" fill="url(#linear-gradient-222)"/><g opacity="0.8"><path d="M78,349.31c-1.14-3.25-1.71-5.42,1.7-3.25s19.88,20.57,25,27.61a70.33,70.33,0,0,1,6.82,10.83s-15.9-18.41-20.45-22.74Z" fill="url(#linear-gradient-223)"/></g><path d="M155.82,380.71c5.11-7,21.58-43.32,26.12-46.57s9.65-11.37,11.36-9.75-9.09,13.54-14.2,19-17,30.36-18.17,31.44S155.82,380.71,155.82,380.71Z" opacity="0.8" fill="url(#linear-gradient-224)"/><path d="M206.71,322.51c3.94-3.06,19.44-11.37,23.5-13.9s13.48-4.55,7.44-5.48-17.12,6.43-22.29,9.2S206.71,322.51,206.71,322.51Z" opacity="0.1" fill="url(#linear-gradient-225)"/><path d="M163.2,386.67c8.52-9.75,34.28-36.47,38.62-40.61,6.81-6.5,10.79-12.46,13.06-8.66s-7.38,7-12.49,13.54c-2.93,3.72-9.08,9.74-15.9,15.16S163.2,386.67,163.2,386.67Z" opacity="0.8" fill="url(#linear-gradient-226)"/><path d="M206.93,336.32c2.28-3.79,21.59-11.92,27.83-13.54s11.36-1.62,10.79.54-1.7,1.63-16.47,5.42S206.93,336.32,206.93,336.32Z" opacity="0.5" fill="url(#linear-gradient-227)"/><path d="M165.48,392.08c4.54-4.87,35.21-24.9,45.43-27.61s23.28-6,25-3.79-13.06,4.87-26.12,8.66S165.48,392.08,165.48,392.08Z" opacity="0.5" fill="url(#linear-gradient-228)"/><path d="M245.55,360.68c5.11,0,13.63,2.71,20.44,6s11.36,7.58,13.06,4.33-17-11.91-23.28-11.91A29.4,29.4,0,0,0,245.55,360.68Z" opacity="0.3" fill="url(#linear-gradient-229)"/><path d="M142.19,387.22c-.57-8.13-7.38-28.16-10.22-34.66s-13.06-22.74-9.66-22.74,15.33,27.61,17,35.74S142.19,387.22,142.19,387.22Z" fill="url(#linear-gradient-230)"/><path d="M149,385c1.14-7,14.35-38,20.45-45.49,4-4.87,9.09-10.29,12.5-5.42,1.4,2-13.63,9.75-16.47,15.71C162.41,356.28,149,385,149,385Z" fill="url(#linear-gradient-231)"/><path d="M155.82,391.54c3.4-5.42,20.38-31.82,28.39-38.44,8.52-7,15.91-7,15.34-4.34s-9.08,5.42-12.49,8.66c-2.16,2.07-11.36,9.75-16.47,16.25S155.82,391.54,155.82,391.54Z" opacity="0.7" fill="url(#linear-gradient-232)"/><path d="M135.37,393.17s-25-30.32-36.92-33-17.6-5.41-17.6-2.71,10.79,3.8,17.6,7,17.61,11.37,22.15,16.24S135.37,393.17,135.37,393.17Z" opacity="0.8" fill="url(#linear-gradient-233)"/><path d="M166,392.63c11.93-12.45,44.3-20,51.68-18.41s16.47.55,19.31,4.33-13.06.54-18.74.54-25,1.63-31.8,3.79S166,392.63,166,392.63Z" opacity="0.8" fill="url(#linear-gradient-234)"/><path d="M144.46,397.5c0-3.79-20.44-26-21.58-32s-1.7-5.41,1.71-3.79,16.47,21.12,17.6,24.91S144.46,397.5,144.46,397.5Z" opacity="0.8" fill="url(#linear-gradient-235)"/><path d="M150.14,394.25c0-3.79,22.15-21.66,32.37-23.83s14.76-1.62,10.79,1.08-15.9,3.79-22.15,7S150.14,394.25,150.14,394.25Z" fill="url(#linear-gradient-236)"/><path d="M151.28,360.68c0-10.83,5.11-52.53,7.38-59.56s4.54-13,4-7-7.38,36.28-7.95,42.24-2.84,22.74-2.84,22.74Z" opacity="0.8" fill="url(#linear-gradient-237)"/><path d="M195,367.18c5.12-4.88,29.54-23.29,38.05-26.53s21.59-3.79,11.93-.54a136.27,136.27,0,0,0-21.58,9.21C217.16,352.56,195,367.18,195,367.18Z" opacity="0.8" fill="url(#linear-gradient-238)"/><path d="M156.32,394.54c4.09-3.9,15-10.4,21.81-8.45s9.54,11,10.9,6.5-4.77-13.65-14.31-11S156.32,394.54,156.32,394.54Z" fill="url(#linear-gradient-239)"/><path d="M146.16,383.43c0-4.88,6.81-28.16,14.2-28.16s5.12,1.63,1.71,3.25-7.38,6.49-10.79,13A81.1,81.1,0,0,0,146.16,383.43Z" fill="url(#linear-gradient-240)"/><path d="M143.32,365.55c-1.14-6-5.11-15.16-10.79-15.7s-9.66,1.62-5.11,2.16S143.32,365.55,143.32,365.55Z" opacity="0.7" fill="url(#linear-gradient-241)"/><path d="M138.21,399.13S124.11,384.48,110.38,385c-13.06.54-28.39,6.49-24.42,7.58s26.69-3.79,32.94-2.17S138.21,399.13,138.21,399.13Z" opacity="0.7" fill="url(#linear-gradient-242)"/><path d="M204.95,465.11c3.41,9.4,9.08,24.68,7.38,36.43s-.57,27.62,2.27,27.62-.57-9.4,0-24.68,0-21.15-2.84-27S204.95,465.11,204.95,465.11Z" opacity="0.1" fill="url(#linear-gradient-243)"/><path d="M102.72,479.8c-3.41,5.88-6.82,31.73-6.82,41.13s-2.84,17.63-2.84,12.93S89.66,520.34,94.2,501,102.72,479.8,102.72,479.8Z" opacity="0.3" fill="url(#linear-gradient-244)"/><path d="M149.57,399.9c.57-2.94,9.66-11.75,14.77-13.52s5.68-5.29.57-4.11-9.65,5.29-12.49,10S149.57,399.9,149.57,399.9Z" fill="url(#linear-gradient-245)"/><path d="M141.62,398.72c-3.4-1.17-19.87,2.35-23.85,6.47S106.41,413.41,111,414s10.22-6.46,14.76-9.4S141.62,398.72,141.62,398.72Z" fill="url(#linear-gradient-246)"/></g></g></g></svg>