<svg id="card-4-2" xmlns="http://www.w3.org/2000/svg" viewBox="0 0 444 666"><title>card-4-2</title><g id="card-4-2-text"><path d="M86.5,213V178.64H91V213Z" fill="#2391bc"/><path d="M114.76,203.88l4.15.54a10.76,10.76,0,0,1-3.48,6.71,10.14,10.14,0,0,1-6.88,2.43,10.69,10.69,0,0,1-8.21-3.34q-3.11-3.34-3.11-9.57a17.33,17.33,0,0,1,1.34-7.05,9.31,9.31,0,0,1,4.07-4.54,12.07,12.07,0,0,1,5.94-1.51,10.33,10.33,0,0,1,6.63,2.05,9.4,9.4,0,0,1,3.3,5.82l-4.1.63a6.81,6.81,0,0,0-2.07-3.77,5.37,5.37,0,0,0-3.6-1.27,6.55,6.55,0,0,0-5.18,2.29q-2,2.29-2,7.23t1.92,7.29a6.25,6.25,0,0,0,5,2.27,5.91,5.91,0,0,0,4.15-1.52A7.56,7.56,0,0,0,114.76,203.88Z" fill="#2391bc"/><path d="M122.52,213V178.64h4.22V191a9.42,9.42,0,0,1,7.45-3.42,10.05,10.05,0,0,1,4.8,1.09,6.4,6.4,0,0,1,2.92,3,13.88,13.88,0,0,1,.88,5.58V213h-4.22V197.23q0-3.16-1.37-4.61a5.1,5.1,0,0,0-3.88-1.44,6.84,6.84,0,0,0-3.53,1,5.49,5.49,0,0,0-2.36,2.64,12.11,12.11,0,0,0-.7,4.59V213Z" fill="#2391bc"/><path d="M161.78,215.06l4.1.61a3.91,3.91,0,0,0,1.43,2.77,7,7,0,0,0,4.29,1.17,7.53,7.53,0,0,0,4.52-1.17,5.77,5.77,0,0,0,2.16-3.28,27,27,0,0,0,.3-5.41,8.68,8.68,0,0,1-6.89,3.26,9.39,9.39,0,0,1-7.95-3.7,14.26,14.26,0,0,1-2.81-8.88,16.53,16.53,0,0,1,1.29-6.57,10.31,10.31,0,0,1,3.74-4.65,10.09,10.09,0,0,1,5.75-1.64,8.92,8.92,0,0,1,7.27,3.56v-3h3.89v21.52q0,5.81-1.18,8.24a8.66,8.66,0,0,1-3.75,3.83,13,13,0,0,1-6.32,1.41,11.91,11.91,0,0,1-7.2-2A6.78,6.78,0,0,1,161.78,215.06Zm3.49-15q0,4.9,1.95,7.15a6.42,6.42,0,0,0,9.75,0q2-2.24,2-7,0-4.57-2-6.89A6.27,6.27,0,0,0,172,191a6.09,6.09,0,0,0-4.78,2.29Q165.27,195.61,165.27,200.11Z" fill="#2391bc"/><path d="M189.2,213V188.11H193v3.77a10.3,10.3,0,0,1,2.68-3.49,4.68,4.68,0,0,1,2.71-.84,8.23,8.23,0,0,1,4.34,1.36l-1.45,3.91a6,6,0,0,0-3.09-.91,4,4,0,0,0-2.48.83,4.51,4.51,0,0,0-1.57,2.31,16.43,16.43,0,0,0-.7,4.92v13Z" fill="#2391bc"/><path d="M221.47,209.93a15.71,15.71,0,0,1-4.51,2.81,13,13,0,0,1-4.65.82,9,9,0,0,1-6.3-2,6.61,6.61,0,0,1-2.2-5.12,6.81,6.81,0,0,1,.83-3.34,6.89,6.89,0,0,1,2.18-2.43,10.25,10.25,0,0,1,3-1.38,30.15,30.15,0,0,1,3.75-.63,38.56,38.56,0,0,0,7.52-1.45q0-.87,0-1.1a4.66,4.66,0,0,0-1.2-3.63,7.06,7.06,0,0,0-4.8-1.43,7.45,7.45,0,0,0-4.39,1,6.37,6.37,0,0,0-2.1,3.69l-4.12-.56a10.22,10.22,0,0,1,1.85-4.28,8.12,8.12,0,0,1,3.73-2.51,16.62,16.62,0,0,1,5.65-.88,15,15,0,0,1,5.18.75,6.82,6.82,0,0,1,2.93,1.89,6.64,6.64,0,0,1,1.31,2.87,23.75,23.75,0,0,1,.21,3.89v5.63a59.7,59.7,0,0,0,.27,7.44,9.39,9.39,0,0,0,1.07,3h-4.41A8.94,8.94,0,0,1,221.47,209.93Zm-.35-9.42a31,31,0,0,1-6.89,1.59,15.94,15.94,0,0,0-3.68.84,3.67,3.67,0,0,0-1.66,1.37,3.73,3.73,0,0,0,.69,4.82,5.5,5.5,0,0,0,3.74,1.13,8.7,8.7,0,0,0,4.34-1.07,6.57,6.57,0,0,0,2.79-2.92,10.19,10.19,0,0,0,.68-4.22Z" fill="#2391bc"/><path d="M241.14,209.23l.61,3.73a15.65,15.65,0,0,1-3.19.38,7.22,7.22,0,0,1-3.56-.73,4.07,4.07,0,0,1-1.78-1.91,15.1,15.1,0,0,1-.52-5V191.39h-3.09v-3.28h3.09v-6.16l4.2-2.53v8.7h4.24v3.28h-4.24v14.55a7.35,7.35,0,0,0,.22,2.32,1.76,1.76,0,0,0,.73.82,2.81,2.81,0,0,0,1.44.3A13.72,13.72,0,0,0,241.14,209.23Z" fill="#2391bc"/><path d="M261.57,213v-3.66a9.11,9.11,0,0,1-7.9,4.22,10.07,10.07,0,0,1-4.11-.84,6.77,6.77,0,0,1-2.84-2.12,8,8,0,0,1-1.3-3.13,21.42,21.42,0,0,1-.26-3.94V188.11h4.22v13.8a24.6,24.6,0,0,0,.26,4.45,4.4,4.4,0,0,0,1.69,2.61,5.23,5.23,0,0,0,3.19.95,6.94,6.94,0,0,0,3.56-1,5.41,5.41,0,0,0,2.36-2.65,13.29,13.29,0,0,0,.69-4.86V188.11h4.22V213Z" fill="#2391bc"/><path d="M271.86,213V178.64h4.22V213Z" fill="#2391bc"/><path d="M282.64,183.49v-4.85h4.22v4.85Zm0,29.51V188.11h4.22V213Z" fill="#2391bc"/><path d="M310.32,205l4.36.54a10.64,10.64,0,0,1-3.82,5.93,12.94,12.94,0,0,1-15.79-1.25q-3.2-3.36-3.2-9.43,0-6.28,3.23-9.75a11,11,0,0,1,8.39-3.47,10.64,10.64,0,0,1,8.16,3.4q3.16,3.4,3.16,9.56,0,.38,0,1.13H296.24a9.56,9.56,0,0,0,2.32,6.28,6.91,6.91,0,0,0,5.2,2.18,6.46,6.46,0,0,0,4-1.22A8.09,8.09,0,0,0,310.32,205Zm-13.85-6.82h13.9a8.43,8.43,0,0,0-1.59-4.71,6.47,6.47,0,0,0-5.23-2.44,6.7,6.7,0,0,0-4.89,1.95A7.7,7.7,0,0,0,296.47,198.16Z" fill="#2391bc"/><path d="M319.93,213V188.11h3.8v3.77a10.3,10.3,0,0,1,2.68-3.49,4.68,4.68,0,0,1,2.71-.84,8.23,8.23,0,0,1,4.34,1.36L332,192.82a6,6,0,0,0-3.09-.91,4,4,0,0,0-2.48.83,4.51,4.51,0,0,0-1.57,2.31,16.43,16.43,0,0,0-.7,4.92v13Z" fill="#2391bc"/><path d="M353,205l4.36.54a10.64,10.64,0,0,1-3.82,5.93,12.94,12.94,0,0,1-15.79-1.25q-3.2-3.36-3.2-9.43,0-6.28,3.23-9.75a11,11,0,0,1,8.39-3.47,10.64,10.64,0,0,1,8.16,3.4q3.16,3.4,3.16,9.56,0,.38,0,1.13H338.92a9.56,9.56,0,0,0,2.32,6.28,6.91,6.91,0,0,0,5.2,2.18,6.46,6.46,0,0,0,4-1.22A8.09,8.09,0,0,0,353,205Zm-13.85-6.82h13.9a8.43,8.43,0,0,0-1.59-4.71,6.47,6.47,0,0,0-5.23-2.44,6.7,6.7,0,0,0-4.89,1.95A7.7,7.7,0,0,0,339.15,198.16Z" fill="#2391bc"/><path d="M113.29,280.63V277.2L129.13,259q-2.7.14-4.76.14H114.22v-3.42h20.34v2.79l-13.48,15.8-2.6,2.88q2.84-.21,5.32-.21h11.51v3.63Z" fill="#2391bc"/><path d="M155.82,280.63V277a9.11,9.11,0,0,1-7.9,4.22,10.07,10.07,0,0,1-4.11-.84,6.77,6.77,0,0,1-2.84-2.12,8,8,0,0,1-1.3-3.13,21.42,21.42,0,0,1-.26-3.94V255.74h4.22v13.8a24.6,24.6,0,0,0,.26,4.45,4.4,4.4,0,0,0,1.69,2.61,5.23,5.23,0,0,0,3.19.95,6.94,6.94,0,0,0,3.56-1,5.41,5.41,0,0,0,2.36-2.65,13.29,13.29,0,0,0,.69-4.86V255.74h4.22v24.89Z" fill="#2391bc"/><path d="M195.69,280.63v-3.14a7.74,7.74,0,0,1-7,3.7,9.76,9.76,0,0,1-5.47-1.64,10.79,10.79,0,0,1-3.87-4.58A15.84,15.84,0,0,1,178,268.2a17.7,17.7,0,0,1,1.24-6.76,9.8,9.8,0,0,1,3.73-4.65,10,10,0,0,1,5.55-1.62,8.3,8.3,0,0,1,6.87,3.42V246.27h4.2v34.36ZM182.36,268.2q0,4.78,2,7.15a6.08,6.08,0,0,0,4.76,2.37,6,6,0,0,0,4.7-2.26q1.93-2.26,1.93-6.9,0-5.11-2-7.5a6.06,6.06,0,0,0-4.85-2.39,5.85,5.85,0,0,0-4.7,2.3Q182.36,263.26,182.36,268.2Z" fill="#2391bc"/><path d="M223.28,272.61l4.36.54a10.64,10.64,0,0,1-3.82,5.93A12.94,12.94,0,0,1,208,277.83q-3.2-3.36-3.2-9.43,0-6.28,3.23-9.75a11,11,0,0,1,8.39-3.47,10.64,10.64,0,0,1,8.16,3.4q3.16,3.4,3.16,9.56,0,.38,0,1.13H209.19a9.56,9.56,0,0,0,2.32,6.28,6.91,6.91,0,0,0,5.2,2.18,6.46,6.46,0,0,0,4-1.22A8.09,8.09,0,0,0,223.28,272.61Zm-13.85-6.82h13.9a8.43,8.43,0,0,0-1.59-4.71,6.47,6.47,0,0,0-5.23-2.44,6.7,6.7,0,0,0-4.89,1.95A7.7,7.7,0,0,0,209.43,265.79Z" fill="#2391bc"/><path d="M233,251.12v-4.85h4.22v4.85Zm0,29.51V255.74h4.22v24.89Z" fill="#2391bc"/><path d="M243.6,280.63V255.74h3.8v3.54a9,9,0,0,1,7.92-4.1,10.39,10.39,0,0,1,4.14.81,6.51,6.51,0,0,1,2.82,2.12,8.14,8.14,0,0,1,1.31,3.12,24.16,24.16,0,0,1,.23,4.1v15.3h-4.22V265.49a11.37,11.37,0,0,0-.49-3.86,4.06,4.06,0,0,0-1.75-2,5.55,5.55,0,0,0-2.94-.76,6.84,6.84,0,0,0-4.65,1.71q-2,1.71-2,6.49v13.59Z" fill="#2391bc"/><path d="M287.33,272.61l4.36.54a10.64,10.64,0,0,1-3.82,5.93,12.94,12.94,0,0,1-15.79-1.25q-3.2-3.36-3.2-9.43,0-6.28,3.23-9.75a11,11,0,0,1,8.39-3.47,10.64,10.64,0,0,1,8.16,3.4q3.16,3.4,3.16,9.56,0,.38,0,1.13H273.25a9.56,9.56,0,0,0,2.32,6.28,6.91,6.91,0,0,0,5.2,2.18,6.46,6.46,0,0,0,4-1.22A8.09,8.09,0,0,0,287.33,272.61Zm-13.85-6.82h13.9a8.43,8.43,0,0,0-1.59-4.71,6.47,6.47,0,0,0-5.23-2.44,6.7,6.7,0,0,0-4.89,1.95A7.7,7.7,0,0,0,273.48,265.79Z" fill="#2391bc"/><path d="M297,280.63V255.74h3.77v3.49a8.87,8.87,0,0,1,3.12-2.94,8.76,8.76,0,0,1,4.43-1.11,8.19,8.19,0,0,1,4.54,1.15,6.15,6.15,0,0,1,2.5,3.21,8.94,8.94,0,0,1,7.69-4.36,7.58,7.58,0,0,1,5.7,2.05q2,2.05,2,6.32v17.09h-4.2V264.95a11.54,11.54,0,0,0-.41-3.64,3.53,3.53,0,0,0-1.49-1.79,4.65,4.65,0,0,0-2.53-.68,5.89,5.89,0,0,0-4.36,1.75q-1.73,1.75-1.73,5.59v14.46h-4.22V264.45a7.12,7.12,0,0,0-1-4.22,3.91,3.91,0,0,0-3.37-1.41,6.13,6.13,0,0,0-3.29.94,5.32,5.32,0,0,0-2.19,2.74,15.44,15.44,0,0,0-.68,5.2v12.91Z" fill="#2391bc"/><path d="M76.79,325.53v-4l14.55,0v12.75a25.7,25.7,0,0,1-6.91,4,20.51,20.51,0,0,1-7.31,1.35,19.51,19.51,0,0,1-9.2-2.17,14.33,14.33,0,0,1-6.25-6.27A19.74,19.74,0,0,1,59.57,322a21.26,21.26,0,0,1,2.1-9.36,14,14,0,0,1,6-6.46,18.91,18.91,0,0,1,9.07-2.11,18,18,0,0,1,6.74,1.21,11.17,11.17,0,0,1,4.72,3.36,14.92,14.92,0,0,1,2.6,5.63l-4.1,1.13a12.69,12.69,0,0,0-1.92-4.12,7.88,7.88,0,0,0-3.28-2.4,12,12,0,0,0-4.73-.9,13.94,13.94,0,0,0-5.39.95,10.06,10.06,0,0,0-3.67,2.5,11.9,11.9,0,0,0-2.17,3.4,18,18,0,0,0-1.31,6.91,16.78,16.78,0,0,0,1.58,7.69A10.12,10.12,0,0,0,70.44,334a14.26,14.26,0,0,0,6.42,1.5,15.26,15.26,0,0,0,5.77-1.14,14.88,14.88,0,0,0,4.27-2.43v-6.4Z" fill="#2391bc"/><path d="M114.55,331l4.36.54a10.64,10.64,0,0,1-3.82,5.93,12.94,12.94,0,0,1-15.79-1.25q-3.2-3.36-3.2-9.43,0-6.28,3.23-9.75a11,11,0,0,1,8.39-3.47,10.64,10.64,0,0,1,8.16,3.4q3.16,3.4,3.16,9.56,0,.38,0,1.13H100.46a9.56,9.56,0,0,0,2.32,6.28,6.91,6.91,0,0,0,5.2,2.18,6.46,6.46,0,0,0,4-1.22A8.09,8.09,0,0,0,114.55,331Zm-13.85-6.82h13.9a8.43,8.43,0,0,0-1.59-4.71,6.47,6.47,0,0,0-5.23-2.44,6.7,6.7,0,0,0-4.89,1.95A7.7,7.7,0,0,0,100.7,324.17Z" fill="#2391bc"/><path d="M128.1,339h-3.91V304.65h4.22V316.9a8.35,8.35,0,0,1,6.82-3.35,10.45,10.45,0,0,1,4.35.93,8.88,8.88,0,0,1,3.38,2.6,12.58,12.58,0,0,1,2.07,4,16.67,16.67,0,0,1,.75,5.06q0,6.4-3.16,9.89a9.9,9.9,0,0,1-7.59,3.49,7.93,7.93,0,0,1-6.91-3.68Zm0-12.63q0,4.48,1.22,6.47a6,6,0,0,0,10.17.86q2-2.4,2-7.16t-1.93-7.2a5.89,5.89,0,0,0-4.68-2.32,6.07,6.07,0,0,0-4.78,2.4Q128.05,321.83,128.05,326.37Z" fill="#2391bc"/><path d="M167.21,339v-3.66a9.11,9.11,0,0,1-7.9,4.22,10.07,10.07,0,0,1-4.11-.84,6.77,6.77,0,0,1-2.84-2.12,8,8,0,0,1-1.3-3.13,21.42,21.42,0,0,1-.26-3.94V314.12H155v13.8a24.6,24.6,0,0,0,.26,4.45A4.4,4.4,0,0,0,157,335a5.23,5.23,0,0,0,3.19.95,6.94,6.94,0,0,0,3.56-1,5.41,5.41,0,0,0,2.36-2.65,13.29,13.29,0,0,0,.69-4.86V314.12H171V339Z" fill="#2391bc"/><path d="M177.55,339V314.12h3.8v3.77A10.3,10.3,0,0,1,184,314.4a4.68,4.68,0,0,1,2.71-.84,8.23,8.23,0,0,1,4.34,1.36l-1.45,3.91a6,6,0,0,0-3.09-.91,4,4,0,0,0-2.48.83,4.51,4.51,0,0,0-1.57,2.31,16.43,16.43,0,0,0-.7,4.92v13Z" fill="#2391bc"/><path d="M202.79,335.23l.61,3.73a15.65,15.65,0,0,1-3.19.38,7.22,7.22,0,0,1-3.56-.73,4.07,4.07,0,0,1-1.78-1.91,15.1,15.1,0,0,1-.52-5V317.4h-3.09v-3.28h3.09V308l4.2-2.53v8.7h4.24v3.28h-4.24V332a7.35,7.35,0,0,0,.22,2.32,1.76,1.76,0,0,0,.73.82,2.81,2.81,0,0,0,1.44.3A13.72,13.72,0,0,0,202.79,335.23Z" fill="#2391bc"/><path d="M205.23,331.58l4.17-.66a5.83,5.83,0,0,0,2,3.84,6.82,6.82,0,0,0,4.49,1.34,6.59,6.59,0,0,0,4.31-1.18,3.54,3.54,0,0,0,1.41-2.78,2.56,2.56,0,0,0-1.24-2.25,18.3,18.3,0,0,0-4.31-1.43,39.35,39.35,0,0,1-6.43-2,6.14,6.14,0,0,1-3.64-5.71,6.41,6.41,0,0,1,.76-3.08,6.83,6.83,0,0,1,2.07-2.36,8.7,8.7,0,0,1,2.68-1.23,12.76,12.76,0,0,1,3.64-.5,14.41,14.41,0,0,1,5.14.84,7,7,0,0,1,3.27,2.29,8.93,8.93,0,0,1,1.45,3.86l-4.12.56a4.51,4.51,0,0,0-1.63-3A6,6,0,0,0,215.4,317a6.9,6.9,0,0,0-4.15,1,2.8,2.8,0,0,0-1.24,2.25,2.33,2.33,0,0,0,.52,1.48,3.72,3.72,0,0,0,1.62,1.13q.63.23,3.73,1.08a51.88,51.88,0,0,1,6.25,2,6.34,6.34,0,0,1,2.78,2.21,6.18,6.18,0,0,1,1,3.61,7.08,7.08,0,0,1-1.23,4,8,8,0,0,1-3.55,2.88,12.92,12.92,0,0,1-5.25,1q-4.85,0-7.39-2A9.37,9.37,0,0,1,205.23,331.58Z" fill="#2391bc"/><path d="M240.13,335.23l.61,3.73a15.65,15.65,0,0,1-3.19.38,7.22,7.22,0,0,1-3.56-.73,4.07,4.07,0,0,1-1.78-1.91,15.1,15.1,0,0,1-.52-5V317.4H228.6v-3.28h3.09V308l4.2-2.53v8.7h4.24v3.28h-4.24V332a7.35,7.35,0,0,0,.22,2.32,1.76,1.76,0,0,0,.73.82,2.81,2.81,0,0,0,1.44.3A13.72,13.72,0,0,0,240.13,335.23Z" fill="#2391bc"/><path d="M260.5,335.94a15.71,15.71,0,0,1-4.51,2.81,13,13,0,0,1-4.65.82,9,9,0,0,1-6.3-2,6.61,6.61,0,0,1-2.2-5.12,6.81,6.81,0,0,1,.83-3.34,6.89,6.89,0,0,1,2.18-2.43,10.25,10.25,0,0,1,3-1.38,30.15,30.15,0,0,1,3.75-.63,38.56,38.56,0,0,0,7.52-1.45q0-.87,0-1.1a4.66,4.66,0,0,0-1.2-3.63,7.06,7.06,0,0,0-4.8-1.43,7.45,7.45,0,0,0-4.39,1,6.37,6.37,0,0,0-2.1,3.69l-4.12-.56a10.22,10.22,0,0,1,1.85-4.28,8.12,8.12,0,0,1,3.73-2.51,16.62,16.62,0,0,1,5.65-.88,15,15,0,0,1,5.18.75,6.82,6.82,0,0,1,2.93,1.89,6.64,6.64,0,0,1,1.31,2.87,23.75,23.75,0,0,1,.21,3.89v5.63a59.7,59.7,0,0,0,.27,7.44,9.39,9.39,0,0,0,1.07,3h-4.41A8.94,8.94,0,0,1,260.5,335.94Zm-.35-9.42a31,31,0,0,1-6.89,1.59,15.94,15.94,0,0,0-3.68.84,3.67,3.67,0,0,0-1.66,1.37,3.73,3.73,0,0,0,.69,4.82,5.5,5.5,0,0,0,3.74,1.13,8.7,8.7,0,0,0,4.34-1.07,6.57,6.57,0,0,0,2.79-2.92,10.19,10.19,0,0,0,.68-4.22Z" fill="#2391bc"/><path d="M270.18,341.07l4.1.61a3.91,3.91,0,0,0,1.43,2.77,7,7,0,0,0,4.29,1.17,7.53,7.53,0,0,0,4.52-1.17,5.77,5.77,0,0,0,2.16-3.28,27,27,0,0,0,.3-5.41,8.68,8.68,0,0,1-6.89,3.26,9.39,9.39,0,0,1-7.95-3.7,14.26,14.26,0,0,1-2.81-8.88,16.53,16.53,0,0,1,1.29-6.57,10.31,10.31,0,0,1,3.74-4.65,10.09,10.09,0,0,1,5.75-1.64,8.92,8.92,0,0,1,7.27,3.56v-3h3.89v21.52q0,5.81-1.18,8.24a8.66,8.66,0,0,1-3.75,3.83,13,13,0,0,1-6.32,1.41,11.91,11.91,0,0,1-7.2-2A6.78,6.78,0,0,1,270.18,341.07Zm3.49-15q0,4.9,1.95,7.15a6.42,6.42,0,0,0,9.75,0q2-2.24,2-7,0-4.57-2-6.89a6.27,6.27,0,0,0-4.89-2.32,6.09,6.09,0,0,0-4.78,2.29Q273.67,321.62,273.67,326.12Z" fill="#2391bc"/><path d="M327.29,339v-3.66a9.11,9.11,0,0,1-7.9,4.22,10.07,10.07,0,0,1-4.11-.84,6.77,6.77,0,0,1-2.84-2.12,8,8,0,0,1-1.3-3.13,21.42,21.42,0,0,1-.26-3.94V314.12h4.22v13.8a24.6,24.6,0,0,0,.26,4.45,4.4,4.4,0,0,0,1.69,2.61,5.23,5.23,0,0,0,3.19.95,6.94,6.94,0,0,0,3.56-1,5.41,5.41,0,0,0,2.36-2.65,13.29,13.29,0,0,0,.69-4.86V314.12h4.22V339Z" fill="#2391bc"/><path d="M337.68,339V314.12h3.8v3.54a9,9,0,0,1,7.92-4.1,10.39,10.39,0,0,1,4.14.81,6.51,6.51,0,0,1,2.82,2.12,8.14,8.14,0,0,1,1.31,3.12,24.16,24.16,0,0,1,.23,4.1V339h-4.22V323.87a11.37,11.37,0,0,0-.49-3.86,4.06,4.06,0,0,0-1.75-2,5.55,5.55,0,0,0-2.94-.76,6.84,6.84,0,0,0-4.65,1.71q-2,1.71-2,6.49V339Z" fill="#2391bc"/><path d="M380.52,339v-3.14a7.74,7.74,0,0,1-7,3.7,9.76,9.76,0,0,1-5.47-1.64,10.79,10.79,0,0,1-3.87-4.58,15.84,15.84,0,0,1-1.37-6.76,17.7,17.7,0,0,1,1.24-6.76,9.8,9.8,0,0,1,3.73-4.65,10,10,0,0,1,5.55-1.62,8.3,8.3,0,0,1,6.87,3.42V304.65h4.2V339Zm-13.34-12.42q0,4.78,2,7.15A6.08,6.08,0,0,0,374,336.1a6,6,0,0,0,4.7-2.26q1.93-2.26,1.93-6.9,0-5.11-2-7.5a6.06,6.06,0,0,0-4.85-2.39,5.85,5.85,0,0,0-4.7,2.3Q367.18,321.64,367.18,326.58Z" fill="#2391bc"/><path d="M101.3,406.44l-7.62-24.89H98l4,14.37,1.48,5.34q.09-.4,1.29-5.13l4-14.58h4.34L116.79,396l1.24,4.76,1.43-4.8,4.27-14.39h4.1L120,406.44h-4.38l-4-14.91-1-4.24-5,19.15Z" fill="#2391bc"/><path d="M147.68,406.44v-3.66a9.11,9.11,0,0,1-7.9,4.22,10.07,10.07,0,0,1-4.11-.84,6.77,6.77,0,0,1-2.84-2.12,8,8,0,0,1-1.3-3.13,21.42,21.42,0,0,1-.26-3.94V381.55h4.22v13.8a24.6,24.6,0,0,0,.26,4.45,4.4,4.4,0,0,0,1.69,2.61,5.23,5.23,0,0,0,3.19.95,6.94,6.94,0,0,0,3.56-1,5.41,5.41,0,0,0,2.36-2.65,13.29,13.29,0,0,0,.69-4.86V381.55h4.22v24.89Zm-12.89-29.77v-4.8h4.41v4.8Zm8.74,0v-4.8h4.41v4.8Z" fill="#2391bc"/><path d="M158.06,406.44V381.55h3.8v3.54a9,9,0,0,1,7.92-4.1,10.39,10.39,0,0,1,4.14.81,6.51,6.51,0,0,1,2.82,2.12,8.14,8.14,0,0,1,1.31,3.12,24.16,24.16,0,0,1,.23,4.1v15.3h-4.22V391.3a11.37,11.37,0,0,0-.49-3.86,4.06,4.06,0,0,0-1.75-2,5.55,5.55,0,0,0-2.94-.76,6.84,6.84,0,0,0-4.65,1.71q-2,1.71-2,6.49v13.59Z" fill="#2391bc"/><path d="M183.07,399l4.17-.66a5.83,5.83,0,0,0,2,3.84,6.82,6.82,0,0,0,4.49,1.34,6.59,6.59,0,0,0,4.31-1.18,3.54,3.54,0,0,0,1.41-2.78,2.56,2.56,0,0,0-1.24-2.25,18.3,18.3,0,0,0-4.31-1.43,39.35,39.35,0,0,1-6.43-2,6.14,6.14,0,0,1-3.64-5.71,6.41,6.41,0,0,1,.76-3.08,6.83,6.83,0,0,1,2.07-2.36,8.7,8.7,0,0,1,2.68-1.23,12.76,12.76,0,0,1,3.64-.5,14.41,14.41,0,0,1,5.14.84,7,7,0,0,1,3.27,2.29A8.93,8.93,0,0,1,202.8,388l-4.12.56a4.51,4.51,0,0,0-1.63-3,6,6,0,0,0-3.81-1.08,6.9,6.9,0,0,0-4.15,1,2.8,2.8,0,0,0-1.24,2.25,2.33,2.33,0,0,0,.52,1.48,3.72,3.72,0,0,0,1.62,1.13q.63.23,3.73,1.08a51.88,51.88,0,0,1,6.25,2,6.34,6.34,0,0,1,2.78,2.21,6.18,6.18,0,0,1,1,3.61,7.08,7.08,0,0,1-1.23,4A8,8,0,0,1,199,406a12.92,12.92,0,0,1-5.25,1q-4.85,0-7.39-2A9.37,9.37,0,0,1,183.07,399Z" fill="#2391bc"/><path d="M225,397.33l4.15.54a10.76,10.76,0,0,1-3.48,6.71,10.14,10.14,0,0,1-6.88,2.43,10.69,10.69,0,0,1-8.21-3.34q-3.11-3.34-3.11-9.57A17.33,17.33,0,0,1,208.8,387a9.31,9.31,0,0,1,4.07-4.54,12.07,12.07,0,0,1,5.94-1.51,10.33,10.33,0,0,1,6.63,2.05,9.4,9.4,0,0,1,3.3,5.82l-4.1.63a6.81,6.81,0,0,0-2.07-3.77,5.37,5.37,0,0,0-3.6-1.27,6.55,6.55,0,0,0-5.18,2.29q-2,2.29-2,7.23t1.92,7.29a6.25,6.25,0,0,0,5,2.27,5.91,5.91,0,0,0,4.15-1.52A7.56,7.56,0,0,0,225,397.33Z" fill="#2391bc"/><path d="M232.76,406.44V372.08H237v12.33a9.42,9.42,0,0,1,7.45-3.42,10.05,10.05,0,0,1,4.8,1.09,6.4,6.4,0,0,1,2.92,3,13.88,13.88,0,0,1,.88,5.58v15.77h-4.22V390.67q0-3.16-1.37-4.61a5.1,5.1,0,0,0-3.88-1.44,6.84,6.84,0,0,0-3.53,1,5.49,5.49,0,0,0-2.36,2.64,12.11,12.11,0,0,0-.7,4.59v13.62Z" fill="#2391bc"/><path d="M276.49,398.43l4.36.54A10.64,10.64,0,0,1,277,404.9a12.94,12.94,0,0,1-15.79-1.25q-3.2-3.36-3.2-9.43,0-6.28,3.23-9.75a11,11,0,0,1,8.39-3.47,10.64,10.64,0,0,1,8.16,3.4Q281,387.79,281,394q0,.38,0,1.13H262.41a9.56,9.56,0,0,0,2.32,6.28,6.91,6.91,0,0,0,5.2,2.18,6.46,6.46,0,0,0,4-1.22A8.09,8.09,0,0,0,276.49,398.43Zm-13.85-6.82h13.9a8.43,8.43,0,0,0-1.59-4.71,6.47,6.47,0,0,0-5.23-2.44,6.7,6.7,0,0,0-4.89,1.95A7.7,7.7,0,0,0,262.64,391.61Z" fill="#2391bc"/><path d="M315.63,406.44V403.3a7.74,7.74,0,0,1-7,3.7,9.76,9.76,0,0,1-5.47-1.64,10.79,10.79,0,0,1-3.87-4.58A15.84,15.84,0,0,1,298,394a17.7,17.7,0,0,1,1.24-6.76,9.8,9.8,0,0,1,3.73-4.65,10,10,0,0,1,5.55-1.62,8.3,8.3,0,0,1,6.87,3.42V372.08h4.2v34.36ZM302.3,394q0,4.78,2,7.15a6.08,6.08,0,0,0,4.76,2.37,6,6,0,0,0,4.7-2.26q1.93-2.26,1.93-6.9,0-5.11-2-7.5a6.06,6.06,0,0,0-4.85-2.39,5.85,5.85,0,0,0-4.7,2.3Q302.3,389.08,302.3,394Z" fill="#2391bc"/><path d="M326.2,376.94v-4.85h4.22v4.85Zm0,29.51V381.55h4.22v24.89Z" fill="#2391bc"/><path d="M336.8,406.44V381.55h3.8v3.77a10.3,10.3,0,0,1,2.68-3.49A4.68,4.68,0,0,1,346,381a8.23,8.23,0,0,1,4.34,1.36l-1.45,3.91a6,6,0,0,0-3.09-.91,4,4,0,0,0-2.48.83,4.51,4.51,0,0,0-1.57,2.31,16.43,16.43,0,0,0-.7,4.92v13Z" fill="#2391bc"/><path d="M82.77,469.48,73.3,444.59h4.45l5.34,14.91q.87,2.41,1.59,5,.56-2,1.57-4.73l5.53-15.19h4.34l-9.42,24.89Z" fill="#2391bc"/><path d="M99.88,440v-4.85h4.22V440Zm0,29.51V444.59h4.22v24.89Z" fill="#2391bc"/><path d="M127.56,461.46l4.36.54a10.64,10.64,0,0,1-3.82,5.93,12.94,12.94,0,0,1-15.79-1.25q-3.2-3.36-3.2-9.43,0-6.28,3.23-9.75a11,11,0,0,1,8.39-3.47,10.64,10.64,0,0,1,8.16,3.4q3.16,3.4,3.16,9.56,0,.38,0,1.13H113.47a9.56,9.56,0,0,0,2.32,6.28,6.91,6.91,0,0,0,5.2,2.18,6.46,6.46,0,0,0,4-1.22A8.09,8.09,0,0,0,127.56,461.46Zm-13.85-6.82h13.9a8.43,8.43,0,0,0-1.59-4.71,6.47,6.47,0,0,0-5.23-2.44,6.7,6.7,0,0,0-4.89,1.95A7.7,7.7,0,0,0,113.71,454.64Z" fill="#2391bc"/><path d="M137.12,469.48V435.12h4.22v34.36Z" fill="#2391bc"/><path d="M177.83,456v-4l14.55,0V464.7a25.7,25.7,0,0,1-6.91,4,20.51,20.51,0,0,1-7.31,1.35,19.51,19.51,0,0,1-9.2-2.17,14.33,14.33,0,0,1-6.25-6.27,19.74,19.74,0,0,1-2.11-9.16,21.26,21.26,0,0,1,2.1-9.36,14,14,0,0,1,6-6.46,18.91,18.91,0,0,1,9.07-2.11,18,18,0,0,1,6.74,1.21,11.17,11.17,0,0,1,4.72,3.36,14.92,14.92,0,0,1,2.6,5.63l-4.1,1.13a12.69,12.69,0,0,0-1.92-4.12,7.88,7.88,0,0,0-3.28-2.4,12,12,0,0,0-4.73-.9,13.94,13.94,0,0,0-5.39.95,10.06,10.06,0,0,0-3.67,2.5,11.9,11.9,0,0,0-2.17,3.4,18,18,0,0,0-1.31,6.91,16.78,16.78,0,0,0,1.58,7.69,10.12,10.12,0,0,0,4.61,4.59,14.26,14.26,0,0,0,6.42,1.5,15.26,15.26,0,0,0,5.77-1.14,14.88,14.88,0,0,0,4.27-2.43V456Z" fill="#2391bc"/><path d="M198.46,469.48V435.12h4.22v34.36Z" fill="#2391bc"/><path d="M225.53,469.48v-3.66a9.11,9.11,0,0,1-7.9,4.22,10.07,10.07,0,0,1-4.11-.84,6.77,6.77,0,0,1-2.84-2.12,8,8,0,0,1-1.3-3.13,21.42,21.42,0,0,1-.26-3.94V444.59h4.22v13.8a24.6,24.6,0,0,0,.26,4.45,4.4,4.4,0,0,0,1.69,2.61,5.23,5.23,0,0,0,3.19.95,6.94,6.94,0,0,0,3.56-1,5.41,5.41,0,0,0,2.36-2.65,13.29,13.29,0,0,0,.69-4.86V444.59h4.22v24.89Zm-12.89-29.77v-4.8H217v4.8Zm8.74,0v-4.8h4.41v4.8Z" fill="#2391bc"/><path d="M252.15,460.36l4.15.54a10.76,10.76,0,0,1-3.48,6.71,10.14,10.14,0,0,1-6.88,2.43,10.69,10.69,0,0,1-8.21-3.34q-3.11-3.34-3.11-9.57a17.33,17.33,0,0,1,1.34-7.05,9.31,9.31,0,0,1,4.07-4.54A12.07,12.07,0,0,1,246,444a10.33,10.33,0,0,1,6.63,2.05,9.4,9.4,0,0,1,3.3,5.82l-4.1.63a6.81,6.81,0,0,0-2.07-3.77,5.37,5.37,0,0,0-3.6-1.27,6.55,6.55,0,0,0-5.18,2.29q-2,2.29-2,7.23t1.92,7.29a6.25,6.25,0,0,0,5,2.27A5.91,5.91,0,0,0,250,465,7.56,7.56,0,0,0,252.15,460.36Z" fill="#2391bc"/><path d="M259.93,469.48V435.12h4.22v19.59l10-10.12h5.46l-9.52,9.23,10.48,15.66h-5.2l-8.23-12.73-3,2.86v9.87Z" fill="#2391bc"/><path d="M313.56,469.48v-3.66a9.11,9.11,0,0,1-7.9,4.22,10.07,10.07,0,0,1-4.11-.84,6.77,6.77,0,0,1-2.84-2.12,8,8,0,0,1-1.3-3.13,21.42,21.42,0,0,1-.26-3.94V444.59h4.22v13.8a24.6,24.6,0,0,0,.26,4.45,4.4,4.4,0,0,0,1.69,2.61,5.23,5.23,0,0,0,3.19.95,6.94,6.94,0,0,0,3.56-1,5.41,5.41,0,0,0,2.36-2.65,13.29,13.29,0,0,0,.69-4.86V444.59h4.22v24.89Z" fill="#2391bc"/><path d="M323.94,469.48V444.59h3.8v3.54a9,9,0,0,1,7.92-4.1,10.39,10.39,0,0,1,4.14.81,6.51,6.51,0,0,1,2.82,2.12,8.14,8.14,0,0,1,1.31,3.12,24.16,24.16,0,0,1,.23,4.1v15.3h-4.22V454.34a11.37,11.37,0,0,0-.49-3.86,4.06,4.06,0,0,0-1.75-2,5.55,5.55,0,0,0-2.94-.76,6.84,6.84,0,0,0-4.65,1.71q-2,1.71-2,6.49v13.59Z" fill="#2391bc"/><path d="M366.79,469.48v-3.14a7.74,7.74,0,0,1-7,3.7,9.76,9.76,0,0,1-5.47-1.64,10.79,10.79,0,0,1-3.87-4.58,15.84,15.84,0,0,1-1.37-6.76,17.7,17.7,0,0,1,1.24-6.76,9.8,9.8,0,0,1,3.73-4.65,10,10,0,0,1,5.55-1.62,8.3,8.3,0,0,1,6.87,3.42V435.12h4.2v34.36Zm-13.34-12.42q0,4.78,2,7.15a6.08,6.08,0,0,0,4.76,2.37,6,6,0,0,0,4.7-2.26q1.93-2.26,1.93-6.9,0-5.11-2-7.5a6.06,6.06,0,0,0-4.85-2.39,5.85,5.85,0,0,0-4.7,2.3Q353.45,452.11,353.45,457.05Z" fill="#2391bc"/><path d="M113.07,518.86v-4l14.55,0v12.75a25.7,25.7,0,0,1-6.91,4,20.51,20.51,0,0,1-7.31,1.35,19.51,19.51,0,0,1-9.2-2.17A14.33,14.33,0,0,1,98,524.48a19.74,19.74,0,0,1-2.11-9.16,21.26,21.26,0,0,1,2.1-9.36,14,14,0,0,1,6-6.46,18.91,18.91,0,0,1,9.07-2.11,18,18,0,0,1,6.74,1.21,11.17,11.17,0,0,1,4.72,3.36,14.92,14.92,0,0,1,2.6,5.63l-4.1,1.13a12.69,12.69,0,0,0-1.92-4.12,7.88,7.88,0,0,0-3.28-2.4,12,12,0,0,0-4.73-.9,13.94,13.94,0,0,0-5.39.95,10.06,10.06,0,0,0-3.67,2.5,11.9,11.9,0,0,0-2.17,3.4,18,18,0,0,0-1.31,6.91,16.78,16.78,0,0,0,1.58,7.69,10.12,10.12,0,0,0,4.61,4.59,14.26,14.26,0,0,0,6.42,1.5,15.26,15.26,0,0,0,5.77-1.14,14.88,14.88,0,0,0,4.27-2.43v-6.4Z" fill="#2391bc"/><path d="M150.83,524.32l4.36.54a10.64,10.64,0,0,1-3.82,5.93,12.94,12.94,0,0,1-15.79-1.25q-3.2-3.36-3.2-9.43,0-6.28,3.23-9.75a11,11,0,0,1,8.39-3.47,10.64,10.64,0,0,1,8.16,3.4q3.16,3.4,3.16,9.56,0,.38,0,1.13H136.75a9.56,9.56,0,0,0,2.32,6.28,6.91,6.91,0,0,0,5.2,2.18,6.46,6.46,0,0,0,4-1.22A8.09,8.09,0,0,0,150.83,524.32ZM137,517.5h13.9a8.43,8.43,0,0,0-1.59-4.71,6.47,6.47,0,0,0-5.23-2.44,6.7,6.7,0,0,0-4.89,1.95A7.7,7.7,0,0,0,137,517.5Z" fill="#2391bc"/><path d="M158.8,524.9l4.17-.66a5.83,5.83,0,0,0,2,3.84,6.82,6.82,0,0,0,4.49,1.34,6.59,6.59,0,0,0,4.31-1.18,3.54,3.54,0,0,0,1.41-2.78,2.56,2.56,0,0,0-1.24-2.25,18.3,18.3,0,0,0-4.31-1.43,39.35,39.35,0,0,1-6.43-2,6.14,6.14,0,0,1-3.64-5.71,6.41,6.41,0,0,1,.76-3.08,6.83,6.83,0,0,1,2.07-2.36,8.7,8.7,0,0,1,2.68-1.23,12.76,12.76,0,0,1,3.64-.5,14.41,14.41,0,0,1,5.14.84,7,7,0,0,1,3.27,2.29,8.93,8.93,0,0,1,1.45,3.86l-4.12.56a4.51,4.51,0,0,0-1.63-3,6,6,0,0,0-3.81-1.08,6.9,6.9,0,0,0-4.15,1,2.8,2.8,0,0,0-1.24,2.25,2.33,2.33,0,0,0,.52,1.48,3.72,3.72,0,0,0,1.62,1.13q.63.23,3.73,1.08a51.88,51.88,0,0,1,6.25,2,6.34,6.34,0,0,1,2.78,2.21,6.18,6.18,0,0,1,1,3.61,7.08,7.08,0,0,1-1.23,4,8,8,0,0,1-3.55,2.88,12.92,12.92,0,0,1-5.25,1q-4.85,0-7.39-2A9.37,9.37,0,0,1,158.8,524.9Z" fill="#2391bc"/><path d="M200.8,532.33v-3.66a9.11,9.11,0,0,1-7.9,4.22,10.07,10.07,0,0,1-4.11-.84,6.77,6.77,0,0,1-2.84-2.12,8,8,0,0,1-1.3-3.13,21.42,21.42,0,0,1-.26-3.94V507.44h4.22v13.8a24.6,24.6,0,0,0,.26,4.45,4.4,4.4,0,0,0,1.69,2.61,5.23,5.23,0,0,0,3.19.95,6.94,6.94,0,0,0,3.56-1,5.41,5.41,0,0,0,2.36-2.65,13.29,13.29,0,0,0,.69-4.86V507.44h4.22v24.89Z" fill="#2391bc"/><path d="M211.18,532.33V507.44H215V511a9,9,0,0,1,7.92-4.1,10.39,10.39,0,0,1,4.14.81,6.51,6.51,0,0,1,2.82,2.12,8.14,8.14,0,0,1,1.31,3.12,24.16,24.16,0,0,1,.23,4.1v15.3h-4.22V517.19a11.37,11.37,0,0,0-.49-3.86,4.06,4.06,0,0,0-1.75-2,5.55,5.55,0,0,0-2.94-.76,6.84,6.84,0,0,0-4.65,1.71q-2,1.71-2,6.49v13.59Z" fill="#2391bc"/><path d="M254,532.33v-3.14a7.74,7.74,0,0,1-7,3.7,9.76,9.76,0,0,1-5.47-1.64,10.79,10.79,0,0,1-3.87-4.58,15.84,15.84,0,0,1-1.37-6.76,17.7,17.7,0,0,1,1.24-6.76,9.8,9.8,0,0,1,3.73-4.65,10,10,0,0,1,5.55-1.62,8.3,8.3,0,0,1,6.87,3.42V498h4.2v34.36Zm-13.34-12.42q0,4.78,2,7.15a6.08,6.08,0,0,0,4.76,2.37,6,6,0,0,0,4.7-2.26q1.93-2.26,1.93-6.9,0-5.11-2-7.5a6.06,6.06,0,0,0-4.85-2.39,5.85,5.85,0,0,0-4.7,2.3Q240.69,515,240.69,519.91Z" fill="#2391bc"/><path d="M264.57,532.33V498h4.22V510.3a9.42,9.42,0,0,1,7.45-3.42,10.05,10.05,0,0,1,4.8,1.09,6.4,6.4,0,0,1,2.92,3,13.88,13.88,0,0,1,.88,5.58v15.77h-4.22V516.56q0-3.16-1.37-4.61a5.1,5.1,0,0,0-3.88-1.44,6.84,6.84,0,0,0-3.53,1,5.49,5.49,0,0,0-2.36,2.64,12.11,12.11,0,0,0-.7,4.59v13.62Z" fill="#2391bc"/><path d="M308.31,524.32l4.36.54a10.64,10.64,0,0,1-3.82,5.93,12.94,12.94,0,0,1-15.79-1.25q-3.2-3.36-3.2-9.43,0-6.28,3.23-9.75a11,11,0,0,1,8.39-3.47,10.64,10.64,0,0,1,8.16,3.4q3.16,3.4,3.16,9.56,0,.38,0,1.13H294.22a9.56,9.56,0,0,0,2.32,6.28,6.91,6.91,0,0,0,5.2,2.18,6.46,6.46,0,0,0,4-1.22A8.09,8.09,0,0,0,308.31,524.32Zm-13.85-6.82h13.9a8.43,8.43,0,0,0-1.59-4.71,6.47,6.47,0,0,0-5.23-2.44,6.7,6.7,0,0,0-4.89,1.95A7.7,7.7,0,0,0,294.46,517.5Z" fill="#2391bc"/><path d="M318,502.83V498h4.22v4.85Zm0,29.51V507.44h4.22v24.89Z" fill="#2391bc"/><path d="M337.84,528.56l.61,3.73a15.65,15.65,0,0,1-3.19.38,7.22,7.22,0,0,1-3.56-.73,4.07,4.07,0,0,1-1.78-1.91,15.1,15.1,0,0,1-.52-5V510.72h-3.09v-3.28h3.09v-6.16l4.2-2.53v8.7h4.24v3.28H333.6v14.55a7.35,7.35,0,0,0,.22,2.32,1.76,1.76,0,0,0,.73.82,2.81,2.81,0,0,0,1.44.3A13.72,13.72,0,0,0,337.84,528.56Z" fill="#2391bc"/><path d="M344.21,523.8l-1.29-18.21V498h5.23v7.62l-1.22,18.21Zm-1.1,8.53v-4.8H348v4.8Z" fill="#2391bc"/></g></svg>