<svg id="card-2-0" xmlns="http://www.w3.org/2000/svg" viewBox="0 0 444 666"><title>card-2-0</title><g id="card-2-0-particles"><path d="M220.39,630.64l-.28.42c-.09.13-.16.28-.25.41H220c.17-.25.38-.46.56-.7Z" fill="none"/><path d="M225.54,631.47h0Z" fill="none"/><path d="M366.47,54.28a19.17,19.17,0,0,0-5,4.09,7.41,7.41,0,0,0-1.76,5.78,3.64,3.64,0,0,0,1.08,2.1c1.76,1.57,4.69.58,6.84-.54,5.95-3.12,11.61-6.76,17.91-9.21,2.72-1.06,5.68-2,7.63-4a5.71,5.71,0,0,0,1.28-2.27,12.69,12.69,0,0,1-2.34-5A65.22,65.22,0,0,0,366.47,54.28Z" fill="#d5e8f7"/><path d="M395.43,51.12c-4.19,4.48-8.41,9-11.33,14.42s-4.46,12-2.8,17.92a10.71,10.71,0,0,0,4.09,6.23,4.11,4.11,0,0,0,2.85.77c1.76-.29,2.81-2.12,3.42-3.81,2.07-5.74,2-12,3.5-18,1.21-4.85,3.46-9.58,3.24-14.58a5.53,5.53,0,0,0-.38-1.8,5.14,5.14,0,0,1-.9-.21A5.79,5.79,0,0,1,395.43,51.12Z" fill="#d5e8f7"/><path d="M398.71,52.38a2,2,0,0,0-.11.32l-.12.36c2,7,4.09,14,6.81,20.79a33.28,33.28,0,0,0,5.54,9.85c1.89,2.14,5,3.91,7.47,2.45a5,5,0,0,0,2.08-4.68,13.23,13.23,0,0,0-1.77-5.05c-1.08-2.06-2.25-4.08-3.42-6.1L406.27,54.9c-.88-1.52-1.85-3.13-3.44-3.87A6.6,6.6,0,0,1,398.71,52.38Z" fill="#d5e8f7"/><path d="M404.3,49.57l8.81,8A42.14,42.14,0,0,0,422,64.36c3.33,1.7,7.3,2.47,10.83,1.25a5.11,5.11,0,0,0,3.56-3.31c.52-2.26-1.36-4.34-3.27-5.65-7.08-4.88-16.27-5.73-23.55-10.31-1.16-.73-2.52-1.54-3.79-1.12a8.44,8.44,0,0,1-.7,3A6.81,6.81,0,0,1,404.3,49.57Z" fill="#d5e8f7"/><path d="M391.46,43.08c-1.3-.95-1.2-3.06-.2-4.32,0,0,.09-.08.13-.13-4.13-6.1-11.6-9.07-17.42-13.7-1.88-1.49-3.64-3.21-5.85-4.14s-5.08-.82-6.65,1-1.29,4.62-.35,6.84c2.31,5.45,7.7,9,13.19,11.12a49,49,0,0,0,17.19,3.4l.18-.07h0c0-.08,0-.16,0-.23Z" fill="#d5e8f7"/><path d="M397.19,36s0-.08,0-.11c.06-5.53-3.37-10.38-5.41-15.51a32,32,0,0,1-2.25-10.71,15,15,0,0,0-.38-3.81,3.85,3.85,0,0,0-2.46-2.73,4.05,4.05,0,0,0-2.93.53,7.75,7.75,0,0,0-4,6.34,13.31,13.31,0,0,0,.65,4.18A51.08,51.08,0,0,0,394.1,36.89c.43-.16.86-.31,1.3-.45S396.58,36.11,397.19,36Z" fill="#d5e8f7"/><path d="M429,39.1c2.5-1.2,5.23-2.9,5.65-5.66a6.61,6.61,0,0,0-1.46-4.77A6.14,6.14,0,0,0,431.49,27c-1.57-.95-3.56-.76-5.34-.32-5.08,1.24-9.57,4.19-13.83,7.23q-2.48,1.77-4.92,3.61A11.67,11.67,0,0,0,404.77,40a11.61,11.61,0,0,1,1,4.07C413.74,44.87,421.78,42.55,429,39.1Z" fill="#d5e8f7"/><path d="M402.3,36.7a9.82,9.82,0,0,0,.92-1.18c4.64-6.85,9.41-14,10.61-22.22.32-2.18.34-4.55-.83-6.42A6.58,6.58,0,0,0,407.77,4,9.5,9.5,0,0,0,402,5.8a7.88,7.88,0,0,0-2,2,11.7,11.7,0,0,0-1.54,4.87l-.87,5.45a31,31,0,0,0-.5,4.61,31,31,0,0,0,.62,5.56l1.31,7.54a5.47,5.47,0,0,1,3.2.77C402.19,36.6,402.23,36.66,402.3,36.7Z" fill="#d5e8f7"/><path d="M394.49,50.21a6.77,6.77,0,0,0,.94.92,5.79,5.79,0,0,0,1.69,1,5.14,5.14,0,0,0,.9.21,5.37,5.37,0,0,0,.68.06A6.6,6.6,0,0,0,402.84,51a7.42,7.42,0,0,0,1.46-1.47,6.81,6.81,0,0,0,.81-1.31,8.44,8.44,0,0,0,.7-3,9.83,9.83,0,0,0,0-1.16,11.61,11.61,0,0,0-1-4.07c-.17-.38-.36-.75-.57-1.11a7,7,0,0,0-1.9-2.19c-.06,0-.1-.11-.17-.15a5.47,5.47,0,0,0-3.2-.77,10.65,10.65,0,0,0-1.74.21c-.61.12-1.22.28-1.8.45s-.87.28-1.3.45a6.6,6.6,0,0,0-2.7,1.75s-.09.08-.13.13c-1,1.26-1.1,3.37.2,4.32l.19-.22c0,.08,0,.15,0,.23.12.7.28,1.41.46,2.12A12.69,12.69,0,0,0,394.49,50.21Z" fill="#fdd498"/><path d="M391.37,201.76a25.13,25.13,0,0,0-.8,6.71L390.18,226c-.06,2.62-.07,5.41,1.33,7.62a7.81,7.81,0,0,0,5.68,3.39,6.84,6.84,0,0,0,5.19-1.35c1.88-1.58,2.46-4.26,2.42-6.72a30.77,30.77,0,0,0-1.65-8.57,97.81,97.81,0,0,0-7.92-18.45,6.14,6.14,0,0,1-3.86-.13Z" fill="#d5e8f7"/><path d="M387.43,198.56a16.53,16.53,0,0,0-7.48,6.15A33.35,33.35,0,0,0,375.42,216a77.3,77.3,0,0,0-1.74,10.41,16.62,16.62,0,0,0,.08,5,6.5,6.5,0,0,0,2.61,4.17,8.17,8.17,0,0,0,4.2,1.06,6.42,6.42,0,0,0,3.59-.66c1.57-1,2.2-2.89,2.65-4.67,2.45-9.81,2.94-20,3.28-30.11A7.37,7.37,0,0,1,387.43,198.56Z" fill="#d5e8f7"/><path d="M399.66,198.35c7.74,2.83,13.74,9.27,18.3,16.22,1.71,2.62,3.31,5.37,5.6,7.49a3.26,3.26,0,0,0,.88.63,2.56,2.56,0,0,0,1.27.16c2.48-.25,4.32-2.64,4.72-5.11s-.31-5-1.12-7.34a22.8,22.8,0,0,0-3.95-7.67c-2.57-3-6.31-4.62-10-5.95-4.74-1.71-9.74-3-14.75-2.79,0,.18,0,.34,0,.52A7.92,7.92,0,0,1,399.66,198.35Z" fill="#d5e8f7"/><path d="M364.36,223.3a2.73,2.73,0,0,0,1.18-.31,3.18,3.18,0,0,0,.75-.65,33.56,33.56,0,0,0,4.39-7.07c3.62-6.75,8.77-13.3,16.21-16.67l.45-.22a7.87,7.87,0,0,1-.94-3,1.35,1.35,0,0,1-.36-.12l-.12.18c-5.22.27-10.22,2.26-14.88,4.57-3.31,1.64-6.63,3.56-8.7,6.41a18.91,18.91,0,0,0-2.82,7,11.71,11.71,0,0,0-.2,6.3A5.17,5.17,0,0,0,364.36,223.3Z" fill="#d5e8f7"/><path d="M397,201.14l.07.09a48.84,48.84,0,0,1,6.58,11.16c2.17,5.19,3.33,10.66,6.25,15.62a7.51,7.51,0,0,0,3.69,3.54,7.78,7.78,0,0,0,3.7.28,7,7,0,0,0,4.29-1.91,4.86,4.86,0,0,0,.76-4.65,19.75,19.75,0,0,0-3-5.49,85.61,85.61,0,0,0-8.81-11.48,95.57,95.57,0,0,0-7.25-6.57,29.69,29.69,0,0,0-3.9-2.91A7.36,7.36,0,0,1,397,201.14Z" fill="#d5e8f7"/><path d="M387.43,198.56a7.37,7.37,0,0,0,2.65,2.62,6.84,6.84,0,0,0,1.29.58,6.14,6.14,0,0,0,3.86.13,6.84,6.84,0,0,0,1.77-.76,7.36,7.36,0,0,0,2.43-2.32c.09-.15.16-.31.25-.47a7.92,7.92,0,0,0,1-3.84c0-.18,0-.35,0-.52a7.16,7.16,0,1,0-14.31.52,8,8,0,0,0,.08.87,7.87,7.87,0,0,0,.94,3Z" fill="#fdd498"/><path d="M443.91,146.66a9.05,9.05,0,0,0-3-3.92l0-.12c-3-1.34-6.1-2.57-9.23-3.65a29.29,29.29,0,0,0-10.28-2c-3.51.1-7.14,1.47-9.24,4.3a1.82,1.82,0,0,0-.46,1.12c0,.83,1,1.25,1.87,1.19a11.32,11.32,0,0,1,2.44-.28,11,11,0,0,0-5.55,5.75c-.37.89-.54,2.08.22,2.66a2.45,2.45,0,0,0,2.12.08l5.4-1.48a6.11,6.11,0,0,0-1.94,1.44,2.1,2.1,0,0,0-.32,2.27,2.79,2.79,0,0,0,2.13,1.09c7,1,13.83-3.23,20.65-4.51A10.69,10.69,0,0,1,443.91,146.66Z" fill="#d5e8f7"/><path d="M437,139.63a17,17,0,0,0,4,2.79l-.05.21,0,.12a9.05,9.05,0,0,1,3,3.92,10.69,10.69,0,0,0-5.2,3.9c-.15.21-.32.4-.46.61,2-.27,3.86.69,5.74,1.56V141.65c-.65-.2-1.3-.4-2-.59Z" fill="#527325"/><path d="M366.47,588.7a19.18,19.18,0,0,0-5,4.09,7.41,7.41,0,0,0-1.76,5.78,3.64,3.64,0,0,0,1.08,2.1c1.76,1.57,4.69.58,6.84-.54,5.95-3.12,11.61-6.76,17.91-9.21,2.72-1.06,5.68-2,7.63-4a5.71,5.71,0,0,0,1.28-2.27,12.69,12.69,0,0,1-2.34-5A65.21,65.21,0,0,0,366.47,588.7Z" fill="#d5e8f7"/><path d="M395.43,585.55c-4.19,4.48-8.41,9-11.33,14.42s-4.46,12-2.8,17.92a10.71,10.71,0,0,0,4.09,6.23,4.11,4.11,0,0,0,2.85.77c1.76-.29,2.81-2.12,3.42-3.81,2.07-5.74,2-12,3.5-18,1.21-4.85,3.46-9.58,3.24-14.58a5.53,5.53,0,0,0-.38-1.8,5.11,5.11,0,0,1-.9-.21A5.79,5.79,0,0,1,395.43,585.55Z" fill="#d5e8f7"/><path d="M398.71,586.81a2,2,0,0,0-.11.32l-.12.36c2,7,4.09,14,6.81,20.79a33.28,33.28,0,0,0,5.54,9.85c1.89,2.14,5,3.91,7.47,2.45a5,5,0,0,0,2.08-4.68,13.23,13.23,0,0,0-1.77-5.05c-1.08-2.06-2.25-4.08-3.42-6.1l-8.91-15.42c-.88-1.52-1.85-3.13-3.44-3.87A6.6,6.6,0,0,1,398.71,586.81Z" fill="#d5e8f7"/><path d="M404.3,584l8.81,8a42.15,42.15,0,0,0,8.91,6.77c3.33,1.7,7.3,2.47,10.83,1.25a5.11,5.11,0,0,0,3.56-3.31c.52-2.26-1.36-4.34-3.27-5.65-7.08-4.88-16.27-5.73-23.55-10.31-1.16-.73-2.52-1.54-3.79-1.12a8.44,8.44,0,0,1-.7,3A6.81,6.81,0,0,1,404.3,584Z" fill="#d5e8f7"/><path d="M391.46,577.5c-1.3-.95-1.2-3.06-.2-4.32,0,0,.09-.08.13-.13-4.13-6.1-11.6-9.07-17.42-13.7-1.88-1.49-3.64-3.21-5.85-4.14s-5.08-.82-6.65,1-1.29,4.62-.35,6.84c2.31,5.45,7.7,9,13.19,11.12a49,49,0,0,0,17.19,3.4l.18-.07h0c0-.08,0-.15,0-.23Z" fill="#d5e8f7"/><path d="M397.19,570.41s0-.08,0-.11c.06-5.53-3.37-10.38-5.41-15.51a32,32,0,0,1-2.25-10.71,15,15,0,0,0-.38-3.81,3.85,3.85,0,0,0-2.46-2.73,4.05,4.05,0,0,0-2.93.53,7.75,7.75,0,0,0-4,6.34,13.31,13.31,0,0,0,.65,4.18,51.08,51.08,0,0,0,13.63,22.72c.43-.16.86-.31,1.3-.45S396.58,570.53,397.19,570.41Z" fill="#d5e8f7"/><path d="M426.14,561.1c-5.08,1.24-9.57,4.19-13.83,7.23q-2.48,1.77-4.92,3.61a11.67,11.67,0,0,0-2.63,2.48,11.61,11.61,0,0,1,1,4.07c7.94.8,16-1.52,23.22-5,2.5-1.2,5.23-2.9,5.65-5.66a6.61,6.61,0,0,0-1.46-4.77,6.13,6.13,0,0,0-1.72-1.67C429.92,560.47,427.92,560.66,426.14,561.1Z" fill="#d5e8f7"/><path d="M402.3,571.13a9.79,9.79,0,0,0,.92-1.18c4.64-6.85,9.41-14,10.61-22.22.32-2.18.34-4.55-.83-6.42a6.58,6.58,0,0,0-5.22-2.9,9.5,9.5,0,0,0-5.82,1.82,7.88,7.88,0,0,0-2,2,11.7,11.7,0,0,0-1.54,4.87l-.87,5.45a23.23,23.23,0,0,0,.12,10.16l1.31,7.54a5.48,5.48,0,0,1,3.2.77C402.19,571,402.23,571.09,402.3,571.13Z" fill="#d5e8f7"/><path d="M404.19,573.32a7,7,0,0,0-1.9-2.19c-.06,0-.1-.11-.17-.15a5.48,5.48,0,0,0-3.2-.77,10.65,10.65,0,0,0-1.74.21c-.61.12-1.22.28-1.8.45s-.87.28-1.3.45a6.6,6.6,0,0,0-2.7,1.75s-.09.08-.13.13c-1,1.26-1.1,3.37.2,4.32l.19-.22c0,.08,0,.15,0,.23.12.7.28,1.41.46,2.12a12.69,12.69,0,0,0,2.34,5,6.76,6.76,0,0,0,.94.92,5.79,5.79,0,0,0,1.69,1,5.11,5.11,0,0,0,.9.21,5.31,5.31,0,0,0,.68.06,6.6,6.6,0,0,0,4.13-1.35A7.41,7.41,0,0,0,404.3,584a6.81,6.81,0,0,0,.81-1.31,8.44,8.44,0,0,0,.7-3,9.83,9.83,0,0,0,0-1.16,11.61,11.61,0,0,0-1-4.07C404.59,574,404.4,573.68,404.19,573.32Z" fill="#fdd498"/><path d="M183.3,620a19.18,19.18,0,0,1,5,4.09,7.41,7.41,0,0,1,1.76,5.78,3.64,3.64,0,0,1-1.08,2.1c-1.76,1.57-4.69.58-6.84-.54-5.95-3.12-11.61-6.76-17.91-9.21-2.72-1.06-5.68-2-7.63-4a5.71,5.71,0,0,1-1.28-2.27,12.69,12.69,0,0,0,2.34-5A65.21,65.21,0,0,1,183.3,620Z" fill="#d5e8f7"/><path d="M154.34,616.81c4.19,4.48,8.41,9,11.33,14.42s4.46,12,2.8,17.92a10.71,10.71,0,0,1-4.09,6.23,4.11,4.11,0,0,1-2.85.77c-1.76-.29-2.81-2.12-3.42-3.81-2.07-5.74-2-12-3.5-18-1.21-4.85-3.46-9.58-3.24-14.58a5.53,5.53,0,0,1,.38-1.8,5.11,5.11,0,0,0,.9-.21A5.79,5.79,0,0,0,154.34,616.81Z" fill="#d5e8f7"/><path d="M151.06,618.07a2,2,0,0,1,.11.32l.12.36c-2,7-4.09,14-6.81,20.79A33.28,33.28,0,0,1,139,649.4c-1.89,2.14-5,3.91-7.47,2.45a5,5,0,0,1-2.08-4.68,13.23,13.23,0,0,1,1.77-5.05c1.08-2.06,2.25-4.08,3.42-6.1l8.91-15.42c.88-1.52,1.85-3.13,3.44-3.87A6.6,6.6,0,0,0,151.06,618.07Z" fill="#d5e8f7"/><path d="M145.47,615.26l-8.81,8a42.15,42.15,0,0,1-8.91,6.77c-3.33,1.7-7.3,2.47-10.83,1.25a5.11,5.11,0,0,1-3.56-3.31c-.52-2.26,1.36-4.34,3.27-5.65,7.08-4.88,16.27-5.73,23.55-10.31,1.16-.73,2.52-1.54,3.79-1.12a8.44,8.44,0,0,0,.7,3A6.81,6.81,0,0,0,145.47,615.26Z" fill="#d5e8f7"/><path d="M158.31,608.77c1.3-.95,1.2-3.06.2-4.32,0,0-.09-.08-.13-.13,4.13-6.1,11.6-9.07,17.42-13.7,1.88-1.49,3.64-3.21,5.85-4.14s5.08-.82,6.65,1,1.29,4.62.35,6.84c-2.31,5.45-7.7,9-13.19,11.12a49,49,0,0,1-17.19,3.4l-.18-.07h0c0-.08,0-.15,0-.23Z" fill="#d5e8f7"/><path d="M152.58,601.68s0-.08,0-.11c-.06-5.53,3.37-10.38,5.41-15.51a32,32,0,0,0,2.25-10.71,15,15,0,0,1,.38-3.81,3.85,3.85,0,0,1,2.46-2.73,4.05,4.05,0,0,1,2.93.53,7.75,7.75,0,0,1,4,6.34,13.31,13.31,0,0,1-.65,4.18,51.08,51.08,0,0,1-13.63,22.72c-.43-.16-.86-.31-1.3-.45S153.19,601.8,152.58,601.68Z" fill="#d5e8f7"/><path d="M123.63,592.36c5.08,1.24,9.57,4.19,13.83,7.23q2.48,1.77,4.92,3.61a11.67,11.67,0,0,1,2.63,2.48,11.61,11.61,0,0,0-1,4.07c-7.94.8-16-1.52-23.22-5-2.5-1.2-5.23-2.9-5.65-5.66a6.61,6.61,0,0,1,1.46-4.77,6.13,6.13,0,0,1,1.72-1.67C119.85,591.74,121.85,591.93,123.63,592.36Z" fill="#d5e8f7"/><path d="M147.48,602.39a9.79,9.79,0,0,1-.92-1.18c-4.64-6.85-9.41-14-10.61-22.22-.32-2.18-.34-4.55.83-6.42a6.58,6.58,0,0,1,5.22-2.9,9.5,9.5,0,0,1,5.82,1.82,7.88,7.88,0,0,1,2,2,11.7,11.7,0,0,1,1.54,4.87l.87,5.45a23.23,23.23,0,0,1-.12,10.16l-1.31,7.54a5.48,5.48,0,0,0-3.2.77C147.58,602.28,147.54,602.35,147.48,602.39Z" fill="#d5e8f7"/><path d="M145.58,604.58a7,7,0,0,1,1.9-2.19c.06,0,.1-.11.17-.15a5.48,5.48,0,0,1,3.2-.77,10.65,10.65,0,0,1,1.74.21c.61.12,1.22.28,1.8.45s.87.28,1.3.45a6.6,6.6,0,0,1,2.7,1.75s.09.08.13.13c1,1.26,1.1,3.37-.2,4.32l-.19-.22c0,.08,0,.15,0,.23-.12.7-.28,1.41-.46,2.12a12.69,12.69,0,0,1-2.34,5,6.76,6.76,0,0,1-.94.92,5.79,5.79,0,0,1-1.69,1,5.11,5.11,0,0,1-.9.21,5.31,5.31,0,0,1-.68.06,6.6,6.6,0,0,1-4.13-1.35,7.41,7.41,0,0,1-1.46-1.47,6.81,6.81,0,0,1-.81-1.31,8.44,8.44,0,0,1-.7-3,9.83,9.83,0,0,1,0-1.16,11.61,11.61,0,0,1,1-4.07C145.18,605.31,145.37,604.94,145.58,604.58Z" fill="#fdd498"/><path d="M374,292.15c-1.88-1.49-3.64-3.21-5.85-4.14s-5.08-.82-6.65,1-1.29,4.62-.35,6.84c.14.32.32.62.48.93h19.16A76.65,76.65,0,0,1,374,292.15Z" fill="#d5e8f7"/><path d="M391.79,287.58a32,32,0,0,1-2.25-10.71,15,15,0,0,0-.38-3.81,3.85,3.85,0,0,0-2.46-2.73,4.05,4.05,0,0,0-2.93.53,7.76,7.76,0,0,0-4,6.34,13.32,13.32,0,0,0,.65,4.18,51,51,0,0,0,7.35,15.39h8.1C394.75,293.67,393,290.68,391.79,287.58Z" fill="#d5e8f7"/><path d="M426.14,293.89a29.1,29.1,0,0,0-7.11,2.88h14.73a9.48,9.48,0,0,0-.57-.89,6.13,6.13,0,0,0-1.72-1.67C429.92,293.26,427.92,293.45,426.14,293.89Z" fill="#d5e8f7"/><path d="M413.82,280.52c.32-2.18.34-4.55-.83-6.42a6.58,6.58,0,0,0-5.22-2.9A9.5,9.5,0,0,0,402,273a7.89,7.89,0,0,0-2,2,11.7,11.7,0,0,0-1.54,4.87l-.87,5.45a23.23,23.23,0,0,0,.12,10.16l.23,1.32h9.27C410.28,291.7,413,286.38,413.82,280.52Z" fill="#d5e8f7"/><path d="M366.47,321.49a19.17,19.17,0,0,0-5,4.09,7.41,7.41,0,0,0-1.76,5.78,3.64,3.64,0,0,0,1.08,2.1c1.76,1.57,4.69.58,6.84-.54,5.95-3.12,11.61-6.76,17.91-9.21,2.72-1.06,5.68-2,7.63-4a5.71,5.71,0,0,0,1.28-2.27,12.69,12.69,0,0,1-2.34-5A65.22,65.22,0,0,0,366.47,321.49Z" fill="#d5e8f7"/><path d="M395.43,318.34c-4.19,4.47-8.41,9-11.33,14.42s-4.46,12-2.8,17.92a10.71,10.71,0,0,0,4.09,6.23,4.11,4.11,0,0,0,2.85.77c1.76-.29,2.81-2.12,3.42-3.81,2.07-5.74,2-12,3.5-18,1.21-4.85,3.46-9.58,3.24-14.58a5.53,5.53,0,0,0-.38-1.8,5.14,5.14,0,0,1-.9-.21A5.79,5.79,0,0,1,395.43,318.34Z" fill="#d5e8f7"/><path d="M398.71,319.6a2,2,0,0,0-.11.32l-.12.36c2,7,4.09,14,6.81,20.79a33.28,33.28,0,0,0,5.54,9.85c1.89,2.14,5,3.91,7.47,2.45a5,5,0,0,0,2.08-4.68,13.23,13.23,0,0,0-1.77-5.05c-1.08-2.06-2.25-4.08-3.42-6.1l-8.91-15.42c-.88-1.52-1.85-3.13-3.44-3.87A6.6,6.6,0,0,1,398.71,319.6Z" fill="#d5e8f7"/><path d="M404.3,316.78l8.81,8a42.14,42.14,0,0,0,8.91,6.77c3.33,1.7,7.3,2.47,10.83,1.25a5.11,5.11,0,0,0,3.56-3.31c.52-2.26-1.36-4.34-3.27-5.65-7.08-4.88-16.27-5.73-23.55-10.31-1.16-.73-2.52-1.54-3.79-1.12a8.44,8.44,0,0,1-.7,3A6.82,6.82,0,0,1,404.3,316.78Z" fill="#d5e8f7"/><path d="M391.46,310.29c-1.3-.95-1.2-3.06-.2-4.32,0,0,.09-.08.13-.13-2.63-3.88-6.58-6.51-10.63-9.08H361.61c2.51,4.91,7.55,8.16,12.71,10.2a49,49,0,0,0,17.19,3.4l.18-.07h0c0-.08,0-.16,0-.23Z" fill="#d5e8f7"/><path d="M397.19,303.2s0-.08,0-.11a17.24,17.24,0,0,0-1.28-6.32h-8.1a50.6,50.6,0,0,0,6.27,7.33c.43-.16.86-.31,1.3-.45S396.58,303.32,397.19,303.2Z" fill="#d5e8f7"/><path d="M412.31,301.12q-2.48,1.77-4.92,3.61a11.66,11.66,0,0,0-2.63,2.48,11.61,11.61,0,0,1,1,4.07c7.94.8,16-1.52,23.22-5,2.5-1.2,5.23-2.9,5.65-5.66a6,6,0,0,0-.9-3.88H419A69.43,69.43,0,0,0,412.31,301.12Z" fill="#d5e8f7"/><path d="M402.3,303.92a9.84,9.84,0,0,0,.92-1.18c1.32-2,2.65-3.94,3.91-6h-9.27l1.08,6.22a5.47,5.47,0,0,1,3.2.77C402.19,303.81,402.23,303.87,402.3,303.92Z" fill="#d5e8f7"/><path d="M404.19,306.11a7,7,0,0,0-1.9-2.19c-.06,0-.1-.11-.17-.15a5.47,5.47,0,0,0-3.2-.77,10.62,10.62,0,0,0-1.74.21c-.61.12-1.22.28-1.8.45s-.87.28-1.3.45a6.6,6.6,0,0,0-2.7,1.75s-.09.08-.13.13c-1,1.26-1.1,3.37.2,4.32l.19-.22c0,.08,0,.15,0,.23.12.7.28,1.41.46,2.12a12.69,12.69,0,0,0,2.34,5,6.76,6.76,0,0,0,.94.92,5.79,5.79,0,0,0,1.69,1,5.14,5.14,0,0,0,.9.21,5.37,5.37,0,0,0,.68.06,6.6,6.6,0,0,0,4.13-1.35,7.42,7.42,0,0,0,1.46-1.47,6.82,6.82,0,0,0,.81-1.31,8.44,8.44,0,0,0,.7-3,9.83,9.83,0,0,0,0-1.16,11.61,11.61,0,0,0-1-4.07C404.59,306.83,404.4,306.46,404.19,306.11Z" fill="#fdd498"/><path d="M391.37,469a25.13,25.13,0,0,0-.8,6.71l-.39,17.51c-.06,2.62-.07,5.41,1.33,7.62a7.81,7.81,0,0,0,5.68,3.39,6.84,6.84,0,0,0,5.19-1.35c1.88-1.58,2.46-4.26,2.42-6.72a30.77,30.77,0,0,0-1.65-8.57,97.81,97.81,0,0,0-7.92-18.45,6.15,6.15,0,0,1-3.86-.13Z" fill="#d5e8f7"/><path d="M387.43,465.77a16.53,16.53,0,0,0-7.48,6.15,33.35,33.35,0,0,0-4.53,11.25,77.3,77.3,0,0,0-1.74,10.41,16.62,16.62,0,0,0,.08,5,6.5,6.5,0,0,0,2.61,4.17,8.17,8.17,0,0,0,4.2,1.06,6.41,6.41,0,0,0,3.59-.66c1.57-.95,2.2-2.89,2.65-4.67,2.45-9.81,2.94-20,3.28-30.11A7.37,7.37,0,0,1,387.43,465.77Z" fill="#d5e8f7"/><path d="M400.62,461.21c0,.18,0,.34,0,.52a7.92,7.92,0,0,1-1,3.84c7.74,2.83,13.74,9.27,18.3,16.22,1.71,2.62,3.31,5.37,5.6,7.49a3.26,3.26,0,0,0,.88.63,2.56,2.56,0,0,0,1.27.16c2.48-.24,4.32-2.64,4.72-5.11s-.31-5-1.12-7.34a22.8,22.8,0,0,0-3.95-7.67c-2.57-3-6.31-4.62-10-5.95C410.63,462.28,405.63,461,400.62,461.21Z" fill="#d5e8f7"/><path d="M386,462.47l-.12.18c-5.22.27-10.22,2.26-14.88,4.57-3.31,1.64-6.63,3.56-8.7,6.41a18.92,18.92,0,0,0-2.82,7,11.71,11.71,0,0,0-.2,6.3,5.17,5.17,0,0,0,5,3.6,2.73,2.73,0,0,0,1.18-.31,3.17,3.17,0,0,0,.75-.65,33.56,33.56,0,0,0,4.39-7.07c3.62-6.76,8.77-13.3,16.21-16.67l.45-.22a7.88,7.88,0,0,1-.94-3A1.35,1.35,0,0,1,386,462.47Z" fill="#d5e8f7"/><path d="M397,468.35l.07.09a48.84,48.84,0,0,1,6.58,11.16c2.17,5.19,3.33,10.66,6.25,15.62a7.51,7.51,0,0,0,3.69,3.54,7.78,7.78,0,0,0,3.7.29,7,7,0,0,0,4.29-1.91,4.86,4.86,0,0,0,.76-4.65,19.75,19.75,0,0,0-3-5.49,85.61,85.61,0,0,0-8.81-11.48,95.69,95.69,0,0,0-7.25-6.57,29.69,29.69,0,0,0-3.9-2.91A7.36,7.36,0,0,1,397,468.35Z" fill="#d5e8f7"/><path d="M400.62,461.21a7.16,7.16,0,1,0-14.31.52,9.63,9.63,0,0,0,1,3.87l.09.18a7.37,7.37,0,0,0,2.65,2.62,6.86,6.86,0,0,0,1.29.58,6.15,6.15,0,0,0,3.86.13,6.86,6.86,0,0,0,1.77-.76,7.36,7.36,0,0,0,2.43-2.32c.09-.15.16-.31.25-.47a7.92,7.92,0,0,0,1-3.84C400.67,461.55,400.63,461.38,400.62,461.21Z" fill="#fdd498"/><path d="M443.91,413.87a9.05,9.05,0,0,0-3-3.92l0-.12c-3-1.34-6.1-2.57-9.23-3.65a29.3,29.3,0,0,0-10.28-2c-3.51.1-7.14,1.47-9.24,4.3a1.82,1.82,0,0,0-.46,1.12c0,.83,1,1.25,1.87,1.19a11.32,11.32,0,0,1,2.44-.28,11,11,0,0,0-5.55,5.75c-.37.89-.54,2.08.22,2.66a2.45,2.45,0,0,0,2.12.08l5.4-1.48a6.11,6.11,0,0,0-1.94,1.44,2.1,2.1,0,0,0-.32,2.27,2.79,2.79,0,0,0,2.13,1.09c7,1,13.83-3.23,20.65-4.51A10.69,10.69,0,0,1,443.91,413.87Z" fill="#d5e8f7"/><path d="M437,406.85a17,17,0,0,0,4,2.79l-.05.21,0,.12a9.05,9.05,0,0,1,3,3.92,10.69,10.69,0,0,0-5.2,3.9c-.15.21-.32.4-.46.61,2-.27,3.86.69,5.74,1.56V408.87c-.65-.2-1.3-.4-2-.59Z" fill="#527325"/><path d="M301.94,160.7a66.17,66.17,0,0,0-.85-27.37,19.32,19.32,0,0,0-2.38-6,7.34,7.34,0,0,0-5-3.43,3.59,3.59,0,0,0-2.32.4c-2,1.22-2,4.32-1.55,6.72,1.16,6.64,2.91,13.17,3.33,19.95.18,2.93.15,6,1.51,8.53a5.69,5.69,0,0,0,1.77,1.92A12.53,12.53,0,0,1,301.94,160.7Z" fill="#d5e8f7"/><path d="M260.21,143.3c-.25,1.78,1.16,3.33,2.58,4.42,4.82,3.72,10.8,5.57,16,8.77,4.24,2.62,8,6.21,12.85,7.5a5.45,5.45,0,0,0,1.82.18,5.21,5.21,0,0,1,.47-.8,5.81,5.81,0,0,1,1.44-1.32c-3-5.36-6-10.78-10.26-15.21s-10-7.88-16.15-8.09a10.61,10.61,0,0,0-7.14,2A4.15,4.15,0,0,0,260.21,143.3Z" fill="#d5e8f7"/><path d="M293.15,164.87c-.1-.08-.14-.2-.26-.25l-.31-.23c-7.26-.15-14.53-.3-21.76.26a32.89,32.89,0,0,0-11,2.34c-2.6,1.17-5.22,3.63-4.58,6.42a5,5,0,0,0,3.81,3.41,13,13,0,0,0,5.33-.17c2.28-.42,4.55-.93,6.82-1.44l17.31-3.89c1.71-.38,3.52-.83,4.7-2.13A6.71,6.71,0,0,1,293.15,164.87Z" fill="#d5e8f7"/><path d="M294.15,171l-10.26,6a42.12,42.12,0,0,0-9.11,6.5c-2.61,2.68-4.54,6.25-4.45,10,0,1.7.61,3.54,2.06,4.41,2,1.18,4.52,0,6.34-1.43,6.76-5.32,10.34-13.87,16.87-19.47,1.05-.9,2.26-2,2.21-3.34a8.29,8.29,0,0,1-2.67-1.54A6.8,6.8,0,0,1,294.15,171Z" fill="#d5e8f7"/><path d="M304.17,160.67c1.29-1,3.26-.22,4.15,1.11,0,.05,0,.11.08.16,7-2.12,12.1-8.39,18.24-12.57,2-1.35,4.15-2.52,5.69-4.36s2.31-4.62,1.06-6.67-4-2.63-6.38-2.39c-5.87.57-10.82,4.68-14.52,9.29a49.58,49.58,0,0,0-8.41,15.46v.19h0l.23,0Z" fill="#d5e8f7"/><path d="M309.16,168.3l.1,0c5.22,1.73,10.86-.1,16.34-.52a31.49,31.49,0,0,1,10.83,1.07,14.8,14.8,0,0,0,3.73.78,3.83,3.83,0,0,0,3.33-1.53,4.12,4.12,0,0,0,.39-3,7.74,7.74,0,0,0-4.82-5.7,13.09,13.09,0,0,0-4.16-.63,50.51,50.51,0,0,0-25.65,6.22c0,.46,0,.92,0,1.38C309.27,167.05,309.23,167.68,309.16,168.3Z" fill="#d5e8f7"/><path d="M298.92,174.09c-3.16,7.38-3.4,15.8-2.3,23.79.38,2.76,1.18,5.89,3.66,7.12a6.51,6.51,0,0,0,5,0,6.11,6.11,0,0,0,2.1-1.14c1.37-1.22,1.8-3.19,1.92-5,.35-5.25-1.09-10.44-2.69-15.44q-.93-2.91-1.94-5.8a11.56,11.56,0,0,0-1.6-3.33A11.3,11.3,0,0,1,298.92,174.09Z" fill="#d5e8f7"/><path d="M306.95,173a9.88,9.88,0,0,0,.84,1.24c5.1,6.52,10.46,13.25,17.87,16.87,2,1,4.22,1.7,6.34,1.14a6.6,6.6,0,0,0,4.33-4.13,9.64,9.64,0,0,0,0-6.12,7.92,7.92,0,0,0-1.25-2.55,11.59,11.59,0,0,0-4.15-2.94l-4.9-2.48a22.89,22.89,0,0,0-9.67-3l-7.54-1a5.53,5.53,0,0,1-1.7,2.83C307.08,172.91,307,172.94,306.95,173Z" fill="#d5e8f7"/><path d="M293.9,163.37a5.21,5.21,0,0,0-.47.8,5.43,5.43,0,0,0-.28.69,6.71,6.71,0,0,0,.05,4.31,7.45,7.45,0,0,0,.95,1.84,6.8,6.8,0,0,0,1,1.17,8.29,8.29,0,0,0,2.67,1.54,9.64,9.64,0,0,0,1.11.36,11.3,11.3,0,0,0,4.12.21,12.43,12.43,0,0,0,1.25-.16,6.94,6.94,0,0,0,2.65-1.16c.06,0,.13-.07.19-.11a5.53,5.53,0,0,0,1.7-2.83,10.83,10.83,0,0,0,.33-1.73c.07-.62.1-1.25.11-1.86,0-.46,0-.92,0-1.38a6.67,6.67,0,0,0-.85-3.12c0-.05,0-.11-.08-.16-.89-1.34-2.86-2.07-4.15-1.11l.15.25-.23,0c-.7-.09-1.42-.16-2.14-.2a12.53,12.53,0,0,0-5.44.73,6.75,6.75,0,0,0-1.16.62A5.81,5.81,0,0,0,293.9,163.37Z" fill="#fdd498"/><path d="M52.51,39.21a66.17,66.17,0,0,0-.85-27.37,19.32,19.32,0,0,0-2.38-6,7.34,7.34,0,0,0-5-3.43,3.59,3.59,0,0,0-2.32.4C40,4,40,7.15,40.46,9.55c1.16,6.64,2.91,13.17,3.33,19.95.18,2.93.15,6,1.51,8.53a5.69,5.69,0,0,0,1.77,1.92A12.53,12.53,0,0,1,52.51,39.21Z" fill="#d5e8f7"/><path d="M10.78,21.82c-.25,1.78,1.16,3.33,2.58,4.42,4.82,3.72,10.8,5.57,16,8.77,4.24,2.62,8,6.21,12.85,7.5a5.45,5.45,0,0,0,1.82.18,5.21,5.21,0,0,1,.47-.8,5.81,5.81,0,0,1,1.44-1.32c-3-5.36-6-10.78-10.26-15.21s-10-7.88-16.15-8.09a10.61,10.61,0,0,0-7.14,2A4.15,4.15,0,0,0,10.78,21.82Z" fill="#d5e8f7"/><path d="M43.72,43.38c-.1-.08-.14-.2-.26-.25l-.31-.23c-7.26-.15-14.53-.3-21.76.26a32.89,32.89,0,0,0-11,2.34c-2.6,1.17-5.22,3.63-4.58,6.42a5,5,0,0,0,3.81,3.41,13,13,0,0,0,5.33-.17c2.28-.42,4.55-.93,6.82-1.44l17.31-3.89c1.71-.38,3.52-.83,4.7-2.13A6.71,6.71,0,0,1,43.72,43.38Z" fill="#d5e8f7"/><path d="M44.72,49.54l-10.26,6a42.12,42.12,0,0,0-9.11,6.5c-2.61,2.68-4.54,6.25-4.45,10,0,1.7.61,3.54,2.06,4.41,2,1.18,4.52,0,6.34-1.43,6.76-5.32,10.34-13.87,16.87-19.47,1.05-.9,2.26-2,2.21-3.34a8.29,8.29,0,0,1-2.67-1.54A6.8,6.8,0,0,1,44.72,49.54Z" fill="#d5e8f7"/><path d="M54.74,39.19C56,38.23,58,39,58.89,40.3c0,.05,0,.11.08.16,7-2.12,12.1-8.39,18.24-12.57,2-1.35,4.15-2.52,5.69-4.36s2.31-4.62,1.06-6.67-4-2.63-6.38-2.39c-5.87.57-10.82,4.68-14.52,9.29a49.58,49.58,0,0,0-8.41,15.46v.19h0l.23,0Z" fill="#d5e8f7"/><path d="M59.74,46.82l.1,0c5.22,1.73,10.86-.1,16.34-.52A31.49,31.49,0,0,1,87,47.42a14.8,14.8,0,0,0,3.73.78,3.83,3.83,0,0,0,3.33-1.53,4.12,4.12,0,0,0,.39-3A7.74,7.74,0,0,0,89.63,38a13.09,13.09,0,0,0-4.16-.63,50.51,50.51,0,0,0-25.65,6.22c0,.46,0,.92,0,1.38C59.84,45.57,59.81,46.2,59.74,46.82Z" fill="#d5e8f7"/><path d="M49.49,52.6C46.33,60,46.1,68.4,47.2,76.4c.38,2.76,1.18,5.89,3.66,7.12a6.51,6.51,0,0,0,5,0,6.11,6.11,0,0,0,2.1-1.14c1.37-1.22,1.8-3.19,1.92-5,.35-5.25-1.09-10.44-2.69-15.44q-.93-2.91-1.94-5.8a11.56,11.56,0,0,0-1.6-3.33A11.3,11.3,0,0,1,49.49,52.6Z" fill="#d5e8f7"/><path d="M57.52,51.5a9.88,9.88,0,0,0,.84,1.24C63.46,59.25,68.82,66,76.23,69.61c2,1,4.22,1.7,6.34,1.14a6.6,6.6,0,0,0,4.33-4.13,9.64,9.64,0,0,0,0-6.12,7.92,7.92,0,0,0-1.25-2.55A11.59,11.59,0,0,0,81.53,55l-4.9-2.48a30.55,30.55,0,0,0-4.21-1.87A30.46,30.46,0,0,0,67,49.57l-7.54-1a5.53,5.53,0,0,1-1.7,2.83C57.65,51.43,57.58,51.45,57.52,51.5Z" fill="#d5e8f7"/><path d="M44.47,41.89a5.21,5.21,0,0,0-.47.8,5.43,5.43,0,0,0-.28.69,6.71,6.71,0,0,0,.05,4.31,7.45,7.45,0,0,0,.95,1.84,6.8,6.8,0,0,0,1,1.17,8.29,8.29,0,0,0,2.67,1.54,9.64,9.64,0,0,0,1.11.36,11.3,11.3,0,0,0,4.12.21,12.43,12.43,0,0,0,1.25-.16,6.94,6.94,0,0,0,2.65-1.16c.06,0,.13-.07.19-.11a5.53,5.53,0,0,0,1.7-2.83,10.83,10.83,0,0,0,.33-1.73c.07-.62.1-1.25.11-1.86,0-.46,0-.92,0-1.38A6.67,6.67,0,0,0,59,40.46c0-.05,0-.11-.08-.16C58,39,56,38.23,54.74,39.19l.15.25-.23,0c-.7-.09-1.42-.16-2.14-.2a12.53,12.53,0,0,0-5.44.73,6.75,6.75,0,0,0-1.16.62A5.81,5.81,0,0,0,44.47,41.89Z" fill="#fdd498"/><path d="M227.59,96.26a6.73,6.73,0,0,1-2,.77,25.08,25.08,0,0,0,2.74,6.17l8.6,15.22c1.29,2.28,2.7,4.68,5,5.85a7.78,7.78,0,0,0,6.61,0,6.89,6.89,0,0,0,3.76-3.84c.81-2.33-.06-4.92-1.35-7a30.56,30.56,0,0,0-5.79-6.5,97,97,0,0,0-16.22-11.74A6.78,6.78,0,0,1,227.59,96.26Z" fill="#d5e8f7"/><path d="M220.59,96.34a16.61,16.61,0,0,0-3.32,9.11,33.41,33.41,0,0,0,1.86,12,77.16,77.16,0,0,0,3.82,9.83,16.57,16.57,0,0,0,2.64,4.28,6.45,6.45,0,0,0,4.37,2.23,8.18,8.18,0,0,0,4.15-1.26,6.46,6.46,0,0,0,2.74-2.42c.86-1.63.41-3.61-.11-5.38-2.91-9.69-7.68-18.67-12.57-27.53A7.31,7.31,0,0,1,220.59,96.34Z" fill="#d5e8f7"/><path d="M230.95,89.82c8.09-1.56,16.53.86,24,4.47,2.81,1.36,5.58,2.9,8.63,3.53a3.24,3.24,0,0,0,1.07.09,2.57,2.57,0,0,0,1.17-.52c2-1.49,2.35-4.5,1.44-6.82s-2.8-4.11-4.71-5.72a22.6,22.6,0,0,0-7.31-4.54c-3.72-1.22-7.77-.7-11.61.06-4.94,1-9.88,2.47-14,5.27.09.13.19.24.27.37A7.92,7.92,0,0,1,230.95,89.82Z" fill="#d5e8f7"/><path d="M218,94.13a1.36,1.36,0,0,1-.38.08v.21c-4.34,2.92-7.61,7.22-10.43,11.6-2,3.12-3.87,6.47-4.19,10a19,19,0,0,0,1.15,7.45,11.66,11.66,0,0,0,3,5.51,5.15,5.15,0,0,0,6.15.49,2.75,2.75,0,0,0,.85-.88,3.2,3.2,0,0,0,.31-.95,33.72,33.72,0,0,0,.16-8.33c-.34-7.67.74-15.95,5.4-22.68l.28-.42A7.81,7.81,0,0,1,218,94.13Z" fill="#d5e8f7"/><path d="M230.18,93.64a48.43,48.43,0,0,1,11.34,6.17c4.52,3.33,8.3,7.42,13.34,10.18a7.46,7.46,0,0,0,5,1.13,7.81,7.81,0,0,0,3.32-1.67,7.08,7.08,0,0,0,2.71-3.85,4.85,4.85,0,0,0-1.72-4.39A19.58,19.58,0,0,0,258.8,98a84.93,84.93,0,0,0-13.42-5.3,95,95,0,0,0-9.57-1.9,29.49,29.49,0,0,0-4.83-.48,7.42,7.42,0,0,1-.9,3.24Z" fill="#d5e8f7"/><path d="M217.53,93.42a7.93,7.93,0,0,0,.52.71,7.81,7.81,0,0,0,2.34,2.09l.21.13a7.31,7.31,0,0,0,3.57.86,6.85,6.85,0,0,0,1.4-.17,6.17,6.17,0,0,0,3.38-1.88,6.92,6.92,0,0,0,1.13-1.56,7.42,7.42,0,0,0,.9-3.24c0-.18,0-.35,0-.53a7.92,7.92,0,0,0-1.1-3.82c-.08-.14-.19-.24-.27-.37a7.32,7.32,0,0,0-9.78-2.47A7.46,7.46,0,0,0,217.53,93.42Z" fill="#fdd498"/><path d="M250.28,230.7a24.87,24.87,0,0,0-5.51,3.87l-13.25,11.36c-2,1.7-4.06,3.55-4.77,6.07a7.9,7.9,0,0,0,1.27,6.52,6.86,6.86,0,0,0,4.46,3c2.43.36,4.8-1,6.6-2.65a30.62,30.62,0,0,0,5.26-6.94,97.77,97.77,0,0,0,8.42-18.23,6.2,6.2,0,0,1-2.47-3Z" fill="#d5e8f7"/><path d="M250,225.66a16.38,16.38,0,0,0-9.53-1.56,32.94,32.94,0,0,0-11.37,4.09,76.46,76.46,0,0,0-8.88,5.62,16.49,16.49,0,0,0-3.69,3.41,6.53,6.53,0,0,0-1.36,4.73,8.27,8.27,0,0,0,2,3.86,6.45,6.45,0,0,0,2.88,2.25c1.75.55,3.61-.27,5.23-1.12,8.91-4.69,16.79-11.1,24.53-17.59A7.43,7.43,0,0,1,250,225.66Z" fill="#d5e8f7"/><path d="M258.33,234.66c3,7.69,2.27,16.48.14,24.53-.8,3-1.78,6.06-1.83,9.19a3.29,3.29,0,0,0,.12,1.08,2.59,2.59,0,0,0,.73,1.06c1.83,1.69,4.83,1.48,6.94.14s3.48-3.54,4.7-5.73a22.83,22.83,0,0,0,3.07-8.07c.49-3.91-.77-7.81-2.24-11.46-1.89-4.69-4.27-9.29-7.79-12.88-.11.11-.2.23-.31.34A7.83,7.83,0,0,1,258.33,234.66Z" fill="#d5e8f7"/><path d="M251.56,222.38l-.21,0c-3.67-3.74-8.48-6.16-13.29-8.12-3.42-1.39-7.05-2.61-10.55-2.26a18.69,18.69,0,0,0-7.06,2.54,11.6,11.6,0,0,0-4.81,4,5.22,5.22,0,0,0,.68,6.17,2.74,2.74,0,0,0,1,.68,3.15,3.15,0,0,0,1,.13,33.18,33.18,0,0,0,8.17-1.41c7.42-1.78,15.71-2.27,23.16,1.07l.46.19a7.86,7.86,0,0,1,1.6-2.7A1.36,1.36,0,0,1,251.56,222.38Z" fill="#d5e8f7"/><path d="M254.49,234.51l0,.11a49,49,0,0,1-3.9,12.36c-2.41,5.09-5.69,9.6-7.43,15.09a7.58,7.58,0,0,0-.17,5.12,7.87,7.87,0,0,0,2.25,3,7,7,0,0,0,4.27,1.95,4.81,4.81,0,0,0,4-2.52,19.78,19.78,0,0,0,2.11-5.87,86.12,86.12,0,0,0,2.66-14.25,96.5,96.5,0,0,0,.05-9.81,30,30,0,0,0-.44-4.86A7.3,7.3,0,0,1,254.49,234.51Z" fill="#d5e8f7"/><path d="M262.74,222.4a7.36,7.36,0,0,0-10.44-.31,9.57,9.57,0,0,0-2.19,3.34c0,.08-.06.15-.09.23a7.43,7.43,0,0,0-.17,3.69,7,7,0,0,0,.43,1.35,6.2,6.2,0,0,0,2.47,3,6.86,6.86,0,0,0,1.74.82,7.3,7.3,0,0,0,3.34.28c.17,0,.34-.08.51-.12a7.83,7.83,0,0,0,3.52-1.8c.12-.11.2-.23.31-.34A7.41,7.41,0,0,0,262.74,222.4Z" fill="#fdd498"/><path d="M311,267.72a9,9,0,0,0,3.57-3.43l.12,0c1-3.16,1.94-6.36,2.69-9.6a29.77,29.77,0,0,0,1-10.49c-.45-3.5-2.16-7-5.17-8.82a1.8,1.8,0,0,0-1.16-.35c-.81.12-1.14,1.17-1,2a11.51,11.51,0,0,1,.52,2.42,11,11,0,0,0-6.24-5c-.91-.28-2.11-.33-2.61.49a2.49,2.49,0,0,0,.13,2.13l2,5.26a6.13,6.13,0,0,0-1.62-1.8,2.07,2.07,0,0,0-2.28-.09,2.82,2.82,0,0,0-.87,2.24c-.3,7.08,4.57,13.52,6.51,20.22A10.73,10.73,0,0,1,311,267.72Z" fill="#d5e8f7"/><path d="M309.14,277.47a11.94,11.94,0,0,1,1.61-.94,9.93,9.93,0,0,0,4-4.94,29.75,29.75,0,0,0,1.58-6.3l.91-5.23a17.08,17.08,0,0,0-2.36,4.27l-.21,0-.12,0a9,9,0,0,1-3.57,3.43,10.73,10.73,0,0,0-4.37-4.81c-.22-.13-.42-.28-.65-.39.85,3.63-2.46,7.24-1.73,10.9.33,1.62,1.43,3,1.54,4.7a7.65,7.65,0,0,1-1.15,3.93,64.45,64.45,0,0,1-10.05,14.31.75.75,0,0,0,.5.43,181.18,181.18,0,0,0,12.67-17.57A6.75,6.75,0,0,1,309.14,277.47Z" fill="#527325"/><path d="M301.57,66.47A10.72,10.72,0,0,1,306.23,71c6.6,2.14,12.87,7.22,19.91,7.12a2.79,2.79,0,0,0,2.25-.81,2.1,2.1,0,0,0,0-2.3,6.13,6.13,0,0,0-1.74-1.67l5.17,2.16a2.45,2.45,0,0,0,2.11.19c.83-.48.81-1.68.56-2.61a11,11,0,0,0-4.77-6.42,11.33,11.33,0,0,1,2.39.6c.81.17,1.86-.13,2-.94a1.82,1.82,0,0,0-.31-1.17c-1.73-3.08-5.15-4.9-8.62-5.45a29.27,29.27,0,0,0-10.46.71c-3.24.67-6.45,1.5-9.62,2.43l0,.12A9,9,0,0,0,301.57,66.47Z" fill="#d5e8f7"/><path d="M272.65,82.13a64,64,0,0,1,14.51-9.69,7.54,7.54,0,0,1,3.94-1c1.64.16,3,1.31,4.63,1.69,3.61.84,7.3-2.39,10.88-1.42-.1-.23-.25-.44-.37-.67a10.72,10.72,0,0,0-4.66-4.53A9,9,0,0,1,305.09,63l0-.12,0-.21a16.92,16.92,0,0,0,4.31-2.25l-5.22.77a29.31,29.31,0,0,0-6.3,1.41,9.9,9.9,0,0,0-5,3.91,12,12,0,0,1-1,1.59,6.74,6.74,0,0,1-1.76,1.33,180.17,180.17,0,0,0-17.83,12.23A.75.75,0,0,0,272.65,82.13Z" fill="#527325"/><path d="M113.65,187.88a19.17,19.17,0,0,0-5,4.09,7.41,7.41,0,0,0-1.76,5.78,3.64,3.64,0,0,0,1.08,2.1c1.76,1.57,4.69.58,6.84-.54,5.95-3.12,11.61-6.76,17.91-9.21,2.72-1.06,5.68-2,7.63-4a5.72,5.72,0,0,0,1.28-2.27,12.68,12.68,0,0,1-2.34-5A65.21,65.21,0,0,0,113.65,187.88Z" fill="#d5e8f7"/><path d="M142.62,184.73c-4.19,4.47-8.41,9-11.33,14.42s-4.46,12-2.8,17.92a10.71,10.71,0,0,0,4.09,6.23,4.11,4.11,0,0,0,2.85.77c1.76-.29,2.81-2.12,3.42-3.81,2.07-5.74,2-12,3.5-18,1.21-4.85,3.46-9.58,3.24-14.58a5.55,5.55,0,0,0-.38-1.8,5.15,5.15,0,0,1-.9-.21A5.79,5.79,0,0,1,142.62,184.73Z" fill="#d5e8f7"/><path d="M145.89,186a2,2,0,0,0-.11.32l-.12.36c2,7,4.09,14,6.81,20.79a33.28,33.28,0,0,0,5.54,9.85c1.89,2.14,5,3.91,7.47,2.45a5,5,0,0,0,2.08-4.68,13.22,13.22,0,0,0-1.77-5.05c-1.08-2.06-2.25-4.08-3.42-6.1l-8.91-15.42c-.88-1.52-1.85-3.13-3.44-3.87A6.6,6.6,0,0,1,145.89,186Z" fill="#d5e8f7"/><path d="M151.48,183.17l8.81,8A42.14,42.14,0,0,0,169.2,198c3.33,1.7,7.3,2.47,10.83,1.25a5.11,5.11,0,0,0,3.56-3.31c.52-2.26-1.36-4.34-3.27-5.65-7.08-4.88-16.27-5.73-23.55-10.31-1.16-.73-2.52-1.54-3.78-1.12a8.44,8.44,0,0,1-.7,3A6.81,6.81,0,0,1,151.48,183.17Z" fill="#d5e8f7"/><path d="M138.65,176.69c-1.3-.95-1.2-3.06-.2-4.32,0,0,.09-.08.13-.13-4.13-6.1-11.6-9.07-17.42-13.7-1.88-1.49-3.64-3.21-5.85-4.14s-5.08-.82-6.65,1-1.29,4.62-.35,6.84c2.31,5.45,7.7,9,13.19,11.12a49,49,0,0,0,17.19,3.4l.18-.07h0l0-.23Z" fill="#d5e8f7"/><path d="M144.38,169.6s0-.08,0-.11C144.45,164,141,159.11,139,154a32,32,0,0,1-2.25-10.71,15,15,0,0,0-.38-3.81,3.85,3.85,0,0,0-2.46-2.73,4.05,4.05,0,0,0-2.93.53,7.75,7.75,0,0,0-4,6.34,13.33,13.33,0,0,0,.65,4.18,51.08,51.08,0,0,0,13.63,22.72c.43-.17.86-.31,1.3-.45S143.77,169.72,144.38,169.6Z" fill="#d5e8f7"/><path d="M176.2,172.7c2.5-1.2,5.23-2.9,5.65-5.66a6.61,6.61,0,0,0-1.46-4.77,6.14,6.14,0,0,0-1.72-1.67c-1.57-.95-3.56-.76-5.34-.32-5.08,1.24-9.57,4.19-13.83,7.23q-2.48,1.77-4.92,3.61a11.68,11.68,0,0,0-2.63,2.48,11.61,11.61,0,0,1,1,4.07C160.92,178.48,169,176.16,176.2,172.7Z" fill="#d5e8f7"/><path d="M149.48,170.31a9.81,9.81,0,0,0,.92-1.18c4.64-6.85,9.41-14,10.61-22.22.32-2.18.34-4.55-.83-6.42a6.58,6.58,0,0,0-5.22-2.9,9.5,9.5,0,0,0-5.82,1.82,7.88,7.88,0,0,0-2,2,11.7,11.7,0,0,0-1.54,4.87l-.87,5.45a31,31,0,0,0-.5,4.61,31,31,0,0,0,.62,5.56l1.31,7.54a5.47,5.47,0,0,1,3.2.77C149.38,170.2,149.42,170.27,149.48,170.31Z" fill="#d5e8f7"/><path d="M141.68,183.81a6.74,6.74,0,0,0,.94.92,5.79,5.79,0,0,0,1.69,1,5.15,5.15,0,0,0,.9.21,5.37,5.37,0,0,0,.68.06,6.6,6.6,0,0,0,4.13-1.35,7.42,7.42,0,0,0,1.46-1.47,6.81,6.81,0,0,0,.81-1.31,8.44,8.44,0,0,0,.7-3,9.83,9.83,0,0,0,0-1.16,11.61,11.61,0,0,0-1-4.07c-.17-.38-.36-.75-.57-1.11a7,7,0,0,0-1.9-2.19c-.06,0-.1-.11-.17-.15a5.47,5.47,0,0,0-3.2-.77,10.62,10.62,0,0,0-1.74.21c-.61.12-1.22.28-1.8.45s-.87.28-1.3.45a6.6,6.6,0,0,0-2.7,1.75s-.09.08-.13.13c-1,1.26-1.1,3.37.2,4.32l.19-.22,0,.23c.12.7.28,1.41.46,2.12A12.68,12.68,0,0,0,141.68,183.81Z" fill="#fdd498"/><path d="M48.75,200.07a10.72,10.72,0,0,1,4.66,4.53c6.6,2.14,12.87,7.22,19.91,7.12a2.79,2.79,0,0,0,2.25-.81,2.1,2.1,0,0,0,0-2.3A6.13,6.13,0,0,0,73.81,207L79,209.11a2.45,2.45,0,0,0,2.11.19c.83-.48.81-1.68.56-2.61a11,11,0,0,0-4.77-6.42,11.33,11.33,0,0,1,2.39.6c.81.17,1.86-.13,2-.94a1.82,1.82,0,0,0-.31-1.17c-1.73-3.08-5.15-4.9-8.62-5.45a29.28,29.28,0,0,0-10.46.71c-3.24.67-6.45,1.5-9.62,2.43l0,.12A9,9,0,0,0,48.75,200.07Z" fill="#d5e8f7"/><path d="M19.83,215.74A64.07,64.07,0,0,1,34.34,206a7.54,7.54,0,0,1,3.94-1c1.64.16,3,1.31,4.62,1.69,3.61.84,7.3-2.39,10.88-1.42-.1-.23-.25-.44-.37-.67a10.72,10.72,0,0,0-4.66-4.53,9,9,0,0,1,3.52-3.49l0-.12,0-.21A16.91,16.91,0,0,0,56.54,194l-5.22.77a29.33,29.33,0,0,0-6.3,1.41,9.9,9.9,0,0,0-5,3.91,12,12,0,0,1-1,1.59A6.73,6.73,0,0,1,37.25,203a180.14,180.14,0,0,0-17.83,12.23A.75.75,0,0,0,19.83,215.74Z" fill="#527325"/><path d="M138.55,68.16a25.15,25.15,0,0,0-.8,6.71l-.39,17.51c-.06,2.62-.07,5.41,1.33,7.62a7.81,7.81,0,0,0,5.68,3.39,6.84,6.84,0,0,0,5.19-1.35c1.88-1.58,2.46-4.26,2.42-6.72a30.77,30.77,0,0,0-1.65-8.57,97.79,97.79,0,0,0-7.92-18.45,6.15,6.15,0,0,1-3.86-.13Z" fill="#d5e8f7"/><path d="M134.61,65a16.53,16.53,0,0,0-7.48,6.15,33.35,33.35,0,0,0-4.53,11.25,77.29,77.29,0,0,0-1.74,10.41,16.63,16.63,0,0,0,.08,5,6.5,6.5,0,0,0,2.61,4.17,8.17,8.17,0,0,0,4.2,1.06,6.42,6.42,0,0,0,3.59-.66c1.57-.95,2.2-2.89,2.65-4.67,2.45-9.81,2.94-20,3.28-30.11A7.37,7.37,0,0,1,134.61,65Z" fill="#d5e8f7"/><path d="M146.85,64.75c7.74,2.83,13.74,9.27,18.3,16.22,1.71,2.62,3.31,5.37,5.6,7.49a3.26,3.26,0,0,0,.88.63,2.56,2.56,0,0,0,1.27.16c2.48-.24,4.32-2.64,4.72-5.11s-.31-5-1.12-7.34a22.81,22.81,0,0,0-3.95-7.67c-2.57-3-6.31-4.62-10-5.95-4.74-1.71-9.74-3-14.75-2.79,0,.18,0,.34,0,.52A7.92,7.92,0,0,1,146.85,64.75Z" fill="#d5e8f7"/><path d="M111.54,89.7a2.73,2.73,0,0,0,1.18-.31,3.18,3.18,0,0,0,.75-.65,33.55,33.55,0,0,0,4.39-7.07c3.62-6.75,8.77-13.3,16.21-16.67l.45-.22a7.88,7.88,0,0,1-.94-3,1.35,1.35,0,0,1-.36-.12l-.12.18c-5.22.27-10.22,2.26-14.88,4.57-3.31,1.64-6.63,3.56-8.7,6.41a18.92,18.92,0,0,0-2.82,7,11.71,11.71,0,0,0-.2,6.3A5.17,5.17,0,0,0,111.54,89.7Z" fill="#d5e8f7"/><path d="M144.17,67.53l.07.09a48.86,48.86,0,0,1,6.58,11.16C153,84,154.16,89.44,157.07,94.4a7.51,7.51,0,0,0,3.69,3.54,7.78,7.78,0,0,0,3.7.29,7,7,0,0,0,4.29-1.91,4.86,4.86,0,0,0,.76-4.65,19.74,19.74,0,0,0-3-5.49,85.61,85.61,0,0,0-8.81-11.48,95.57,95.57,0,0,0-7.25-6.57,29.67,29.67,0,0,0-3.9-2.91A7.36,7.36,0,0,1,144.17,67.53Z" fill="#d5e8f7"/><path d="M134.61,65a7.37,7.37,0,0,0,2.65,2.62,6.88,6.88,0,0,0,1.29.58,6.15,6.15,0,0,0,3.86.13,6.86,6.86,0,0,0,1.77-.76,7.36,7.36,0,0,0,2.43-2.32c.09-.15.16-.31.25-.47a7.92,7.92,0,0,0,1-3.84c0-.18,0-.35,0-.52a7.16,7.16,0,1,0-14.31.52,9.63,9.63,0,0,0,1,3.87Z" fill="#fdd498"/><path d="M160,18.14l5.4-1.48a6.11,6.11,0,0,0-1.94,1.44,2.1,2.1,0,0,0-.32,2.27,2.79,2.79,0,0,0,2.13,1.09c7,1,13.83-3.23,20.65-4.51a10.69,10.69,0,0,1,5.2-3.9,9,9,0,0,0-3-3.92l0-.12c-3-1.34-6.1-2.57-9.23-3.65a29.31,29.31,0,0,0-10.28-2c-3.51.1-7.14,1.47-9.24,4.3a1.82,1.82,0,0,0-.46,1.12c0,.83,1,1.25,1.87,1.19a11.34,11.34,0,0,1,2.44-.29,11,11,0,0,0-5.55,5.75c-.37.89-.54,2.08.22,2.66A2.45,2.45,0,0,0,160,18.14Z" fill="#d5e8f7"/><path d="M191.1,13.06a10.69,10.69,0,0,0-5.2,3.9c-.15.21-.32.4-.45.61,3.68-.49,6.92,3.18,10.61,2.81,1.64-.16,3.16-1.13,4.8-1.08a7.55,7.55,0,0,1,3.77,1.54,64.19,64.19,0,0,1,13.16,11.48.75.75,0,0,0,.48-.46,180.46,180.46,0,0,0-16.13-14.42,6.75,6.75,0,0,1-1.57-1.55,12,12,0,0,1-.77-1.7,9.92,9.92,0,0,0-4.49-4.52,29.34,29.34,0,0,0-6.07-2.2L184.15,6a17,17,0,0,0,4,2.79l-.05.21,0,.12A9,9,0,0,1,191.1,13.06Z" fill="#527325"/><path d="M58.18,134.11a9,9,0,0,0,3.57-3.44l.12,0c1-3.16,1.94-6.36,2.69-9.6a29.76,29.76,0,0,0,1-10.49c-.45-3.5-2.16-7-5.17-8.82a1.8,1.8,0,0,0-1.16-.35c-.81.12-1.14,1.17-1,2a11.51,11.51,0,0,1,.52,2.42,11,11,0,0,0-6.24-5c-.91-.28-2.11-.33-2.61.49a2.49,2.49,0,0,0,.13,2.13l2,5.26a6.13,6.13,0,0,0-1.61-1.8,2.07,2.07,0,0,0-2.28-.09,2.82,2.82,0,0,0-.86,2.24c-.3,7.08,4.57,13.52,6.51,20.22A10.73,10.73,0,0,1,58.18,134.11Z" fill="#d5e8f7"/><path d="M54.95,145.59a6.76,6.76,0,0,1,1.38-1.73,11.93,11.93,0,0,1,1.61-.94A9.94,9.94,0,0,0,62,138a29.77,29.77,0,0,0,1.58-6.3l.91-5.23a17.08,17.08,0,0,0-2.36,4.27l-.21,0-.12,0a9,9,0,0,1-3.57,3.44,10.73,10.73,0,0,0-4.37-4.81c-.22-.13-.42-.28-.65-.39.85,3.63-2.46,7.24-1.73,10.9.33,1.62,1.43,3,1.55,4.7a7.65,7.65,0,0,1-1.15,3.93,64.46,64.46,0,0,1-10,14.31.75.75,0,0,0,.5.43A181.1,181.1,0,0,0,54.95,145.59Z" fill="#527325"/><path d="M220,631.47h2.48a7.45,7.45,0,0,1-1.92-.7C220.41,631,220.2,631.22,220,631.47Z" fill="#d5e8f7"/><path d="M329.69,601.1a11.35,11.35,0,0,1,2.39.6c.81.17,1.86-.13,2-.94a1.82,1.82,0,0,0-.31-1.17c-1.73-3.08-5.15-4.9-8.62-5.45a29.28,29.28,0,0,0-10.46.71c-3.24.67-6.45,1.5-9.62,2.43l0,.12a9,9,0,0,0-3.52,3.49,10.72,10.72,0,0,1,4.66,4.53c6.6,2.14,12.87,7.22,19.91,7.12a2.79,2.79,0,0,0,2.25-.81,2.1,2.1,0,0,0,0-2.3,6.13,6.13,0,0,0-1.74-1.67l5.17,2.16a2.45,2.45,0,0,0,2.11.19c.83-.48.81-1.68.56-2.61A11,11,0,0,0,329.69,601.1Z" fill="#d5e8f7"/><path d="M301.57,600.89a9,9,0,0,1,3.52-3.49l0-.12,0-.21a16.92,16.92,0,0,0,4.31-2.25l-5.22.77a29.31,29.31,0,0,0-6.3,1.41,9.9,9.9,0,0,0-5,3.91,12,12,0,0,1-1,1.59,6.73,6.73,0,0,1-1.76,1.33A180.13,180.13,0,0,0,272.23,616a.75.75,0,0,0,.42.51,64,64,0,0,1,14.51-9.69,7.54,7.54,0,0,1,3.94-1c1.64.16,3,1.31,4.63,1.69,3.61.84,7.3-2.39,10.88-1.42-.1-.23-.25-.44-.37-.67A10.72,10.72,0,0,0,301.57,600.89Z" fill="#527325"/><path d="M301.94,427.91a66.17,66.17,0,0,0-.85-27.37,19.32,19.32,0,0,0-2.38-6,7.34,7.34,0,0,0-5-3.43,3.59,3.59,0,0,0-2.32.4c-2,1.22-2,4.32-1.55,6.72,1.16,6.64,2.91,13.17,3.33,19.95.18,2.93.15,6,1.51,8.53a5.69,5.69,0,0,0,1.77,1.92A12.53,12.53,0,0,1,301.94,427.91Z" fill="#d5e8f7"/><path d="M295.35,429.27c-3-5.36-6-10.78-10.26-15.21s-10-7.88-16.15-8.09a10.61,10.61,0,0,0-7.14,2,4.15,4.15,0,0,0-1.59,2.5c-.25,1.78,1.16,3.33,2.58,4.42,4.82,3.72,10.8,5.57,16,8.77,4.24,2.62,8,6.21,12.85,7.5a5.45,5.45,0,0,0,1.82.18,5.21,5.21,0,0,1,.47-.8A5.8,5.8,0,0,1,295.35,429.27Z" fill="#d5e8f7"/><path d="M293.15,432.08c-.1-.08-.14-.2-.26-.25l-.31-.23c-7.26-.15-14.53-.3-21.76.26a32.89,32.89,0,0,0-11,2.34c-2.6,1.17-5.22,3.63-4.58,6.42A5,5,0,0,0,259,444a13,13,0,0,0,5.33-.17c2.28-.42,4.55-.93,6.82-1.44l17.31-3.89c1.71-.38,3.52-.83,4.7-2.13A6.71,6.71,0,0,1,293.15,432.08Z" fill="#d5e8f7"/><path d="M294.15,438.23l-10.26,6a42.12,42.12,0,0,0-9.11,6.5c-2.61,2.68-4.54,6.25-4.45,10,0,1.7.61,3.54,2.06,4.41,2,1.18,4.52,0,6.34-1.43,6.76-5.32,10.34-13.87,16.87-19.47,1.05-.9,2.26-2,2.21-3.34a8.29,8.29,0,0,1-2.67-1.54A6.79,6.79,0,0,1,294.15,438.23Z" fill="#d5e8f7"/><path d="M304.17,427.89c1.29-1,3.26-.23,4.15,1.11,0,.05,0,.11.08.16,7-2.12,12.1-8.39,18.24-12.57,2-1.35,4.15-2.52,5.69-4.36s2.31-4.62,1.06-6.67-4-2.63-6.38-2.39c-5.87.57-10.82,4.68-14.52,9.29a49.57,49.57,0,0,0-8.41,15.46v.19h0l.23,0Z" fill="#d5e8f7"/><path d="M339.05,426.7a13.11,13.11,0,0,0-4.16-.63,50.52,50.52,0,0,0-25.65,6.22c0,.46,0,.92,0,1.38,0,.61,0,1.24-.11,1.86l.1,0c5.22,1.73,10.86-.1,16.34-.52a31.5,31.5,0,0,1,10.83,1.07,14.79,14.79,0,0,0,3.73.78,3.83,3.83,0,0,0,3.33-1.53,4.12,4.12,0,0,0,.39-3A7.74,7.74,0,0,0,339.05,426.7Z" fill="#d5e8f7"/><path d="M298.92,441.3c-3.16,7.38-3.4,15.8-2.3,23.8.38,2.76,1.18,5.89,3.66,7.12a6.51,6.51,0,0,0,5,0,6.11,6.11,0,0,0,2.1-1.14c1.37-1.22,1.8-3.19,1.92-5,.35-5.25-1.09-10.44-2.69-15.44q-.93-2.91-1.94-5.8a11.56,11.56,0,0,0-1.6-3.33A11.3,11.3,0,0,1,298.92,441.3Z" fill="#d5e8f7"/><path d="M306.95,440.19a9.88,9.88,0,0,0,.84,1.24c5.1,6.52,10.46,13.25,17.87,16.87,2,1,4.22,1.7,6.34,1.14a6.61,6.61,0,0,0,4.33-4.13,9.64,9.64,0,0,0,0-6.12,7.92,7.92,0,0,0-1.25-2.55A11.59,11.59,0,0,0,331,443.7l-4.9-2.48a22.89,22.89,0,0,0-9.67-3l-7.54-1a5.54,5.54,0,0,1-1.7,2.83C307.08,440.13,307,440.15,306.95,440.19Z" fill="#d5e8f7"/><path d="M309.24,432.28a6.67,6.67,0,0,0-.85-3.12c0-.05,0-.11-.08-.16-.89-1.34-2.86-2.07-4.15-1.11l.15.25-.23,0c-.7-.09-1.42-.16-2.14-.2a12.53,12.53,0,0,0-5.44.73,6.73,6.73,0,0,0-1.16.62,5.8,5.8,0,0,0-1.44,1.32,5.21,5.21,0,0,0-.47.8,5.45,5.45,0,0,0-.28.69,6.71,6.71,0,0,0,.05,4.31,7.44,7.44,0,0,0,.95,1.84,6.79,6.79,0,0,0,1,1.17,8.29,8.29,0,0,0,2.67,1.54,9.58,9.58,0,0,0,1.11.36,11.3,11.3,0,0,0,4.12.21,12.26,12.26,0,0,0,1.25-.16,7,7,0,0,0,2.65-1.16c.06,0,.13-.07.19-.11a5.54,5.54,0,0,0,1.7-2.83,10.83,10.83,0,0,0,.33-1.73c.07-.62.1-1.25.11-1.86C309.28,433.2,309.27,432.74,309.24,432.28Z" fill="#fdd498"/><path d="M227.59,363.48a6.72,6.72,0,0,1-2,.77,25.08,25.08,0,0,0,2.74,6.17l8.6,15.22c1.29,2.28,2.7,4.68,5,5.85a7.78,7.78,0,0,0,6.61,0,6.89,6.89,0,0,0,3.76-3.84c.81-2.33-.06-4.92-1.35-7a30.54,30.54,0,0,0-5.79-6.5,97,97,0,0,0-16.22-11.74A6.78,6.78,0,0,1,227.59,363.48Z" fill="#d5e8f7"/><path d="M220.59,363.55a16.61,16.61,0,0,0-3.32,9.12,33.41,33.41,0,0,0,1.86,12,77.14,77.14,0,0,0,3.82,9.83,16.57,16.57,0,0,0,2.64,4.28A6.45,6.45,0,0,0,230,401a8.18,8.18,0,0,0,4.15-1.26,6.46,6.46,0,0,0,2.74-2.42c.86-1.63.41-3.61-.11-5.38-2.91-9.69-7.68-18.67-12.57-27.53A7.31,7.31,0,0,1,220.59,363.55Z" fill="#d5e8f7"/><path d="M254.93,361.51c2.81,1.36,5.58,2.9,8.63,3.53a3.23,3.23,0,0,0,1.07.09,2.57,2.57,0,0,0,1.17-.52c2-1.49,2.35-4.5,1.44-6.82s-2.8-4.11-4.71-5.72a22.61,22.61,0,0,0-7.31-4.54c-3.72-1.22-7.77-.7-11.61.06-4.94,1-9.88,2.48-14,5.27.09.13.19.24.27.37a7.91,7.91,0,0,1,1.1,3.82C239,355.47,247.47,357.89,254.93,361.51Z" fill="#d5e8f7"/><path d="M218,361.34a1.35,1.35,0,0,1-.38.08v.21c-4.34,2.92-7.61,7.22-10.43,11.6-2,3.12-3.87,6.47-4.19,10a19,19,0,0,0,1.15,7.45,11.67,11.67,0,0,0,3,5.51,5.15,5.15,0,0,0,6.15.49,2.75,2.75,0,0,0,.85-.88,3.2,3.2,0,0,0,.31-.95,33.72,33.72,0,0,0,.16-8.33c-.34-7.67.74-15.95,5.4-22.68l.28-.42A7.81,7.81,0,0,1,218,361.34Z" fill="#d5e8f7"/><path d="M230.18,360.85A48.43,48.43,0,0,1,241.52,367c4.52,3.33,8.3,7.42,13.34,10.18a7.46,7.46,0,0,0,5,1.13,7.81,7.81,0,0,0,3.32-1.67,7.08,7.08,0,0,0,2.71-3.85,4.85,4.85,0,0,0-1.72-4.39,19.58,19.58,0,0,0-5.34-3.19,85,85,0,0,0-13.42-5.3,94.93,94.93,0,0,0-9.57-1.9,29.42,29.42,0,0,0-4.83-.48,7.42,7.42,0,0,1-.9,3.24Z" fill="#d5e8f7"/><path d="M229.58,352.85a7.32,7.32,0,0,0-9.78-2.47,7.46,7.46,0,0,0-2.26,10.25,7.89,7.89,0,0,0,.52.71,7.81,7.81,0,0,0,2.34,2.09l.21.13a7.31,7.31,0,0,0,3.57.86,6.85,6.85,0,0,0,1.4-.17,6.17,6.17,0,0,0,3.38-1.88,6.92,6.92,0,0,0,1.13-1.56,7.42,7.42,0,0,0,.9-3.24c0-.18,0-.35,0-.53a7.91,7.91,0,0,0-1.1-3.82C229.77,353.09,229.66,353,229.58,352.85Z" fill="#fdd498"/><path d="M250.28,497.92a24.87,24.87,0,0,0-5.51,3.87l-13.25,11.36c-2,1.7-4.06,3.55-4.77,6.07a7.9,7.9,0,0,0,1.27,6.52,6.86,6.86,0,0,0,4.46,3c2.43.36,4.8-1,6.6-2.65a30.6,30.6,0,0,0,5.26-6.94,97.76,97.76,0,0,0,8.42-18.23,6.2,6.2,0,0,1-2.47-3Z" fill="#d5e8f7"/><path d="M250,492.87a16.38,16.38,0,0,0-9.53-1.56,32.94,32.94,0,0,0-11.37,4.09,76.45,76.45,0,0,0-8.88,5.62,16.49,16.49,0,0,0-3.69,3.41,6.53,6.53,0,0,0-1.36,4.73,8.27,8.27,0,0,0,2,3.86,6.45,6.45,0,0,0,2.88,2.25c1.75.55,3.61-.27,5.23-1.12,8.91-4.69,16.79-11.1,24.53-17.59A7.43,7.43,0,0,1,250,492.87Z" fill="#d5e8f7"/><path d="M270,512.61c-1.89-4.69-4.27-9.29-7.79-12.88-.11.11-.2.23-.31.34a7.82,7.82,0,0,1-3.52,1.8c3,7.69,2.27,16.49.14,24.53-.8,3-1.78,6.06-1.83,9.19a3.29,3.29,0,0,0,.12,1.08,2.59,2.59,0,0,0,.73,1.06c1.83,1.7,4.83,1.48,6.94.14s3.48-3.54,4.7-5.73a22.83,22.83,0,0,0,3.07-8.07C272.69,520.17,271.42,516.26,270,512.61Z" fill="#d5e8f7"/><path d="M251.56,489.59l-.21,0c-3.67-3.74-8.48-6.16-13.29-8.12-3.42-1.39-7.05-2.61-10.55-2.26a18.7,18.7,0,0,0-7.06,2.54,11.6,11.6,0,0,0-4.81,4,5.22,5.22,0,0,0,.68,6.17,2.74,2.74,0,0,0,1,.68,3.15,3.15,0,0,0,1,.13,33.19,33.19,0,0,0,8.17-1.41c7.42-1.78,15.71-2.27,23.16,1.07l.46.19a7.86,7.86,0,0,1,1.6-2.7A1.36,1.36,0,0,1,251.56,489.59Z" fill="#d5e8f7"/><path d="M254.49,501.72l0,.11a49,49,0,0,1-3.9,12.36c-2.41,5.09-5.69,9.6-7.43,15.09a7.58,7.58,0,0,0-.17,5.12,7.87,7.87,0,0,0,2.25,3,7,7,0,0,0,4.27,1.95,4.81,4.81,0,0,0,4-2.52,19.79,19.79,0,0,0,2.11-5.87,86.11,86.11,0,0,0,2.66-14.25,96.5,96.5,0,0,0,.05-9.81,30,30,0,0,0-.44-4.86A7.3,7.3,0,0,1,254.49,501.72Z" fill="#d5e8f7"/><path d="M262.17,499.74a7.18,7.18,0,1,0-9.87-10.43,7.94,7.94,0,0,0-.59.64,7.86,7.86,0,0,0-1.6,2.7c0,.08-.06.15-.09.23a7.43,7.43,0,0,0-.17,3.69,7,7,0,0,0,.43,1.35,6.7,6.7,0,0,0,4.21,3.81,7.3,7.3,0,0,0,3.34.28c.17,0,.34-.08.51-.12a7.82,7.82,0,0,0,3.52-1.8C262,500,262.06,499.85,262.17,499.74Z" fill="#fdd498"/><path d="M311,534.93a9,9,0,0,0,3.57-3.43l.12,0c1-3.16,1.94-6.36,2.69-9.6a29.77,29.77,0,0,0,1-10.49c-.45-3.5-2.16-7-5.17-8.82a1.79,1.79,0,0,0-1.16-.35c-.81.12-1.14,1.17-1,2a11.51,11.51,0,0,1,.52,2.42,11,11,0,0,0-6.24-5c-.91-.28-2.11-.33-2.61.49a2.49,2.49,0,0,0,.13,2.13l2,5.26a6.13,6.13,0,0,0-1.62-1.8,2.07,2.07,0,0,0-2.28-.09,2.82,2.82,0,0,0-.87,2.24c-.3,7.08,4.57,13.52,6.51,20.22A10.73,10.73,0,0,1,311,534.93Z" fill="#d5e8f7"/><path d="M294.6,563.55a.75.75,0,0,0,.5.43,181.1,181.1,0,0,0,12.67-17.57,6.76,6.76,0,0,1,1.38-1.73,11.91,11.91,0,0,1,1.61-.94,9.94,9.94,0,0,0,4-4.94,29.75,29.75,0,0,0,1.58-6.3l.91-5.23a17.08,17.08,0,0,0-2.36,4.27l-.21,0-.12,0a9,9,0,0,1-3.57,3.43,10.73,10.73,0,0,0-4.37-4.81c-.22-.13-.42-.28-.65-.39.85,3.63-2.46,7.24-1.73,10.9.33,1.62,1.43,3,1.54,4.7a7.65,7.65,0,0,1-1.15,3.93A64.43,64.43,0,0,1,294.6,563.55Z" fill="#527325"/><path d="M333.91,342.91c.83-.48.81-1.68.56-2.61a11,11,0,0,0-4.77-6.42,11.37,11.37,0,0,1,2.39.6c.81.17,1.86-.13,2-.94a1.82,1.82,0,0,0-.31-1.17c-1.73-3.08-5.15-4.9-8.62-5.45a29.28,29.28,0,0,0-10.46.71c-3.24.67-6.45,1.5-9.62,2.43l0,.12a9,9,0,0,0-3.52,3.49,10.72,10.72,0,0,1,4.66,4.53c6.6,2.14,12.87,7.22,19.91,7.12a2.79,2.79,0,0,0,2.25-.81,2.1,2.1,0,0,0,0-2.3,6.13,6.13,0,0,0-1.74-1.67l5.17,2.16A2.45,2.45,0,0,0,333.91,342.91Z" fill="#d5e8f7"/><path d="M301.57,333.68a9,9,0,0,1,3.52-3.49l0-.12,0-.21a16.92,16.92,0,0,0,4.31-2.25l-5.22.77a29.31,29.31,0,0,0-6.3,1.41,9.9,9.9,0,0,0-5,3.91,12,12,0,0,1-1,1.59,6.73,6.73,0,0,1-1.76,1.33,180.13,180.13,0,0,0-17.83,12.23.75.75,0,0,0,.42.51,64.07,64.07,0,0,1,14.51-9.69,7.54,7.54,0,0,1,3.94-1c1.64.16,3,1.31,4.63,1.69,3.61.84,7.3-2.39,10.88-1.42-.1-.23-.25-.44-.37-.67A10.72,10.72,0,0,0,301.57,333.68Z" fill="#527325"/><path d="M113.65,455.09a19.17,19.17,0,0,0-5,4.09,7.41,7.41,0,0,0-1.76,5.78,3.64,3.64,0,0,0,1.08,2.1c1.76,1.57,4.69.58,6.84-.54,5.95-3.12,11.61-6.76,17.91-9.21,2.72-1.06,5.68-2,7.63-4a5.71,5.71,0,0,0,1.28-2.27,12.69,12.69,0,0,1-2.34-5A65.21,65.21,0,0,0,113.65,455.09Z" fill="#d5e8f7"/><path d="M142.62,451.94c-4.19,4.48-8.41,9-11.33,14.42s-4.46,12-2.8,17.92a10.71,10.71,0,0,0,4.09,6.23,4.11,4.11,0,0,0,2.85.77c1.76-.29,2.81-2.12,3.42-3.81,2.07-5.74,2-12,3.5-18,1.21-4.85,3.46-9.58,3.24-14.58a5.55,5.55,0,0,0-.38-1.8,5.12,5.12,0,0,1-.9-.21A5.79,5.79,0,0,1,142.62,451.94Z" fill="#d5e8f7"/><path d="M165.47,487a5,5,0,0,0,2.08-4.68,13.22,13.22,0,0,0-1.77-5.05c-1.08-2.06-2.25-4.08-3.42-6.1l-8.91-15.42c-.88-1.52-1.85-3.13-3.44-3.87a6.6,6.6,0,0,1-4.13,1.35,1.94,1.94,0,0,0-.11.32l-.12.36c2,7,4.09,14,6.81,20.79a33.27,33.27,0,0,0,5.54,9.85C159.89,486.66,163,488.44,165.47,487Z" fill="#d5e8f7"/><path d="M151.48,450.39l8.81,8a42.15,42.15,0,0,0,8.91,6.77c3.33,1.7,7.3,2.47,10.83,1.25a5.11,5.11,0,0,0,3.56-3.31c.52-2.26-1.36-4.34-3.27-5.65-7.08-4.88-16.27-5.73-23.55-10.31-1.16-.73-2.52-1.54-3.78-1.12a8.44,8.44,0,0,1-.7,3A6.82,6.82,0,0,1,151.48,450.39Z" fill="#d5e8f7"/><path d="M138.65,443.9c-1.3-.95-1.2-3.06-.2-4.32,0,0,.09-.08.13-.13-4.13-6.1-11.6-9.07-17.42-13.7-1.88-1.49-3.64-3.21-5.85-4.14s-5.08-.82-6.65,1-1.29,4.62-.35,6.84c2.31,5.45,7.7,9,13.19,11.12A49,49,0,0,0,138.7,444l.18-.07h0l0-.23Z" fill="#d5e8f7"/><path d="M144.38,436.81s0-.08,0-.11c.06-5.53-3.37-10.38-5.41-15.51a32,32,0,0,1-2.25-10.71,15,15,0,0,0-.38-3.81,3.85,3.85,0,0,0-2.46-2.73,4.05,4.05,0,0,0-2.93.53,7.75,7.75,0,0,0-4,6.34,13.33,13.33,0,0,0,.65,4.18,51.08,51.08,0,0,0,13.63,22.72c.43-.16.86-.31,1.3-.45S143.77,436.93,144.38,436.81Z" fill="#d5e8f7"/><path d="M176.2,439.91c2.5-1.2,5.23-2.9,5.65-5.66a6.61,6.61,0,0,0-1.46-4.77,6.14,6.14,0,0,0-1.72-1.67c-1.57-.95-3.56-.76-5.34-.32-5.08,1.24-9.57,4.19-13.83,7.23q-2.48,1.77-4.92,3.61a11.68,11.68,0,0,0-2.63,2.48,11.61,11.61,0,0,1,1,4.07C160.92,445.69,169,443.37,176.2,439.91Z" fill="#d5e8f7"/><path d="M149.48,437.52a9.81,9.81,0,0,0,.92-1.18c4.64-6.85,9.41-14,10.61-22.22.32-2.18.34-4.55-.83-6.42a6.58,6.58,0,0,0-5.22-2.9,9.5,9.5,0,0,0-5.82,1.82,7.88,7.88,0,0,0-2,2,11.7,11.7,0,0,0-1.54,4.87l-.87,5.45a23.23,23.23,0,0,0,.12,10.16l1.31,7.54a5.47,5.47,0,0,1,3.2.77C149.38,437.41,149.42,437.48,149.48,437.52Z" fill="#d5e8f7"/><path d="M150,451.85a7.42,7.42,0,0,0,1.46-1.47,6.82,6.82,0,0,0,.81-1.31,8.44,8.44,0,0,0,.7-3,9.83,9.83,0,0,0,0-1.16,11.61,11.61,0,0,0-1-4.07c-.17-.38-.36-.75-.57-1.11a7,7,0,0,0-1.9-2.19c-.06,0-.1-.11-.17-.15a5.47,5.47,0,0,0-3.2-.77,10.62,10.62,0,0,0-1.74.21c-.61.12-1.22.28-1.8.45s-.87.28-1.3.45a6.6,6.6,0,0,0-2.7,1.75s-.09.08-.13.13c-1,1.26-1.1,3.37.2,4.32l.19-.22,0,.23c.12.7.28,1.41.46,2.12a12.69,12.69,0,0,0,2.34,5,6.74,6.74,0,0,0,.94.92,5.79,5.79,0,0,0,1.69,1,5.12,5.12,0,0,0,.9.21,5.32,5.32,0,0,0,.68.06A6.6,6.6,0,0,0,150,451.85Z" fill="#fdd498"/><path d="M49.13,561.51a66.18,66.18,0,0,0-.85-27.37,19.33,19.33,0,0,0-2.38-6,7.34,7.34,0,0,0-5-3.43,3.59,3.59,0,0,0-2.32.4c-2,1.22-2,4.32-1.55,6.72C38.24,538.5,40,545,40.4,551.8c.18,2.93.15,6,1.51,8.53a5.7,5.7,0,0,0,1.77,1.92A12.52,12.52,0,0,1,49.13,561.51Z" fill="#d5e8f7"/><path d="M42.53,562.87c-3-5.36-6-10.78-10.26-15.21s-10-7.88-16.15-8.09a10.61,10.61,0,0,0-7.14,2,4.15,4.15,0,0,0-1.59,2.5c-.25,1.78,1.16,3.33,2.58,4.42,4.82,3.72,10.8,5.57,16,8.77,4.24,2.62,8,6.21,12.84,7.5a5.45,5.45,0,0,0,1.82.18,5.16,5.16,0,0,1,.47-.8A5.81,5.81,0,0,1,42.53,562.87Z" fill="#d5e8f7"/><path d="M40.33,565.68c-.1-.08-.14-.2-.26-.26l-.31-.23c-7.26-.15-14.53-.3-21.76.26A32.88,32.88,0,0,0,7,567.8c-2.6,1.17-5.22,3.63-4.58,6.42a5,5,0,0,0,3.81,3.41,13,13,0,0,0,5.33-.17c2.28-.42,4.55-.93,6.82-1.44l17.31-3.89c1.71-.38,3.52-.83,4.7-2.13A6.71,6.71,0,0,1,40.33,565.68Z" fill="#d5e8f7"/><path d="M41.33,571.84l-10.26,6a42.13,42.13,0,0,0-9.11,6.5c-2.61,2.68-4.54,6.25-4.45,10,0,1.7.61,3.54,2.06,4.41,2,1.18,4.52,0,6.34-1.43,6.76-5.32,10.34-13.87,16.87-19.47,1.05-.9,2.26-2,2.21-3.34A8.29,8.29,0,0,1,42.33,573,6.81,6.81,0,0,1,41.33,571.84Z" fill="#d5e8f7"/><path d="M51.35,561.49c1.29-1,3.26-.23,4.15,1.11,0,.05,0,.11.08.16,7-2.12,12.1-8.39,18.24-12.57,2-1.35,4.15-2.52,5.69-4.36s2.31-4.62,1.06-6.67-4-2.63-6.38-2.39c-5.87.57-10.82,4.68-14.52,9.29a49.58,49.58,0,0,0-8.41,15.46v.19h0l.23,0Z" fill="#d5e8f7"/><path d="M86.24,560.3a13.11,13.11,0,0,0-4.16-.63,50.51,50.51,0,0,0-25.65,6.22c0,.46,0,.92,0,1.38,0,.61,0,1.24-.11,1.86l.1,0c5.22,1.73,10.86-.1,16.34-.52a31.49,31.49,0,0,1,10.83,1.07,14.8,14.8,0,0,0,3.73.78A3.83,3.83,0,0,0,90.68,569a4.12,4.12,0,0,0,.39-3A7.74,7.74,0,0,0,86.24,560.3Z" fill="#d5e8f7"/><path d="M46.11,574.91c-3.16,7.38-3.4,15.8-2.3,23.8.38,2.76,1.18,5.89,3.66,7.12a6.51,6.51,0,0,0,5,0,6.11,6.11,0,0,0,2.1-1.14c1.37-1.22,1.8-3.19,1.92-5,.35-5.25-1.09-10.44-2.68-15.44q-.93-2.91-1.94-5.8a11.56,11.56,0,0,0-1.6-3.33A11.3,11.3,0,0,1,46.11,574.91Z" fill="#d5e8f7"/><path d="M54.13,573.8A9.85,9.85,0,0,0,55,575c5.1,6.52,10.46,13.25,17.87,16.87,2,1,4.22,1.7,6.34,1.14a6.61,6.61,0,0,0,4.33-4.13,9.64,9.64,0,0,0,0-6.12,7.92,7.92,0,0,0-1.25-2.55,11.59,11.59,0,0,0-4.15-2.94l-4.9-2.48A30.56,30.56,0,0,0,69,573a30.49,30.49,0,0,0-5.46-1.08l-7.54-1a5.53,5.53,0,0,1-1.7,2.83C54.27,573.73,54.19,573.75,54.13,573.8Z" fill="#d5e8f7"/><path d="M56.43,565.88a6.67,6.67,0,0,0-.85-3.12c0-.05,0-.11-.08-.16-.89-1.34-2.86-2.07-4.15-1.11l.15.25-.23,0c-.7-.09-1.42-.16-2.15-.2a12.52,12.52,0,0,0-5.44.73,6.72,6.72,0,0,0-1.16.62,5.81,5.81,0,0,0-1.44,1.32,5.16,5.16,0,0,0-.47.8,5.38,5.38,0,0,0-.28.69,6.71,6.71,0,0,0,.05,4.31,7.45,7.45,0,0,0,.95,1.84,6.81,6.81,0,0,0,1,1.17A8.29,8.29,0,0,0,45,574.55a9.64,9.64,0,0,0,1.11.36,11.3,11.3,0,0,0,4.12.21,12.27,12.27,0,0,0,1.25-.16,6.94,6.94,0,0,0,2.65-1.16c.06,0,.13-.07.19-.11a5.53,5.53,0,0,0,1.7-2.83,10.8,10.8,0,0,0,.33-1.73c.07-.62.1-1.25.11-1.86C56.47,566.81,56.46,566.34,56.43,565.88Z" fill="#fdd498"/><path d="M191.1,547.48a9,9,0,0,0-3-3.92l0-.12c-3-1.34-6.1-2.57-9.23-3.65a29.31,29.31,0,0,0-10.28-2c-3.51.1-7.14,1.47-9.24,4.3a1.82,1.82,0,0,0-.46,1.12c0,.83,1,1.25,1.87,1.19a11.34,11.34,0,0,1,2.44-.28,11,11,0,0,0-5.55,5.75c-.37.89-.54,2.08.22,2.66a2.45,2.45,0,0,0,2.12.08l5.4-1.48a6.11,6.11,0,0,0-1.94,1.44,2.1,2.1,0,0,0-.32,2.27,2.79,2.79,0,0,0,2.13,1.09c7,1,13.83-3.23,20.65-4.51A10.69,10.69,0,0,1,191.1,547.48Z" fill="#d5e8f7"/><path d="M200.57,550.31a12.06,12.06,0,0,1-.77-1.7,9.92,9.92,0,0,0-4.49-4.52,29.37,29.37,0,0,0-6.07-2.2l-5.08-1.43a17,17,0,0,0,4,2.79l-.05.21,0,.12a9,9,0,0,1,3,3.92,10.69,10.69,0,0,0-5.2,3.9c-.15.21-.32.4-.45.61,3.68-.49,6.92,3.18,10.61,2.81,1.64-.16,3.16-1.13,4.8-1.08a7.55,7.55,0,0,1,3.77,1.54,64.19,64.19,0,0,1,13.16,11.48.75.75,0,0,0,.48-.46,180.46,180.46,0,0,0-16.13-14.42A6.75,6.75,0,0,1,200.57,550.31Z" fill="#527325"/><path d="M48.75,467.28a10.72,10.72,0,0,1,4.66,4.54C60,474,66.28,479,73.32,478.94a2.79,2.79,0,0,0,2.25-.81,2.1,2.1,0,0,0,0-2.3,6.13,6.13,0,0,0-1.74-1.67L79,476.32a2.45,2.45,0,0,0,2.11.19c.83-.48.81-1.68.56-2.61a11,11,0,0,0-4.77-6.42,11.33,11.33,0,0,1,2.39.6c.81.17,1.86-.13,2-.94A1.82,1.82,0,0,0,81,466c-1.73-3.08-5.15-4.9-8.62-5.45a29.28,29.28,0,0,0-10.46.71c-3.24.67-6.45,1.5-9.62,2.43l0,.12A9,9,0,0,0,48.75,467.28Z" fill="#d5e8f7"/><path d="M19.83,483a64.05,64.05,0,0,1,14.51-9.69,7.55,7.55,0,0,1,3.94-1c1.64.16,3,1.31,4.62,1.69,3.61.84,7.3-2.39,10.88-1.42-.1-.23-.25-.44-.37-.67a10.72,10.72,0,0,0-4.66-4.54,9,9,0,0,1,3.52-3.49l0-.12,0-.21a16.93,16.93,0,0,0,4.31-2.25l-5.22.77a29.33,29.33,0,0,0-6.3,1.41,9.9,9.9,0,0,0-5,3.91,12,12,0,0,1-1,1.59,6.72,6.72,0,0,1-1.76,1.33,180.19,180.19,0,0,0-17.83,12.23A.75.75,0,0,0,19.83,483Z" fill="#527325"/><path d="M49.13,294.3a66.18,66.18,0,0,0-.85-27.37,19.33,19.33,0,0,0-2.38-6,7.34,7.34,0,0,0-5-3.43,3.59,3.59,0,0,0-2.32.4c-2,1.22-2,4.32-1.55,6.72,1.16,6.64,2.91,13.17,3.33,19.95.18,2.93.15,6,1.51,8.53A5.69,5.69,0,0,0,43.68,295,12.53,12.53,0,0,1,49.13,294.3Z" fill="#d5e8f7"/><path d="M42.53,295.66c-3-5.36-6-10.78-10.26-15.21s-10-7.88-16.15-8.09a10.61,10.61,0,0,0-7.14,2,4.15,4.15,0,0,0-1.59,2.5c-.25,1.78,1.16,3.33,2.58,4.42,4.82,3.72,10.8,5.57,16,8.77,3.54,2.19,6.78,5,10.55,6.67h4.78A5.84,5.84,0,0,1,42.53,295.66Z" fill="#d5e8f7"/><path d="M51.35,294.28c1.29-1,3.26-.23,4.15,1.11,0,.05,0,.11.08.16,7-2.12,12.1-8.39,18.24-12.57,2-1.35,4.15-2.52,5.69-4.36s2.31-4.62,1.06-6.67-4-2.63-6.38-2.39c-5.87.57-10.82,4.68-14.52,9.29a49.58,49.58,0,0,0-8.41,15.46v.19h0l.23,0Z" fill="#d5e8f7"/><path d="M86.24,293.09a13.1,13.1,0,0,0-4.16-.63,50.5,50.5,0,0,0-21.82,4.32H90.33A7.71,7.71,0,0,0,86.24,293.09Z" fill="#d5e8f7"/><path d="M41.28,296.77H56.11a5.1,5.1,0,0,0-.53-1.22c0-.05,0-.11-.08-.16-.89-1.34-2.86-2.07-4.15-1.11l.15.25-.23,0c-.7-.09-1.42-.16-2.15-.2a12.53,12.53,0,0,0-5.44.73,6.73,6.73,0,0,0-1.16.62A5.84,5.84,0,0,0,41.28,296.77Z" fill="#fdd498"/><path d="M41.28,296.77H36.5a16.63,16.63,0,0,0,2.3.83,5.45,5.45,0,0,0,1.82.18,5.16,5.16,0,0,1,.47-.8C41.14,296.9,41.22,296.85,41.28,296.77Z" fill="#d5e8f7"/><path d="M40.33,298.47c-.1-.08-.14-.2-.26-.25l-.31-.23c-7.26-.15-14.53-.3-21.76.26a32.88,32.88,0,0,0-11,2.34c-2.6,1.17-5.22,3.63-4.58,6.42a5,5,0,0,0,3.81,3.41,13,13,0,0,0,5.33-.17c2.28-.42,4.55-.93,6.82-1.44l17.31-3.89c1.71-.38,3.52-.83,4.7-2.13A6.71,6.71,0,0,1,40.33,298.47Z" fill="#d5e8f7"/><path d="M41.33,304.63l-10.26,6a42.12,42.12,0,0,0-9.11,6.5c-2.61,2.68-4.54,6.25-4.45,10,0,1.7.61,3.54,2.06,4.41,2,1.18,4.52,0,6.34-1.43,6.76-5.32,10.34-13.87,16.87-19.47,1.05-.9,2.26-2,2.21-3.34a8.29,8.29,0,0,1-2.67-1.54A6.81,6.81,0,0,1,41.33,304.63Z" fill="#d5e8f7"/><path d="M90.33,296.77H60.26c-1.3.58-2.58,1.21-3.83,1.9,0,.46,0,.92,0,1.38,0,.61,0,1.24-.11,1.86l.1,0c5.22,1.73,10.86-.1,16.34-.52a31.49,31.49,0,0,1,10.83,1.07,14.8,14.8,0,0,0,3.73.78,3.83,3.83,0,0,0,3.33-1.53,4.12,4.12,0,0,0,.39-3A7.39,7.39,0,0,0,90.33,296.77Z" fill="#d5e8f7"/><path d="M46.11,307.69c-3.16,7.38-3.4,15.8-2.3,23.8.38,2.76,1.18,5.89,3.66,7.12a6.51,6.51,0,0,0,5,0,6.11,6.11,0,0,0,2.1-1.14c1.37-1.22,1.8-3.19,1.92-5,.35-5.25-1.09-10.44-2.68-15.44q-.93-2.91-1.94-5.8a11.56,11.56,0,0,0-1.6-3.33A11.3,11.3,0,0,1,46.11,307.69Z" fill="#d5e8f7"/><path d="M54.13,306.59a9.87,9.87,0,0,0,.84,1.24c5.1,6.52,10.46,13.25,17.87,16.87,2,1,4.22,1.7,6.34,1.14a6.61,6.61,0,0,0,4.33-4.13,9.64,9.64,0,0,0,0-6.12A7.92,7.92,0,0,0,82.29,313a11.59,11.59,0,0,0-4.15-2.94l-4.9-2.48A30.59,30.59,0,0,0,69,305.74a30.52,30.52,0,0,0-5.46-1.08l-7.54-1a5.53,5.53,0,0,1-1.7,2.83C54.27,306.52,54.19,306.54,54.13,306.59Z" fill="#d5e8f7"/><path d="M56.43,298.67a8.48,8.48,0,0,0-.32-1.9H41.28c-.06.07-.14.13-.2.21a5.16,5.16,0,0,0-.47.8,5.4,5.4,0,0,0-.28.69,6.71,6.71,0,0,0,.05,4.31,7.45,7.45,0,0,0,.95,1.84,6.81,6.81,0,0,0,1,1.17A8.29,8.29,0,0,0,45,307.34a9.58,9.58,0,0,0,1.11.36,11.3,11.3,0,0,0,4.12.21,12.36,12.36,0,0,0,1.25-.16,7,7,0,0,0,2.65-1.16c.06,0,.13-.07.19-.11a5.53,5.53,0,0,0,1.7-2.83,10.8,10.8,0,0,0,.33-1.73c.07-.62.1-1.25.11-1.86C56.47,299.59,56.46,299.13,56.43,298.67Z" fill="#fdd498"/><path d="M138.55,335.37a25.15,25.15,0,0,0-.8,6.71l-.39,17.51c-.06,2.62-.07,5.41,1.33,7.62a7.81,7.81,0,0,0,5.68,3.39,6.84,6.84,0,0,0,5.19-1.35c1.88-1.58,2.46-4.26,2.42-6.72a30.77,30.77,0,0,0-1.65-8.57,97.79,97.79,0,0,0-7.92-18.45,6.14,6.14,0,0,1-3.86-.13Z" fill="#d5e8f7"/><path d="M134.61,332.17a16.53,16.53,0,0,0-7.48,6.15,33.35,33.35,0,0,0-4.53,11.25A77.3,77.3,0,0,0,120.86,360a16.64,16.64,0,0,0,.08,5,6.5,6.5,0,0,0,2.61,4.17,8.17,8.17,0,0,0,4.2,1.06,6.42,6.42,0,0,0,3.59-.66c1.57-1,2.2-2.89,2.65-4.67,2.45-9.81,2.94-20,3.28-30.11A7.36,7.36,0,0,1,134.61,332.17Z" fill="#d5e8f7"/><path d="M146.85,332c7.74,2.83,13.74,9.27,18.3,16.22,1.71,2.62,3.31,5.37,5.6,7.49a3.26,3.26,0,0,0,.88.63,2.56,2.56,0,0,0,1.27.16c2.48-.24,4.32-2.64,4.72-5.11s-.31-5-1.12-7.34a22.81,22.81,0,0,0-3.95-7.67c-2.57-3-6.31-4.62-10-5.95-4.74-1.71-9.74-3-14.75-2.79,0,.18,0,.34,0,.52A7.92,7.92,0,0,1,146.85,332Z" fill="#d5e8f7"/><path d="M111.54,356.91a2.73,2.73,0,0,0,1.18-.31,3.17,3.17,0,0,0,.75-.65,33.55,33.55,0,0,0,4.39-7.07c3.62-6.75,8.77-13.3,16.21-16.67l.45-.22a7.87,7.87,0,0,1-.94-3,1.35,1.35,0,0,1-.36-.12l-.12.18c-5.22.27-10.22,2.26-14.88,4.57-3.31,1.64-6.63,3.56-8.7,6.41a18.92,18.92,0,0,0-2.82,7,11.71,11.71,0,0,0-.2,6.3A5.17,5.17,0,0,0,111.54,356.91Z" fill="#d5e8f7"/><path d="M144.17,334.75l.07.09A48.85,48.85,0,0,1,150.82,346c2.17,5.19,3.33,10.66,6.25,15.62a7.51,7.51,0,0,0,3.69,3.54,7.78,7.78,0,0,0,3.7.28,7,7,0,0,0,4.29-1.91,4.86,4.86,0,0,0,.76-4.65,19.74,19.74,0,0,0-3-5.49,85.59,85.59,0,0,0-8.81-11.48,95.57,95.57,0,0,0-7.25-6.57,29.67,29.67,0,0,0-3.9-2.91A7.36,7.36,0,0,1,144.17,334.75Z" fill="#d5e8f7"/><path d="M134.61,332.17a7.36,7.36,0,0,0,2.65,2.62,6.84,6.84,0,0,0,1.29.58,6.14,6.14,0,0,0,3.86.13,6.84,6.84,0,0,0,1.77-.76,7.36,7.36,0,0,0,2.43-2.32c.09-.15.16-.31.25-.47a7.92,7.92,0,0,0,1-3.84c0-.18,0-.35,0-.52a7.16,7.16,0,1,0-14.31.52,8,8,0,0,0,.08.87,7.87,7.87,0,0,0,.94,3Z" fill="#fdd498"/><path d="M191.1,280.27a9,9,0,0,0-3-3.92l0-.12c-3-1.34-6.1-2.57-9.23-3.65a29.31,29.31,0,0,0-10.28-2c-3.51.1-7.14,1.47-9.24,4.3a1.82,1.82,0,0,0-.46,1.12c0,.83,1,1.25,1.87,1.19a11.34,11.34,0,0,1,2.44-.29,11,11,0,0,0-5.55,5.75c-.37.89-.54,2.08.22,2.66a2.45,2.45,0,0,0,2.12.08l5.4-1.48a6.11,6.11,0,0,0-1.94,1.44,2.1,2.1,0,0,0-.32,2.27,2.79,2.79,0,0,0,2.13,1.09c7,1,13.83-3.23,20.65-4.51A10.7,10.7,0,0,1,191.1,280.27Z" fill="#d5e8f7"/><path d="M200.57,283.09a12,12,0,0,1-.77-1.7,9.92,9.92,0,0,0-4.49-4.52,29.36,29.36,0,0,0-6.07-2.2l-5.08-1.43a17,17,0,0,0,4,2.79l-.05.21,0,.12a9,9,0,0,1,3,3.92,10.7,10.7,0,0,0-5.2,3.9c-.15.21-.32.4-.45.61,3.68-.49,6.92,3.18,10.61,2.81,1.64-.16,3.16-1.13,4.8-1.08a7.55,7.55,0,0,1,3.77,1.54,64.12,64.12,0,0,1,10.59,8.73h.63a180.38,180.38,0,0,0-13.72-12.13A6.75,6.75,0,0,1,200.57,283.09Z" fill="#527325"/><path d="M217.79,299.52a.75.75,0,0,0,.48-.46c-.78-.79-1.62-1.52-2.42-2.29h-.63C216.1,297.67,217,298.58,217.79,299.52Z" fill="#527325"/><path d="M58.18,401.32a9,9,0,0,0,3.57-3.43l.12,0c1-3.16,1.94-6.36,2.69-9.6a29.76,29.76,0,0,0,1-10.49c-.45-3.5-2.16-7-5.17-8.82a1.8,1.8,0,0,0-1.16-.35c-.81.12-1.14,1.17-1,2a11.5,11.5,0,0,1,.52,2.42,11,11,0,0,0-6.24-5c-.91-.28-2.11-.33-2.61.49a2.49,2.49,0,0,0,.13,2.13l2,5.26a6.14,6.14,0,0,0-1.61-1.8,2.07,2.07,0,0,0-2.28-.09,2.82,2.82,0,0,0-.86,2.24c-.3,7.08,4.57,13.52,6.51,20.22A10.73,10.73,0,0,1,58.18,401.32Z" fill="#d5e8f7"/><path d="M41.78,429.94a.75.75,0,0,0,.5.43A181.1,181.1,0,0,0,54.95,412.8a6.76,6.76,0,0,1,1.38-1.73,11.9,11.9,0,0,1,1.61-.94,9.94,9.94,0,0,0,4-4.94,29.77,29.77,0,0,0,1.58-6.3l.91-5.23a17.08,17.08,0,0,0-2.36,4.27l-.21,0-.12,0a9,9,0,0,1-3.57,3.43,10.73,10.73,0,0,0-4.37-4.81c-.22-.13-.42-.28-.65-.39.85,3.63-2.46,7.24-1.73,10.9.33,1.62,1.43,3,1.55,4.7a7.65,7.65,0,0,1-1.15,3.93A64.45,64.45,0,0,1,41.78,429.94Z" fill="#527325"/></g><g id="card-2-0-cupcake"><ellipse id="shadow" cx="230" cy="553.94" rx="78.31" ry="12.07" fill="#d1d3d4" opacity="0.87"/><path d="M312.93,437.82c0-7.43-6-14.3-16.15-19.88a16.12,16.12,0,0,0,2.62-19,15.92,15.92,0,0,0-19-7.49,19.5,19.5,0,0,0,1.06-17.11c-3.19-7.53-10.46-10.28-16.25-6.13-1,.71-2,1.38-3,2a18.61,18.61,0,0,0,1-6c0-9.38-7.12-17.56-17.7-21.94-.29-8.87-15-26.66-15-26.66s1.31,9.43-2.72,15.72c-2.66,4.15-8.64,6.21-11.12,8.83-14.09,3.34-24.26,12.84-24.26,24a18.93,18.93,0,0,0,2,8.45,38.38,38.38,0,0,1-3.46-2.37c-5.59-4.52-12.94-2.31-16.44,5a19.44,19.44,0,0,0,.78,18,15.92,15.92,0,0,0-18.6,6.67,16.12,16.12,0,0,0,1.11,18.61c-9.51,5.48-15.1,12.13-15.1,19.29,0,5.42,3.2,10.54,8.86,15.08a42.08,42.08,0,0,0-1,8.92c0,31.19,34.42,56.47,76.89,56.47s76.88-25.28,76.88-56.47a42.23,42.23,0,0,0-.88-8.54C309.55,448.63,312.93,443.39,312.93,437.82Z" fill="#f8a3b0"/><path d="M194.72,372.63a30.08,30.08,0,0,0,2.93,4.53,44.87,44.87,0,0,0,3.49,4.06,51.41,51.41,0,0,0,3.9,3.6,45.65,45.65,0,0,0,4.25,3.1c.73.48,1.47.95,2.24,1.36s1.52.86,2.3,1.24,1.54.79,2.35,1.13,1.58.72,2.4,1c1.61.64,3.27,1.14,4.93,1.63s3.36.85,5.06,1.15c.84.19,1.7.33,2.56.43s1.71.26,2.58.34c1.73.14,3.45.33,5.2.33s3.48,0,5.22,0,3.49-.18,5.23-.26,3.48-.37,5.22-.57,3.47-.53,5.2-.84l5.18-1,5.16-1.2L285.72,389l-12,10.45c-1.19,1-2.15,1.75-3.24,2.55s-2.13,1.51-3.22,2.21c-2.17,1.4-4.38,2.73-6.63,3.93s-4.57,2.3-6.89,3.33-4.68,2-7.06,2.87-4.77,1.71-7.19,2.46-4.87,1.38-7.32,2l-3.69.85-3.71.74c-2.48.45-5,.9-7.44,1.23s-5,.59-7.49.8-5,.35-7.5.48-5,.18-7.5.1l-3.74-.05-3.74-.17c-2.49-.06-5-.33-7.45-.54s-4.94-.56-7.4-.84-4.9-.79-7.34-1.17l-7.27-1.51.06-.45,7.33.84c2.45.2,4.9.44,7.35.61s4.91.31,7.36.36,4.91.15,7.37.11l3.68,0,3.68-.13c2.46-.06,4.91-.27,7.36-.42s4.9-.43,7.33-.74,4.87-.63,7.29-1,4.84-.87,7.24-1.37l3.6-.8,3.57-.91c2.37-.64,4.73-1.31,7.07-2.07s4.66-1.55,6.94-2.44,4.56-1.82,6.79-2.83,4.44-2.1,6.6-3.25,4.29-2.39,6.36-3.7a56.7,56.7,0,0,0,5.94-4.28l.38.72-5.33,1.19-5.37,1c-1.8.28-3.61.49-5.41.74s-3.63.33-5.45.46-3.64.19-5.46.14-3.65,0-5.46-.2-3.63-.35-5.44-.57c-.91-.12-1.8-.31-2.7-.46s-1.79-.33-2.68-.56c-1.78-.39-3.53-.92-5.28-1.46s-3.44-1.23-5.1-2c-.85-.34-1.65-.77-2.47-1.18s-1.62-.85-2.4-1.31-1.57-.94-2.33-1.44-1.51-1-2.25-1.57a45.07,45.07,0,0,1-8-7.53,37,37,0,0,1-5.78-9.32Z" fill="#f68092"/><path d="M262.32,370.25a10.92,10.92,0,0,1-2.23,3.44,17.78,17.78,0,0,1-3.13,2.68,22.88,22.88,0,0,1-3.61,2,28.85,28.85,0,0,1-3.87,1.44,36,36,0,0,1-4,.91c-1.35.26-2.72.4-4.08.54s-2.73.2-4.1.23-2.74,0-4.1,0-2.73-.08-4.09-.24-2.72-.26-4.07-.46c-2.71-.35-5.39-.8-8.06-1.34-1.34-.25-2.67-.54-4-.85s-2.65-.6-4-.95-2.64-.65-3.94-1-2.61-.75-3.91-1.14l-9.43-2.83,9.86.2,4,.08c1.32,0,2.63,0,3.95-.05s2.62-.13,3.93-.21,2.61-.25,3.91-.4,2.58-.4,3.87-.61,2.54-.58,3.82-.86,2.51-.7,3.72-1.17l1.82-.67,1.77-.8c.6-.24,1.14-.6,1.72-.9a14,14,0,0,0,1.66-1,23.5,23.5,0,0,0,3.07-2.34,22,22,0,0,0,4.75-6.07,22.26,22.26,0,0,0,2.46-7.42,24.5,24.5,0,0,0-.06-7.93l.15,0a24.8,24.8,0,0,1,.37,8,22.94,22.94,0,0,1-2.23,7.71,20.72,20.72,0,0,1-2.1,3.43,22.8,22.8,0,0,1-2.68,3,24.49,24.49,0,0,1-3.14,2.51,14.86,14.86,0,0,1-1.69,1.08c-.59.32-1.14.7-1.76,1l-1.81.87-1.87.74c-1.24.52-2.54.84-3.8,1.26s-2.59.68-3.9.91-2.62.52-3.95.66-2.65.36-4,.44-2.66.24-4,.25-2.67.12-4,.09l-4,0,0-.29,3.89,1.12c1.29.39,2.6.7,3.9,1.06s2.61.67,3.93,1,2.63.62,3.95.87c2.64.55,5.29,1,8,1.4,1.33.2,2.67.36,4,.49s2.69.22,4,.32,2.69.11,4,.11,2.69,0,4-.14,2.69-.21,4-.43a34.92,34.92,0,0,0,4-.8,28.89,28.89,0,0,0,3.84-1.25,22.51,22.51,0,0,0,3.6-1.82,17.27,17.27,0,0,0,3.16-2.5,10.67,10.67,0,0,0,2.31-3.27Z" fill="#f68092"/><path d="M296.91,418.12l-1.31,1.14c-.87.72-2.12,1.82-3.82,3.07a144.74,144.74,0,0,1-14.54,9.7c-3.12,1.83-6.54,3.77-10.27,5.59s-7.67,3.74-11.86,5.48c-2.1.84-4.22,1.75-6.42,2.55l-3.29,1.25L242,448c-4.52,1.51-9.17,2.85-13.85,4.11l-7.08,1.6c-2.37.45-4.72,1-7.07,1.35-4.7.84-9.37,1.34-13.89,1.76s-8.92.55-13.07.6c-2.08,0-4.1,0-6.05-.06l-5.65-.35c-3.61-.23-6.91-.67-9.82-1.06s-5.42-.87-7.48-1.32-3.66-.86-4.76-1.12l-1.67-.41.06-.45,6.49.75c2.07.23,4.59.36,7.48.59,1.44.11,3,.12,4.61.19s3.33.14,5.11.11l5.56,0,5.94-.25c4.07-.25,8.37-.59,12.79-1.13s9-1.23,13.57-2.09c2.3-.41,4.6-.94,6.92-1.41l6.92-1.65c4.6-1.19,9.19-2.44,13.64-3.87s8.8-2.95,13-4.5c8.33-3.18,15.93-6.6,22.32-9.79s11.56-6.14,15.11-8.31,5.51-3.52,5.51-3.52Z" fill="#f68092"/><path d="M152.24,452.75l1.67.35c1.09.23,2.7.47,4.74.82s4.54.68,7.41,1,6.09.83,9.65,1l11.45.89c4.07.27,8.37.32,12.81.5l6.77.23c1.14,0,2.29.1,3.45.1l3.49,0,14.15-.12,7.11,0c2.36,0,4.71-.19,7-.28l13.7-.61c4.44-.22,8.74-.33,12.81-.63l11.45-1,23.64-2,0,.45-1.68.36c-1.1.22-2.7.6-4.75,1-4.1.79-10,1.87-17,2.94-3.54.55-7.37,1.15-11.44,1.67s-8.38.86-12.83,1.19-9.07.75-13.76,1c-2.35.12-4.71.3-7.08.36l-7.16.11L213.63,462h-3.51c-1.16,0-2.33-.14-3.48-.21l-6.82-.45c-4.48-.29-8.79-.58-12.88-1.06s-7.94-1.06-11.49-1.59-6.78-1.23-9.64-1.81-5.34-1.15-7.37-1.76-3.61-1-4.67-1.39l-1.62-.56Z" fill="#f68092"/><path d="M305.56,450.67l-2.37,6.25-5.81-3.57-3.22,6.58L288,456.58h0l-4.46,6.14-6.83-3.19v0l-5.21,5.79-7.48-3L264,462l0,.27L257.53,468l-7.83-3.67,0-.18v.18l-6.9,5.23-7.54-4.24,0-.32v.26L228,470l-7.29-4.59v.05l-7.43,4.45-7-5-7.68,3.86L192,463.26v.06l-7.39,3.23-5.34-5.61-6.73,3.37-4.59-6v0l-6,3.54-3.37-6.44,0,.12-5.37,3.81-2.78-6.94-2.16,4.27,22.63,84c.13,9.58,26.29,17,58.42,16.54s58.08-8.57,57.95-18.16l20.36-84.77Z" fill="#b1d5f1"/><path d="M302.41,475.72l-15.69,65.68s-9.87,19.3-77.52,15.1c-22.88-1.42-43.12-11-35.69-19.07,14.54-15.76,75.6-1.82,101.11-35.46C281.56,492.81,291.08,468.44,302.41,475.72Z" fill="#a1c2db"/><ellipse cx="168.29" cy="478.91" rx="7.64" ry="7.68" transform="translate(-6.63 2.38) rotate(-0.79)" fill="#fff"/><ellipse cx="214.31" cy="512.22" rx="7.64" ry="7.68" transform="translate(-7.1 3.03) rotate(-0.8)" fill="#fff"/><ellipse cx="179.14" cy="509.23" rx="7.64" ry="7.68" transform="translate(-7.07 2.54) rotate(-0.8)" fill="#fff"/><ellipse cx="254.15" cy="481.22" rx="7.64" ry="7.68" transform="translate(-6.67 3.58) rotate(-0.8)" fill="#fff"/><path d="M253.78,509.22a7.69,7.69,0,0,0-6.61,11.33,69,69,0,0,0,13.84-6.4A7.63,7.63,0,0,0,253.78,509.22Z" fill="#fff"/><path d="M254,524.58a7.67,7.67,0,0,0,7-10.43,69,69,0,0,1-13.84,6.4A7.63,7.63,0,0,0,254,524.58Z" fill="#e1dad5"/><ellipse cx="217.3" cy="485.91" rx="7.64" ry="7.68" transform="translate(-6.71 3.06) rotate(-0.79)" fill="#fff"/><ellipse cx="276.62" cy="533.99" rx="7.64" ry="7.68" transform="translate(-7.38 3.89) rotate(-0.79)" fill="#e1dad5"/><ellipse cx="230" cy="542.32" rx="7.64" ry="7.68" transform="translate(-7.49 3.24) rotate(-0.79)" fill="#e1dad5"/><ellipse cx="188.46" cy="539.83" rx="7.64" ry="7.68" transform="translate(-7.48 2.67) rotate(-0.8)" fill="#e1dad5"/><path d="M293.06,476.26a7.63,7.63,0,0,0-13.41,5.13,7.68,7.68,0,0,0,3.73,6.48C286.34,483.12,289.58,478.64,293.06,476.26Z" fill="#fff"/><path d="M294.92,481.17a7.66,7.66,0,0,0-1.86-4.91c-3.47,2.38-6.71,6.86-9.69,11.61a7.58,7.58,0,0,0,4,1.09A7.66,7.66,0,0,0,294.92,481.17Z" fill="#e1dad5"/></g></svg>