<svg id="card-0-2" xmlns="http://www.w3.org/2000/svg" viewBox="0 0 444 666"><title>card-0-2</title><g id="card-0-2-particles"><path d="M314.63,360.59a9.78,9.78,0,0,0,1.74,3.52,6.51,6.51,0,0,0,2.82,2.17,4.08,4.08,0,0,0,1.61.25,4.19,4.19,0,0,0,1.54-.4,4.87,4.87,0,0,0,.71-.41l.35-.26.14-.12.14-.13a4,4,0,0,0,.85-1.35,6.49,6.49,0,0,0,.24-3.41l0-.21,0-.11,0,.06h0v0l0-.06c0-.1,0-.13-.06-.2l-.07-.2a6.65,6.65,0,0,0-.8-1.48l-.28-.37-.23-.27a5,5,0,0,0-2.64-1.41,3.2,3.2,0,0,0-1.36,0,2.32,2.32,0,0,0-1.06.62l.09-.1a2.11,2.11,0,0,0-.28.46l-.05.13v0h0s0-.07,0,0h0l0,.12,0,.06v.07l0,.14a3.57,3.57,0,0,0,0,1.29,4.37,4.37,0,0,0,.49,1.31,3.37,3.37,0,0,0,.81,1l-.1-.07a4.17,4.17,0,0,0,2.3.72,4.54,4.54,0,0,0,2.32-.71,6.13,6.13,0,0,0,1.05-.82l.13-.13.12-.12.23-.26.22-.27.25-.33a9.58,9.58,0,0,0,1.39-2.57,9.31,9.31,0,0,0,.56-2.89,5.3,5.3,0,0,0-.57-2.61l-.16-.27-.09-.13-.13-.18a3.79,3.79,0,0,0-.39-.47,3.09,3.09,0,0,0-1-.67,1.27,1.27,0,0,0-.8-.12c-.17,0-.34.17-.51.5l.05-.14a1.91,1.91,0,0,0-.07,1.11,2.84,2.84,0,0,0,.58,1.15,3.16,3.16,0,0,0,1,.83,2.11,2.11,0,0,0,1.2.22h.06a4.6,4.6,0,0,0,2.68-1.19,6.13,6.13,0,0,0,1.85-2.7,4.9,4.9,0,0,0,.2-.83c0-.14,0-.32.06-.46s0-.29,0-.44a6.54,6.54,0,0,0-.78-3.47,6,6,0,0,0-1.09-1.42l.09-.14a6.16,6.16,0,0,1,2,3.1,7.42,7.42,0,0,1,.27,1.92,9,9,0,0,1,0,1,6.14,6.14,0,0,1-.17,1,7.06,7.06,0,0,1-1.91,3.2,5.44,5.44,0,0,1-3.12,1.57h0a3,3,0,0,1-1.71-.2,4,4,0,0,1-1.45-1,4.05,4.05,0,0,1-.91-1.66,3.41,3.41,0,0,1,0-2h0a2.21,2.21,0,0,1,1.2-1.22,2.29,2.29,0,0,1,1.61.08,4.33,4.33,0,0,1,1.38.91,4.92,4.92,0,0,1,.57.65,5.75,5.75,0,0,1,.48.71,6.91,6.91,0,0,1,.86,3.44,10.68,10.68,0,0,1-.62,3.51,11.4,11.4,0,0,1-1.62,3.07,8.87,8.87,0,0,1-2.41,2.33,5.76,5.76,0,0,1-3.07.93,5.58,5.58,0,0,1-3.05-1h0a5.17,5.17,0,0,1-1.21-1.47,6.19,6.19,0,0,1-.67-1.86,5.24,5.24,0,0,1,0-2,3.89,3.89,0,0,1,.84-1.78h0a3.66,3.66,0,0,1,1.7-.93,4.39,4.39,0,0,1,1.88,0,6.1,6.1,0,0,1,3.3,1.91,7.84,7.84,0,0,1,1.77,3.68,7.59,7.59,0,0,1-.46,4.14,5,5,0,0,1-1.16,1.66,5.89,5.89,0,0,1-1.64,1A4.6,4.6,0,0,1,319,367a7.27,7.27,0,0,1-2.92-2.55,9.82,9.82,0,0,1-1.56-3.78Z" fill="#b9e5fb"/><path d="M428.29,252.19a7.65,7.65,0,0,0,3.4,1.21,5.83,5.83,0,0,0,3.37-.61,4.6,4.6,0,0,0,1.32-1.07,5.31,5.31,0,0,0,.87-1.48,6.21,6.21,0,0,0,.26-.85c0-.16.06-.28.09-.46s0-.13,0-.2l0-.2a4.43,4.43,0,0,0-.21-1.64,5.71,5.71,0,0,0-1.9-2.66l-.16-.12-.08-.06,0,0h0l0,0,0,0-.16-.09-.17-.09a5.19,5.19,0,0,0-.73-.29,5.29,5.29,0,0,0-.75-.17l-.43-.05h-.33a4.81,4.81,0,0,0-2.78,1,3.89,3.89,0,0,0-1,1.09,3,3,0,0,0-.4,1.28v-.15a2.36,2.36,0,0,0,.08.55l0,.14v0h0s0-.07,0,0h0l0,.11,0,.05v0l0,0,.06.12a3,3,0,0,0,.81.92,3.4,3.4,0,0,0,1.15.57,2.74,2.74,0,0,0,1.19.08l-.11,0A4.4,4.4,0,0,0,434,248a5.79,5.79,0,0,0,1.26-2.32,7.78,7.78,0,0,0,.27-1.42l0-.19v-.18c0-.12,0-.24,0-.37s0-.24,0-.37v-.44a10.33,10.33,0,0,0-.56-2.95,8.65,8.65,0,0,0-1.35-2.53,4.22,4.22,0,0,0-2-1.45l-.28-.07-.14,0-.2,0a3,3,0,0,0-.56,0,2.81,2.81,0,0,0-1.1.25,1.44,1.44,0,0,0-.65.53,1,1,0,0,0-.07.76l0-.15a1.68,1.68,0,0,0,.62.86,2.23,2.23,0,0,0,1.12.38,2.8,2.8,0,0,0,1.25-.2,2.38,2.38,0,0,0,1-.77l.05-.07v0a5.87,5.87,0,0,0,1.23-3,6.93,6.93,0,0,0-.3-3.4,4.62,4.62,0,0,0-.36-.76l-.24-.38c-.08-.11-.15-.23-.24-.34a5.53,5.53,0,0,0-1.2-1.19,5.19,5.19,0,0,0-1.48-.73,4.86,4.86,0,0,0-1.65-.19l0-.17a4.91,4.91,0,0,1,3.35.69,6,6,0,0,1,1.37,1.19,7.69,7.69,0,0,1,.56.74,5.62,5.62,0,0,1,.46.83,7.75,7.75,0,0,1,.56,3.81,7,7,0,0,1-1.31,3.57h0a3.45,3.45,0,0,1-1.37,1.19,3.6,3.6,0,0,1-1.69.37,3.18,3.18,0,0,1-1.67-.49,2.93,2.93,0,0,1-1.16-1.45h0a2.65,2.65,0,0,1,.13-1.82,2.68,2.68,0,0,1,1.22-1.19,4,4,0,0,1,1.56-.41,4,4,0,0,1,.81,0,4.62,4.62,0,0,1,.79.14,5.49,5.49,0,0,1,2.71,1.83,9.86,9.86,0,0,1,1.69,3,12.23,12.23,0,0,1,.69,3.49,10.72,10.72,0,0,1-.34,3.56,7.29,7.29,0,0,1-1.66,3.06,5.88,5.88,0,0,1-2.82,1.65h0a4.19,4.19,0,0,1-1.77-.13,4.83,4.83,0,0,1-1.61-.83,4.44,4.44,0,0,1-1.23-1.45,4.08,4.08,0,0,1-.47-1.94h0a4.67,4.67,0,0,1,.67-2,5.32,5.32,0,0,1,1.36-1.47,5.81,5.81,0,0,1,3.56-1.17,6.13,6.13,0,0,1,3.52,1.29,6.79,6.79,0,0,1,2.18,3.37,5.63,5.63,0,0,1,.16,2.11,7.47,7.47,0,0,1-.57,2,5.45,5.45,0,0,1-2.72,2.79,6.32,6.32,0,0,1-3.67.41,7.66,7.66,0,0,1-3.43-1.54Z" fill="#f7aebe"/><path d="M1.15,310.2a7.65,7.65,0,0,0,3.4,1.21,5.84,5.84,0,0,0,3.37-.61,4.6,4.6,0,0,0,1.32-1.07,5.29,5.29,0,0,0,.88-1.48,6.24,6.24,0,0,0,.26-.85c0-.16.06-.28.09-.46a1.93,1.93,0,0,0,0-.2l0-.2a4.44,4.44,0,0,0-.21-1.64,5.71,5.71,0,0,0-1.9-2.66l-.16-.12-.08-.06,0,0h0l0,0,0,0L8,301.94l-.17-.09a5.24,5.24,0,0,0-1.49-.46l-.43-.05H5.55a4.81,4.81,0,0,0-2.77,1,3.87,3.87,0,0,0-1,1.09,2.93,2.93,0,0,0-.4,1.28v-.15a2.27,2.27,0,0,0,.08.55l0,.14v0h0s0-.07,0,0h0l0,.11,0,.05v0l0,0,.06.12a3,3,0,0,0,.81.92,3.4,3.4,0,0,0,1.15.57,2.74,2.74,0,0,0,1.19.08l-.11,0A4.4,4.4,0,0,0,6.86,306a5.77,5.77,0,0,0,1.26-2.32,7.78,7.78,0,0,0,.27-1.42l0-.19v-.18c0-.12,0-.24,0-.37s0-.24,0-.37v-.44a10.33,10.33,0,0,0-.56-2.95,8.64,8.64,0,0,0-1.35-2.53,4.22,4.22,0,0,0-2-1.45l-.29-.07-.14,0-.2,0a3,3,0,0,0-.57,0,2.81,2.81,0,0,0-1.1.25,1.45,1.45,0,0,0-.66.53,1,1,0,0,0-.07.76l0-.15a1.67,1.67,0,0,0,.62.86,2.23,2.23,0,0,0,1.12.38,2.8,2.8,0,0,0,1.25-.2,2.37,2.37,0,0,0,1-.77l.06-.07v0a5.87,5.87,0,0,0,1.23-3,6.92,6.92,0,0,0-.3-3.4,4.54,4.54,0,0,0-.36-.76l-.24-.38c-.08-.11-.15-.23-.24-.34a5.53,5.53,0,0,0-1.2-1.19,5.18,5.18,0,0,0-1.48-.73,4.86,4.86,0,0,0-1.65-.19l0-.17a4.91,4.91,0,0,1,3.35.69A6,6,0,0,1,6,287a7.58,7.58,0,0,1,.56.74,5.71,5.71,0,0,1,.46.83,7.74,7.74,0,0,1,.55,3.81,6.94,6.94,0,0,1-1.31,3.57h0a3.43,3.43,0,0,1-1.37,1.19,3.59,3.59,0,0,1-1.69.37A3.18,3.18,0,0,1,1.49,297a2.93,2.93,0,0,1-1.16-1.45h0a2.65,2.65,0,0,1,.13-1.82,2.69,2.69,0,0,1,1.22-1.19,4,4,0,0,1,1.56-.41,4.05,4.05,0,0,1,.81,0,4.64,4.64,0,0,1,.79.14,5.49,5.49,0,0,1,2.71,1.83,9.86,9.86,0,0,1,1.68,3,12.23,12.23,0,0,1,.69,3.49,10.74,10.74,0,0,1-.34,3.56,7.29,7.29,0,0,1-1.66,3.06A5.89,5.89,0,0,1,5.1,308.9h0a4.19,4.19,0,0,1-1.77-.13,4.83,4.83,0,0,1-1.61-.83,4.45,4.45,0,0,1-1.23-1.45A4.07,4.07,0,0,1,0,304.55H0a4.67,4.67,0,0,1,.67-2A5.31,5.31,0,0,1,2,301.07a5.81,5.81,0,0,1,3.56-1.17,6.12,6.12,0,0,1,3.52,1.29,6.79,6.79,0,0,1,2.18,3.37,5.63,5.63,0,0,1,.16,2.11,7.48,7.48,0,0,1-.57,2,5.44,5.44,0,0,1-2.72,2.79,6.32,6.32,0,0,1-3.67.41,7.68,7.68,0,0,1-3.43-1.54Z" fill="#f9ed32"/><path d="M183.85,462.9a10.45,10.45,0,0,0,.71,4,7.25,7.25,0,0,0,2.1,3,4.38,4.38,0,0,0,1.46.8,4.14,4.14,0,0,0,1.57.15,4.37,4.37,0,0,0,.79-.15l.4-.13.17-.07.17-.08a3.55,3.55,0,0,0,1.17-1,6.21,6.21,0,0,0,1.15-3.16c0-.07,0-.15,0-.22v-.11c0,.14,0,0,0,.06h0v-.1c0-.1,0-.14,0-.21l0-.21a7.16,7.16,0,0,0-.36-1.69l-.16-.45c0-.09-.1-.23-.15-.33a5.53,5.53,0,0,0-2.13-2.26,3.34,3.34,0,0,0-1.3-.43,2.18,2.18,0,0,0-1.18.22l.12-.06a1.87,1.87,0,0,0-.39.35l-.08.11,0,0v0h0l0,0h0l-.07.1,0,0v0l0,0-.07.12a3.49,3.49,0,0,0-.32,1.24,4.58,4.58,0,0,0,.11,1.41,3.69,3.69,0,0,0,.51,1.21l-.08-.1a4.56,4.56,0,0,0,2,1.48,4.44,4.44,0,0,0,2.4.13,5.68,5.68,0,0,0,1.23-.42l.16-.08.14-.07.29-.16.28-.18.33-.22A8.88,8.88,0,0,0,198,461a5.37,5.37,0,0,0,.16-2.68c0-.1-.05-.21-.08-.31l0-.16-.08-.21a4.31,4.31,0,0,0-.24-.58,3.47,3.47,0,0,0-.72-1,1.34,1.34,0,0,0-.73-.39.76.76,0,0,0-.62.3l.09-.12a1.84,1.84,0,0,0-.37,1,3.06,3.06,0,0,0,.24,1.3,3.55,3.55,0,0,0,.76,1.14,2.27,2.27,0,0,0,1.08.63l.08,0h0a4.37,4.37,0,0,0,2.88-.21,5.5,5.5,0,0,0,2.49-1.93,4.48,4.48,0,0,0,.41-.72c.06-.12.13-.29.18-.42s.1-.26.15-.4a6.57,6.57,0,0,0,.34-1.76,6.9,6.9,0,0,0-.14-1.82,6.64,6.64,0,0,0-.65-1.73l.13-.1a6.71,6.71,0,0,1,1.08,3.65,7.41,7.41,0,0,1-.26,1.93,8.4,8.4,0,0,1-.3.91,5.58,5.58,0,0,1-.42.86,6.35,6.35,0,0,1-2.69,2.39,5.13,5.13,0,0,1-3.4.42h0a3.16,3.16,0,0,1-1.58-.78,4.6,4.6,0,0,1-1.52-3.39,3.31,3.31,0,0,1,.57-1.85h0a2,2,0,0,1,1.47-.75,2.41,2.41,0,0,1,1.51.64,4.86,4.86,0,0,1,1.07,1.34,5.47,5.47,0,0,1,.36.81,6.49,6.49,0,0,1,.27.85,7.08,7.08,0,0,1-.11,3.57,10.05,10.05,0,0,1-1.54,3.13A10.22,10.22,0,0,1,195.5,467a7.94,7.94,0,0,1-2.92,1.38,5.59,5.59,0,0,1-3.17-.17,6.09,6.09,0,0,1-2.64-2h0a5.6,5.6,0,0,1-.75-1.82,6.43,6.43,0,0,1-.13-2,5.07,5.07,0,0,1,.53-1.91,3.5,3.5,0,0,1,1.28-1.4h0a3.42,3.42,0,0,1,1.87-.3,4.59,4.59,0,0,1,1.79.64,6.79,6.79,0,0,1,2.62,3,8.34,8.34,0,0,1,.7,4.11,7.19,7.19,0,0,1-1.56,3.78,4.43,4.43,0,0,1-1.56,1.18,5.45,5.45,0,0,1-1.83.4,4.79,4.79,0,0,1-3.47-1.35,8.09,8.09,0,0,1-2.09-3.44,10.34,10.34,0,0,1-.46-4.14Z" fill="#f7aebe"/><path d="M157.32,439.54a30.53,30.53,0,0,0,2.8-2.43,9.66,9.66,0,0,0,2.13-3,6.79,6.79,0,0,0,.49-1.76,7.8,7.8,0,0,0,.06-1.83,7.62,7.62,0,0,0-.14-.89c0-.14-.07-.3-.11-.42l-.07-.22-.07-.21a8.29,8.29,0,0,0-.77-1.57l-.26-.39c-.09-.14-.15-.22-.24-.34a5.85,5.85,0,0,0-.55-.63,6.37,6.37,0,0,0-1.29-1,10.92,10.92,0,0,0-3.11-1.17l-.21,0-.11,0h0l-.4,0a6.13,6.13,0,0,0-.77,0,4.59,4.59,0,0,0-1.44.3,3.38,3.38,0,0,0-1.93,2l.06-.17a2.41,2.41,0,0,0,0,1.3.57.57,0,0,0,.18.27h0l-.07,0h0l.11.06.15.08a2.32,2.32,0,0,0,.32.14,2.63,2.63,0,0,0,1.38.1A6.5,6.5,0,0,0,155,427l-.16.09a10.05,10.05,0,0,0,2-1.81c.15-.17.28-.35.41-.53l0-.07,0,0h0l0,.08h0v0l.09-.15a2.54,2.54,0,0,0,.13-.25,4.78,4.78,0,0,0,.38-1.17,6.58,6.58,0,0,0-1.12-5,4.44,4.44,0,0,0-.82-.85,3.34,3.34,0,0,0-.46-.3,3.86,3.86,0,0,0-.51-.24l-.07,0,.07,0H155l-.16,0-.31-.08c-.21-.05-.42-.09-.63-.12l-.15,0-.18,0-.3,0c-.21,0-.4,0-.62,0a4.74,4.74,0,0,0-.56.06l-.3.07h-.08l-.08,0a1,1,0,0,0-.63,1,1,1,0,0,0,.23.55L151,418a1.22,1.22,0,0,0,.53.25.88.88,0,0,0,.49-.08,5.12,5.12,0,0,0,1.48-1.19l.83-.89c.25-.28.54-.61.77-.89a5.13,5.13,0,0,0,.56-.82,3.77,3.77,0,0,0,.19-.42l.1-.27.06-.2a3.45,3.45,0,0,0,.08-.43c0-.18,0-.33,0-.51s0-.36,0-.51v-.17c0-.06,0-.07,0-.11s0-.14,0-.22a3.4,3.4,0,0,0-.79-1.64,4.6,4.6,0,0,0-1.57-1.15,5.89,5.89,0,0,0-1-.35,6.73,6.73,0,0,0-1-.19h.1c-.46,0-.89,0-1.31,0a7.15,7.15,0,0,0-1.19.15,2.43,2.43,0,0,0-.9.38.85.85,0,0,0-.36.55v-.17a1.78,1.78,0,0,0,.06.59.84.84,0,0,0,.23.38,1.51,1.51,0,0,0,1.13.27l.18,0h0l.11,0,.35-.11a2.68,2.68,0,0,0,.63-.35,5.15,5.15,0,0,0,1.08-1.24l0,.06a5.23,5.23,0,0,0,.72-2.73,3.3,3.3,0,0,0-.34-1.32,3.51,3.51,0,0,0-.85-1.08l0,0h0a5.42,5.42,0,0,0-1.25-.92,8,8,0,0,0-1.43-.61,11.93,11.93,0,0,0-3.1-.53v-.18a12.38,12.38,0,0,1,3.18.32,6.83,6.83,0,0,1,2.92,1.47h0a4,4,0,0,1,1.05,1.2,4,4,0,0,1,.49,1.59,6.12,6.12,0,0,1-.67,3.24h0a5.87,5.87,0,0,1-1.22,1.52,3.48,3.48,0,0,1-1.7.75,2.34,2.34,0,0,1-1.8-.4,1.89,1.89,0,0,1-.6-.83,3,3,0,0,1-.17-1h0a2.1,2.1,0,0,1,.74-1.35,3.34,3.34,0,0,1,1.28-.62,11.81,11.81,0,0,1,2.72-.28h0a7.47,7.47,0,0,1,2.33.56,5.79,5.79,0,0,1,2,1.41,4.93,4.93,0,0,1,1.19,2.35,6.91,6.91,0,0,1,.12,1.35,5.44,5.44,0,0,1-.15,1.35c0,.11-.06.22-.09.33l-.11.31a5.23,5.23,0,0,1-.27.61,6.53,6.53,0,0,1-.71,1.09c-.53.67-1.1,1.28-1.66,1.9a6.18,6.18,0,0,1-2,1.56,2.23,2.23,0,0,1-1.23.17,2.6,2.6,0,0,1-1.14-.51h0a2.73,2.73,0,0,1-.67-1.58,2.94,2.94,0,0,1,.37-1.7,2.62,2.62,0,0,1,1.21-1.1l.37-.13.37-.09a5.9,5.9,0,0,1,.76-.1,8.33,8.33,0,0,1,3,.41,5.44,5.44,0,0,1,2.47,1.94,8.43,8.43,0,0,1,1.4,6.43,6.53,6.53,0,0,1-.54,1.6,5,5,0,0,1-.42.72c-.16.22-.33.43-.51.63a11.42,11.42,0,0,1-2.38,2h0a7.64,7.64,0,0,1-1.92.61,3.84,3.84,0,0,1-2-.2,3.5,3.5,0,0,1-.92-.51,2.07,2.07,0,0,1-.62-.95,4,4,0,0,1,0-2.28h0a5,5,0,0,1,1.12-1.62,4.58,4.58,0,0,1,1.59-1,5.67,5.67,0,0,1,1.78-.31,7,7,0,0,1,.9,0l.44.06.44.11a11.65,11.65,0,0,1,3.35,1.42,7.48,7.48,0,0,1,1.44,1.22,8.75,8.75,0,0,1,1.13,1.58,8.16,8.16,0,0,1,1.15,3.81,8.46,8.46,0,0,1-.15,2,7.34,7.34,0,0,1-.62,1.9,10,10,0,0,1-2.37,3,28.9,28.9,0,0,1-3,2.25Z" fill="#b9e5fb"/><path d="M6.32,250.54a26.47,26.47,0,0,0,3.53-.17,7.91,7.91,0,0,0,3.26-1,5.63,5.63,0,0,0,1.3-1.12,6.94,6.94,0,0,0,1-1.46,7.64,7.64,0,0,0,.34-.81c0-.14.1-.29.13-.41l.06-.22,0-.22a9,9,0,0,0,.17-1.79v-.49c0-.17,0-.28,0-.44a7.33,7.33,0,0,0-.13-.87,7.83,7.83,0,0,0-.54-1.66,13.33,13.33,0,0,0-1.95-3l-.15-.17-.07-.09,0,0h0l0,0h0l0,0-.3-.3a7.1,7.1,0,0,0-.62-.51A4.84,4.84,0,0,0,11,235a2.89,2.89,0,0,0-2.57.34l.14-.1a2.15,2.15,0,0,0-.68,1,.63.63,0,0,0,0,.34v0h0l0-.08h0v0l.05.12.08.16a3,3,0,0,0,1.27,1.3,6.57,6.57,0,0,0,1.58.58l-.18,0a8.65,8.65,0,0,0,2.59-.15c.21,0,.41-.1.6-.16l.07,0h0l-.08,0h0l.15-.07.24-.12a3.94,3.94,0,0,0,.91-.71,6.44,6.44,0,0,0,1.61-4.78,5.3,5.3,0,0,0-.24-1.23,4.08,4.08,0,0,0-.22-.54,4.73,4.73,0,0,0-.3-.53l0-.06,0,.06h0v0l0,0-.11-.14L15.7,230c-.15-.18-.3-.35-.45-.51l-.11-.11-.14-.14-.23-.21c-.17-.14-.32-.27-.51-.41a5.3,5.3,0,0,0-.49-.31l-.28-.14,0,0h0l-.08,0a.91.91,0,0,0-.62,0,.88.88,0,0,0-.42.4,1,1,0,0,0-.1.6l-.07-.29a1.49,1.49,0,0,0,.3.55,1,1,0,0,0,.44.26,4.48,4.48,0,0,0,1.82,0l1.13-.19c.35-.06.75-.14,1.08-.22a4.19,4.19,0,0,0,.88-.3,3,3,0,0,0,.37-.22l.22-.16.15-.12a2.69,2.69,0,0,0,.29-.29c.11-.13.2-.25.29-.4s.18-.3.25-.42l.07-.14,0-.1.08-.2a3.64,3.64,0,0,0,.19-1.85,5.59,5.59,0,0,0-.7-2,7.3,7.3,0,0,0-.61-.92,8.08,8.08,0,0,0-.73-.81l.08.07c-.38-.3-.73-.58-1.08-.83a7.84,7.84,0,0,0-1-.65,2.36,2.36,0,0,0-.93-.28.7.7,0,0,0-.57.21l.1-.13a1.67,1.67,0,0,0-.25.52.93.93,0,0,0,0,.46,1.81,1.81,0,0,0,.78,1l.16.1,0,0h0l0,0h0l.1,0,.34.13a2.46,2.46,0,0,0,.69.13,4.24,4.24,0,0,0,1.52-.31l-.06,0a4.35,4.35,0,0,0,2-1.76,3.26,3.26,0,0,0,.4-1.3,4,4,0,0,0-.15-1.43v0h0a6.59,6.59,0,0,0-.55-1.56,9.72,9.72,0,0,0-.86-1.43,14.3,14.3,0,0,0-2.26-2.46l.09-.15A14.57,14.57,0,0,1,18.64,214a8.41,8.41,0,0,1,1.64,3.1h0a4.76,4.76,0,0,1,.25,1.66,4,4,0,0,1-.41,1.62,5.16,5.16,0,0,1-2.2,2.21h0a4.84,4.84,0,0,1-1.78.45,3.38,3.38,0,0,1-1.78-.49,2.8,2.8,0,0,1-1.26-1.5A2.16,2.16,0,0,1,13,220a2.88,2.88,0,0,1,.38-1h0a1.71,1.71,0,0,1,1.29-.62,3.19,3.19,0,0,1,1.36.33,13,13,0,0,1,2.37,1.54h0a9.11,9.11,0,0,1,1.62,2,7.1,7.1,0,0,1,.94,2.48,5.33,5.33,0,0,1-.22,2.69,6.42,6.42,0,0,1-.59,1.19,4.7,4.7,0,0,1-.82,1l-.24.21-.25.19a4.35,4.35,0,0,1-.53.33,5.37,5.37,0,0,1-1.14.43c-.78.2-1.55.33-2.33.47a5.45,5.45,0,0,1-2.39,0,2.42,2.42,0,0,1-1.09-.66,3.2,3.2,0,0,1-.67-1.16v0a2.88,2.88,0,0,1,.26-1.72,2.47,2.47,0,0,1,1.17-1.15,2.25,2.25,0,0,1,1.55-.11l.37.13.35.17a6.21,6.21,0,0,1,.67.41,9.92,9.92,0,0,1,2.23,2.28,6.62,6.62,0,0,1,1,3.19,8.24,8.24,0,0,1-2.13,6.17,5.38,5.38,0,0,1-1.25,1,4,4,0,0,1-.71.31c-.24.07-.49.13-.73.19a9.92,9.92,0,0,1-3,.12h0a7.83,7.83,0,0,1-1.88-.74,4.51,4.51,0,0,1-1.53-1.47,4.45,4.45,0,0,1-.49-1,2.32,2.32,0,0,1,0-1.17,3.53,3.53,0,0,1,1.2-1.83h0a4.12,4.12,0,0,1,1.74-.59,4.2,4.2,0,0,1,1.8.24,6.1,6.1,0,0,1,1.62.91,8.26,8.26,0,0,1,.71.62l.33.34c.11.13.21.25.31.38a14.26,14.26,0,0,1,2,3.34,9,9,0,0,1,.55,1.93,10,10,0,0,1,.11,2,8.23,8.23,0,0,1-1,3.86,7.42,7.42,0,0,1-1.15,1.55,6,6,0,0,1-1.48,1.15,8.22,8.22,0,0,1-3.47.92,25.53,25.53,0,0,1-3.56-.08Z" fill="#a4ce0b"/><path d="M125.69,292.18a30.73,30.73,0,0,0,2.8-2.43,9.66,9.66,0,0,0,2.13-3,6.81,6.81,0,0,0,.49-1.76,7.81,7.81,0,0,0,.06-1.83,7.67,7.67,0,0,0-.14-.89c0-.14-.07-.3-.11-.42l-.07-.22-.07-.21a8.34,8.34,0,0,0-.77-1.57l-.26-.39-.24-.34a6.06,6.06,0,0,0-.55-.63,6.38,6.38,0,0,0-1.29-1,10.88,10.88,0,0,0-3.11-1.17l-.21,0-.11,0h0l-.4,0a6.15,6.15,0,0,0-.77,0,4.56,4.56,0,0,0-1.44.3,3.38,3.38,0,0,0-1.93,2l.06-.17a2.41,2.41,0,0,0,0,1.3.56.56,0,0,0,.18.27h0l-.07,0h0l.11.07.15.08a2.46,2.46,0,0,0,.32.14,2.64,2.64,0,0,0,1.38.1,6.54,6.54,0,0,0,1.58-.55l-.16.09a10,10,0,0,0,2-1.81c.15-.17.28-.35.41-.53l0-.07,0,0h0l0,.08h0v0l.09-.15a2.52,2.52,0,0,0,.13-.25,4.82,4.82,0,0,0,.38-1.17,6.58,6.58,0,0,0-1.12-5,4.45,4.45,0,0,0-.82-.85,3.33,3.33,0,0,0-.46-.3,3.86,3.86,0,0,0-.51-.24l-.07,0,.07,0h-.08l-.16,0-.31-.08c-.21-.05-.42-.09-.63-.12l-.15,0-.18,0-.3,0c-.21,0-.4,0-.62,0a4.76,4.76,0,0,0-.56.07l-.3.07h-.08l-.08,0a1,1,0,0,0-.63,1,1,1,0,0,0,.23.55l-.21-.19a1.22,1.22,0,0,0,.53.25.89.89,0,0,0,.49-.08,5.09,5.09,0,0,0,1.48-1.19l.83-.89c.25-.28.54-.61.77-.89a5.22,5.22,0,0,0,.56-.82,3.86,3.86,0,0,0,.19-.42l.1-.27.06-.2a3.38,3.38,0,0,0,.08-.43c0-.18,0-.33,0-.51s0-.36,0-.51v-.17c0-.06,0-.07,0-.11s0-.14,0-.22a3.4,3.4,0,0,0-.79-1.64,4.59,4.59,0,0,0-1.57-1.15,6,6,0,0,0-1-.35,6.74,6.74,0,0,0-1-.19h.1c-.46,0-.89,0-1.31,0a7.15,7.15,0,0,0-1.19.15,2.41,2.41,0,0,0-.9.38.85.85,0,0,0-.36.55v-.17a1.79,1.79,0,0,0,.06.59.84.84,0,0,0,.23.37,1.51,1.51,0,0,0,1.13.27l.18,0h0l.11,0,.35-.11a2.64,2.64,0,0,0,.63-.35,5.11,5.11,0,0,0,1.08-1.24l0,.06a5.23,5.23,0,0,0,.72-2.73,3.3,3.3,0,0,0-.34-1.32,3.51,3.51,0,0,0-.85-1.07l0,0h0a5.42,5.42,0,0,0-1.25-.92,7.93,7.93,0,0,0-1.43-.61,12,12,0,0,0-3.1-.53V254a12.39,12.39,0,0,1,3.18.32,6.84,6.84,0,0,1,2.92,1.47h0a4,4,0,0,1,1.05,1.2,4,4,0,0,1,.49,1.59,6.12,6.12,0,0,1-.67,3.24h0a5.85,5.85,0,0,1-1.22,1.52,3.48,3.48,0,0,1-1.7.75,2.34,2.34,0,0,1-1.8-.4,1.89,1.89,0,0,1-.6-.82,3,3,0,0,1-.17-1h0a2.09,2.09,0,0,1,.74-1.35,3.32,3.32,0,0,1,1.28-.62,11.82,11.82,0,0,1,2.72-.28h0a7.5,7.5,0,0,1,2.33.56,5.79,5.79,0,0,1,2,1.41,4.92,4.92,0,0,1,1.19,2.35,6.9,6.9,0,0,1,.12,1.35,5.45,5.45,0,0,1-.15,1.35c0,.11-.06.22-.09.33l-.11.32a5.36,5.36,0,0,1-.27.61,6.56,6.56,0,0,1-.71,1.09c-.53.67-1.1,1.28-1.66,1.9a6.2,6.2,0,0,1-2,1.56,2.24,2.24,0,0,1-1.23.17,2.6,2.6,0,0,1-1.14-.51h0a2.74,2.74,0,0,1-.67-1.58,2.93,2.93,0,0,1,.37-1.7,2.61,2.61,0,0,1,1.21-1.1l.37-.13.37-.09a5.72,5.72,0,0,1,.76-.1,8.38,8.38,0,0,1,3,.41,5.46,5.46,0,0,1,2.47,1.94,8.43,8.43,0,0,1,1.4,6.43,6.51,6.51,0,0,1-.54,1.6,5,5,0,0,1-.42.72c-.16.22-.33.43-.51.63a11.45,11.45,0,0,1-2.38,2h0a7.69,7.69,0,0,1-1.92.62,3.85,3.85,0,0,1-2-.2,3.56,3.56,0,0,1-.92-.51,2.07,2.07,0,0,1-.62-.95,4,4,0,0,1,0-2.28h0a5,5,0,0,1,1.12-1.62,4.56,4.56,0,0,1,1.59-1,5.67,5.67,0,0,1,1.78-.31,7.2,7.2,0,0,1,.9,0l.45.06.44.11a11.59,11.59,0,0,1,3.35,1.42,7.4,7.4,0,0,1,1.44,1.22,8.74,8.74,0,0,1,1.13,1.58,8.17,8.17,0,0,1,1.15,3.81,8.46,8.46,0,0,1-.15,2,7.33,7.33,0,0,1-.62,1.9,9.94,9.94,0,0,1-2.37,3,28.92,28.92,0,0,1-3,2.25Z" fill="#fdb913"/><path d="M282.84,494.67a4.87,4.87,0,0,0,2.46-1.08,5.37,5.37,0,0,0,.92-1c.13-.18.26-.37.37-.56l0,0h0l0,0v0l0-.09.08-.15.14-.3a5.75,5.75,0,0,0,.37-1.27,6,6,0,0,0,.1-1.29,6,6,0,0,0-.59-2.4,4.13,4.13,0,0,0-1.46-1.67,4.08,4.08,0,0,0-1-.48,4.56,4.56,0,0,0-.51-.14h-.08l-.15,0h-.21a2.48,2.48,0,0,0-1.64.65,1.31,1.31,0,0,0-.34.56,1.53,1.53,0,0,0,0,.73l-.07-.2a1,1,0,0,0,.44.57,1.85,1.85,0,0,0,1,.24,3.74,3.74,0,0,0,1.2-.17,3.34,3.34,0,0,0,1.1-.58,6.78,6.78,0,0,0,1.83-2.29,8.52,8.52,0,0,0,.62-1.48,8.37,8.37,0,0,0,.37-1.63v0a4.59,4.59,0,0,0-.13-1.17l.14-.08a4.38,4.38,0,0,1,.34,1.18h0a9.3,9.3,0,0,1-.61,3.49,7.82,7.82,0,0,1-1.85,2.89,4.68,4.68,0,0,1-2.94,1.28,3.13,3.13,0,0,1-1.59-.3,2.56,2.56,0,0,1-1.18-1.27h0A3.36,3.36,0,0,1,280,485a2.94,2.94,0,0,1,.75-1.42,3.7,3.7,0,0,1,2.67-1.13,3.9,3.9,0,0,1,1.42.28,5.53,5.53,0,0,1,1.3.69,5.73,5.73,0,0,1,1.89,2.4,7.18,7.18,0,0,1-.29,6.2,5.19,5.19,0,0,1-4.85,2.78Z" fill="#f15a22"/><path d="M400.28,337.38a4.87,4.87,0,0,0,2.46-1.08,5.36,5.36,0,0,0,.92-1c.13-.18.26-.37.37-.56l0,0h0l0,0v0l0-.09.08-.15.14-.3a5.75,5.75,0,0,0,.37-1.27,6,6,0,0,0,.1-1.29,6,6,0,0,0-.59-2.4,4.13,4.13,0,0,0-1.46-1.67,4.08,4.08,0,0,0-1-.48,4.56,4.56,0,0,0-.51-.14h-.08l-.15,0h-.21a2.47,2.47,0,0,0-1.64.65,1.31,1.31,0,0,0-.34.56,1.53,1.53,0,0,0,0,.73l-.07-.2a1,1,0,0,0,.44.57,1.85,1.85,0,0,0,1,.24,3.75,3.75,0,0,0,1.2-.17,3.34,3.34,0,0,0,1.1-.58,6.78,6.78,0,0,0,1.83-2.29,8.53,8.53,0,0,0,.62-1.48,8.37,8.37,0,0,0,.37-1.63v0a4.59,4.59,0,0,0-.13-1.17l.14-.08a4.38,4.38,0,0,1,.34,1.18h0a9.3,9.3,0,0,1-.61,3.49,7.82,7.82,0,0,1-1.85,2.89,4.68,4.68,0,0,1-2.94,1.28,3.13,3.13,0,0,1-1.59-.3,2.56,2.56,0,0,1-1.18-1.27h0a3.36,3.36,0,0,1-.09-1.65,3,3,0,0,1,.75-1.42,3.7,3.7,0,0,1,2.67-1.13,3.9,3.9,0,0,1,1.42.28,5.54,5.54,0,0,1,1.3.69,5.73,5.73,0,0,1,1.89,2.4,7.18,7.18,0,0,1-.29,6.2,5.19,5.19,0,0,1-4.85,2.78Z" fill="#f15a22"/><path d="M279.8,360.24a4.87,4.87,0,0,0,2.46-1.08,5.36,5.36,0,0,0,.92-1c.13-.18.26-.37.37-.56l0,0h0l0,0v0l0-.09.08-.15.14-.3a5.74,5.74,0,0,0,.37-1.27,6,6,0,0,0,.1-1.29,6,6,0,0,0-.59-2.4,4.13,4.13,0,0,0-1.46-1.67,4.08,4.08,0,0,0-1-.48,4.58,4.58,0,0,0-.51-.14h-.08l-.15,0h-.21a2.47,2.47,0,0,0-1.64.65,1.31,1.31,0,0,0-.34.56,1.53,1.53,0,0,0,0,.73l-.07-.2a1,1,0,0,0,.44.57,1.85,1.85,0,0,0,1,.24,3.75,3.75,0,0,0,1.2-.17,3.35,3.35,0,0,0,1.1-.58,6.78,6.78,0,0,0,1.83-2.29,8.52,8.52,0,0,0,.62-1.48,8.38,8.38,0,0,0,.37-1.63v0a4.59,4.59,0,0,0-.13-1.17l.14-.07a4.37,4.37,0,0,1,.34,1.18h0a9.3,9.3,0,0,1-.61,3.49,7.82,7.82,0,0,1-1.85,2.89,4.68,4.68,0,0,1-2.94,1.28,3.13,3.13,0,0,1-1.59-.3,2.55,2.55,0,0,1-1.18-1.27h0a3.36,3.36,0,0,1-.09-1.65,3,3,0,0,1,.75-1.42,3.7,3.7,0,0,1,2.67-1.13,3.9,3.9,0,0,1,1.42.28,5.53,5.53,0,0,1,1.3.69,5.73,5.73,0,0,1,1.89,2.4,7.18,7.18,0,0,1-.29,6.2,5.19,5.19,0,0,1-4.85,2.78Z" fill="#f15a22"/><path d="M209.34,380.39a4.86,4.86,0,0,0,2.46-1.08,5.4,5.4,0,0,0,.92-1c.13-.18.25-.37.37-.56l0,0h0l0,0v0l0-.09.08-.15.13-.3a5.78,5.78,0,0,0,.37-1.27,6,6,0,0,0,.1-1.29,6,6,0,0,0-.59-2.4,4.14,4.14,0,0,0-1.46-1.67,4.07,4.07,0,0,0-1-.47,5,5,0,0,0-.51-.14h-.08l-.15,0h-.21a2.47,2.47,0,0,0-1.64.65,1.31,1.31,0,0,0-.34.56,1.53,1.53,0,0,0,0,.73l-.07-.19a1,1,0,0,0,.45.57,1.84,1.84,0,0,0,1,.24,3.69,3.69,0,0,0,1.2-.17,3.3,3.3,0,0,0,1.1-.58,6.79,6.79,0,0,0,1.83-2.29A8.53,8.53,0,0,0,214,368a8.41,8.41,0,0,0,.37-1.63v0a4.59,4.59,0,0,0-.13-1.17l.14-.07a4.42,4.42,0,0,1,.34,1.18h0a9.29,9.29,0,0,1-.61,3.49,7.84,7.84,0,0,1-1.85,2.89,4.68,4.68,0,0,1-2.94,1.28,3.12,3.12,0,0,1-1.59-.3,2.55,2.55,0,0,1-1.18-1.27h0a3.37,3.37,0,0,1-.09-1.65,2.94,2.94,0,0,1,.75-1.42,3.71,3.71,0,0,1,2.67-1.13,4,4,0,0,1,1.42.28,5.45,5.45,0,0,1,1.3.69,5.71,5.71,0,0,1,1.89,2.4,7.19,7.19,0,0,1-.29,6.2,5.18,5.18,0,0,1-4.85,2.78Z" fill="#f9ed32"/><path d="M91,298.62a4.86,4.86,0,0,0,2.46-1.08,5.39,5.39,0,0,0,.92-1c.13-.18.25-.37.37-.56l0,0h0l0,0v0l0-.09.08-.15.13-.3a5.76,5.76,0,0,0,.37-1.27,6,6,0,0,0,.1-1.29,6,6,0,0,0-.59-2.4,4.13,4.13,0,0,0-1.46-1.67,4.07,4.07,0,0,0-1-.48,4.74,4.74,0,0,0-.51-.14h-.08l-.15,0h-.21a2.47,2.47,0,0,0-1.64.65,1.31,1.31,0,0,0-.34.56,1.53,1.53,0,0,0,0,.73l-.07-.2a1,1,0,0,0,.45.57,1.84,1.84,0,0,0,1,.24,3.72,3.72,0,0,0,1.2-.17,3.32,3.32,0,0,0,1.1-.58A6.79,6.79,0,0,0,95,287.69a8.53,8.53,0,0,0,.62-1.48,8.39,8.39,0,0,0,.37-1.63v0a4.59,4.59,0,0,0-.13-1.17l.14-.07a4.39,4.39,0,0,1,.34,1.18h0a9.3,9.3,0,0,1-.61,3.49,7.84,7.84,0,0,1-1.85,2.89A4.68,4.68,0,0,1,91,292.22a3.13,3.13,0,0,1-1.59-.3,2.55,2.55,0,0,1-1.18-1.27h0a3.37,3.37,0,0,1-.09-1.65,2.94,2.94,0,0,1,.75-1.42,3.7,3.7,0,0,1,2.67-1.13,3.94,3.94,0,0,1,1.42.28,5.48,5.48,0,0,1,1.3.69,5.72,5.72,0,0,1,1.89,2.4,7.19,7.19,0,0,1-.29,6.2A5.18,5.18,0,0,1,91,298.79Z" fill="#ec008c"/><path d="M215.56,139.7a4.86,4.86,0,0,0,2.46-1.08,5.37,5.37,0,0,0,.92-1c.13-.18.26-.37.37-.56l0,0h0l0,0v0l0-.09.08-.15.14-.3a5.76,5.76,0,0,0,.37-1.27,6,6,0,0,0,.1-1.29,6,6,0,0,0-.59-2.4,4.14,4.14,0,0,0-1.46-1.67,4.08,4.08,0,0,0-1-.48,4.81,4.81,0,0,0-.51-.14h-.08l-.15,0h-.21a2.47,2.47,0,0,0-1.64.65,1.31,1.31,0,0,0-.34.56,1.53,1.53,0,0,0,0,.73l-.07-.2a1,1,0,0,0,.44.57,1.85,1.85,0,0,0,1,.24,3.72,3.72,0,0,0,1.2-.17,3.32,3.32,0,0,0,1.1-.58,6.78,6.78,0,0,0,1.83-2.29,8.52,8.52,0,0,0,.62-1.48,8.39,8.39,0,0,0,.37-1.63v0a4.58,4.58,0,0,0-.13-1.17l.14-.08a4.39,4.39,0,0,1,.34,1.18h0a9.3,9.3,0,0,1-.61,3.49,7.83,7.83,0,0,1-1.85,2.89,4.68,4.68,0,0,1-2.94,1.28,3.12,3.12,0,0,1-1.59-.3,2.55,2.55,0,0,1-1.18-1.27h0a3.36,3.36,0,0,1-.09-1.65,2.94,2.94,0,0,1,.75-1.42,3.7,3.7,0,0,1,2.67-1.13,4,4,0,0,1,1.42.28,5.5,5.5,0,0,1,1.3.69,5.72,5.72,0,0,1,1.89,2.4,7.18,7.18,0,0,1-.29,6.2,5.18,5.18,0,0,1-4.85,2.78Z" fill="#f7aebe"/><path d="M425.84,118.73a4.86,4.86,0,0,0,2.46-1.08,5.36,5.36,0,0,0,.92-1c.13-.18.26-.37.37-.56l0,0h0l0,0v0l0-.09.08-.15.14-.3a5.76,5.76,0,0,0,.37-1.27,6,6,0,0,0,.1-1.29,6,6,0,0,0-.59-2.4,4.13,4.13,0,0,0-1.46-1.67,4.08,4.08,0,0,0-1-.48,4.8,4.8,0,0,0-.51-.14h-.08l-.15,0h-.21a2.47,2.47,0,0,0-1.64.65,1.31,1.31,0,0,0-.34.56,1.53,1.53,0,0,0,0,.73l-.07-.2a1,1,0,0,0,.44.57,1.85,1.85,0,0,0,1,.24,3.72,3.72,0,0,0,1.2-.17,3.32,3.32,0,0,0,1.1-.58,6.78,6.78,0,0,0,1.83-2.29,8.53,8.53,0,0,0,.62-1.48,8.39,8.39,0,0,0,.37-1.63v0a4.59,4.59,0,0,0-.13-1.17l.14-.07a4.4,4.4,0,0,1,.34,1.18h0a9.3,9.3,0,0,1-.61,3.49,7.83,7.83,0,0,1-1.85,2.89,4.68,4.68,0,0,1-2.94,1.28,3.13,3.13,0,0,1-1.59-.3,2.55,2.55,0,0,1-1.18-1.27h0a3.36,3.36,0,0,1-.09-1.65,2.94,2.94,0,0,1,.75-1.42,3.7,3.7,0,0,1,2.67-1.13,4,4,0,0,1,1.42.28,5.5,5.5,0,0,1,1.3.69,5.72,5.72,0,0,1,1.89,2.4,7.18,7.18,0,0,1-.29,6.2,5.18,5.18,0,0,1-4.85,2.78Z" fill="#8dc63f"/><path d="M241.81,245a19.7,19.7,0,0,0,2,2,8.16,8.16,0,0,0,2.25,1.37,3.7,3.7,0,0,0,2.32.17,4.76,4.76,0,0,0,.54-.19l0,0h0l-.06,0h0l.08,0,.14-.08.22-.15.22-.17.22-.21a5.32,5.32,0,0,0,.4-.45l-.05.07a3.86,3.86,0,0,0,.57-2.1,4.3,4.3,0,0,0-.53-2.1l0,.07a5.23,5.23,0,0,0-.36-.48,5.52,5.52,0,0,0-.41-.45l-.22-.22-.23-.2a5.33,5.33,0,0,0-.47-.36l0,0-.15-.15a2.12,2.12,0,0,0-.33-.27l-.2-.12-.19-.08a1.9,1.9,0,0,0-.86-.12,1.07,1.07,0,0,0-.61.25,1,1,0,0,0-.27.52l.06-.32a1,1,0,0,0,.21.66,2.05,2.05,0,0,0,.73.62,3.06,3.06,0,0,0,1.09.31l.29,0H249l.31,0a3.87,3.87,0,0,0,2.17-1,3.47,3.47,0,0,0,.4-.42l.18-.24.08-.13,0-.07,0,0v0h0l-.05.1h0l.09-.19.05-.12c0-.09.07-.19.1-.29a4.05,4.05,0,0,0,.13-.6,4.78,4.78,0,0,0-.42-2.55l-.15-.32,0-.08v0h0l.05.09h0l0,0-.09-.14c-.12-.19-.26-.38-.41-.57a8.72,8.72,0,0,0-1-1.07,6.53,6.53,0,0,0-2.28-1.44,1.59,1.59,0,0,0-.89-.06.64.64,0,0,0-.24.13,1.09,1.09,0,0,0-.23.33l0-.1a1.25,1.25,0,0,0-.1.52.68.68,0,0,0,.19.41,2.93,2.93,0,0,0,1.46.75,6.05,6.05,0,0,0,1.92.19,4.68,4.68,0,0,0,1.82-.44l-.07,0a3.43,3.43,0,0,0,1.22-1.51,8.19,8.19,0,0,0,.57-2.22c0-.2.05-.4.07-.6s0-.43.05-.62a9.93,9.93,0,0,0,0-1.21,9.68,9.68,0,0,0-.39-2.42l.14-.07a9.88,9.88,0,0,1,.61,2.44,14.38,14.38,0,0,1,.05,2.53,9,9,0,0,1-.47,2.48,4.39,4.39,0,0,1-1.39,2h0a5.46,5.46,0,0,1-2.12.67,7.21,7.21,0,0,1-2.2-.07,4,4,0,0,1-2-1,2.11,2.11,0,0,1-.59-1.1,2.69,2.69,0,0,1,.1-1.28h0a2.14,2.14,0,0,1,1.18-1.26,2.62,2.62,0,0,1,1.62,0,7.65,7.65,0,0,1,2.84,1.64,10.88,10.88,0,0,1,1.19,1.21c.18.22.36.45.52.69l.12.19,0,0,0,.06.05.1.19.4a6.65,6.65,0,0,1,.59,3.55,5.72,5.72,0,0,1-.51,1.74,5,5,0,0,1-4.06,2.68,7.21,7.21,0,0,1-.8,0,5.44,5.44,0,0,1-.8,0,4.41,4.41,0,0,1-1.56-.48,3.48,3.48,0,0,1-1.28-1.14,2.83,2.83,0,0,1-.46-1.78v0a2.51,2.51,0,0,1,.82-1.31,2.35,2.35,0,0,1,1.35-.5,3.19,3.19,0,0,1,2.58,1.11l0,0a8,8,0,0,1,2,2.17h0a5.76,5.76,0,0,1,.58,2.84,5,5,0,0,1-.92,2.71h0a5.05,5.05,0,0,1-1.09.95,3.64,3.64,0,0,1-.63.33,4.14,4.14,0,0,1-.67.17,4.41,4.41,0,0,1-2.69-.42,8.72,8.72,0,0,1-2.27-1.67,19,19,0,0,1-1.88-2.2Z" fill="#ed1c24"/><path d="M7.76,122.23a16.75,16.75,0,0,0,2.65-.43,7.82,7.82,0,0,0,2.4-1,4.47,4.47,0,0,0,1.65-1.86,6.31,6.31,0,0,0,.23-.59v0h0l0,.06v0l0-.09c0-.06,0-.13,0-.17s0-.18,0-.29,0-.22,0-.3,0-.21,0-.33a6,6,0,0,0,0-.64v.09a3.63,3.63,0,0,0-1-1.87A3.31,3.31,0,0,0,12,113.8h.08a4.23,4.23,0,0,0-.56,0,4.52,4.52,0,0,0-.57,0l-.29,0-.28.06a4.82,4.82,0,0,0-.55.16h0l-.2,0a1.9,1.9,0,0,0-.4.1l-.21.09-.18.11a2.25,2.25,0,0,0-.64.65,1.39,1.39,0,0,0-.24.69,1,1,0,0,0,.16.58l-.18-.26a.8.8,0,0,0,.58.25,1.81,1.81,0,0,0,.89-.22,3.39,3.39,0,0,0,.93-.72l.2-.24.1-.12.13-.17.13-.17.1-.13.18-.28a5.06,5.06,0,0,0,.8-2.47,4.15,4.15,0,0,0,0-.62c0-.1,0-.21,0-.31l0-.16,0-.08v-.06h0l0,.11h0l-.07-.2,0-.12c0-.09-.08-.18-.13-.28a3.65,3.65,0,0,0-.31-.5,3.73,3.73,0,0,0-2-1.33L9,108.21l-.08,0H9l-.16,0c-.21,0-.43,0-.65,0a7.27,7.27,0,0,0-1.36.14,6.23,6.23,0,0,0-2.46,1,1.94,1.94,0,0,0-.63.71.82.82,0,0,0-.07.3,1.24,1.24,0,0,0,.07.41l0-.1A1.13,1.13,0,0,0,4,111a.53.53,0,0,0,.39.11,2.91,2.91,0,0,0,1.46-.75,7.25,7.25,0,0,0,1.39-1.5A6.12,6.12,0,0,0,8.11,107v.09a4,4,0,0,0-.2-2,7.62,7.62,0,0,0-1.1-2l-.36-.46-.38-.45a8.23,8.23,0,0,0-.8-.81,7.58,7.58,0,0,0-1.87-1.27l0-.17a7.56,7.56,0,0,1,2,1.09,11.69,11.69,0,0,1,1.72,1.62,8.07,8.07,0,0,1,1.34,2,4.93,4.93,0,0,1,.41,2.5h0a7.19,7.19,0,0,1-1,2.25,8.88,8.88,0,0,1-1.5,1.83,4.07,4.07,0,0,1-2,1.1,1.64,1.64,0,0,1-1.12-.22,2.3,2.3,0,0,1-.79-.94h0a2.54,2.54,0,0,1-.06-1.84A3.25,3.25,0,0,1,3.57,108a7.44,7.44,0,0,1,3-1.33,9.2,9.2,0,0,1,1.59-.21c.27,0,.53,0,.8,0l.2,0h.11l.1,0,.39.1a5.21,5.21,0,0,1,2.75,1.84,5.43,5.43,0,0,1,.82,1.58,6,6,0,0,1,.22,1.83,6.87,6.87,0,0,1-1.11,3.39c-.16.24-.33.49-.5.71a6.69,6.69,0,0,1-.55.66,4.82,4.82,0,0,1-1.35,1,3,3,0,0,1-1.6.33,2.19,2.19,0,0,1-1.48-.78h0a2.75,2.75,0,0,1-.33-1.57,3.07,3.07,0,0,1,.55-1.48,3.31,3.31,0,0,1,2.44-1.46h0a6.6,6.6,0,0,1,2.73-.23h0a4.47,4.47,0,0,1,2.27,1.37,4.86,4.86,0,0,1,1.2,2.57h0a6.23,6.23,0,0,1-.09,1.55,4.67,4.67,0,0,1-.2.75,5.31,5.31,0,0,1-.32.68,5.15,5.15,0,0,1-2.05,2,8,8,0,0,1-2.61.83,15.51,15.51,0,0,1-2.7.14Z" fill="#b9e5fb"/><path d="M307.58,453.71a16.88,16.88,0,0,0,2.65-.43,7.85,7.85,0,0,0,2.4-1,4.47,4.47,0,0,0,1.65-1.86c.09-.19.16-.39.23-.59v0h0l0,.06v0l0-.1c0-.06,0-.13,0-.17s0-.18,0-.29,0-.22,0-.3,0-.21,0-.33a6.18,6.18,0,0,0,0-.64v.09a3.63,3.63,0,0,0-1-1.87,3.3,3.3,0,0,0-1.75-.94h.08a4.62,4.62,0,0,0-.56,0,4.7,4.7,0,0,0-.56.05l-.29,0-.28.06a5,5,0,0,0-.55.16h0l-.2,0a2,2,0,0,0-.4.1l-.21.09-.18.11a2.22,2.22,0,0,0-.64.65,1.39,1.39,0,0,0-.24.69,1,1,0,0,0,.16.57l-.18-.26a.81.81,0,0,0,.58.25,1.81,1.81,0,0,0,.89-.21,3.38,3.38,0,0,0,.93-.72l.2-.24.1-.13.13-.17.13-.17.1-.13.18-.28a5.05,5.05,0,0,0,.8-2.47,4.16,4.16,0,0,0,0-.62c0-.1,0-.2,0-.31l0-.16,0-.08v-.06h0l0,.11h0l-.07-.2,0-.12-.13-.28a3.64,3.64,0,0,0-.31-.5,3.74,3.74,0,0,0-2-1.33l-.31-.09-.08,0h0l-.16,0c-.21,0-.43,0-.65,0a7.25,7.25,0,0,0-1.36.14,6.23,6.23,0,0,0-2.46,1,1.94,1.94,0,0,0-.63.71.82.82,0,0,0-.07.3,1.23,1.23,0,0,0,.07.41l0-.1a1.12,1.12,0,0,0,.28.43.53.53,0,0,0,.39.11,2.92,2.92,0,0,0,1.46-.75,7.2,7.2,0,0,0,1.39-1.5,6.11,6.11,0,0,0,.91-1.84v.09a4,4,0,0,0-.2-2,7.6,7.6,0,0,0-1.1-2l-.36-.46-.38-.45a8.13,8.13,0,0,0-.8-.81,7.57,7.57,0,0,0-1.87-1.27l0-.17a7.56,7.56,0,0,1,2,1.09,11.69,11.69,0,0,1,1.72,1.62,8.11,8.11,0,0,1,1.34,2,4.94,4.94,0,0,1,.41,2.5h0a7.17,7.17,0,0,1-1,2.25,8.88,8.88,0,0,1-1.5,1.83,4.08,4.08,0,0,1-2,1.1,1.64,1.64,0,0,1-1.12-.22,2.29,2.29,0,0,1-.79-.94h0a2.54,2.54,0,0,1-.06-1.84,3.25,3.25,0,0,1,1.06-1.39,7.46,7.46,0,0,1,3-1.33,9.11,9.11,0,0,1,1.59-.21,7.59,7.59,0,0,1,.8,0l.2,0h.11l.1,0,.39.1A5.19,5.19,0,0,1,312.3,440a5.43,5.43,0,0,1,.82,1.58,6,6,0,0,1,.22,1.83,6.87,6.87,0,0,1-1.11,3.39c-.16.24-.33.49-.5.71a6.8,6.8,0,0,1-.55.66,4.83,4.83,0,0,1-1.35,1,3,3,0,0,1-1.6.33,2.19,2.19,0,0,1-1.48-.78h0a2.75,2.75,0,0,1-.33-1.57,3.06,3.06,0,0,1,.55-1.48,3.31,3.31,0,0,1,2.44-1.46h0a6.61,6.61,0,0,1,2.73-.23h0a4.47,4.47,0,0,1,2.27,1.37,4.86,4.86,0,0,1,1.2,2.57h0a6.28,6.28,0,0,1-.09,1.55,4.77,4.77,0,0,1-.2.75,5.52,5.52,0,0,1-.33.68,5.15,5.15,0,0,1-2.05,2,8,8,0,0,1-2.61.83,15.7,15.7,0,0,1-2.7.14Z" fill="#8dc63f"/><polygon points="401.16 51.26 395.88 49.92 391.9 54.08 391.39 47.98 386.66 45 391.63 42.57 392.68 36.56 396.27 41.16 401.65 40.42 398.89 45.7 401.16 51.26" fill="#f9ed32"/><polygon points="77.25 246.44 71.96 245.1 67.99 249.27 67.48 243.17 62.74 240.19 67.72 237.75 68.77 231.74 72.35 236.34 77.73 235.61 74.97 240.88 77.25 246.44" fill="#b9e5fb"/><polygon points="356.4 198.47 351.12 197.13 347.14 201.29 346.63 195.2 341.9 192.21 346.87 189.78 347.92 183.77 351.5 188.37 356.89 187.63 354.13 192.91 356.4 198.47" fill="#b9e5fb"/><polygon points="77.77 156.59 72.09 155.15 67.82 159.63 67.27 153.08 62.19 149.88 67.53 147.26 68.66 140.81 72.51 145.75 78.28 144.96 75.32 150.62 77.77 156.59" fill="#f99d1c"/><polygon points="338.93 115.04 335.85 114.26 333.54 116.68 333.25 113.14 330.5 111.41 333.39 110 334 106.5 336.08 109.17 339.21 108.75 337.6 111.81 338.93 115.04" fill="#f99d1c"/><polygon points="28.36 184.43 25.29 183.65 22.98 186.07 22.69 182.53 19.94 180.79 22.83 179.38 23.44 175.89 25.52 178.56 28.64 178.14 27.04 181.2 28.36 184.43" fill="#f99d1c"/><polygon points="413.07 129.34 409.99 128.56 407.69 130.97 407.39 127.43 404.64 125.7 407.53 124.29 408.14 120.8 410.22 123.47 413.35 123.04 411.74 126.1 413.07 129.34" fill="#f99d1c"/><polygon points="305.15 537.3 300.1 536.02 296.3 540 295.82 534.18 291.3 531.33 296.05 529.01 297.05 523.27 300.47 527.66 305.61 526.96 302.97 531.99 305.15 537.3" fill="#ffc20e"/><polygon points="309.48 42.49 304.19 41.16 300.22 45.32 299.71 39.22 294.98 36.24 299.95 33.81 301 27.8 304.58 32.39 309.96 31.66 307.2 36.93 309.48 42.49" fill="#f9ed32"/><polygon points="164.9 148.43 159.61 147.09 155.64 151.26 155.13 145.16 150.4 142.18 155.37 139.74 156.42 133.73 160 138.33 165.38 137.6 162.62 142.87 164.9 148.43" fill="#f9ed32"/><polygon points="61.06 55.1 55.77 53.76 51.8 57.93 51.29 51.83 46.56 48.85 51.53 46.41 52.58 40.4 56.16 45 61.54 44.27 58.78 49.54 61.06 55.1" fill="#eae857"/><polygon points="15.59 463.43 10.3 462.09 6.32 466.26 5.82 460.16 1.08 457.18 6.06 454.75 7.11 448.73 10.69 453.33 16.07 452.6 13.31 457.87 15.59 463.43" fill="#f9ed32"/><ellipse cx="63.84" cy="289.75" rx="2.46" ry="2.78" fill="#ee2a7b"/><ellipse cx="194.04" cy="415.87" rx="2.46" ry="2.78" fill="#ee2a7b"/><ellipse cx="363.29" cy="249.67" rx="2.46" ry="2.78" fill="#ee2a7b"/><ellipse cx="234.21" cy="269.77" rx="2.46" ry="2.79" fill="#ee2a7b"/><ellipse cx="140.89" cy="349.06" rx="2.46" ry="2.78" fill="#b9e5fb"/><ellipse cx="295.99" cy="228.26" rx="2.46" ry="2.79" fill="#b9e5fb"/><ellipse cx="351.86" cy="276.64" rx="2.46" ry="2.79" fill="#b9e5fb"/><ellipse cx="410.29" cy="153.48" rx="2.46" ry="2.79" fill="#b9e5fb"/><ellipse cx="343.75" cy="139.56" rx="2.46" ry="2.79" fill="#b9e5fb"/><ellipse cx="33.1" cy="207.4" rx="2.46" ry="2.79" fill="#b9e5fb"/><ellipse cx="2.79" cy="340.91" rx="2.46" ry="2.79" fill="#b9e5fb"/><ellipse cx="85.17" cy="458.79" rx="2.46" ry="2.79" fill="#b9e5fb"/><ellipse cx="111.64" cy="133.54" rx="2.46" ry="2.79" fill="#eae857"/><ellipse cx="281.82" cy="169.22" rx="2.46" ry="2.79" fill="#ee2a7b"/><ellipse cx="438.87" cy="454.23" rx="2.46" ry="2.78" fill="#ee2a7b"/><ellipse cx="100.31" cy="439.3" rx="6.22" ry="7.03" fill="#f7aebe"/><ellipse cx="54.05" cy="261.87" rx="4.1" ry="4.63" fill="#f7aebe"/><ellipse cx="244.52" cy="363.44" rx="6.97" ry="7.87" fill="#f7aebe"/><ellipse cx="291.14" cy="253.98" rx="4.1" ry="4.63" fill="#f7aebe"/><ellipse cx="330.75" cy="384.77" rx="4.1" ry="4.63" fill="#f7aebe"/><ellipse cx="166.79" cy="244.29" rx="4.1" ry="4.63" fill="#d7df23"/><ellipse cx="79.49" cy="355.14" rx="4.1" ry="4.63" fill="#d7df23"/><ellipse cx="261.61" cy="472.53" rx="4.1" ry="4.63" fill="#d7df23"/><ellipse cx="378.13" cy="136.78" rx="4.1" ry="4.63" fill="#8dc63f"/><ellipse cx="435.54" cy="150.22" rx="8.46" ry="9.56" fill="#fac1c0"/><ellipse cx="8.21" cy="193.28" rx="5.42" ry="6.12" fill="#f7aebe"/><ellipse cx="60.41" cy="193.28" rx="0.75" ry="0.66" transform="translate(-133.47 251.77) rotate(-89.43)" fill="#fffcdd"/></g><g id="card-0-2-hats"><g id="card-0-2-hat-1"><path d="M244.52,158.94a160.22,160.22,0,0,1-16.25.82c-2.84,0-5.43-.08-7.72-.18L219.3,163a.85.85,0,0,0-.18.5c0,2.76,16,10,35.86,10s35.86-7.22,35.86-10a.85.85,0,0,0-.18-.5L285.22,148q-4.3,2.08-8.93,3.8A129.22,129.22,0,0,1,244.52,158.94Z" fill="#901b5a"/><path d="M272.16,111.7,269,102.87q-4.08,1.34-8.34,2.48a161.23,161.23,0,0,1-22.07,4.2L237,113.78l-2.36,6.54a146.23,146.23,0,0,0,19.48-3.05A122.41,122.41,0,0,0,272.16,111.7Z" fill="#901b5a"/><path d="M264.07,89.26,255,64,244.12,94.14c4-.68,8.48-1.61,13.2-2.87C259.47,90.7,261.73,90,264.07,89.26Z" fill="#901b5a"/><path d="M229.34,135.17l-3.64,10.1a145.27,145.27,0,0,0,17.72-.75c10.63-1.12,24.17-3.86,36.87-10.25l-3.22-9A138,138,0,0,1,257,131.45,160,160,0,0,1,229.34,135.17Z" fill="#901b5a"/><path d="M225.7,145.27l-5.15,14.3c2.29.11,4.88.18,7.72.18a160.22,160.22,0,0,0,16.25-.82,129.22,129.22,0,0,0,31.78-7.17q4.63-1.72,8.93-3.8l-4.93-13.7c-12.7,6.39-26.24,9.13-36.87,10.25A145.27,145.27,0,0,1,225.7,145.27Z" fill="#e4d732"/><path d="M272.16,111.7a122.41,122.41,0,0,1-18,5.56,146.23,146.23,0,0,1-19.48,3.05l-5.35,14.85A160,160,0,0,0,257,131.45a138,138,0,0,0,20.11-6.13l-4.17-11.55Z" fill="#e4d732"/><path d="M269,102.87l-4.9-13.6c-2.34.76-4.6,1.43-6.75,2-4.71,1.26-9.18,2.18-13.2,2.87l-5.56,15.41a161.23,161.23,0,0,0,22.07-4.2Q264.89,104.21,269,102.87Z" fill="#e4d732"/></g><g id="card-0-2-hat-0"><path d="M144.78,157.38a160.22,160.22,0,0,1-16.25.82c-2.84,0-5.43-.08-7.72-.18l-1.24,3.45a.85.85,0,0,0-.18.5c0,2.76,16,10,35.86,10s35.86-7.22,35.86-10a.85.85,0,0,0-.18-.5l-5.43-15.05q-4.3,2.08-8.93,3.8A129.22,129.22,0,0,1,144.78,157.38Z" fill="#e4d732"/><path d="M172.42,110.15l-3.18-8.84q-4.08,1.34-8.34,2.48a161.23,161.23,0,0,1-22.07,4.2l-1.52,4.23L135,118.76a146.23,146.23,0,0,0,19.48-3.05A122.41,122.41,0,0,0,172.42,110.15Z" fill="#e4d732"/><path d="M164.33,87.7l-9.1-25.24L144.39,92.58c4-.68,8.48-1.61,13.2-2.87C159.73,89.14,162,88.47,164.33,87.7Z" fill="#e4d732"/><path d="M129.6,133.61,126,143.72a145.27,145.27,0,0,0,17.72-.75c10.63-1.12,24.17-3.86,36.87-10.25l-3.22-9a138,138,0,0,1-20.11,6.13A160,160,0,0,1,129.6,133.61Z" fill="#e4d732"/><path d="M126,143.72,120.81,158c2.29.11,4.88.18,7.72.18a160.22,160.22,0,0,0,16.25-.82,129.22,129.22,0,0,0,31.78-7.17q4.63-1.72,8.93-3.8l-4.93-13.7c-12.7,6.39-26.24,9.13-36.87,10.25A145.27,145.27,0,0,1,126,143.72Z" fill="#d91a25"/><path d="M172.42,110.15a122.41,122.41,0,0,1-18,5.56A146.23,146.23,0,0,1,135,118.76l-5.35,14.85a160,160,0,0,0,27.62-3.72,138,138,0,0,0,20.11-6.13l-4.17-11.55Z" fill="#d91a25"/><path d="M169.24,101.31l-4.9-13.6c-2.34.76-4.6,1.43-6.75,2-4.71,1.26-9.18,2.18-13.2,2.87L138.83,108a161.23,161.23,0,0,0,22.07-4.2Q165.16,102.66,169.24,101.31Z" fill="#d91a25"/><polygon points="155.24 45.32 156.49 50.36 160.09 46.62 158.67 51.63 163.64 50.2 159.92 53.81 164.94 55.07 159.92 56.34 163.64 59.95 158.67 58.52 160.09 63.52 156.49 59.79 155.24 64.83 153.98 59.79 150.39 63.52 151.81 58.52 146.84 59.95 150.55 56.34 145.54 55.07 150.55 53.81 146.84 50.2 151.81 51.63 150.39 46.62 153.98 50.36 155.24 45.32" fill="#ed1c24"/></g></g><g id="card-0-2-text"><path d="M46.33,346.16l14.5-37.75h5.38l15.45,37.75H76l-4.4-11.43H55.78l-4.15,11.43Zm10.89-15.5H70L66.08,320.2q-1.8-4.76-2.68-7.83a48.12,48.12,0,0,1-2,7.21Z" fill="#da2731"/><path d="M85,346.16V308.41h4.64v37.75Z" fill="#da2731"/><path d="M96.67,346.16V308.41h4.64v37.75Z" fill="#da2731"/><path d="M127.21,337.35l4.79.59a11.69,11.69,0,0,1-4.2,6.51,14.22,14.22,0,0,1-17.34-1.38q-3.51-3.7-3.51-10.36,0-6.9,3.55-10.71a12,12,0,0,1,9.22-3.81,11.69,11.69,0,0,1,9,3.73q3.48,3.73,3.48,10.51,0,.41,0,1.24H111.74a10.51,10.51,0,0,0,2.55,6.9A7.59,7.59,0,0,0,120,343a7.09,7.09,0,0,0,4.35-1.34A8.89,8.89,0,0,0,127.21,337.35ZM112,329.86h15.27a9.26,9.26,0,0,0-1.75-5.18,7.1,7.1,0,0,0-5.74-2.68,7.36,7.36,0,0,0-5.37,2.14A8.46,8.46,0,0,0,112,329.86Z" fill="#da2731"/><path d="M136,338l4.58-.72a6.41,6.41,0,0,0,2.15,4.22,7.49,7.49,0,0,0,4.93,1.47,7.24,7.24,0,0,0,4.74-1.3,3.89,3.89,0,0,0,1.55-3.05,2.82,2.82,0,0,0-1.36-2.47,20.1,20.1,0,0,0-4.74-1.57,43.24,43.24,0,0,1-7.07-2.23,6.75,6.75,0,0,1-4-6.27,7,7,0,0,1,.84-3.39,7.5,7.5,0,0,1,2.28-2.59,9.55,9.55,0,0,1,2.95-1.35,14,14,0,0,1,4-.55,15.83,15.83,0,0,1,5.65.93,7.69,7.69,0,0,1,3.59,2.51,9.81,9.81,0,0,1,1.6,4.24l-4.53.62a5,5,0,0,0-1.79-3.3,6.55,6.55,0,0,0-4.18-1.18q-3.19,0-4.56,1.06a3.07,3.07,0,0,0-1.36,2.47,2.56,2.56,0,0,0,.57,1.62,4.09,4.09,0,0,0,1.78,1.24q.7.26,4.09,1.18a57,57,0,0,1,6.86,2.15,7,7,0,0,1,3.05,2.43,6.79,6.79,0,0,1,1.11,4,7.78,7.78,0,0,1-1.35,4.36,8.74,8.74,0,0,1-3.9,3.17,14.2,14.2,0,0,1-5.77,1.12q-5.33,0-8.12-2.21A10.3,10.3,0,0,1,136,338Z" fill="#da2731"/><path d="M178.74,346.16V308.41h4.64v37.75Z" fill="#da2731"/><path d="M190.58,313.74v-5.33h4.64v5.33Zm0,32.42V318.81h4.64v27.35Z" fill="#da2731"/><path d="M221,337.35l4.79.59a11.69,11.69,0,0,1-4.2,6.51,14.22,14.22,0,0,1-17.34-1.38q-3.51-3.7-3.51-10.36,0-6.9,3.55-10.71a12,12,0,0,1,9.22-3.81,11.69,11.69,0,0,1,9,3.73q3.48,3.73,3.48,10.51,0,.41,0,1.24H205.52a10.51,10.51,0,0,0,2.55,6.9,7.59,7.59,0,0,0,5.72,2.39,7.09,7.09,0,0,0,4.35-1.34A8.89,8.89,0,0,0,221,337.35Zm-15.22-7.49H221a9.26,9.26,0,0,0-1.75-5.18,7.1,7.1,0,0,0-5.74-2.68,7.36,7.36,0,0,0-5.37,2.14A8.46,8.46,0,0,0,205.78,329.86Z" fill="#da2731"/><path d="M235.88,346.16h-4.3V308.41h4.64v13.47a9.17,9.17,0,0,1,7.49-3.68,11.48,11.48,0,0,1,4.78,1,9.75,9.75,0,0,1,3.71,2.86,13.82,13.82,0,0,1,2.28,4.44,18.31,18.31,0,0,1,.82,5.56q0,7-3.48,10.87a10.87,10.87,0,0,1-8.34,3.84,8.71,8.71,0,0,1-7.6-4Zm-.05-13.88q0,4.92,1.34,7.11a6.63,6.63,0,0,0,11.18.94q2.21-2.64,2.21-7.87t-2.12-7.91A6.47,6.47,0,0,0,243.3,322a6.67,6.67,0,0,0-5.25,2.64Q235.83,327.28,235.83,332.28Z" fill="#da2731"/><path d="M279.66,337.35l4.79.59a11.69,11.69,0,0,1-4.2,6.51,14.22,14.22,0,0,1-17.34-1.38q-3.51-3.7-3.51-10.36,0-6.9,3.55-10.71a12,12,0,0,1,9.22-3.81,11.69,11.69,0,0,1,9,3.73q3.48,3.73,3.48,10.51,0,.41,0,1.24H264.18a10.51,10.51,0,0,0,2.55,6.9,7.59,7.59,0,0,0,5.72,2.39,7.09,7.09,0,0,0,4.35-1.34A8.89,8.89,0,0,0,279.66,337.35Zm-15.22-7.49h15.27a9.26,9.26,0,0,0-1.75-5.18,7.1,7.1,0,0,0-5.74-2.68,7.36,7.36,0,0,0-5.37,2.14A8.46,8.46,0,0,0,264.44,329.86Z" fill="#da2731"/><path d="M302.47,346.16V342.4l17.41-20q-3,.15-5.23.15H303.5v-3.76h22.35v3.06L311,339.23l-2.86,3.17q3.12-.23,5.85-.23h12.64v4Z" fill="#da2731"/><path d="M349.21,346.16v-4a10,10,0,0,1-8.68,4.64,11.06,11.06,0,0,1-4.52-.93,7.44,7.44,0,0,1-3.12-2.33,8.73,8.73,0,0,1-1.43-3.44,23.54,23.54,0,0,1-.28-4.33V318.81h4.64V334a27,27,0,0,0,.28,4.89,4.83,4.83,0,0,0,1.85,2.87,5.74,5.74,0,0,0,3.5,1,7.63,7.63,0,0,0,3.91-1.07A5.94,5.94,0,0,0,348,338.8a14.6,14.6,0,0,0,.76-5.34V318.81h4.64v27.35Z" fill="#da2731"/><path d="M360.61,346.16V318.81h4.15v3.84a9.75,9.75,0,0,1,3.42-3.23,9.62,9.62,0,0,1,4.87-1.22,9,9,0,0,1,5,1.26,6.75,6.75,0,0,1,2.74,3.53q3.24-4.79,8.45-4.79a8.32,8.32,0,0,1,6.26,2.25q2.19,2.25,2.19,6.94v18.77h-4.61V328.93a12.68,12.68,0,0,0-.45-4,3.88,3.88,0,0,0-1.64-2,5.1,5.1,0,0,0-2.78-.75,6.47,6.47,0,0,0-4.79,1.92q-1.91,1.92-1.91,6.14v15.89h-4.64V328.39a7.82,7.82,0,0,0-1.13-4.64,4.29,4.29,0,0,0-3.71-1.55,6.74,6.74,0,0,0-3.62,1,5.84,5.84,0,0,0-2.41,3,17,17,0,0,0-.75,5.72v14.19Z" fill="#da2731"/><path d="M106.74,392.63V388.2l16,0v14a28.24,28.24,0,0,1-7.6,4.42,22.53,22.53,0,0,1-8,1.48A21.44,21.44,0,0,1,97,405.7a15.75,15.75,0,0,1-6.86-6.89,21.69,21.69,0,0,1-2.32-10.07,23.36,23.36,0,0,1,2.3-10.29,15.33,15.33,0,0,1,6.63-7.09,20.78,20.78,0,0,1,10-2.32,19.74,19.74,0,0,1,7.4,1.33,12.27,12.27,0,0,1,5.19,3.7,16.39,16.39,0,0,1,2.86,6.18l-4.51,1.24a14,14,0,0,0-2.11-4.53,8.66,8.66,0,0,0-3.61-2.64,13.22,13.22,0,0,0-5.2-1,15.32,15.32,0,0,0-5.92,1,11.05,11.05,0,0,0-4,2.74,13.08,13.08,0,0,0-2.38,3.73,19.76,19.76,0,0,0-1.44,7.6,18.43,18.43,0,0,0,1.74,8.45,11.12,11.12,0,0,0,5.06,5,15.67,15.67,0,0,0,7.06,1.65,16.76,16.76,0,0,0,6.33-1.25,16.35,16.35,0,0,0,4.69-2.67v-7Z" fill="#da2731"/><path d="M148.23,398.63l4.79.59a11.69,11.69,0,0,1-4.2,6.51,14.22,14.22,0,0,1-17.34-1.38Q128,400.67,128,394q0-6.9,3.55-10.71a12,12,0,0,1,9.22-3.81,11.69,11.69,0,0,1,9,3.73q3.48,3.73,3.48,10.51,0,.41,0,1.24H132.75a10.51,10.51,0,0,0,2.55,6.9,7.59,7.59,0,0,0,5.72,2.39,7.09,7.09,0,0,0,4.35-1.34A8.89,8.89,0,0,0,148.23,398.63ZM133,391.14h15.27a9.26,9.26,0,0,0-1.75-5.18,7.1,7.1,0,0,0-5.74-2.68,7.36,7.36,0,0,0-5.37,2.14A8.46,8.46,0,0,0,133,391.14Z" fill="#da2731"/><path d="M163.11,407.44h-4.3V369.69h4.64v13.47a9.17,9.17,0,0,1,7.49-3.68,11.48,11.48,0,0,1,4.78,1,9.75,9.75,0,0,1,3.71,2.86,13.82,13.82,0,0,1,2.28,4.44,18.31,18.31,0,0,1,.82,5.56q0,7-3.48,10.87a10.87,10.87,0,0,1-8.34,3.84,8.71,8.71,0,0,1-7.6-4Zm-.05-13.88q0,4.92,1.34,7.11a6.63,6.63,0,0,0,11.18.94q2.21-2.64,2.21-7.87t-2.12-7.91a6.47,6.47,0,0,0-5.14-2.55,6.67,6.67,0,0,0-5.25,2.64Q163.06,388.56,163.06,393.56Z" fill="#da2731"/><path d="M206.09,407.44v-4a10,10,0,0,1-8.68,4.64,11.06,11.06,0,0,1-4.52-.93,7.44,7.44,0,0,1-3.12-2.33,8.73,8.73,0,0,1-1.43-3.44,23.54,23.54,0,0,1-.28-4.33V380.09h4.64v15.17a27,27,0,0,0,.28,4.89,4.83,4.83,0,0,0,1.85,2.87,5.74,5.74,0,0,0,3.5,1,7.63,7.63,0,0,0,3.91-1.07,5.94,5.94,0,0,0,2.59-2.91,14.6,14.6,0,0,0,.76-5.34V380.09h4.64v27.35Z" fill="#da2731"/><path d="M217.44,407.44V380.09h4.17v4.15a11.31,11.31,0,0,1,2.95-3.84,5.15,5.15,0,0,1,3-.93A9,9,0,0,1,232.3,381l-1.6,4.3a6.63,6.63,0,0,0-3.4-1,4.41,4.41,0,0,0-2.73.91,5,5,0,0,0-1.73,2.54,18.05,18.05,0,0,0-.77,5.41v14.32Z" fill="#da2731"/><path d="M245.18,403.29l.67,4.09a17.19,17.19,0,0,1-3.5.41,7.93,7.93,0,0,1-3.91-.8,4.47,4.47,0,0,1-2-2.1,16.6,16.6,0,0,1-.57-5.47V383.7h-3.4v-3.61h3.4v-6.77l4.61-2.78v9.55h4.66v3.61h-4.66v16a8.08,8.08,0,0,0,.24,2.55,1.93,1.93,0,0,0,.8.9,3.08,3.08,0,0,0,1.58.33A15.08,15.08,0,0,0,245.18,403.29Z" fill="#da2731"/><path d="M247.85,399.28l4.58-.72a6.41,6.41,0,0,0,2.15,4.22,7.49,7.49,0,0,0,4.93,1.47,7.24,7.24,0,0,0,4.74-1.3,3.89,3.89,0,0,0,1.55-3.05,2.82,2.82,0,0,0-1.36-2.47,20.1,20.1,0,0,0-4.74-1.57,43.24,43.24,0,0,1-7.07-2.23,6.75,6.75,0,0,1-4-6.27,7,7,0,0,1,.84-3.39,7.5,7.5,0,0,1,2.28-2.59,9.55,9.55,0,0,1,2.95-1.35,14,14,0,0,1,4-.55,15.83,15.83,0,0,1,5.65.93,7.69,7.69,0,0,1,3.59,2.51,9.81,9.81,0,0,1,1.6,4.24l-4.53.62a5,5,0,0,0-1.79-3.3,6.55,6.55,0,0,0-4.18-1.18q-3.19,0-4.56,1.06a3.07,3.07,0,0,0-1.36,2.47,2.56,2.56,0,0,0,.57,1.62,4.09,4.09,0,0,0,1.78,1.24q.7.26,4.09,1.18a57,57,0,0,1,6.86,2.15,7,7,0,0,1,3.05,2.43,6.79,6.79,0,0,1,1.11,4,7.78,7.78,0,0,1-1.35,4.36,8.74,8.74,0,0,1-3.9,3.17,14.2,14.2,0,0,1-5.77,1.12q-5.33,0-8.12-2.21A10.3,10.3,0,0,1,247.85,399.28Z" fill="#da2731"/><path d="M286.2,403.29l.67,4.09a17.19,17.19,0,0,1-3.5.41,7.93,7.93,0,0,1-3.91-.8,4.47,4.47,0,0,1-2-2.1,16.6,16.6,0,0,1-.57-5.47V383.7h-3.4v-3.61h3.4v-6.77l4.61-2.78v9.55h4.66v3.61h-4.66v16a8.08,8.08,0,0,0,.24,2.55,1.93,1.93,0,0,0,.8.9,3.08,3.08,0,0,0,1.58.33A15.08,15.08,0,0,0,286.2,403.29Z" fill="#da2731"/><path d="M308.57,404.07a17.26,17.26,0,0,1-5,3.09,14.32,14.32,0,0,1-5.11.9q-4.51,0-6.93-2.2a7.27,7.27,0,0,1-2.42-5.63,7.48,7.48,0,0,1,.91-3.67,7.57,7.57,0,0,1,2.39-2.67,11.26,11.26,0,0,1,3.33-1.52,33.12,33.12,0,0,1,4.12-.7,42.37,42.37,0,0,0,8.27-1.6q0-1,0-1.21,0-2.83-1.31-4a7.76,7.76,0,0,0-5.28-1.57,8.19,8.19,0,0,0-4.83,1.15,7,7,0,0,0-2.3,4.06l-4.53-.62a11.23,11.23,0,0,1,2-4.7,8.92,8.92,0,0,1,4.09-2.76,18.26,18.26,0,0,1,6.21-1,16.43,16.43,0,0,1,5.69.82,7.5,7.5,0,0,1,3.22,2.07,7.29,7.29,0,0,1,1.44,3.15,26.1,26.1,0,0,1,.23,4.27V396a65.6,65.6,0,0,0,.3,8.18,10.31,10.31,0,0,0,1.17,3.28H309.5A9.83,9.83,0,0,1,308.57,404.07Zm-.39-10.35a34,34,0,0,1-7.57,1.75,17.51,17.51,0,0,0-4,.93,4,4,0,0,0-1.83,1.51,4.1,4.1,0,0,0,.76,5.29,6,6,0,0,0,4.11,1.24,9.56,9.56,0,0,0,4.76-1.17,7.21,7.21,0,0,0,3.06-3.21,11.2,11.2,0,0,0,.75-4.64Z" fill="#da2731"/><path d="M319.21,409.71l4.51.67a4.29,4.29,0,0,0,1.57,3A7.72,7.72,0,0,0,330,414.7a8.28,8.28,0,0,0,5-1.29,6.34,6.34,0,0,0,2.37-3.61,29.6,29.6,0,0,0,.33-5.95,9.53,9.53,0,0,1-7.57,3.58,10.32,10.32,0,0,1-8.73-4.07,15.67,15.67,0,0,1-3.09-9.76,18.16,18.16,0,0,1,1.42-7.22,11.33,11.33,0,0,1,4.11-5.11,11.09,11.09,0,0,1,6.32-1.8,9.8,9.8,0,0,1,8,3.91v-3.3h4.27v23.64q0,6.39-1.3,9.05A9.51,9.51,0,0,1,337,417a14.28,14.28,0,0,1-6.94,1.55,13.09,13.09,0,0,1-7.91-2.2Q319.1,414.13,319.21,409.71ZM323,393.28q0,5.38,2.14,7.85a7.05,7.05,0,0,0,10.71,0q2.16-2.46,2.16-7.71,0-5-2.23-7.57a6.89,6.89,0,0,0-5.37-2.55,6.69,6.69,0,0,0-5.25,2.51Q323,388.33,323,393.28Z" fill="#da2731"/><path d="M351.86,398.07l-1.42-20v-8.37h5.74v8.37l-1.34,20Zm-1.21,9.37v-5.28H356v5.28Z" fill="#da2731"/></g></svg>